<?xml version="1.0" encoding="UTF-8" standalone="no"?>
<svg
   width="1.6in"
   height="2.4in"
   viewBox="0 0 480 720"
   version="1.1"
   id="svg1"
   xmlns:xlink="http://www.w3.org/1999/xlink"
   xmlns="http://www.w3.org/2000/svg"
   xmlns:svg="http://www.w3.org/2000/svg">
  <defs
     id="defs1">
    <pattern
       xlink:href="#tiles-1"
       id="pattern10"
       patternTransform="matrix(4.5903638,0,0,4.5924794,76.51986,373.82137)"
       x="-2"
       y="-3"
       preserveAspectRatio="none" />
    <pattern
       patternUnits="userSpaceOnUse"
       width="15.021545"
       height="25.90893"
       patternTransform="translate(76.218461,373.73705)"
       style="fill:#d0972d"
       id="tiles-1">
      <path
         id="path5144"
         style="opacity:1;stroke-width:4.85611;stroke-linecap:square;paint-order:stroke markers fill;stop-color:#000000"
         d="M 7.510773,0 15.021545,12.95447 7.51077,25.90893 0,12.95447 Z" />
    </pattern>
    <linearGradient
       id="swatch8">
      <stop
         style="stop-color:#e6e6e6;stop-opacity:1;"
         offset="0"
         id="stop9" />
    </linearGradient>
  </defs>
  <path
     id="path1"
     fill="none"
     stroke="#000000"
     stroke-width="1"
     d="m 21.00714,0.64565841 c 0,0 39,-0.64 39,-0.64 0,0 76,0 76,0 0,0 240,0 240,0 0,0 75,0 75,0 2.66,0 5.42,-0.11 8,0.64 8.79,2.51999999 18.41,12.39999959 20.47,21.35999959 0.61,2.62 0.53,5.33 0.53,8 0,0 0,530.000002 0,530.000002 0,0 0,129 0,129 0,2.67 0.08,5.38 -0.53,8 -2.35,10.19 -13.4,20.16 -23.47,22.47 -2.62,0.61 -5.33,0.53 -8,0.53 0,0 -344,0 -344,0 0,0 -75,0 -75,0 -2.66,0 -5.42,0.11 -8,-0.64 -8.79,-2.52 -18.4099998,-12.4 -20.4699998,-21.36 -0.61,-2.62 -0.53,-5.33 -0.53,-8 0,0 0,-523 0,-523 0,0 0,-120.000002 0,-120.000002 0,0 0.53,-25 0.53,-25 2.28,-9.9 11.2699998,-17.9199996 20.4699998,-21.35999959 z"
     style="display:inline;fill:#ffffff;fill-opacity:1;stroke:none;stroke-width:0.9;stroke-linecap:butt;stroke-dasharray:none" />
  <path
     id="Auswahl #4"
     fill="none"
     stroke="#000000"
     stroke-width="1"
     d="m 21.417073,1.3342959 c 0,0 38.918303,-0.63895369 38.918303,-0.63895369 0,0 75.840794,0 75.840794,0 0,0 239.49725,0 239.49725,0 0,0 74.84289,0 74.84289,0 2.65443,0 5.40864,-0.10982017 7.98324,0.63895369 8.77159,2.51588 18.37144,12.3797271 20.42712,21.3250781 0.60872,2.615717 0.52889,5.321287 0.52889,7.986921 0,0 0,529.133515 0,529.133515 0,0 0,128.7891 0,128.7891 0,2.66563 0.0798,5.37121 -0.52889,7.98692 -2.34508,10.17334 -13.37192,20.12704 -23.42084,22.43327 -2.61451,0.609 -5.31882,0.52913 -7.98323,0.52913 0,0 -343.27939,0 -343.27939,0 0,0 -74.842895,0 -74.842895,0 -2.654428,0 -5.408647,0.10982 -7.983242,-0.63896 -8.771587,-2.51587 -18.3714347,-12.37972 -20.42711946,-21.32508 -0.60872215,-2.61571 -0.52888975,-5.32127 -0.52888975,-7.98691 0,0 0,-522.14496 0,-522.14496 0,0 0,-119.803817 0,-119.803817 0,0 0.52888975,-24.959129 0.52888975,-24.959129 C 3.2651774,12.77556 12.236346,4.7686719 21.417073,1.3342959 Z"
     style="display:inline;fill:url(#pattern10);fill-opacity:1;stroke-width:0.898322;stroke-linecap:butt;stroke-dasharray:none" />
  <path
     id="Auswahl #4-6"
     fill="none"
     stroke="#000000"
     stroke-width="0.998128"
     d="m 21.459001,1.2006017 c 0,0 38.918158,-0.63894644 38.918158,-0.63894644 0,0 75.840521,0 75.840521,0 0,0 239.49638,0 239.49638,0 0,0 74.84261,0 74.84261,0 2.65442,0 5.40863,-0.10981892 7.98321,0.63894644 8.77155,2.5158514 18.37137,12.3795863 20.42705,21.3248353 0.60872,2.615687 0.52889,5.321226 0.52889,7.986831 0,0 0,529.127492 0,529.127492 0,0 0,128.78763 0,128.78763 0,2.6656 0.0798,5.37114 -0.52889,7.98682 -2.34507,10.17324 -13.37188,20.12682 -23.42075,22.43301 -2.6145,0.60899 -5.31882,0.52912 -7.98321,0.52912 0,0 -343.27815,0 -343.27815,0 0,0 -74.842607,0 -74.842607,0 -2.654418,0 -5.408626,0.10983 -7.983212,-0.63894 -8.771555,-2.51585 -18.3713687,-12.37959 -20.4270456,-21.32483 -0.60872005,-2.61568 -0.52888798,-5.32122 -0.52888798,-7.98683 0,0 0,-522.13901 0,-522.13901 0,0 0,-119.802449 0,-119.802449 0,0 0.52888798,-24.958844 0.52888798,-24.958844 C 3.3071705,12.641736 12.278306,4.6349385 21.459001,1.2006017 Z"
     style="display:inline;fill:#edae00;fill-opacity:0.811765" />
  <text
     xml:space="preserve"
     style="font-style:normal;font-variant:normal;font-weight:normal;font-stretch:normal;font-size:158.333px;font-family:'MV Boli';-inkscape-font-specification:'MV Boli, Normal';font-variant-ligatures:normal;font-variant-caps:normal;font-variant-numeric:normal;font-variant-east-asian:normal;display:inline;fill:#658dd8;fill-opacity:1;stroke:#000000;stroke-width:5.8924"
     x="-464.11749"
     y="-590.51898"
     id="text1-1"
     transform="scale(-1.0027661,-0.99724151)"><tspan
       id="tspan1-1"
       style="font-style:normal;font-variant:normal;font-weight:normal;font-stretch:normal;font-size:158.333px;font-family:'MV Boli';-inkscape-font-specification:'MV Boli, Normal';font-variant-ligatures:normal;font-variant-caps:normal;font-variant-numeric:normal;font-variant-east-asian:normal;fill:#658dd8;fill-opacity:1;stroke-width:5.8924"
       x="-464.11749"
       y="-590.51898">2</tspan></text>
  <text
     xml:space="preserve"
     style="font-style:normal;font-variant:normal;font-weight:normal;font-stretch:normal;font-size:158.333px;font-family:'MV Boli';-inkscape-font-specification:'MV Boli, Normal';font-variant-ligatures:normal;font-variant-caps:normal;font-variant-numeric:normal;font-variant-east-asian:normal;display:inline;fill:#658dd8;fill-opacity:1;stroke:#000000;stroke-width:5.8924"
     x="13.846888"
     y="129.07863"
     id="text1-1-2"
     transform="scale(1.0027661,0.99724153)"><tspan
       id="tspan1-1-2"
       style="font-style:normal;font-variant:normal;font-weight:normal;font-stretch:normal;font-size:158.333px;font-family:'MV Boli';-inkscape-font-specification:'MV Boli, Normal';font-variant-ligatures:normal;font-variant-caps:normal;font-variant-numeric:normal;font-variant-east-asian:normal;fill:#658dd8;fill-opacity:1;stroke-width:5.8924"
       x="13.846888"
       y="129.07863">2</tspan></text>
  <path
     id="Auswahl-47-8"
     fill="none"
     stroke="#000000"
     stroke-width="1"
     d="m 173.29124,402.87332 18.12455,-16.51387 c 15.96253,-12.97429 22.89757,-14.17383 32.91395,-17.22273 11.55894,-1.49226 34.29065,-10.29677 50.39599,22.47324 4.74807,9.66849 6.53794,26.24168 6.50027,44.37976 -2.54192,37.35078 -14.46643,55.059 -57.55221,92.68871 -33.03826,30.05912 -44.78031,78.13307 -44.78031,78.13307 0,0 -49.47317,-38.63994 -62.12337,-52.10404 -40.809848,-42.74822 -46.341554,-46.70183 -56.276011,-91.55197 -6.26545,-39.24642 2.3516,-78.34558 23.240862,-97.44003 24.413679,-17.87672 69.193349,-22.02155 80.912249,12.92649 3.52236,10.15607 5.90363,16.94831 8.64403,24.23137 z"
     style="display:inline;fill:#658dd8;fill-opacity:1;stroke-width:4.43437;stroke-dasharray:none" />
  <path
     id="Auswahl-47-8-9"
     fill="none"
     stroke="#000000"
     stroke-width="1"
     d="m 337.35813,130.99243 18.12455,-16.51387 c 15.96253,-12.97429 22.89757,-14.17383 32.91395,-17.222732 11.55894,-1.49226 34.29065,-10.29677 50.39599,22.473242 4.74807,9.66849 6.53794,26.24168 6.50027,44.37976 -2.54192,37.35078 -14.46643,55.059 -57.55221,92.68871 -33.03826,30.05912 -44.78031,78.13307 -44.78031,78.13307 0,0 -49.47317,-38.63994 -62.12337,-52.10404 -40.80985,-42.74822 -46.34155,-46.70183 -56.27601,-91.55197 -6.26545,-39.24642 2.3516,-78.34558 23.24086,-97.440032 24.41368,-17.87672 69.19335,-22.02155 80.91225,12.926492 3.52236,10.15607 5.90363,16.94831 8.64403,24.23137 z"
     style="display:inline;fill:#658dd8;fill-opacity:1;stroke-width:4.43437;stroke-dasharray:none" />
  <path
     id="Auswahl-47-8-9-9"
     fill="none"
     stroke="#000000"
     stroke-width="1"
     d="m 72.207077,162.15942 8.28144,-7.20538 c 7.29358,-5.66097 10.46232,-6.18436 15.03899,-7.51466 5.281503,-0.6511 15.668033,-4.49271 23.026863,9.80558 2.16948,4.21858 2.9873,11.44983 2.97009,19.36388 -1.16145,16.29698 -6.60998,24.02347 -26.296663,40.44216 -15.09579,13.11546 -20.46095,34.0912 -20.46095,34.0912 0,0 -22.6052,-16.85947 -28.38531,-22.73415 -18.64678,-18.65201 -21.17431,-20.37706 -25.71355,-39.94617 -2.8628,-17.12409 1.07449,-34.18393 10.61918,-42.51527 11.15506,-7.80001 31.61571,-9.6085 36.9703,5.64012 1.60943,4.43132 2.69747,7.39492 3.94961,10.57269 z"
     style="display:inline;fill:#658dd8;fill-opacity:1;stroke-width:1.97995;stroke-dasharray:none" />
  <path
     id="Auswahl-47-8-9-9-5"
     fill="none"
     stroke="#000000"
     stroke-width="1"
     d="m 411.25227,550.04059 -8.28144,7.20538 c -7.29358,5.66097 -10.46232,6.18436 -15.03899,7.51466 -5.2815,0.6511 -15.66803,4.4927 -23.02686,-9.80558 -2.16948,-4.21858 -2.9873,-11.44983 -2.97009,-19.36388 1.16145,-16.29698 6.60998,-24.02347 26.29666,-40.44216 15.09579,-13.11546 20.46095,-34.0912 20.46095,-34.0912 0,0 22.6052,16.85946 28.38531,22.73414 18.64678,18.65201 21.17431,20.37707 25.71355,39.94617 2.8628,17.12409 -1.07449,34.18393 -10.61918,42.51527 -11.15506,7.80001 -31.61571,9.6085 -36.9703,-5.64012 -1.60943,-4.43132 -2.69747,-7.39492 -3.94961,-10.57268 z"
     style="display:inline;fill:#658dd8;fill-opacity:1;stroke-width:1.97995;stroke-dasharray:none" />
</svg>
