<?xml version="1.0" encoding="UTF-8" standalone="no"?>
<svg
   width="1.6in"
   height="2.4in"
   viewBox="0 0 480 720"
   version="1.1"
   id="svg1"
   sodipodi:docname="herzA.svg"
   inkscape:version="1.3.2 (091e20e, 2023-11-25, custom)"
   xmlns:inkscape="http://www.inkscape.org/namespaces/inkscape"
   xmlns:sodipodi="http://sodipodi.sourceforge.net/DTD/sodipodi-0.dtd"
   xmlns:xlink="http://www.w3.org/1999/xlink"
   xmlns="http://www.w3.org/2000/svg"
   xmlns:svg="http://www.w3.org/2000/svg">
  <defs
     id="defs1">
    <pattern
       inkscape:collect="always"
       xlink:href="#tiles-1"
       id="pattern10"
       patternTransform="matrix(4.6,0,0,4.6,76.218461,373.73705)"
       x="-2"
       y="-3"
       preserveAspectRatio="none" />
    <pattern
       patternUnits="userSpaceOnUse"
       width="15.021545"
       height="25.90893"
       patternTransform="translate(76.218461,373.73705)"
       style="fill:#d0972d"
       id="tiles-1"
       inkscape:label="Kacheln 1"
       inkscape:collect="always"
       inkscape:isstock="true">
      <path
         id="path5144"
         style="opacity:1;stroke-width:4.85611;stroke-linecap:square;paint-order:stroke markers fill;stop-color:#000000"
         d="M 7.510773,0 15.021545,12.95447 7.51077,25.90893 0,12.95447 Z"
         sodipodi:nodetypes="ccccc" />
    </pattern>
    <linearGradient
       id="swatch8"
       inkscape:swatch="solid">
      <stop
         style="stop-color:#e6e6e6;stop-opacity:1;"
         offset="0"
         id="stop9" />
    </linearGradient>
  </defs>
  <sodipodi:namedview
     id="namedview1"
     pagecolor="#ffffff"
     bordercolor="#000000"
     borderopacity="0.25"
     inkscape:showpageshadow="2"
     inkscape:pageopacity="0.0"
     inkscape:pagecheckerboard="0"
     inkscape:deskcolor="#d1d1d1"
     inkscape:document-units="in"
     inkscape:zoom="1.4142136"
     inkscape:cx="173.24116"
     inkscape:cy="186.32264"
     inkscape:window-width="1920"
     inkscape:window-height="1009"
     inkscape:window-x="-8"
     inkscape:window-y="-8"
     inkscape:window-maximized="1"
     inkscape:current-layer="svg1" />
  <path
     id="Auswahl #4"
     fill="none"
     stroke="#000000"
     stroke-width="1"
     d="M 21,0.64 C 21,0.64 60,0 60,0 c 0,0 76,0 76,0 0,0 240,0 240,0 0,0 75,0 75,0 2.66,0 5.42,-0.11 8,0.64 8.79,2.52 18.41,12.4 20.47,21.36 0.61,2.62 0.53,5.33 0.53,8 0,0 0,530 0,530 0,0 0,129 0,129 0,2.67 0.08,5.38 -0.53,8 -2.35,10.19 -13.4,20.16 -23.47,22.47 -2.62,0.61 -5.33,0.53 -8,0.53 0,0 -344,0 -344,0 0,0 -75,0 -75,0 -2.66,0 -5.42,0.11 -8,-0.64 C 12.21,716.84 2.59,706.96 0.53,698 -0.08,695.38 0,692.67 0,690 0,690 0,167 0,167 0,167 0,47 0,47 0,47 0.53,22 0.53,22 2.81,12.1 11.8,4.08 21,0.64 Z"
     style="fill:url(#pattern10);fill-opacity:1;stroke-width:0.9;stroke-linecap:butt;stroke-dasharray:none" />
  <path
     id="Auswahl #4-6"
     fill="none"
     stroke="#000000"
     stroke-width="1"
     d="m 21.040171,0.64451702 c 0,0 38.999997,-0.64 38.999997,-0.64 0,0 75.999992,0 75.999992,0 0,0 240,0 240,0 0,0 75,0 75,0 2.66,0 5.42,-0.11 8,0.64 8.79,2.51999998 18.41,12.39999998 20.47,21.35999998 0.61,2.62 0.53,5.33 0.53,8 0,0 0,529.999993 0,529.999993 0,0 0,129 0,129 0,2.67 0.08,5.38 -0.53,8 -2.35,10.19 -13.4,20.16 -23.47,22.47 -2.62,0.61 -5.33,0.53 -8,0.53 0,0 -344,0 -344,0 0,0 -74.999989,0 -74.999989,0 -2.66,0 -5.42,0.11 -8,-0.64 -8.79,-2.52 -18.4100004,-12.4 -20.47000035,-21.36 -0.61000002,-2.62 -0.53000002,-5.33 -0.53000002,-8 0,0 0,-523 0,-523 0,0 0,-119.999993 0,-119.999993 0,0 0.53000002,-25 0.53000002,-25 2.27999995,-9.9 11.27000035,-17.92 20.47000035,-21.35999998 z"
     style="fill:#edae00;fill-opacity:0.811765" />
  <path
     id="Auswahl-47-8"
     fill="none"
     stroke="#000000"
     stroke-width="1"
     d="m 235.73679,304.89812 21.98818,-20.07798 c 19.36529,-15.77447 27.77868,-17.2329 39.93026,-20.93983 14.02297,-1.81433 41.60043,-12.51907 61.13897,27.32353 5.76022,11.7552 7.93164,31.9053 7.88594,53.95803 -3.08379,45.41202 -17.55026,66.94212 -69.82069,112.69327 -40.08106,36.54664 -54.32618,94.99616 -54.32618,94.99616 0,0 -60.01943,-46.97941 -75.36628,-63.3494 -49.50934,-51.97437 -56.22025,-56.78127 -68.272449,-111.3112 -7.60107,-47.71679 2.852889,-95.25453 28.195149,-118.47005 29.61798,-21.73496 83.94338,-26.77435 98.16041,15.71636 4.27323,12.348 7.16212,20.60618 10.48669,29.46111 z"
     sodipodi:nodetypes="cccccccccccc"
     style="fill:#658dd8;fill-opacity:1;stroke-width:5.38553;stroke-dasharray:none" />
  <path
     id="Auswahl-47-8-9-9"
     fill="none"
     stroke="#000000"
     stroke-width="1"
     d="m 72.666204,158.00576 5.100162,-4.53397 c 4.491784,-3.56216 6.443267,-3.8915 9.26183,-4.72859 3.252638,-0.4097 9.649229,-2.82703 14.181194,6.17014 1.33609,2.65454 1.83975,7.20479 1.82915,12.18469 -0.71529,10.25485 -4.070789,15.11673 -16.194922,25.44817 -9.29681,8.25288 -12.600968,21.45183 -12.600968,21.45183 0,0 -13.921515,-10.6088 -17.481222,-14.30543 -11.483703,-11.73675 -13.040294,-12.82223 -15.835806,-25.13606 -1.763068,-10.77531 0.66173,-21.51018 6.53987,-26.75266 6.869895,-4.90815 19.470678,-6.04614 22.768327,3.54903 0.991175,2.7884 1.661249,4.65324 2.432385,6.65285 z"
     sodipodi:nodetypes="cccccccccccc"
     style="fill:#658dd8;fill-opacity:1;stroke-width:1.23255;stroke-dasharray:none" />
  <path
     id="Auswahl-47-8-9-9-5"
     fill="none"
     stroke="#000000"
     stroke-width="1"
     d="m 407.64654,560.41332 -5.10017,4.53397 c -4.49178,3.56216 -6.44326,3.8915 -9.26182,4.72859 -3.25264,0.4097 -9.64923,2.82703 -14.1812,-6.17014 -1.33609,-2.65454 -1.83975,-7.20479 -1.82915,-12.18469 0.71529,-10.25485 4.07079,-15.11673 16.19492,-25.44817 9.29681,-8.25288 12.60097,-21.45183 12.60097,-21.45183 0,0 13.92152,10.6088 17.48122,14.30543 11.48371,11.73675 13.0403,12.82223 15.83581,25.13606 1.76307,10.77531 -0.66173,21.51018 -6.53987,26.75266 -6.8699,4.90815 -19.47068,6.04614 -22.76833,-3.54903 -0.99117,-2.7884 -1.66125,-4.65324 -2.43238,-6.65285 z"
     sodipodi:nodetypes="cccccccccccc"
     style="fill:#658dd8;fill-opacity:1;stroke-width:1.23255;stroke-dasharray:none" />
  <path
     id="Auswahl-47-8-1"
     fill="none"
     stroke="#000000"
     stroke-width="1"
     d="m 104.83317,93.004708 c 32.05136,4.738487 22.34137,10.575022 18.52419,65.571812 -17.2017,0.9451 -11.22822,0.62909 -11.6432,-15.34655 C 110.56023,98.806334 133.25542,109.8435 54.630281,97.342208 62.97805,97.055583 56.935434,83.157624 62.136343,84.685225 74.89978,88.43409 87.616248,96.547593 97.963317,82.37226 95.078248,68.964848 79.777946,40.602046 79.777946,40.602046 L 27.541939,157.86117 c 0,0 -8.090637,-7.80934 -21.9621452,-0.50433 C 18.971476,115.84568 59.291134,88.191804 52.202834,58.753042 48.542571,37.661052 57.970705,35.855389 74.910788,24.440419 c 3.7496,-2.526637 17.882038,-9.214737 20.58321,-11.486138 -5.728393,27.994389 34.765672,67.243908 9.339172,80.050427 z"
     sodipodi:nodetypes="ccscscccccscc"
     style="fill:#658dd8;fill-opacity:1;stroke-width:3.03465;stroke-dasharray:none" />
  <path
     id="Auswahl-47-8-1-8"
     fill="none"
     stroke="#000000"
     stroke-width="1"
     d="m 371.71072,631.43636 c -32.05136,-4.73849 -22.34137,-10.57502 -18.52419,-65.57181 17.2017,-0.9451 11.22822,-0.62909 11.6432,15.34655 1.15393,44.42363 -21.54126,33.38647 57.08388,45.88776 -8.34777,0.28663 -2.30515,14.18458 -7.50606,12.65698 -12.76344,-3.74886 -25.47991,-11.86237 -35.82698,2.31297 2.88507,13.40741 18.18537,41.77021 18.18537,41.77021 L 449.00195,566.5799 c 0,0 8.09064,7.80934 21.96215,0.50433 -13.39169,41.51116 -53.71134,69.16503 -46.62304,98.6038 3.66026,21.09199 -5.76787,22.89765 -22.70796,34.31262 -3.7496,2.52664 -17.88204,9.21474 -20.58321,11.48614 5.7284,-27.99439 -34.76567,-67.24391 -9.33917,-80.05043 z"
     sodipodi:nodetypes="ccscscccccscc"
     style="fill:#658dd8;fill-opacity:1;stroke-width:3.03465;stroke-dasharray:none" />
</svg>
