<?xml version="1.0" encoding="UTF-8" standalone="no"?>
<svg
   width="1.6in"
   height="2.4in"
   viewBox="0 0 480 720"
   version="1.1"
   id="svg1"
   sodipodi:docname="herz9.svg"
   inkscape:version="1.3.2 (091e20e, 2023-11-25, custom)"
   xmlns:inkscape="http://www.inkscape.org/namespaces/inkscape"
   xmlns:sodipodi="http://sodipodi.sourceforge.net/DTD/sodipodi-0.dtd"
   xmlns:xlink="http://www.w3.org/1999/xlink"
   xmlns="http://www.w3.org/2000/svg"
   xmlns:svg="http://www.w3.org/2000/svg">
  <defs
     id="defs1">
    <pattern
       inkscape:collect="always"
       xlink:href="#tiles-1"
       id="pattern10"
       patternTransform="matrix(4.6,0,0,4.6,76.218461,373.73705)"
       x="-2"
       y="-3"
       preserveAspectRatio="none" />
    <pattern
       patternUnits="userSpaceOnUse"
       width="15.021545"
       height="25.90893"
       patternTransform="translate(76.218461,373.73705)"
       style="fill:#d0972d"
       id="tiles-1"
       inkscape:label="Kacheln 1"
       inkscape:collect="always"
       inkscape:isstock="true">
      <path
         id="path5144"
         style="opacity:1;stroke-width:4.85611;stroke-linecap:square;paint-order:stroke markers fill;stop-color:#000000"
         d="M 7.510773,0 15.021545,12.95447 7.51077,25.90893 0,12.95447 Z"
         sodipodi:nodetypes="ccccc" />
    </pattern>
    <linearGradient
       id="swatch8"
       inkscape:swatch="solid">
      <stop
         style="stop-color:#e6e6e6;stop-opacity:1;"
         offset="0"
         id="stop9" />
    </linearGradient>
  </defs>
  <sodipodi:namedview
     id="namedview1"
     pagecolor="#ffffff"
     bordercolor="#000000"
     borderopacity="0.25"
     inkscape:showpageshadow="2"
     inkscape:pageopacity="0.0"
     inkscape:pagecheckerboard="0"
     inkscape:deskcolor="#d1d1d1"
     inkscape:document-units="in"
     inkscape:zoom="2"
     inkscape:cx="130"
     inkscape:cy="123.75"
     inkscape:window-width="1920"
     inkscape:window-height="1009"
     inkscape:window-x="-8"
     inkscape:window-y="-8"
     inkscape:window-maximized="1"
     inkscape:current-layer="svg1" />
  <path
     id="Auswahl #4"
     fill="none"
     stroke="#000000"
     stroke-width="1"
     d="M 21,0.64 C 21,0.64 60,0 60,0 c 0,0 76,0 76,0 0,0 240,0 240,0 0,0 75,0 75,0 2.66,0 5.42,-0.11 8,0.64 8.79,2.52 18.41,12.4 20.47,21.36 0.61,2.62 0.53,5.33 0.53,8 0,0 0,530 0,530 0,0 0,129 0,129 0,2.67 0.08,5.38 -0.53,8 -2.35,10.19 -13.4,20.16 -23.47,22.47 -2.62,0.61 -5.33,0.53 -8,0.53 0,0 -344,0 -344,0 0,0 -75,0 -75,0 -2.66,0 -5.42,0.11 -8,-0.64 C 12.21,716.84 2.59,706.96 0.53,698 -0.08,695.38 0,692.67 0,690 0,690 0,167 0,167 0,167 0,47 0,47 0,47 0.53,22 0.53,22 2.81,12.1 11.8,4.08 21,0.64 Z"
     style="fill:url(#pattern10);fill-opacity:1;stroke-width:0.9;stroke-linecap:butt;stroke-dasharray:none" />
  <path
     id="Auswahl #4-6"
     fill="none"
     stroke="#000000"
     stroke-width="1"
     d="m 21.040171,0.64451702 c 0,0 38.999997,-0.64 38.999997,-0.64 0,0 75.999992,0 75.999992,0 0,0 240,0 240,0 0,0 75,0 75,0 2.66,0 5.42,-0.11 8,0.64 8.79,2.51999998 18.41,12.39999998 20.47,21.35999998 0.61,2.62 0.53,5.33 0.53,8 0,0 0,529.999993 0,529.999993 0,0 0,129 0,129 0,2.67 0.08,5.38 -0.53,8 -2.35,10.19 -13.4,20.16 -23.47,22.47 -2.62,0.61 -5.33,0.53 -8,0.53 0,0 -344,0 -344,0 0,0 -74.999989,0 -74.999989,0 -2.66,0 -5.42,0.11 -8,-0.64 -8.79,-2.52 -18.4100004,-12.4 -20.47000035,-21.36 -0.61000002,-2.62 -0.53000002,-5.33 -0.53000002,-8 0,0 0,-523 0,-523 0,0 0,-119.999993 0,-119.999993 0,0 0.53000002,-25 0.53000002,-25 2.27999995,-9.9 11.27000035,-17.92 20.47000035,-21.35999998 z"
     style="fill:#edae00;fill-opacity:0.811765" />
  <text
     xml:space="preserve"
     style="font-style:normal;font-variant:normal;font-weight:normal;font-stretch:normal;font-size:158.333px;font-family:'MV Boli';-inkscape-font-specification:'MV Boli, Normal';font-variant-ligatures:normal;font-variant-caps:normal;font-variant-numeric:normal;font-variant-east-asian:normal;fill:#658dd8;fill-opacity:1;stroke:#000000;stroke-width:5.8924"
     x="-464.11038"
     y="-590.51331"
     id="text1-1"
     transform="scale(-1.0027661,-0.99724149)"><tspan
       id="tspan1-1"
       style="font-style:normal;font-variant:normal;font-weight:normal;font-stretch:normal;font-size:158.333px;font-family:'MV Boli';-inkscape-font-specification:'MV Boli, Normal';font-variant-ligatures:normal;font-variant-caps:normal;font-variant-numeric:normal;font-variant-east-asian:normal;fill:#658dd8;fill-opacity:1;stroke-width:5.8924"
       x="-464.11038"
       y="-590.51331"
       sodipodi:role="line">9</tspan></text>
  <text
     xml:space="preserve"
     style="font-style:normal;font-variant:normal;font-weight:normal;font-stretch:normal;font-size:158.333px;font-family:'MV Boli';-inkscape-font-specification:'MV Boli, Normal';font-variant-ligatures:normal;font-variant-caps:normal;font-variant-numeric:normal;font-variant-east-asian:normal;fill:#658dd8;fill-opacity:1;stroke:#000000;stroke-width:5.8924"
     x="13.839767"
     y="129.07295"
     id="text1-1-2"
     transform="scale(1.0027661,0.99724153)"><tspan
       id="tspan1-1-2"
       style="font-style:normal;font-variant:normal;font-weight:normal;font-stretch:normal;font-size:158.333px;font-family:'MV Boli';-inkscape-font-specification:'MV Boli, Normal';font-variant-ligatures:normal;font-variant-caps:normal;font-variant-numeric:normal;font-variant-east-asian:normal;fill:#658dd8;fill-opacity:1;stroke-width:5.8924"
       x="13.839767"
       y="129.07295"
       sodipodi:role="line">9</tspan></text>
  <path
     id="Auswahl-47-8-9-2-4-0"
     fill="none"
     stroke="#000000"
     stroke-width="1"
     d="m 383.33605,60.305662 9.27987,-8.093164 c 8.17292,-6.35847 11.7237,-6.94635 16.85214,-8.44056 5.91824,-0.73134 17.55701,-5.04627 25.80304,11.013734 2.43103,4.73836 3.34746,12.86059 3.32817,21.74975 -1.30148,18.30496 -7.40689,26.983448 -29.46706,45.425098 -16.91578,14.73145 -22.92778,38.29165 -22.92778,38.29165 0,0 -25.33054,-18.93676 -31.80752,-25.53528 -20.89488,-20.95015 -23.72714,-22.88774 -28.81364,-44.868008 -3.20795,-19.23397 1.20404,-38.395794 11.89945,-47.753654 12.49995,-8.76106 35.4274,-10.79237 41.42754,6.33505 1.80347,4.977314 3.02269,8.306084 4.42579,11.875384 z"
     sodipodi:nodetypes="cccccccccccc"
     style="fill:#658dd8;fill-opacity:1;stroke-width:2.22128;stroke-dasharray:none" />
  <path
     id="Auswahl-47-8-9-2-4-2"
     fill="none"
     stroke="#000000"
     stroke-width="1"
     d="m 252.08603,329.05565 9.27987,-8.09317 c 8.17292,-6.35847 11.7237,-6.94635 16.85214,-8.44056 5.91824,-0.73133 17.55701,-5.04627 25.80304,11.01374 2.43103,4.73836 3.34746,12.86059 3.32817,21.74975 -1.30148,18.30495 -7.40689,26.98344 -29.46706,45.42509 -16.91578,14.73145 -22.92778,38.29165 -22.92778,38.29165 0,0 -25.33054,-18.93676 -31.80752,-25.53528 -20.89487,-20.95015 -23.72713,-22.88774 -28.81363,-44.868 -3.20795,-19.23397 1.20404,-38.39579 11.89945,-47.75365 12.49994,-8.76106 35.42739,-10.79237 41.42753,6.33505 1.80347,4.97731 3.02269,8.30607 4.42579,11.87538 z"
     sodipodi:nodetypes="cccccccccccc"
     style="fill:#658dd8;fill-opacity:1;stroke-width:2.22128;stroke-dasharray:none" />
  <path
     id="Auswahl-47-8-9-2-4-2-2"
     fill="none"
     stroke="#000000"
     stroke-width="1"
     d="m 241.14853,172.80565 9.27987,-8.09317 c 8.17292,-6.35847 11.7237,-6.94635 16.85214,-8.44056 5.91824,-0.73133 17.55701,-5.04627 25.80304,11.01374 2.43103,4.73836 3.34746,12.86059 3.32817,21.74975 -1.30148,18.30495 -7.40689,26.98344 -29.46706,45.42509 -16.91578,14.73145 -22.92778,38.29165 -22.92778,38.29165 0,0 -25.33054,-18.93676 -31.80752,-25.53528 -20.89487,-20.95015 -23.72713,-22.88774 -28.81363,-44.868 -3.20795,-19.23397 1.20404,-38.39579 11.89945,-47.75365 12.49994,-8.76106 35.42739,-10.79237 41.42753,6.33505 1.80347,4.97731 3.02269,8.30607 4.42579,11.87538 z"
     sodipodi:nodetypes="cccccccccccc"
     style="fill:#658dd8;fill-opacity:1;stroke-width:2.22128;stroke-dasharray:none" />
  <path
     id="Auswahl-47-8-9-2-4-2-4"
     fill="none"
     stroke="#000000"
     stroke-width="1"
     d="m 384.89852,229.05566 9.27987,-8.09317 c 8.17292,-6.35847 11.7237,-6.94635 16.85214,-8.44056 5.91824,-0.73133 17.55701,-5.04627 25.80304,11.01374 2.43103,4.73836 3.34746,12.86059 3.32817,21.74975 -1.30148,18.30495 -7.40689,26.98344 -29.46706,45.42509 -16.91578,14.73145 -22.92778,38.29165 -22.92778,38.29165 0,0 -25.33054,-18.93676 -31.80752,-25.53528 -20.89487,-20.95015 -23.72713,-22.88774 -28.81363,-44.868 -3.20795,-19.23397 1.20404,-38.39579 11.89945,-47.75365 12.49994,-8.76106 35.42739,-10.79237 41.42753,6.33505 1.80347,4.97731 3.02269,8.30607 4.42579,11.87538 z"
     sodipodi:nodetypes="cccccccccccc"
     style="fill:#658dd8;fill-opacity:1;stroke-width:2.22128;stroke-dasharray:none" />
  <path
     id="Auswahl-47-8-9-2-4-2-4-3"
     fill="none"
     stroke="#000000"
     stroke-width="1"
     d="m 108.33604,422.80564 9.27987,-8.09317 c 8.17292,-6.35847 11.7237,-6.94635 16.85214,-8.44056 5.91824,-0.73133 17.55701,-5.04627 25.80304,11.01374 2.43103,4.73836 3.34746,12.86059 3.32817,21.74975 -1.30148,18.30495 -7.40689,26.98344 -29.46706,45.42509 -16.91578,14.73145 -22.92778,38.29165 -22.92778,38.29165 0,0 -25.330543,-18.93676 -31.807523,-25.53528 -20.89487,-20.95015 -23.72713,-22.88774 -28.81363,-44.868 -3.20795,-19.23397 1.20404,-38.39579 11.89945,-47.75365 12.49994,-8.76106 35.427394,-10.79237 41.427533,6.33505 1.80347,4.97731 3.02269,8.30607 4.42579,11.87538 z"
     sodipodi:nodetypes="cccccccccccc"
     style="fill:#658dd8;fill-opacity:1;stroke-width:2.22128;stroke-dasharray:none" />
  <path
     id="Auswahl-47-8-9-2-4-8"
     fill="none"
     stroke="#000000"
     stroke-width="1"
     d="m 114.58605,268.11815 9.27987,-8.09316 c 8.17292,-6.35847 11.7237,-6.94635 16.85214,-8.44056 5.91824,-0.73134 17.55701,-5.04627 25.80304,11.01374 2.43103,4.73835 3.34746,12.86058 3.32817,21.74974 -1.30148,18.30496 -7.40689,26.98345 -29.46706,45.4251 -16.91578,14.73145 -22.92778,38.29165 -22.92778,38.29165 0,0 -25.33055,-18.93676 -31.80753,-25.53528 -20.894878,-20.95015 -23.727138,-22.88774 -28.813638,-44.868 -3.207946,-19.23398 1.20404,-38.3958 11.89945,-47.75366 12.499949,-8.76106 35.427398,-10.79237 41.427548,6.33505 1.80347,4.97731 3.02269,8.30608 4.42579,11.87538 z"
     sodipodi:nodetypes="cccccccccccc"
     style="fill:#658dd8;fill-opacity:1;stroke-width:2.22128;stroke-dasharray:none" />
  <path
     id="Auswahl-47-8-9-2-4-7"
     fill="none"
     stroke="#000000"
     stroke-width="1"
     d="m 384.89854,379.05564 9.27987,-8.09316 c 8.17292,-6.35847 11.7237,-6.94635 16.85214,-8.44056 5.91824,-0.73134 17.55701,-5.04627 25.80304,11.01374 2.43103,4.73836 3.34746,12.86058 3.32817,21.74974 -1.30148,18.30496 -7.40689,26.98345 -29.46706,45.4251 -16.91578,14.73145 -22.92778,38.29165 -22.92778,38.29165 0,0 -25.33054,-18.93676 -31.80752,-25.53528 -20.89488,-20.95015 -23.72714,-22.88774 -28.81364,-44.868 -3.20795,-19.23398 1.20404,-38.39579 11.89945,-47.75365 12.49995,-8.76107 35.4274,-10.79237 41.42754,6.33504 1.80347,4.97731 3.02269,8.30608 4.42579,11.87538 z"
     sodipodi:nodetypes="cccccccccccc"
     style="fill:#658dd8;fill-opacity:1;stroke-width:2.22128;stroke-dasharray:none" />
  <path
     id="Auswahl-47-8-9-2-4-5"
     fill="none"
     stroke="#000000"
     stroke-width="1"
     d="m 247.39855,499.36813 9.27986,-8.09316 c 8.17292,-6.35847 11.7237,-6.94635 16.85214,-8.44056 5.91824,-0.73134 17.55701,-5.04627 25.80304,11.01374 2.43103,4.73835 3.34746,12.86058 3.32817,21.74974 -1.30148,18.30496 -7.40689,26.98345 -29.46706,45.4251 -16.91578,14.73145 -22.92777,38.29165 -22.92777,38.29165 0,0 -25.33055,-18.93676 -31.80753,-25.53528 -20.89488,-20.95015 -23.72714,-22.88774 -28.81364,-44.868 -3.20795,-19.23398 1.20404,-38.39579 11.89945,-47.75365 12.49995,-8.76107 35.4274,-10.79237 41.42755,6.33504 1.80347,4.97731 3.02269,8.30608 4.42579,11.87538 z"
     sodipodi:nodetypes="cccccccccccc"
     style="fill:#658dd8;fill-opacity:1;stroke-width:2.22128;stroke-dasharray:none" />
  <path
     id="Auswahl-47-8-9-2-4-1"
     fill="none"
     stroke="#000000"
     stroke-width="1"
     d="m 95.836041,588.43062 9.279869,-8.09316 c 8.17292,-6.35847 11.7237,-6.94635 16.85214,-8.44056 5.91824,-0.73134 17.55701,-5.04627 25.80304,11.01374 2.43103,4.73836 3.34746,12.86058 3.32817,21.74974 -1.30148,18.30496 -7.40689,26.98345 -29.46706,45.4251 -16.91578,14.73145 -22.927779,38.29165 -22.927779,38.29165 0,0 -25.330538,-18.93676 -31.807518,-25.53528 -20.89488,-20.95015 -23.72714,-22.88774 -28.81364,-44.868 -3.20795,-19.23398 1.20404,-38.39579 11.89945,-47.75365 12.49995,-8.76107 35.427398,-10.79237 41.427538,6.33504 1.80347,4.97731 3.02269,8.30608 4.42579,11.87538 z"
     sodipodi:nodetypes="cccccccccccc"
     style="fill:#658dd8;fill-opacity:1;stroke-width:2.22128;stroke-dasharray:none" />
  <path
     id="Auswahl-47-8-9-9-5"
     fill="none"
     stroke="#000000"
     stroke-width="1"
     d="m 427.20203,560.73119 -6.53377,5.82123 c -5.75439,4.57349 -8.25441,4.99634 -11.86525,6.07109 -4.16692,0.52602 -12.36155,3.62965 -18.1674,-7.92193 -1.71165,-3.40818 -2.35689,-9.2503 -2.3433,-15.64405 0.91634,-13.16632 5.21504,-19.40854 20.74716,-32.67318 11.91006,-10.59597 16.14298,-27.54226 16.14298,-27.54226 0,0 17.83474,13.62075 22.39505,18.36689 14.71167,15.06895 16.70579,16.46262 20.2871,32.27248 2.25865,13.83454 -0.84773,27.61716 -8.37816,34.34804 -8.80097,6.30163 -24.94372,7.76271 -29.1683,-4.55665 -1.2698,-3.58005 -2.12822,-5.97434 -3.11611,-8.54166 z"
     sodipodi:nodetypes="cccccccccccc"
     style="fill:#658dd8;fill-opacity:1;stroke-width:1.58074;stroke-dasharray:none" />
  <path
     id="Auswahl-47-8-9-9-5-0"
     fill="none"
     stroke="#000000"
     stroke-width="1"
     d="m 49.994714,157.7053 6.53377,-5.82123 c 5.75439,-4.57349 8.25441,-4.99634 11.86525,-6.07109 4.16692,-0.52602 12.36155,-3.62965 18.1674,7.92193 1.71165,3.40818 2.35689,9.2503 2.3433,15.64405 -0.91634,13.16632 -5.21504,19.40854 -20.74716,32.67318 -11.91006,10.59597 -16.14299,27.54226 -16.14299,27.54226 0,0 -17.83474,-13.62075 -22.39505,-18.36689 -14.71167,-15.06895 -16.70579,-16.46262 -20.2870998,-32.27248 -2.25865,-13.83454 0.8477298,-27.61716 8.3781598,-34.34804 8.80097,-6.30163 24.94372,-7.76271 29.1683,4.55665 1.2698,3.58005 2.12822,5.97434 3.11612,8.54166 z"
     sodipodi:nodetypes="cccccccccccc"
     style="fill:#658dd8;fill-opacity:1;stroke-width:1.58074;stroke-dasharray:none" />
</svg>
