<?xml version="1.0" encoding="UTF-8" standalone="no"?>
<svg
   width="1.6in"
   height="2.4in"
   viewBox="0 0 480 720"
   version="1.1"
   id="svg1"
   xmlns:xlink="http://www.w3.org/1999/xlink"
   xmlns="http://www.w3.org/2000/svg"
   xmlns:svg="http://www.w3.org/2000/svg">
  <defs
     id="defs1">
    <linearGradient
       id="swatch8">
      <stop
         style="stop-color:#e6e6e6;stop-opacity:1;"
         offset="0"
         id="stop9" />
    </linearGradient>
    <pattern
       xlink:href="#tiles-1"
       id="pattern10"
       patternTransform="matrix(4.5903638,0,0,4.5924794,76.51272,373.81571)"
       x="-2"
       y="-3"
       preserveAspectRatio="none" />
    <pattern
       patternUnits="userSpaceOnUse"
       width="15.021545"
       height="25.90893"
       patternTransform="translate(76.218461,373.73705)"
       style="fill:#d0972d"
       id="tiles-1">
      <path
         id="path5144"
         style="opacity:1;stroke-width:4.85611;stroke-linecap:square;paint-order:stroke markers fill;stop-color:#000000"
         d="M 7.510773,0 15.021545,12.95447 7.51077,25.90893 0,12.95447 Z" />
    </pattern>
  </defs>
  <g
     id="g2"
     transform="translate(0.0071402,0.00565841)">
    <path
       id="path1"
       fill="none"
       stroke="#000000"
       stroke-width="1"
       d="M 21,0.64 C 21,0.64 60,0 60,0 c 0,0 76,0 76,0 0,0 240,0 240,0 0,0 75,0 75,0 2.66,0 5.42,-0.11 8,0.64 8.79,2.52 18.41,12.4 20.47,21.36 0.61,2.62 0.53,5.33 0.53,8 0,0 0,530 0,530 0,0 0,129 0,129 0,2.67 0.08,5.38 -0.53,8 -2.35,10.19 -13.4,20.16 -23.47,22.47 -2.62,0.61 -5.33,0.53 -8,0.53 0,0 -344,0 -344,0 0,0 -75,0 -75,0 -2.66,0 -5.42,0.11 -8,-0.64 C 12.21,716.84 2.59,706.96 0.53,698 -0.08,695.38 0,692.67 0,690 0,690 0,167 0,167 0,167 0,47 0,47 0,47 0.53,22 0.53,22 2.81,12.1 11.8,4.08 21,0.64 Z"
       style="display:inline;fill:#ffffff;fill-opacity:1;stroke:none;stroke-width:0.9;stroke-linecap:butt;stroke-dasharray:none" />
    <path
       id="Auswahl #4"
       fill="none"
       stroke="#000000"
       stroke-width="1"
       d="m 21.409933,1.3286375 c 0,0 38.918303,-0.6389537 38.918303,-0.6389537 0,0 75.840794,0 75.840794,0 0,0 239.49725,0 239.49725,0 0,0 74.84289,0 74.84289,0 2.65443,0 5.40864,-0.10982017 7.98324,0.6389537 8.77159,2.51588 18.37144,12.3797275 20.42712,21.3250785 0.60872,2.615717 0.52889,5.321287 0.52889,7.986921 0,0 0,529.133513 0,529.133513 0,0 0,128.7891 0,128.7891 0,2.66563 0.0798,5.37121 -0.52889,7.98692 -2.34508,10.17334 -13.37192,20.12704 -23.42084,22.43327 -2.61451,0.609 -5.31882,0.52913 -7.98323,0.52913 0,0 -343.27939,0 -343.27939,0 0,0 -74.842895,0 -74.842895,0 -2.654428,0 -5.408647,0.10982 -7.983242,-0.63896 -8.771587,-2.51587 -18.3714349,-12.37972 -20.42711966,-21.32508 -0.60872215,-2.61571 -0.52888975,-5.32127 -0.52888975,-7.98691 0,0 0,-522.14496 0,-522.14496 0,0 0,-119.803815 0,-119.803815 0,0 0.52888975,-24.959129 0.52888975,-24.959129 C 3.2580372,12.769902 12.229206,4.7630135 21.409933,1.3286375 Z"
       style="display:inline;fill:url(#pattern10);fill-opacity:1;stroke-width:0.898322;stroke-linecap:butt;stroke-dasharray:none" />
    <path
       id="Auswahl #4-6"
       fill="none"
       stroke="#000000"
       stroke-width="0.998128"
       d="m 21.451861,1.1949433 c 0,0 38.918158,-0.63894645 38.918158,-0.63894645 0,0 75.840521,0 75.840521,0 0,0 239.49638,0 239.49638,0 0,0 74.84261,0 74.84261,0 2.65442,0 5.40863,-0.10981892 7.98321,0.63894645 8.77155,2.5158514 18.37137,12.3795867 20.42705,21.3248357 0.60872,2.615687 0.52889,5.321226 0.52889,7.986831 0,0 0,529.12749 0,529.12749 0,0 0,128.78763 0,128.78763 0,2.6656 0.0798,5.37114 -0.52889,7.98682 -2.34507,10.17324 -13.37188,20.12682 -23.42075,22.43301 -2.6145,0.60899 -5.31882,0.52912 -7.98321,0.52912 0,0 -343.27815,0 -343.27815,0 0,0 -74.842607,0 -74.842607,0 -2.654418,0 -5.408626,0.10983 -7.983212,-0.63894 -8.771555,-2.51585 -18.3713689,-12.37959 -20.4270458,-21.32483 -0.60872005,-2.61568 -0.52888798,-5.32122 -0.52888798,-7.98683 0,0 0,-522.13901 0,-522.13901 0,0 0,-119.802447 0,-119.802447 0,0 0.52888798,-24.958844 0.52888798,-24.958844 C 3.3000303,12.636078 12.271166,4.6292801 21.451861,1.1949433 Z"
       style="display:inline;fill:#edae00;fill-opacity:0.811765" />
  </g>
  <text
     xml:space="preserve"
     style="font-style:normal;font-variant:normal;font-weight:normal;font-stretch:normal;font-size:158.333px;font-family:'MV Boli';-inkscape-font-specification:'MV Boli, Normal';font-variant-ligatures:normal;font-variant-caps:normal;font-variant-numeric:normal;font-variant-east-asian:normal;fill:#658dd8;fill-opacity:1;stroke:#000000;stroke-width:5.8924"
     x="-464.11038"
     y="-590.51331"
     id="text1-1"
     transform="scale(-1.0027661,-0.99724151)"><tspan
       id="tspan1-1"
       style="font-style:normal;font-variant:normal;font-weight:normal;font-stretch:normal;font-size:158.333px;font-family:'MV Boli';-inkscape-font-specification:'MV Boli, Normal';font-variant-ligatures:normal;font-variant-caps:normal;font-variant-numeric:normal;font-variant-east-asian:normal;fill:#658dd8;fill-opacity:1;stroke-width:5.8924"
       x="-464.11038"
       y="-590.51331">3</tspan></text>
  <text
     xml:space="preserve"
     style="font-style:normal;font-variant:normal;font-weight:normal;font-stretch:normal;font-size:158.333px;font-family:'MV Boli';-inkscape-font-specification:'MV Boli, Normal';font-variant-ligatures:normal;font-variant-caps:normal;font-variant-numeric:normal;font-variant-east-asian:normal;fill:#658dd8;fill-opacity:1;stroke:#000000;stroke-width:5.8924"
     x="13.839767"
     y="129.07295"
     id="text1-1-2"
     transform="scale(1.0027661,0.99724153)"><tspan
       id="tspan1-1-2"
       style="font-style:normal;font-variant:normal;font-weight:normal;font-stretch:normal;font-size:158.333px;font-family:'MV Boli';-inkscape-font-specification:'MV Boli, Normal';font-variant-ligatures:normal;font-variant-caps:normal;font-variant-numeric:normal;font-variant-east-asian:normal;fill:#658dd8;fill-opacity:1;stroke-width:5.8924"
       x="13.839767"
       y="129.07295">3</tspan></text>
  <path
     id="Auswahl-47-8-9"
     fill="none"
     stroke="#000000"
     stroke-width="1"
     d="m 371.82422,103.34446 14.52895,-11.74788 c 12.79585,-9.229841 18.3551,-10.083187 26.3844,-12.252158 9.26585,-1.061586 27.48799,-7.325067 40.39831,15.987338 3.80614,6.87811 5.24093,18.66819 5.21073,31.57153 -2.03765,26.57114 -11.59654,39.16867 -46.13486,65.93824 -26.48405,21.3839 -35.89668,55.58345 -35.89668,55.58345 0,0 -39.65856,-27.48825 -49.79918,-37.06654 -32.71389,-30.41085 -37.1482,-33.22343 -45.11184,-65.12957 -5.02249,-27.91969 1.88509,-55.73463 18.63028,-69.318314 19.57044,-12.717402 55.46661,-15.666012 64.86068,9.195835 2.82359,7.224969 4.73245,12.056939 6.92921,17.238069 z"
     style="fill:#658dd8;fill-opacity:1;stroke-width:3.34866;stroke-dasharray:none" />
  <path
     id="Auswahl-47-8-9-2"
     fill="none"
     stroke="#000000"
     stroke-width="1"
     d="m 249.96145,308.01505 14.52895,-11.74788 c 12.79585,-9.22984 18.3551,-10.08319 26.3844,-12.25216 9.26585,-1.06159 27.48799,-7.32507 40.39831,15.98734 3.80614,6.87811 5.24093,18.66819 5.21073,31.57153 -2.03765,26.57114 -11.59654,39.16867 -46.13486,65.93824 -26.48405,21.3839 -35.89668,55.58345 -35.89668,55.58345 0,0 -39.65856,-27.48825 -49.79918,-37.06654 -32.71389,-30.41085 -37.1482,-33.22343 -45.11184,-65.12957 -5.02249,-27.91969 1.88509,-55.73463 18.63028,-69.31832 19.57044,-12.7174 55.46661,-15.66601 64.86068,9.19584 2.82359,7.22497 4.73245,12.05694 6.92921,17.23807 z"
     style="fill:#658dd8;fill-opacity:1;stroke-width:3.34866;stroke-dasharray:none" />
  <path
     id="Auswahl-47-8-9-0"
     fill="none"
     stroke="#000000"
     stroke-width="1"
     d="m 137.46146,520.51504 14.52895,-11.74788 c 12.79585,-9.22984 18.3551,-10.08318 26.3844,-12.25215 9.26585,-1.06159 27.48799,-7.32507 40.39831,15.98733 3.80614,6.87811 5.24093,18.66819 5.21073,31.57153 -2.03765,26.57114 -11.59654,39.16867 -46.13486,65.93824 -26.48405,21.3839 -35.89668,55.58345 -35.89668,55.58345 0,0 -39.65856,-27.48825 -49.799184,-37.06654 -32.71389,-30.41085 -37.1482,-33.22343 -45.11184,-65.12957 -5.02249,-27.91969 1.88509,-55.73463 18.63028,-69.31831 19.57044,-12.7174 55.466614,-15.66601 64.860684,9.19583 2.82359,7.22497 4.73245,12.05694 6.92921,17.23807 z"
     style="fill:#658dd8;fill-opacity:1;stroke-width:3.34866;stroke-dasharray:none" />
  <path
     id="Auswahl-47-8-9-9"
     fill="none"
     stroke="#000000"
     stroke-width="1"
     d="m 72.199937,162.15376 8.28144,-7.20538 c 7.29358,-5.66097 10.46232,-6.18436 15.03899,-7.51466 5.281503,-0.6511 15.668033,-4.49271 23.026863,9.80558 2.16948,4.21858 2.9873,11.44983 2.97009,19.36388 -1.16145,16.29698 -6.60998,24.02347 -26.296663,40.44216 -15.09579,13.11546 -20.46095,34.0912 -20.46095,34.0912 0,0 -22.6052,-16.85947 -28.38531,-22.73415 -18.64678,-18.65201 -21.17431,-20.37706 -25.71355,-39.94617 -2.8628,-17.12409 1.07449,-34.18393 10.61918,-42.51527 11.15506,-7.80001 31.61571,-9.6085 36.9703,5.64012 1.60943,4.43132 2.69747,7.39492 3.94961,10.57269 z"
     style="fill:#658dd8;fill-opacity:1;stroke-width:1.97995;stroke-dasharray:none" />
  <path
     id="Auswahl-47-8-9-9-5"
     fill="none"
     stroke="#000000"
     stroke-width="1"
     d="m 411.24513,550.03493 -8.28144,7.20538 c -7.29358,5.66097 -10.46232,6.18436 -15.03899,7.51466 -5.2815,0.6511 -15.66803,4.4927 -23.02686,-9.80558 -2.16948,-4.21858 -2.9873,-11.44983 -2.97009,-19.36388 1.16145,-16.29698 6.60998,-24.02347 26.29666,-40.44216 15.09579,-13.11546 20.46095,-34.0912 20.46095,-34.0912 0,0 22.6052,16.85946 28.38531,22.73414 18.64678,18.65201 21.17431,20.37707 25.71355,39.94617 2.8628,17.12409 -1.07449,34.18393 -10.61918,42.51527 -11.15506,7.80001 -31.61571,9.6085 -36.9703,-5.64012 -1.60943,-4.43132 -2.69747,-7.39492 -3.94961,-10.57268 z"
     style="fill:#658dd8;fill-opacity:1;stroke-width:1.97995;stroke-dasharray:none" />
</svg>
