<?xml version="1.0" encoding="UTF-8" standalone="no"?>
<svg
   width="1.6in"
   height="2.4in"
   viewBox="0 0 480 720"
   version="1.1"
   id="svg1"
   sodipodi:docname="herz10.svg"
   inkscape:version="1.3.2 (091e20e, 2023-11-25, custom)"
   xmlns:inkscape="http://www.inkscape.org/namespaces/inkscape"
   xmlns:sodipodi="http://sodipodi.sourceforge.net/DTD/sodipodi-0.dtd"
   xmlns:xlink="http://www.w3.org/1999/xlink"
   xmlns="http://www.w3.org/2000/svg"
   xmlns:svg="http://www.w3.org/2000/svg">
  <defs
     id="defs1">
    <pattern
       inkscape:collect="always"
       xlink:href="#tiles-1"
       id="pattern10"
       patternTransform="matrix(4.6,0,0,4.6,76.218461,373.73705)"
       x="-2"
       y="-3"
       preserveAspectRatio="none" />
    <pattern
       patternUnits="userSpaceOnUse"
       width="15.021545"
       height="25.90893"
       patternTransform="translate(76.218461,373.73705)"
       style="fill:#d0972d"
       id="tiles-1"
       inkscape:label="Kacheln 1"
       inkscape:collect="always"
       inkscape:isstock="true">
      <path
         id="path5144"
         style="opacity:1;stroke-width:4.85611;stroke-linecap:square;paint-order:stroke markers fill;stop-color:#000000"
         d="M 7.510773,0 15.021545,12.95447 7.51077,25.90893 0,12.95447 Z"
         sodipodi:nodetypes="ccccc" />
    </pattern>
    <linearGradient
       id="swatch8"
       inkscape:swatch="solid">
      <stop
         style="stop-color:#e6e6e6;stop-opacity:1;"
         offset="0"
         id="stop9" />
    </linearGradient>
  </defs>
  <sodipodi:namedview
     id="namedview1"
     pagecolor="#ffffff"
     bordercolor="#000000"
     borderopacity="0.25"
     inkscape:showpageshadow="2"
     inkscape:pageopacity="0.0"
     inkscape:pagecheckerboard="0"
     inkscape:deskcolor="#d1d1d1"
     inkscape:document-units="in"
     inkscape:zoom="2"
     inkscape:cx="130"
     inkscape:cy="123.75"
     inkscape:window-width="1920"
     inkscape:window-height="1009"
     inkscape:window-x="-8"
     inkscape:window-y="-8"
     inkscape:window-maximized="1"
     inkscape:current-layer="svg1" />
  <g
     id="g2"
     transform="translate(0.0071402,0.00565841)">
    <path
       id="path1"
       fill="none"
       stroke="#000000"
       stroke-width="1"
       d="M 21,0.64 C 21,0.64 60,0 60,0 c 0,0 76,0 76,0 0,0 240,0 240,0 0,0 75,0 75,0 2.66,0 5.42,-0.11 8,0.64 8.79,2.52 18.41,12.4 20.47,21.36 0.61,2.62 0.53,5.33 0.53,8 0,0 0,530 0,530 0,0 0,129 0,129 0,2.67 0.08,5.38 -0.53,8 -2.35,10.19 -13.4,20.16 -23.47,22.47 -2.62,0.61 -5.33,0.53 -8,0.53 0,0 -344,0 -344,0 0,0 -75,0 -75,0 -2.66,0 -5.42,0.11 -8,-0.64 C 12.21,716.84 2.59,706.96 0.53,698 -0.08,695.38 0,692.67 0,690 0,690 0,167 0,167 0,167 0,47 0,47 0,47 0.53,22 0.53,22 2.81,12.1 11.8,4.08 21,0.64 Z"
       style="display:inline;fill:#ffffff;fill-opacity:1;stroke:none;stroke-width:0.9;stroke-linecap:butt;stroke-dasharray:none" />
    <path
       id="Auswahl #4"
       fill="none"
       stroke="#000000"
       stroke-width="1"
       d="m 21.409933,1.3286375 c 0,0 38.918303,-0.6389537 38.918303,-0.6389537 0,0 75.840794,0 75.840794,0 0,0 239.49725,0 239.49725,0 0,0 74.84289,0 74.84289,0 2.65443,0 5.40864,-0.10982017 7.98324,0.6389537 8.77159,2.51588 18.37144,12.3797275 20.42712,21.3250785 0.60872,2.615717 0.52889,5.321287 0.52889,7.986921 0,0 0,529.133513 0,529.133513 0,0 0,128.7891 0,128.7891 0,2.66563 0.0798,5.37121 -0.52889,7.98692 -2.34508,10.17334 -13.37192,20.12704 -23.42084,22.43327 -2.61451,0.609 -5.31882,0.52913 -7.98323,0.52913 0,0 -343.27939,0 -343.27939,0 0,0 -74.842895,0 -74.842895,0 -2.654428,0 -5.408647,0.10982 -7.983242,-0.63896 -8.771587,-2.51587 -18.3714349,-12.37972 -20.42711966,-21.32508 -0.60872215,-2.61571 -0.52888975,-5.32127 -0.52888975,-7.98691 0,0 0,-522.14496 0,-522.14496 0,0 0,-119.803815 0,-119.803815 0,0 0.52888975,-24.959129 0.52888975,-24.959129 C 3.2580372,12.769902 12.229206,4.7630135 21.409933,1.3286375 Z"
       style="display:inline;fill:url(#pattern10);fill-opacity:1;stroke-width:0.898322;stroke-linecap:butt;stroke-dasharray:none" />
    <path
       id="Auswahl #4-6"
       fill="none"
       stroke="#000000"
       stroke-width="0.998128"
       d="m 21.451861,1.1949433 c 0,0 38.918158,-0.63894645 38.918158,-0.63894645 0,0 75.840521,0 75.840521,0 0,0 239.49638,0 239.49638,0 0,0 74.84261,0 74.84261,0 2.65442,0 5.40863,-0.10981892 7.98321,0.63894645 8.77155,2.5158514 18.37137,12.3795867 20.42705,21.3248357 0.60872,2.615687 0.52889,5.321226 0.52889,7.986831 0,0 0,529.12749 0,529.12749 0,0 0,128.78763 0,128.78763 0,2.6656 0.0798,5.37114 -0.52889,7.98682 -2.34507,10.17324 -13.37188,20.12682 -23.42075,22.43301 -2.6145,0.60899 -5.31882,0.52912 -7.98321,0.52912 0,0 -343.27815,0 -343.27815,0 0,0 -74.842607,0 -74.842607,0 -2.654418,0 -5.408626,0.10983 -7.983212,-0.63894 -8.771555,-2.51585 -18.3713689,-12.37959 -20.4270458,-21.32483 -0.60872005,-2.61568 -0.52888798,-5.32122 -0.52888798,-7.98683 0,0 0,-522.13901 0,-522.13901 0,0 0,-119.802447 0,-119.802447 0,0 0.52888798,-24.958844 0.52888798,-24.958844 C 3.3000303,12.636078 12.271166,4.6292801 21.451861,1.1949433 Z"
       style="display:inline;fill:#edae00;fill-opacity:0.811765" />
  </g>
  <text
     xml:space="preserve"
     style="font-style:normal;font-variant:normal;font-weight:normal;font-stretch:normal;font-size:158.333px;font-family:'MV Boli';-inkscape-font-specification:'MV Boli, Normal';font-variant-ligatures:normal;font-variant-caps:normal;font-variant-numeric:normal;font-variant-east-asian:normal;fill:#658dd8;fill-opacity:1;stroke:#000000;stroke-width:5.8924"
     x="-485.92502"
     y="-595.21375"
     id="text1-1"
     transform="scale(-1.0027661,-0.99724151)"><tspan
       id="tspan1-1"
       style="font-style:normal;font-variant:normal;font-weight:normal;font-stretch:normal;font-size:158.333px;font-family:'MV Boli';-inkscape-font-specification:'MV Boli, Normal';font-variant-ligatures:normal;font-variant-caps:normal;font-variant-numeric:normal;font-variant-east-asian:normal;fill:#658dd8;fill-opacity:1;stroke-width:5.8924"
       x="-485.92502"
       y="-595.21375"
       sodipodi:role="line">10</tspan></text>
  <text
     xml:space="preserve"
     style="font-style:normal;font-variant:normal;font-weight:normal;font-stretch:normal;font-size:158.333px;font-family:'MV Boli';-inkscape-font-specification:'MV Boli, Normal';font-variant-ligatures:normal;font-variant-caps:normal;font-variant-numeric:normal;font-variant-east-asian:normal;fill:#658dd8;fill-opacity:1;stroke:#000000;stroke-width:5.8924"
     x="-4.8585105"
     y="124.37249"
     id="text1-1-2"
     transform="scale(1.0027661,0.99724153)"><tspan
       id="tspan1-1-2"
       style="font-style:normal;font-variant:normal;font-weight:normal;font-stretch:normal;font-size:158.333px;font-family:'MV Boli';-inkscape-font-specification:'MV Boli, Normal';font-variant-ligatures:normal;font-variant-caps:normal;font-variant-numeric:normal;font-variant-east-asian:normal;fill:#658dd8;fill-opacity:1;stroke-width:5.8924"
       x="-4.8585105"
       y="124.37249"
       sodipodi:role="line">10</tspan></text>
  <path
     id="Auswahl-47-8-9-2-4-0"
     fill="none"
     stroke="#000000"
     stroke-width="1"
     d="m 395.83605,185.30566 9.27987,-8.09317 c 8.17292,-6.35847 11.7237,-6.94635 16.85214,-8.44056 5.91824,-0.73134 17.55701,-5.04627 25.80304,11.01374 2.43103,4.73836 3.34746,12.86059 3.32817,21.74975 -1.30148,18.30496 -7.40689,26.98345 -29.46706,45.4251 -16.91578,14.73145 -22.92778,38.29165 -22.92778,38.29165 0,0 -25.33054,-18.93676 -31.80752,-25.53528 -20.89488,-20.95015 -23.72714,-22.88774 -28.81364,-44.86801 -3.20795,-19.23397 1.20404,-38.3958 11.89945,-47.75366 12.49995,-8.76106 35.4274,-10.79237 41.42754,6.33505 1.80347,4.97732 3.02269,8.30609 4.42579,11.87539 z"
     sodipodi:nodetypes="cccccccccccc"
     style="fill:#658dd8;fill-opacity:1;stroke-width:2.22128;stroke-dasharray:none" />
  <path
     id="Auswahl-47-8-9-2-4-2"
     fill="none"
     stroke="#000000"
     stroke-width="1"
     d="m 188.02353,408.74315 9.27987,-8.09317 c 8.17292,-6.35847 11.7237,-6.94635 16.85214,-8.44056 5.91824,-0.73133 17.55701,-5.04627 25.80304,11.01374 2.43103,4.73836 3.34746,12.86059 3.32817,21.74975 -1.30148,18.30495 -7.40689,26.98344 -29.46706,45.42509 -16.91578,14.73145 -22.92778,38.29165 -22.92778,38.29165 0,0 -25.33054,-18.93676 -31.80752,-25.53528 -20.89487,-20.95015 -23.72713,-22.88774 -28.81363,-44.868 -3.20795,-19.23397 1.20404,-38.39579 11.89945,-47.75365 12.49994,-8.76106 35.42739,-10.79237 41.42753,6.33505 1.80347,4.97731 3.02269,8.30607 4.42579,11.87538 z"
     sodipodi:nodetypes="cccccccccccc"
     style="fill:#658dd8;fill-opacity:1;stroke-width:2.22128;stroke-dasharray:none" />
  <path
     id="Auswahl-47-8-9-2-4-2-21"
     fill="none"
     stroke="#000000"
     stroke-width="1"
     d="m 275.52353,110.30566 9.27987,-8.09317 c 8.17292,-6.358474 11.7237,-6.946354 16.85214,-8.440564 5.91824,-0.73133 17.55701,-5.04627 25.80304,11.013744 2.43103,4.73836 3.34746,12.86059 3.32817,21.74975 -1.30148,18.30495 -7.40689,26.98344 -29.46706,45.42509 -16.91578,14.73145 -22.92778,38.29165 -22.92778,38.29165 0,0 -25.33054,-18.93676 -31.80752,-25.53528 -20.89487,-20.95015 -23.72713,-22.88774 -28.81363,-44.868 -3.20795,-19.23397 1.20404,-38.39579 11.89945,-47.753654 12.49994,-8.76106 35.42739,-10.79237 41.42753,6.33505 1.80347,4.977314 3.02269,8.306074 4.42579,11.875384 z"
     sodipodi:nodetypes="cccccccccccc"
     style="fill:#658dd8;fill-opacity:1;stroke-width:2.22128;stroke-dasharray:none" />
  <path
     id="Auswahl-47-8-9-2-4-2-2"
     fill="none"
     stroke="#000000"
     stroke-width="1"
     d="m 166.14853,227.49315 9.27987,-8.09317 c 8.17292,-6.35847 11.7237,-6.94635 16.85214,-8.44056 5.91824,-0.73133 17.55701,-5.04627 25.80304,11.01374 2.43103,4.73836 3.34746,12.86059 3.32817,21.74975 -1.30148,18.30495 -7.40689,26.98344 -29.46706,45.42509 -16.91578,14.73145 -22.92778,38.29165 -22.92778,38.29165 0,0 -25.33054,-18.93676 -31.80752,-25.53528 -20.89487,-20.95015 -23.72713,-22.88774 -28.81363,-44.868 -3.20795,-19.23397 1.20404,-38.39579 11.89945,-47.75365 12.49994,-8.76106 35.42739,-10.79237 41.42753,6.33505 1.80347,4.97731 3.02269,8.30607 4.42579,11.87538 z"
     sodipodi:nodetypes="cccccccccccc"
     style="fill:#658dd8;fill-opacity:1;stroke-width:2.22128;stroke-dasharray:none" />
  <path
     id="Auswahl-47-8-9-2-4-2-4"
     fill="none"
     stroke="#000000"
     stroke-width="1"
     d="m 284.89852,293.11816 9.27987,-8.09317 c 8.17292,-6.35847 11.7237,-6.94635 16.85214,-8.44056 5.91824,-0.73133 17.55701,-5.04627 25.80304,11.01374 2.43103,4.73836 3.34746,12.86059 3.32817,21.74975 -1.30148,18.30495 -7.40689,26.98344 -29.46706,45.42509 -16.91578,14.73145 -22.92778,38.29165 -22.92778,38.29165 0,0 -25.33054,-18.93676 -31.80752,-25.53528 -20.89487,-20.95015 -23.72713,-22.88774 -28.81363,-44.868 -3.20795,-19.23397 1.20404,-38.39579 11.89945,-47.75365 12.49994,-8.76106 35.42739,-10.79237 41.42753,6.33505 1.80347,4.97731 3.02269,8.30607 4.42579,11.87538 z"
     sodipodi:nodetypes="cccccccccccc"
     style="fill:#658dd8;fill-opacity:1;stroke-width:2.22128;stroke-dasharray:none" />
  <path
     id="Auswahl-47-8-9-2-4-2-4-3"
     fill="none"
     stroke="#000000"
     stroke-width="1"
     d="m 81.773544,502.49314 9.279866,-8.09317 c 8.17292,-6.35847 11.7237,-6.94635 16.85214,-8.44056 5.91824,-0.73133 17.55701,-5.04627 25.80304,11.01374 2.43103,4.73836 3.34746,12.86059 3.32817,21.74975 -1.30148,18.30495 -7.40689,26.98344 -29.46706,45.42509 -16.91578,14.73145 -22.927776,38.29165 -22.927776,38.29165 0,0 -25.33055,-18.93676 -31.80753,-25.53528 -20.89487,-20.95015 -23.72713,-22.88774 -28.81363,-44.868 -3.20795,-19.23397 1.20404,-38.39579 11.89945,-47.75365 12.49994,-8.76106 35.4274,-10.79237 41.42754,6.33505 1.80347,4.97731 3.02269,8.30607 4.42579,11.87538 z"
     sodipodi:nodetypes="cccccccccccc"
     style="fill:#658dd8;fill-opacity:1;stroke-width:2.22128;stroke-dasharray:none" />
  <path
     id="Auswahl-47-8-9-2-4-8"
     fill="none"
     stroke="#000000"
     stroke-width="1"
     d="m 72.398551,347.80565 9.27987,-8.09316 c 8.17292,-6.35847 11.723699,-6.94635 16.852139,-8.44056 5.91824,-0.73134 17.55701,-5.04627 25.80304,11.01374 2.43103,4.73835 3.34746,12.86058 3.32817,21.74974 -1.30148,18.30496 -7.40689,26.98345 -29.46706,45.4251 -16.915779,14.73145 -22.927779,38.29165 -22.927779,38.29165 0,0 -25.33055,-18.93676 -31.80753,-25.53528 -20.894878,-20.95015 -23.727138,-22.88774 -28.813638,-44.868 -3.207946,-19.23398 1.20404,-38.3958 11.89945,-47.75366 12.499949,-8.76106 35.427398,-10.79237 41.427548,6.33505 1.80347,4.97731 3.02269,8.30608 4.42579,11.87538 z"
     sodipodi:nodetypes="cccccccccccc"
     style="fill:#658dd8;fill-opacity:1;stroke-width:2.22128;stroke-dasharray:none" />
  <path
     id="Auswahl-47-8-9-2-4-7"
     fill="none"
     stroke="#000000"
     stroke-width="1"
     d="m 414.58604,346.24314 9.27987,-8.09316 c 8.17292,-6.35847 11.7237,-6.94635 16.85214,-8.44056 5.91824,-0.73134 17.55701,-5.04627 25.80304,11.01374 2.43103,4.73836 3.34746,12.86058 3.32817,21.74974 -1.30148,18.30496 -7.40689,26.98345 -29.46706,45.4251 -16.91578,14.73145 -22.92778,38.29165 -22.92778,38.29165 0,0 -25.33054,-18.93676 -31.80752,-25.53528 -20.89488,-20.95015 -23.72714,-22.88774 -28.81364,-44.868 -3.20795,-19.23398 1.20404,-38.39579 11.89945,-47.75365 12.49995,-8.76107 35.4274,-10.79237 41.42754,6.33504 1.80347,4.97731 3.02269,8.30608 4.42579,11.87538 z"
     sodipodi:nodetypes="cccccccccccc"
     style="fill:#658dd8;fill-opacity:1;stroke-width:2.22128;stroke-dasharray:none" />
  <path
     id="Auswahl-47-8-9-2-4-5"
     fill="none"
     stroke="#000000"
     stroke-width="1"
     d="m 316.14855,466.55563 9.27986,-8.09316 c 8.17292,-6.35847 11.7237,-6.94635 16.85214,-8.44056 5.91824,-0.73134 17.55701,-5.04627 25.80304,11.01374 2.43103,4.73835 3.34746,12.86058 3.32817,21.74974 -1.30148,18.30496 -7.40689,26.98345 -29.46706,45.4251 -16.91578,14.73145 -22.92777,38.29165 -22.92777,38.29165 0,0 -25.33055,-18.93676 -31.80753,-25.53528 -20.89488,-20.95015 -23.72714,-22.88774 -28.81364,-44.868 -3.20795,-19.23398 1.20404,-38.39579 11.89945,-47.75365 12.49995,-8.76107 35.4274,-10.79237 41.42755,6.33504 1.80347,4.97731 3.02269,8.30608 4.42579,11.87538 z"
     sodipodi:nodetypes="cccccccccccc"
     style="fill:#658dd8;fill-opacity:1;stroke-width:2.22128;stroke-dasharray:none" />
  <path
     id="Auswahl-47-8-9-2-4-1"
     fill="none"
     stroke="#000000"
     stroke-width="1"
     d="m 205.21103,582.18062 9.27987,-8.09316 c 8.17292,-6.35847 11.7237,-6.94635 16.85214,-8.44056 5.91824,-0.73134 17.55701,-5.04627 25.80304,11.01374 2.43103,4.73836 3.34746,12.86058 3.32817,21.74974 -1.30148,18.30496 -7.40689,26.98345 -29.46706,45.4251 -16.91578,14.73145 -22.92778,38.29165 -22.92778,38.29165 0,0 -25.33053,-18.93676 -31.80751,-25.53528 -20.89488,-20.95015 -23.72714,-22.88774 -28.81364,-44.868 -3.20795,-19.23398 1.20404,-38.39579 11.89945,-47.75365 12.49995,-8.76107 35.42739,-10.79237 41.42753,6.33504 1.80347,4.97731 3.02269,8.30608 4.42579,11.87538 z"
     sodipodi:nodetypes="cccccccccccc"
     style="fill:#658dd8;fill-opacity:1;stroke-width:2.22128;stroke-dasharray:none" />
  <path
     id="Auswahl-47-8-9-9-5"
     fill="none"
     stroke="#000000"
     stroke-width="1"
     d="m 411.57703,568.54369 -6.53377,5.82123 c -5.75439,4.57349 -8.25441,4.99634 -11.86525,6.07109 -4.16692,0.52602 -12.36155,3.62965 -18.1674,-7.92193 -1.71165,-3.40818 -2.35689,-9.2503 -2.3433,-15.64405 0.91634,-13.16632 5.21504,-19.40854 20.74716,-32.67318 11.91006,-10.59597 16.14298,-27.54226 16.14298,-27.54226 0,0 17.83474,13.62075 22.39505,18.36689 14.71167,15.06895 16.70579,16.46262 20.2871,32.27248 2.25865,13.83454 -0.84773,27.61716 -8.37816,34.34804 -8.80097,6.30163 -24.94372,7.76271 -29.1683,-4.55665 -1.2698,-3.58005 -2.12822,-5.97434 -3.11611,-8.54166 z"
     sodipodi:nodetypes="cccccccccccc"
     style="fill:#658dd8;fill-opacity:1;stroke-width:1.58074;stroke-dasharray:none" />
  <path
     id="Auswahl-47-8-9-9-5-0"
     fill="none"
     stroke="#000000"
     stroke-width="1"
     d="m 65.619713,145.2053 6.53377,-5.82123 c 5.75439,-4.57349 8.25441,-4.99634 11.86525,-6.07109 4.16692,-0.52602 12.36155,-3.62965 18.167397,7.92193 1.71165,3.40818 2.35689,9.2503 2.3433,15.64405 -0.91634,13.16632 -5.215037,19.40854 -20.747157,32.67318 -11.91006,10.59597 -16.14299,27.54226 -16.14299,27.54226 0,0 -17.83474,-13.62075 -22.39505,-18.36689 -14.71167,-15.06895 -16.70579,-16.46262 -20.287099,-32.27248 -2.25865,-13.83454 0.847729,-27.61716 8.378159,-34.34804 8.80097,-6.30163 24.94372,-7.76271 29.1683,4.55665 1.2698,3.58005 2.12822,5.97434 3.11612,8.54166 z"
     sodipodi:nodetypes="cccccccccccc"
     style="fill:#658dd8;fill-opacity:1;stroke-width:1.58074;stroke-dasharray:none" />
</svg>
