<?xml version="1.0" encoding="UTF-8" standalone="no"?>
<svg
   width="1.6in"
   height="2.4in"
   viewBox="0 0 480 720"
   version="1.1"
   id="svg1"
   sodipodi:docname="herz6.svg"
   inkscape:version="1.3.2 (091e20e, 2023-11-25, custom)"
   xmlns:inkscape="http://www.inkscape.org/namespaces/inkscape"
   xmlns:sodipodi="http://sodipodi.sourceforge.net/DTD/sodipodi-0.dtd"
   xmlns:xlink="http://www.w3.org/1999/xlink"
   xmlns="http://www.w3.org/2000/svg"
   xmlns:svg="http://www.w3.org/2000/svg">
  <defs
     id="defs1">
    <linearGradient
       id="swatch8"
       inkscape:swatch="solid">
      <stop
         style="stop-color:#e6e6e6;stop-opacity:1;"
         offset="0"
         id="stop9" />
    </linearGradient>
    <pattern
       inkscape:collect="always"
       xlink:href="#tiles-1-8"
       id="pattern10-6"
       patternTransform="matrix(4.5903638,0,0,4.5924794,76.51272,373.81571)"
       x="-2"
       y="-3"
       preserveAspectRatio="none" />
    <pattern
       patternUnits="userSpaceOnUse"
       width="15.021545"
       height="25.90893"
       patternTransform="translate(76.218461,373.73705)"
       style="fill:#d0972d"
       id="tiles-1-8"
       inkscape:label="Kacheln 1"
       inkscape:collect="always"
       inkscape:isstock="true">
      <path
         id="path5144-3"
         style="opacity:1;stroke-width:4.85611;stroke-linecap:square;paint-order:stroke markers fill;stop-color:#000000"
         d="M 7.510773,0 15.021545,12.95447 7.51077,25.90893 0,12.95447 Z"
         sodipodi:nodetypes="ccccc" />
    </pattern>
  </defs>
  <sodipodi:namedview
     id="namedview1"
     pagecolor="#ffffff"
     bordercolor="#000000"
     borderopacity="0.25"
     inkscape:showpageshadow="2"
     inkscape:pageopacity="0.0"
     inkscape:pagecheckerboard="0"
     inkscape:deskcolor="#d1d1d1"
     inkscape:document-units="in"
     inkscape:zoom="2"
     inkscape:cx="130"
     inkscape:cy="123.25"
     inkscape:window-width="1920"
     inkscape:window-height="1009"
     inkscape:window-x="-8"
     inkscape:window-y="-8"
     inkscape:window-maximized="1"
     inkscape:current-layer="svg1" />
  <g
     id="g2"
     transform="translate(0.0071402,0.00565841)">
    <path
       id="path1"
       fill="none"
       stroke="#000000"
       stroke-width="1"
       d="M 21,0.64 C 21,0.64 60,0 60,0 c 0,0 76,0 76,0 0,0 240,0 240,0 0,0 75,0 75,0 2.66,0 5.42,-0.11 8,0.64 8.79,2.52 18.41,12.4 20.47,21.36 0.61,2.62 0.53,5.33 0.53,8 0,0 0,530 0,530 0,0 0,129 0,129 0,2.67 0.08,5.38 -0.53,8 -2.35,10.19 -13.4,20.16 -23.47,22.47 -2.62,0.61 -5.33,0.53 -8,0.53 0,0 -344,0 -344,0 0,0 -75,0 -75,0 -2.66,0 -5.42,0.11 -8,-0.64 C 12.21,716.84 2.59,706.96 0.53,698 -0.08,695.38 0,692.67 0,690 0,690 0,167 0,167 0,167 0,47 0,47 0,47 0.53,22 0.53,22 2.81,12.1 11.8,4.08 21,0.64 Z"
       style="display:inline;fill:#ffffff;fill-opacity:1;stroke:none;stroke-width:0.9;stroke-linecap:butt;stroke-dasharray:none" />
    <path
       id="Auswahl #4-4"
       fill="none"
       stroke="#000000"
       stroke-width="1"
       d="m 21.409933,1.3286375 c 0,0 38.918303,-0.6389537 38.918303,-0.6389537 0,0 75.840794,0 75.840794,0 0,0 239.49725,0 239.49725,0 0,0 74.84289,0 74.84289,0 2.65443,0 5.40864,-0.10982017 7.98324,0.6389537 8.77159,2.51588 18.37144,12.3797275 20.42712,21.3250785 0.60872,2.615717 0.52889,5.321287 0.52889,7.986921 0,0 0,529.133513 0,529.133513 0,0 0,128.7891 0,128.7891 0,2.66563 0.0798,5.37121 -0.52889,7.98692 -2.34508,10.17334 -13.37192,20.12704 -23.42084,22.43327 -2.61451,0.609 -5.31882,0.52913 -7.98323,0.52913 0,0 -343.27939,0 -343.27939,0 0,0 -74.842895,0 -74.842895,0 -2.654428,0 -5.408647,0.10982 -7.983242,-0.63896 -8.771587,-2.51587 -18.3714349,-12.37972 -20.42711966,-21.32508 -0.60872215,-2.61571 -0.52888975,-5.32127 -0.52888975,-7.98691 0,0 0,-522.14496 0,-522.14496 0,0 0,-119.803815 0,-119.803815 0,0 0.52888975,-24.959129 0.52888975,-24.959129 C 3.2580372,12.769902 12.229206,4.7630135 21.409933,1.3286375 Z"
       style="display:inline;fill:url(#pattern10-6);fill-opacity:1;stroke-width:0.898322;stroke-linecap:butt;stroke-dasharray:none" />
    <path
       id="Auswahl #4-6-5"
       fill="none"
       stroke="#000000"
       stroke-width="0.998128"
       d="m 21.451861,1.1949433 c 0,0 38.918158,-0.63894645 38.918158,-0.63894645 0,0 75.840521,0 75.840521,0 0,0 239.49638,0 239.49638,0 0,0 74.84261,0 74.84261,0 2.65442,0 5.40863,-0.10981892 7.98321,0.63894645 8.77155,2.5158514 18.37137,12.3795867 20.42705,21.3248357 0.60872,2.615687 0.52889,5.321226 0.52889,7.986831 0,0 0,529.12749 0,529.12749 0,0 0,128.78763 0,128.78763 0,2.6656 0.0798,5.37114 -0.52889,7.98682 -2.34507,10.17324 -13.37188,20.12682 -23.42075,22.43301 -2.6145,0.60899 -5.31882,0.52912 -7.98321,0.52912 0,0 -343.27815,0 -343.27815,0 0,0 -74.842607,0 -74.842607,0 -2.654418,0 -5.408626,0.10983 -7.983212,-0.63894 -8.771555,-2.51585 -18.3713689,-12.37959 -20.4270458,-21.32483 -0.60872005,-2.61568 -0.52888798,-5.32122 -0.52888798,-7.98683 0,0 0,-522.13901 0,-522.13901 0,0 0,-119.802447 0,-119.802447 0,0 0.52888798,-24.958844 0.52888798,-24.958844 C 3.3000303,12.636078 12.271166,4.6292801 21.451861,1.1949433 Z"
       style="display:inline;fill:#edae00;fill-opacity:0.811765" />
  </g>
  <text
     xml:space="preserve"
     style="font-style:normal;font-variant:normal;font-weight:normal;font-stretch:normal;font-size:158.333px;font-family:'MV Boli';-inkscape-font-specification:'MV Boli, Normal';font-variant-ligatures:normal;font-variant-caps:normal;font-variant-numeric:normal;font-variant-east-asian:normal;fill:#658dd8;fill-opacity:1;stroke:#000000;stroke-width:5.8924"
     x="-464.11038"
     y="-590.51331"
     id="text1-1"
     transform="scale(-1.0027661,-0.99724149)"><tspan
       id="tspan1-1"
       style="font-style:normal;font-variant:normal;font-weight:normal;font-stretch:normal;font-size:158.333px;font-family:'MV Boli';-inkscape-font-specification:'MV Boli, Normal';font-variant-ligatures:normal;font-variant-caps:normal;font-variant-numeric:normal;font-variant-east-asian:normal;fill:#658dd8;fill-opacity:1;stroke-width:5.8924"
       x="-464.11038"
       y="-590.51331"
       sodipodi:role="line">6</tspan></text>
  <text
     xml:space="preserve"
     style="font-style:normal;font-variant:normal;font-weight:normal;font-stretch:normal;font-size:158.333px;font-family:'MV Boli';-inkscape-font-specification:'MV Boli, Normal';font-variant-ligatures:normal;font-variant-caps:normal;font-variant-numeric:normal;font-variant-east-asian:normal;fill:#658dd8;fill-opacity:1;stroke:#000000;stroke-width:5.8924"
     x="13.839767"
     y="129.07295"
     id="text1-1-2"
     transform="scale(1.0027661,0.99724153)"><tspan
       id="tspan1-1-2"
       style="font-style:normal;font-variant:normal;font-weight:normal;font-stretch:normal;font-size:158.333px;font-family:'MV Boli';-inkscape-font-specification:'MV Boli, Normal';font-variant-ligatures:normal;font-variant-caps:normal;font-variant-numeric:normal;font-variant-east-asian:normal;fill:#658dd8;fill-opacity:1;stroke-width:5.8924"
       x="13.839767"
       y="129.07295"
       sodipodi:role="line">6</tspan></text>
  <path
     id="Auswahl-47-8-9-2"
     fill="none"
     stroke="#000000"
     stroke-width="1"
     d="m 304.07996,368.20385 11.53059,-9.57355 c 10.15516,-7.52155 14.56715,-8.21696 20.93943,-9.98449 7.35365,-0.86511 21.81527,-5.96932 32.06128,13.02835 3.02066,5.60509 4.15936,15.21302 4.13539,25.72817 -1.61714,21.65327 -9.20335,31.91921 -36.61397,53.73418 -21.01852,17.4261 -28.48865,45.29589 -28.48865,45.29589 0,0 -31.47419,-22.40064 -39.52208,-30.20615 -25.9627,-24.78231 -29.4819,-27.07433 -35.80207,-53.07518 -3.986,-22.75222 1.49606,-45.41908 14.78553,-56.48866 15.53167,-10.36362 44.01992,-12.76649 51.47532,7.49384 2.24089,5.88775 3.75581,9.82541 5.49923,14.0476 z"
     sodipodi:nodetypes="cccccccccccc"
     style="fill:#658dd8;fill-opacity:1;stroke-width:2.693;stroke-dasharray:none" />
  <path
     id="Auswahl-47-8-9-2-1"
     fill="none"
     stroke="#000000"
     stroke-width="1"
     d="m 197.82838,235.39402 11.53059,-9.57355 c 10.15516,-7.52155 14.56715,-8.21696 20.93943,-9.98449 7.35365,-0.86511 21.81527,-5.96932 32.06128,13.02835 3.02066,5.60509 4.15936,15.21302 4.13539,25.72817 -1.61714,21.65327 -9.20335,31.91921 -36.61397,53.73418 -21.01852,17.4261 -28.48865,45.29589 -28.48865,45.29589 0,0 -31.47419,-22.40064 -39.52208,-30.20615 -25.9627,-24.78231 -29.4819,-27.07433 -35.80207,-53.07518 -3.986,-22.75222 1.49606,-45.41908 14.78553,-56.48866 15.53167,-10.36362 44.01992,-12.76649 51.47532,7.49384 2.24089,5.88775 3.75581,9.82541 5.49923,14.0476 z"
     sodipodi:nodetypes="cccccccccccc"
     style="fill:#658dd8;fill-opacity:1;stroke-width:2.693;stroke-dasharray:none" />
  <path
     id="Auswahl-47-8-9-2-8"
     fill="none"
     stroke="#000000"
     stroke-width="1"
     d="m 221.26589,526.01901 11.5306,-9.57355 c 10.15516,-7.52155 14.56715,-8.21696 20.93943,-9.98449 7.35365,-0.86511 21.81527,-5.96932 32.06128,13.02835 3.02066,5.60509 4.15936,15.21302 4.13539,25.72817 -1.61714,21.65327 -9.20335,31.91921 -36.61397,53.73418 -21.01852,17.4261 -28.48866,45.29589 -28.48866,45.29589 0,0 -31.47419,-22.40064 -39.52208,-30.20615 -25.9627,-24.78231 -29.4819,-27.07433 -35.80207,-53.07518 -3.986,-22.75222 1.49606,-45.41908 14.78553,-56.48866 15.53167,-10.36362 44.01992,-12.76649 51.47533,7.49384 2.24088,5.88775 3.75581,9.82541 5.49922,14.0476 z"
     sodipodi:nodetypes="cccccccccccc"
     style="fill:#658dd8;fill-opacity:1;stroke-width:2.693;stroke-dasharray:none" />
  <path
     id="Auswahl-47-8-9-2-7"
     fill="none"
     stroke="#000000"
     stroke-width="1"
     d="m 93.140892,383.83152 11.530598,-9.57355 c 10.15516,-7.52155 14.56715,-8.21696 20.93943,-9.98449 7.35365,-0.86511 21.81527,-5.96932 32.06128,13.02835 3.02066,5.60509 4.15936,15.21302 4.13539,25.72817 -1.61714,21.65327 -9.20335,31.91921 -36.61397,53.73418 -21.01852,17.4261 -28.488659,45.29589 -28.488659,45.29589 0,0 -31.474185,-22.40064 -39.522075,-30.20615 -25.9627,-24.78231 -29.4819,-27.07433 -35.802071,-53.07518 -3.986,-22.75222 1.496061,-45.41908 14.785531,-56.48866 15.53167,-10.36362 44.019916,-12.76649 51.475326,7.49384 2.24088,5.88775 3.75581,9.82541 5.49922,14.0476 z"
     sodipodi:nodetypes="cccccccccccc"
     style="fill:#658dd8;fill-opacity:1;stroke-width:2.693;stroke-dasharray:none" />
  <path
     id="Auswahl-47-8-9-2-89"
     fill="none"
     stroke="#000000"
     stroke-width="1"
     d="m 396.26588,219.76902 11.5306,-9.57355 c 10.15516,-7.52155 14.56715,-8.21696 20.93943,-9.98449 7.35365,-0.86511 21.81527,-5.96932 32.06128,13.02835 3.02066,5.60509 4.15936,15.21302 4.13539,25.72817 -1.61714,21.65327 -9.20335,31.91921 -36.61397,53.73418 -21.01852,17.4261 -28.48866,45.29589 -28.48866,45.29589 0,0 -31.47419,-22.40064 -39.52208,-30.20615 -25.96269,-24.78231 -29.48189,-27.07433 -35.80207,-53.07518 -3.98599,-22.75222 1.49606,-45.41908 14.78553,-56.48866 15.53167,-10.36362 44.01992,-12.76649 51.47533,7.49384 2.24088,5.88775 3.75581,9.82541 5.49922,14.0476 z"
     sodipodi:nodetypes="cccccccccccc"
     style="fill:#658dd8;fill-opacity:1;stroke-width:2.693;stroke-dasharray:none" />
  <path
     id="Auswahl-47-8-9-2-4"
     fill="none"
     stroke="#000000"
     stroke-width="1"
     d="m 300.95339,74.456532 11.5306,-9.57355 c 10.15516,-7.52155 14.56715,-8.21696 20.93943,-9.98449 7.35365,-0.86511 21.81527,-5.969323 32.06128,13.02835 3.02066,5.60509 4.15936,15.21302 4.13539,25.72817 -1.61714,21.653268 -9.20335,31.919208 -36.61397,53.734178 -21.01852,17.4261 -28.48866,45.29589 -28.48866,45.29589 0,0 -31.47419,-22.40064 -39.52208,-30.20615 -25.9627,-24.78231 -29.4819,-27.07433 -35.80207,-53.07518 -3.986,-22.752218 1.49606,-45.419078 14.78553,-56.488661 15.53167,-10.36362 44.01992,-12.76649 51.47533,7.493843 2.24088,5.88775 3.75581,9.82541 5.49922,14.0476 z"
     sodipodi:nodetypes="cccccccccccc"
     style="fill:#658dd8;fill-opacity:1;stroke-width:2.693;stroke-dasharray:none" />
  <path
     id="Auswahl-47-8-9-9"
     fill="none"
     stroke="#000000"
     stroke-width="1"
     d="m 72.199937,162.15376 8.28144,-7.20538 c 7.29358,-5.66097 10.46232,-6.18436 15.03899,-7.51466 5.281503,-0.6511 15.668033,-4.49271 23.026863,9.80558 2.16948,4.21858 2.9873,11.44983 2.97009,19.36388 -1.16145,16.29698 -6.60998,24.02347 -26.296663,40.44216 -15.09579,13.11546 -20.46095,34.0912 -20.46095,34.0912 0,0 -22.6052,-16.85947 -28.38531,-22.73415 -18.64678,-18.65201 -21.17431,-20.37706 -25.71355,-39.94617 -2.8628,-17.12409 1.07449,-34.18393 10.61918,-42.51527 11.15506,-7.80001 31.61571,-9.6085 36.9703,5.64012 1.60943,4.43132 2.69747,7.39492 3.94961,10.57269 z"
     sodipodi:nodetypes="cccccccccccc"
     style="fill:#658dd8;fill-opacity:1;stroke-width:1.97995;stroke-dasharray:none" />
  <path
     id="Auswahl-47-8-9-9-5"
     fill="none"
     stroke="#000000"
     stroke-width="1"
     d="m 411.24513,550.03493 -8.28144,7.20538 c -7.29358,5.66097 -10.46232,6.18436 -15.03899,7.51466 -5.2815,0.6511 -15.66803,4.4927 -23.02686,-9.80558 -2.16948,-4.21858 -2.9873,-11.44983 -2.97009,-19.36388 1.16145,-16.29698 6.60998,-24.02347 26.29666,-40.44216 15.09579,-13.11546 20.46095,-34.0912 20.46095,-34.0912 0,0 22.6052,16.85946 28.38531,22.73414 18.64678,18.65201 21.17431,20.37707 25.71355,39.94617 2.8628,17.12409 -1.07449,34.18393 -10.61918,42.51527 -11.15506,7.80001 -31.61571,9.6085 -36.9703,-5.64012 -1.60943,-4.43132 -2.69747,-7.39492 -3.94961,-10.57268 z"
     sodipodi:nodetypes="cccccccccccc"
     style="fill:#658dd8;fill-opacity:1;stroke-width:1.97995;stroke-dasharray:none" />
</svg>
