<?xml version="1.0" encoding="UTF-8" standalone="no"?>
<svg
   width="1.6in"
   height="2.4in"
   viewBox="0 0 480 720"
   version="1.1"
   id="svg1"
   sodipodi:docname="karo10.svg"
   inkscape:version="1.3.2 (091e20e, 2023-11-25, custom)"
   xmlns:inkscape="http://www.inkscape.org/namespaces/inkscape"
   xmlns:sodipodi="http://sodipodi.sourceforge.net/DTD/sodipodi-0.dtd"
   xmlns:xlink="http://www.w3.org/1999/xlink"
   xmlns="http://www.w3.org/2000/svg"
   xmlns:svg="http://www.w3.org/2000/svg">
  <defs
     id="defs1">
    <pattern
       inkscape:collect="always"
       xlink:href="#tiles-1"
       id="pattern10"
       patternTransform="matrix(4.6,0,0,4.6,76.218461,373.73705)"
       x="-2"
       y="-3"
       preserveAspectRatio="none" />
    <pattern
       patternUnits="userSpaceOnUse"
       width="15.021545"
       height="25.90893"
       patternTransform="translate(76.218461,373.73705)"
       style="fill:#d0972d"
       id="tiles-1"
       inkscape:label="Kacheln 1"
       inkscape:collect="always"
       inkscape:isstock="true">
      <path
         id="path5144"
         style="opacity:1;stroke-width:4.85611;stroke-linecap:square;paint-order:stroke markers fill;stop-color:#000000"
         d="M 7.510773,0 15.021545,12.95447 7.51077,25.90893 0,12.95447 Z"
         sodipodi:nodetypes="ccccc" />
    </pattern>
    <linearGradient
       id="swatch8"
       inkscape:swatch="solid">
      <stop
         style="stop-color:#e6e6e6;stop-opacity:1;"
         offset="0"
         id="stop9" />
    </linearGradient>
  </defs>
  <sodipodi:namedview
     id="namedview1"
     pagecolor="#ffffff"
     bordercolor="#000000"
     borderopacity="0.25"
     inkscape:showpageshadow="2"
     inkscape:pageopacity="0.0"
     inkscape:pagecheckerboard="0"
     inkscape:deskcolor="#d1d1d1"
     inkscape:document-units="in"
     inkscape:zoom="2.8284271"
     inkscape:cx="116.31907"
     inkscape:cy="91.039998"
     inkscape:window-width="1920"
     inkscape:window-height="1009"
     inkscape:window-x="-8"
     inkscape:window-y="-8"
     inkscape:window-maximized="1"
     inkscape:current-layer="svg1" />
  <path
     id="Auswahl #4"
     fill="none"
     stroke="#000000"
     stroke-width="1"
     d="M 21,0.64 C 21,0.64 60,0 60,0 c 0,0 76,0 76,0 0,0 240,0 240,0 0,0 75,0 75,0 2.66,0 5.42,-0.11 8,0.64 8.79,2.52 18.41,12.4 20.47,21.36 0.61,2.62 0.53,5.33 0.53,8 0,0 0,530 0,530 0,0 0,129 0,129 0,2.67 0.08,5.38 -0.53,8 -2.35,10.19 -13.4,20.16 -23.47,22.47 -2.62,0.61 -5.33,0.53 -8,0.53 0,0 -344,0 -344,0 0,0 -75,0 -75,0 -2.66,0 -5.42,0.11 -8,-0.64 C 12.21,716.84 2.59,706.96 0.53,698 -0.08,695.38 0,692.67 0,690 0,690 0,167 0,167 0,167 0,47 0,47 0,47 0.53,22 0.53,22 2.81,12.1 11.8,4.08 21,0.64 Z"
     style="fill:url(#pattern10);fill-opacity:1;stroke-width:0.9;stroke-linecap:butt;stroke-dasharray:none" />
  <path
     id="Auswahl #4-6"
     fill="none"
     stroke="#000000"
     stroke-width="1"
     d="m 21.040171,0.64451702 c 0,0 38.999997,-0.64 38.999997,-0.64 0,0 75.999992,0 75.999992,0 0,0 240,0 240,0 0,0 75,0 75,0 2.66,0 5.42,-0.11 8,0.64 8.79,2.51999998 18.41,12.39999998 20.47,21.35999998 0.61,2.62 0.53,5.33 0.53,8 0,0 0,529.999993 0,529.999993 0,0 0,129 0,129 0,2.67 0.08,5.38 -0.53,8 -2.35,10.19 -13.4,20.16 -23.47,22.47 -2.62,0.61 -5.33,0.53 -8,0.53 0,0 -344,0 -344,0 0,0 -74.999989,0 -74.999989,0 -2.66,0 -5.42,0.11 -8,-0.64 -8.79,-2.52 -18.4100004,-12.4 -20.47000035,-21.36 -0.61000002,-2.62 -0.53000002,-5.33 -0.53000002,-8 0,0 0,-523 0,-523 0,0 0,-119.999993 0,-119.999993 0,0 0.53000002,-25 0.53000002,-25 2.27999995,-9.9 11.27000035,-17.92 20.47000035,-21.35999998 z"
     style="fill:#edae00;fill-opacity:0.811765" />
  <text
     xml:space="preserve"
     style="font-style:normal;font-variant:normal;font-weight:normal;font-stretch:normal;font-size:158.333px;font-family:'MV Boli';-inkscape-font-specification:'MV Boli, Normal';font-variant-ligatures:normal;font-variant-caps:normal;font-variant-numeric:normal;font-variant-east-asian:normal;fill:#c64516;fill-opacity:1;stroke:#000000;stroke-width:5.8924"
     x="-486.14651"
     y="-600.4845"
     id="text1-1"
     transform="scale(-1.0027661,-0.99724151)"><tspan
       id="tspan1-1"
       style="font-style:normal;font-variant:normal;font-weight:normal;font-stretch:normal;font-size:158.333px;font-family:'MV Boli';-inkscape-font-specification:'MV Boli, Normal';font-variant-ligatures:normal;font-variant-caps:normal;font-variant-numeric:normal;font-variant-east-asian:normal;fill:#c64516;fill-opacity:1;stroke-width:5.8924"
       x="-486.14651"
       y="-600.4845"
       sodipodi:role="line">10</tspan></text>
  <text
     xml:space="preserve"
     style="font-style:normal;font-variant:normal;font-weight:normal;font-stretch:normal;font-size:158.333px;font-family:'MV Boli';-inkscape-font-specification:'MV Boli, Normal';font-variant-ligatures:normal;font-variant-caps:normal;font-variant-numeric:normal;font-variant-east-asian:normal;fill:#c64516;fill-opacity:1;stroke:#000000;stroke-width:5.8924"
     x="-3.7891381"
     y="125.74922"
     id="text1-1-2"
     transform="scale(1.0027661,0.99724153)"><tspan
       id="tspan1-1-2"
       style="font-style:normal;font-variant:normal;font-weight:normal;font-stretch:normal;font-size:158.333px;font-family:'MV Boli';-inkscape-font-specification:'MV Boli, Normal';font-variant-ligatures:normal;font-variant-caps:normal;font-variant-numeric:normal;font-variant-east-asian:normal;fill:#c64516;fill-opacity:1;stroke-width:5.8924"
       x="-3.7891381"
       y="125.74922"
       sodipodi:role="line">10</tspan></text>
  <path
     id="Auswahl #1"
     fill="none"
     stroke="#000000"
     stroke-width="1"
     d="m 59.014967,132.31678 c 13.461097,27.38741 14.953347,15.0123 38.714302,46.91085 C 66.797049,201.19117 88.353258,205.3551 56.64743,228.1964 37.353887,203.10972 21.439309,207.46537 15.928289,181.94619 42.240377,160.51077 23.649038,152.42385 59.014967,132.31678 Z"
     sodipodi:nodetypes="ccccc"
     style="fill:#c64516;fill-opacity:1;stroke-width:1.60445;stroke-dasharray:none" />
  <path
     id="Auswahl #1-7"
     fill="none"
     stroke="#000000"
     stroke-width="1"
     d="m 422.88019,593.94176 c -13.4611,-27.38741 -14.95335,-15.0123 -38.7143,-46.91085 30.93222,-21.96354 9.37601,-26.12747 41.08184,-48.96877 19.29354,25.08668 35.20812,20.73103 40.71914,46.25021 -26.31209,21.43542 -7.72075,29.52234 -43.08668,49.62941 z"
     sodipodi:nodetypes="ccccc"
     style="fill:#c64516;fill-opacity:1;stroke-width:1.60445;stroke-dasharray:none" />
  <path
     id="Auswahl #1-3-5-2-8-3"
     fill="none"
     stroke="#000000"
     stroke-width="1"
     d="m 333.94512,138.27363 c 18.52989,47.60134 20.58405,26.09248 53.29222,81.53451 -42.57979,38.17426 -12.90657,45.41148 -56.55126,85.11135 -26.55855,-43.6025 -48.46578,-36.03205 -56.05198,-80.38628 36.21994,-37.25635 10.62801,-51.31201 59.31102,-86.25958 z"
     sodipodi:nodetypes="ccccc"
     style="fill:#c64516;fill-opacity:1;stroke-width:2.48174;stroke-dasharray:none" />
  <path
     id="Auswahl #1-3-5-2-8-3-7"
     fill="none"
     stroke="#000000"
     stroke-width="1"
     d="m 333.52835,382.60649 c 18.52989,47.60134 20.58405,26.09248 53.29222,81.53452 -42.57979,38.17425 -12.90657,45.41147 -56.55126,85.11134 -26.55855,-43.6025 -48.46578,-36.03205 -56.05198,-80.38628 36.21994,-37.25635 10.62801,-51.31201 59.31102,-86.25958 z"
     sodipodi:nodetypes="ccccc"
     style="fill:#c64516;fill-opacity:1;stroke-width:2.48174;stroke-dasharray:none" />
  <path
     id="Auswahl #1-3-5-2-8-3-0"
     fill="none"
     stroke="#000000"
     stroke-width="1"
     d="m 191.13224,153.44632 c 18.52989,47.60134 20.58405,26.09249 53.29222,81.53452 -42.57979,38.17425 -12.90657,45.41147 -56.55126,85.11134 -26.55855,-43.6025 -48.46578,-36.03205 -56.05198,-80.38628 36.21994,-37.25635 10.62801,-51.312 59.31102,-86.25958 z"
     sodipodi:nodetypes="ccccc"
     style="fill:#c64516;fill-opacity:1;stroke-width:2.48174;stroke-dasharray:none" />
  <path
     id="Auswahl #1-3-5-2-8-3-0-0"
     fill="none"
     stroke="#000000"
     stroke-width="1"
     d="m 260.16936,29.11258 c 18.52989,47.60134 20.58405,26.09249 53.29222,81.53452 -42.57979,38.17425 -12.90657,45.41147 -56.55126,85.11134 -26.55855,-43.6025 -48.46578,-36.03205 -56.05198,-80.38628 36.21994,-37.25635 10.62801,-51.312 59.31102,-86.25958 z"
     sodipodi:nodetypes="ccccc"
     style="fill:#c64516;fill-opacity:1;stroke-width:2.48174;stroke-dasharray:none" />
  <path
     id="Auswahl #1-3-5-2-8-3-0-0-9"
     fill="none"
     stroke="#000000"
     stroke-width="1"
     d="m 408.34435,26.372291 c 18.52989,47.60134 20.58405,26.09249 53.29222,81.534519 -42.57979,38.17425 -12.90657,45.41147 -56.55126,85.11134 -26.55855,-43.6025 -48.46578,-36.03205 -56.05198,-80.38628 36.21994,-37.256349 10.62801,-51.311999 59.31102,-86.259579 z"
     sodipodi:nodetypes="ccccc"
     style="fill:#c64516;fill-opacity:1;stroke-width:2.48174;stroke-dasharray:none" />
  <path
     id="Auswahl #1-3-5-2-8-3-0-0-9-5"
     fill="none"
     stroke="#000000"
     stroke-width="1"
     d="m 108.86378,503.27906 c 18.52989,47.60134 20.58405,26.09249 53.29222,81.53452 -42.57979,38.17425 -12.90657,45.41147 -56.55126,85.11134 -26.558548,-43.6025 -48.465778,-36.03205 -56.051978,-80.38628 36.21994,-37.25635 10.62801,-51.312 59.311018,-86.25958 z"
     sodipodi:nodetypes="ccccc"
     style="fill:#c64516;fill-opacity:1;stroke-width:2.48174;stroke-dasharray:none" />
  <path
     id="Auswahl #1-3-5-2-8-3-0-9"
     fill="none"
     stroke="#000000"
     stroke-width="1"
     d="m 261.39873,504.70915 c 18.52989,47.60134 20.58405,26.09249 53.29222,81.53452 -42.57979,38.17425 -12.90657,45.41147 -56.55126,85.11134 -26.55855,-43.6025 -48.46578,-36.03205 -56.05198,-80.38628 36.21994,-37.25635 10.62801,-51.312 59.31102,-86.25958 z"
     sodipodi:nodetypes="ccccc"
     style="fill:#c64516;fill-opacity:1;stroke-width:2.48174;stroke-dasharray:none" />
  <path
     id="Auswahl #1-3-5-2-8-3-2"
     fill="none"
     stroke="#000000"
     stroke-width="1"
     d="m 186.71281,396.51427 c 18.52989,47.60134 20.58405,26.09248 53.29222,81.53452 -42.57979,38.17425 -12.90657,45.41147 -56.55125,85.11134 -26.55855,-43.6025 -48.46578,-36.03205 -56.05199,-80.38628 36.21995,-37.25635 10.62802,-51.31201 59.31102,-86.25958 z"
     sodipodi:nodetypes="ccccc"
     style="fill:#c64516;fill-opacity:1;stroke-width:2.48174;stroke-dasharray:none" />
  <path
     id="Auswahl #1-3-5-2-8-3-4"
     fill="none"
     stroke="#000000"
     stroke-width="1"
     d="m 404.08197,254.75189 c 18.52989,47.60135 20.58405,26.09248 53.29222,81.53452 -42.57979,38.17425 -12.90657,45.41147 -56.55126,85.11134 -26.55855,-43.6025 -48.46578,-36.03205 -56.05198,-80.38628 36.21994,-37.25634 10.62801,-51.31201 59.31102,-86.25958 z"
     sodipodi:nodetypes="ccccc"
     style="fill:#c64516;fill-opacity:1;stroke-width:2.48174;stroke-dasharray:none" />
  <path
     id="Auswahl #1-3-5-2-8-3-07"
     fill="none"
     stroke="#000000"
     stroke-width="1"
     d="m 119.94486,272.05043 c 18.52989,47.60134 20.58405,26.09248 53.29222,81.53452 -42.57979,38.17425 -12.90657,45.41147 -56.55126,85.11134 C 90.127265,395.09379 68.220035,402.66424 60.633835,358.31001 96.853778,321.05366 71.261845,306.998 119.94486,272.05043 Z"
     sodipodi:nodetypes="ccccc"
     style="fill:#c64516;fill-opacity:1;stroke-width:2.48174;stroke-dasharray:none" />
</svg>
