<?xml version="1.0" encoding="UTF-8" standalone="no"?>
<svg
   width="1.6in"
   height="2.4in"
   viewBox="0 0 480 720"
   version="1.1"
   id="svg1"
   sodipodi:docname="kreuz2.svg"
   inkscape:version="1.3.2 (091e20e, 2023-11-25, custom)"
   xmlns:inkscape="http://www.inkscape.org/namespaces/inkscape"
   xmlns:sodipodi="http://sodipodi.sourceforge.net/DTD/sodipodi-0.dtd"
   xmlns:xlink="http://www.w3.org/1999/xlink"
   xmlns="http://www.w3.org/2000/svg"
   xmlns:svg="http://www.w3.org/2000/svg">
  <defs
     id="defs1">
    <pattern
       inkscape:collect="always"
       xlink:href="#tiles-1"
       id="pattern10"
       patternTransform="matrix(4.6,0,0,4.6,76.218461,373.73705)"
       x="-2"
       y="-3"
       preserveAspectRatio="none" />
    <pattern
       patternUnits="userSpaceOnUse"
       width="15.021545"
       height="25.90893"
       patternTransform="translate(76.218461,373.73705)"
       style="fill:#d0972d"
       id="tiles-1"
       inkscape:label="Kacheln 1"
       inkscape:collect="always"
       inkscape:isstock="true">
      <path
         id="path5144"
         style="opacity:1;stroke-width:4.85611;stroke-linecap:square;paint-order:stroke markers fill;stop-color:#000000"
         d="M 7.510773,0 15.021545,12.95447 7.51077,25.90893 0,12.95447 Z"
         sodipodi:nodetypes="ccccc" />
    </pattern>
    <linearGradient
       id="swatch8"
       inkscape:swatch="solid">
      <stop
         style="stop-color:#e6e6e6;stop-opacity:1;"
         offset="0"
         id="stop9" />
    </linearGradient>
  </defs>
  <sodipodi:namedview
     id="namedview1"
     pagecolor="#ffffff"
     bordercolor="#000000"
     borderopacity="0.25"
     inkscape:showpageshadow="2"
     inkscape:pageopacity="0.0"
     inkscape:pagecheckerboard="0"
     inkscape:deskcolor="#d1d1d1"
     inkscape:document-units="in"
     inkscape:zoom="2.8284271"
     inkscape:cx="48.083262"
     inkscape:cy="112.96031"
     inkscape:window-width="1920"
     inkscape:window-height="1009"
     inkscape:window-x="-8"
     inkscape:window-y="-8"
     inkscape:window-maximized="1"
     inkscape:current-layer="svg1" />
  <g
     id="g2"
     transform="translate(0.0071402,0.00565841)">
    <path
       id="path1"
       fill="none"
       stroke="#000000"
       stroke-width="1"
       d="M 21,0.64 C 21,0.64 60,0 60,0 c 0,0 76,0 76,0 0,0 240,0 240,0 0,0 75,0 75,0 2.66,0 5.42,-0.11 8,0.64 8.79,2.52 18.41,12.4 20.47,21.36 0.61,2.62 0.53,5.33 0.53,8 0,0 0,530 0,530 0,0 0,129 0,129 0,2.67 0.08,5.38 -0.53,8 -2.35,10.19 -13.4,20.16 -23.47,22.47 -2.62,0.61 -5.33,0.53 -8,0.53 0,0 -344,0 -344,0 0,0 -75,0 -75,0 -2.66,0 -5.42,0.11 -8,-0.64 C 12.21,716.84 2.59,706.96 0.53,698 -0.08,695.38 0,692.67 0,690 0,690 0,167 0,167 0,167 0,47 0,47 0,47 0.53,22 0.53,22 2.81,12.1 11.8,4.08 21,0.64 Z"
       style="display:inline;fill:#ffffff;fill-opacity:1;stroke:none;stroke-width:0.9;stroke-linecap:butt;stroke-dasharray:none" />
    <path
       id="Auswahl #4"
       fill="none"
       stroke="#000000"
       stroke-width="1"
       d="m 21.409933,1.3286375 c 0,0 38.918303,-0.6389537 38.918303,-0.6389537 0,0 75.840794,0 75.840794,0 0,0 239.49725,0 239.49725,0 0,0 74.84289,0 74.84289,0 2.65443,0 5.40864,-0.10982017 7.98324,0.6389537 8.77159,2.51588 18.37144,12.3797275 20.42712,21.3250785 0.60872,2.615717 0.52889,5.321287 0.52889,7.986921 0,0 0,529.133513 0,529.133513 0,0 0,128.7891 0,128.7891 0,2.66563 0.0798,5.37121 -0.52889,7.98692 -2.34508,10.17334 -13.37192,20.12704 -23.42084,22.43327 -2.61451,0.609 -5.31882,0.52913 -7.98323,0.52913 0,0 -343.27939,0 -343.27939,0 0,0 -74.842895,0 -74.842895,0 -2.654428,0 -5.408647,0.10982 -7.983242,-0.63896 -8.771587,-2.51587 -18.3714349,-12.37972 -20.42711966,-21.32508 -0.60872215,-2.61571 -0.52888975,-5.32127 -0.52888975,-7.98691 0,0 0,-522.14496 0,-522.14496 0,0 0,-119.803815 0,-119.803815 0,0 0.52888975,-24.959129 0.52888975,-24.959129 C 3.2580372,12.769902 12.229206,4.7630135 21.409933,1.3286375 Z"
       style="display:inline;fill:url(#pattern10);fill-opacity:1;stroke-width:0.898322;stroke-linecap:butt;stroke-dasharray:none" />
    <path
       id="Auswahl #4-6"
       fill="none"
       stroke="#000000"
       stroke-width="0.998128"
       d="m 21.451861,1.1949433 c 0,0 38.918158,-0.63894645 38.918158,-0.63894645 0,0 75.840521,0 75.840521,0 0,0 239.49638,0 239.49638,0 0,0 74.84261,0 74.84261,0 2.65442,0 5.40863,-0.10981892 7.98321,0.63894645 8.77155,2.5158514 18.37137,12.3795867 20.42705,21.3248357 0.60872,2.615687 0.52889,5.321226 0.52889,7.986831 0,0 0,529.12749 0,529.12749 0,0 0,128.78763 0,128.78763 0,2.6656 0.0798,5.37114 -0.52889,7.98682 -2.34507,10.17324 -13.37188,20.12682 -23.42075,22.43301 -2.6145,0.60899 -5.31882,0.52912 -7.98321,0.52912 0,0 -343.27815,0 -343.27815,0 0,0 -74.842607,0 -74.842607,0 -2.654418,0 -5.408626,0.10983 -7.983212,-0.63894 -8.771555,-2.51585 -18.3713689,-12.37959 -20.4270458,-21.32483 -0.60872005,-2.61568 -0.52888798,-5.32122 -0.52888798,-7.98683 0,0 0,-522.13901 0,-522.13901 0,0 0,-119.802447 0,-119.802447 0,0 0.52888798,-24.958844 0.52888798,-24.958844 C 3.3000303,12.636078 12.271166,4.6292801 21.451861,1.1949433 Z"
       style="display:inline;fill:#edae00;fill-opacity:0.811765" />
  </g>
  <text
     xml:space="preserve"
     style="font-style:normal;font-variant:normal;font-weight:normal;font-stretch:normal;font-size:158.333px;font-family:'MV Boli';-inkscape-font-specification:'MV Boli, Normal';font-variant-ligatures:normal;font-variant-caps:normal;font-variant-numeric:normal;font-variant-east-asian:normal;fill:#800080;stroke:#000000;stroke-width:3.125"
     x="6.2078896"
     y="120.79503"
     id="text1"><tspan
       id="tspan1"
       style="font-style:normal;font-variant:normal;font-weight:normal;font-stretch:normal;font-size:158.333px;font-family:'MV Boli';-inkscape-font-specification:'MV Boli, Normal';font-variant-ligatures:normal;font-variant-caps:normal;font-variant-numeric:normal;font-variant-east-asian:normal;fill:#800080;stroke-width:3.125"
       x="6.2078896"
       y="120.79503"
       sodipodi:role="line">2</tspan></text>
  <text
     xml:space="preserve"
     style="font-style:normal;font-variant:normal;font-weight:normal;font-stretch:normal;font-size:158.333px;font-family:'MV Boli';-inkscape-font-specification:'MV Boli, Normal';font-variant-ligatures:normal;font-variant-caps:normal;font-variant-numeric:normal;font-variant-east-asian:normal;fill:#800080;stroke:#000000;stroke-width:3.125"
     x="-474.51056"
     y="-595.05981"
     id="text1-1"
     transform="scale(-1)"><tspan
       id="tspan1-1"
       style="font-style:normal;font-variant:normal;font-weight:normal;font-stretch:normal;font-size:158.333px;font-family:'MV Boli';-inkscape-font-specification:'MV Boli, Normal';font-variant-ligatures:normal;font-variant-caps:normal;font-variant-numeric:normal;font-variant-east-asian:normal;fill:#800080;stroke-width:3.125"
       x="-474.51056"
       y="-595.05981"
       sodipodi:role="line">2</tspan></text>
  <path
     style="fill:#800080;stroke:#000000;stroke-width:0.885609"
     d="m 33.838643,208.4194 c -0.327534,-0.52996 -0.03425,-1.63587 0.65175,-2.45758 0.685997,-0.8217 2.962172,-3.48663 5.058166,-5.92205 3.809781,-4.42675 5.491577,-7.42733 4.812212,-8.58571 -0.198438,-0.33837 -2.243909,-0.0438 -4.545466,0.65462 -6.401812,1.94266 -12.659418,1.66459 -16.230799,-0.72125 -5.858153,-3.9135 -7.579009,-11.04914 -4.36965,-18.11903 2.248506,-4.95324 6.190344,-7.31698 12.209162,-7.32126 4.737,-0.003 5.6582,-0.72046 3.367638,-2.62146 -2.195428,-1.82204 -4.294369,-8.54613 -3.683741,-11.80108 1.03635,-5.5242 8.720081,-10.37783 16.429068,-10.37783 5.801428,0 12.194856,2.44189 14.562925,5.56211 2.983897,3.93166 3.7259,8.56162 1.928978,12.03648 -0.784534,1.51712 -1.818488,3.7896 -2.297675,5.04996 -0.840459,2.21058 -0.776738,2.2708 1.803125,1.70417 3.587156,-0.78787 10.259715,2.46541 12.452675,6.07144 2.749034,4.52042 3.080471,9.65206 0.907046,14.0437 -2.889365,5.83829 -5.566609,7.34908 -12.923915,7.29308 -3.409594,-0.0259 -7.693725,-0.37698 -9.520293,-0.78008 -5.014494,-1.10662 -4.351335,1.12878 2.498518,8.42212 3.20075,3.40798 5.658756,6.68003 5.462231,7.27122 -0.479943,1.44378 -27.697186,2.01383 -28.571955,0.59843 z"
     id="path1" />
  <path
     style="fill:#800080;stroke:#000000;stroke-width:2.40467"
     d="m 116.71898,599.41454 c -0.88338,-1.44868 -0.0925,-4.47178 1.75784,-6.71797 1.85017,-2.24622 7.98921,-9.53097 13.64227,-16.18839 10.2753,-12.10087 14.81125,-20.30314 12.97895,-23.46967 -0.53521,-0.92499 -6.052,-0.11972 -12.25951,1.78945 -17.26619,5.31041 -34.143494,4.55026 -43.775801,-1.97158 -15.799909,-10.69786 -20.441193,-30.20366 -11.785303,-49.52977 6.064419,-13.54004 16.695864,-20.0015 32.929114,-20.0132 12.77608,-0.009 15.26063,-1.96942 9.0828,-7.16594 -5.92126,-4.98071 -11.58228,-23.36148 -9.93535,-32.25913 2.79513,-15.10082 23.51876,-28.36856 44.31055,-28.36856 15.64694,0 32.89052,6.67506 39.27741,15.20442 8.04781,10.74749 10.04904,23.40383 5.20261,32.90263 -2.11594,4.14715 -4.90461,10.35915 -6.197,13.80445 -2.26681,6.04276 -2.09494,6.20739 4.86314,4.65845 9.67487,-2.15371 27.67133,6.73936 33.58589,16.59673 7.41438,12.35692 8.3083,26.38462 2.44639,38.38954 -7.79285,15.95937 -15.01361,20.08926 -34.85687,19.93617 -9.19595,-0.0709 -20.75061,-1.03052 -25.67701,-2.1324 -13.52451,-3.02503 -11.7359,3.0856 6.73871,23.02249 8.63267,9.31597 15.26215,18.26037 14.73209,19.87643 -1.29444,3.94668 -74.70158,5.50497 -77.06092,1.63585 z"
     id="path1-5" />
  <path
     style="fill:#800080;stroke:#000000;stroke-width:2.41109"
     d="m 292.72192,314.25688 c -0.88816,-1.44862 -0.0929,-4.4716 1.76728,-6.71771 1.86013,-2.24616 8.0322,-9.53065 13.71567,-16.18783 10.33059,-12.10042 14.89093,-20.30241 13.04879,-23.46885 -0.5381,-0.92494 -6.08458,-0.11987 -12.32548,1.78941 -17.3591,5.31022 -34.32718,4.55008 -44.0113,-1.97152 -15.88493,-10.69747 -20.55119,-30.20258 -11.84873,-49.528 6.09706,-13.53957 16.78569,-20.00079 33.1063,-20.01251 12.8448,-0.007 15.34271,-1.96935 9.13166,-7.16568 -5.95313,-4.98055 -11.64461,-23.36065 -9.98881,-32.25799 2.81017,-15.10028 23.64529,-28.36756 44.54893,-28.36756 15.73113,0 33.06747,6.67483 39.48873,15.20388 8.09111,10.74712 10.10311,23.40302 5.23058,32.90148 -2.1273,4.14699 -4.93099,10.35879 -6.23033,13.80396 -2.27898,6.04253 -2.10621,6.20716 4.88933,4.65826 9.72691,-2.15362 27.82019,6.73914 33.76657,16.59617 7.45427,12.35649 8.35302,26.38368 2.45956,38.38817 -7.83478,15.95881 -15.09439,20.08855 -35.0444,19.93546 -9.24545,-0.0707 -20.86225,-1.03047 -25.81517,-2.13232 -13.59725,-3.02492 -11.79903,3.08549 6.77497,23.02169 8.67913,9.31563 15.34426,18.25969 14.81135,19.8757 -1.30141,3.94655 -75.10347,5.50478 -77.4755,1.63579 z"
     id="path1-5-5" />
  <path
     style="fill:#800080;stroke:#000000;stroke-width:0.885609"
     d="m 442.08344,515.09255 c 0.32753,0.52996 0.0343,1.63587 -0.65175,2.45758 -0.686,0.82171 -2.96217,3.48663 -5.05817,5.92206 -3.80978,4.42675 -5.49157,7.42732 -4.81221,8.5857 0.19844,0.33838 2.24391,0.0438 4.54547,-0.65462 6.40181,-1.94266 12.65942,-1.66458 16.2308,0.72125 5.85815,3.9135 7.57901,11.04914 4.36965,18.11904 -2.24851,4.95324 -6.19035,7.31697 -12.20916,7.32126 -4.737,0.003 -5.6582,0.72045 -3.36764,2.62145 2.19543,1.82205 4.29437,8.54613 3.68374,11.80108 -1.03635,5.5242 -8.72008,10.37782 -16.42907,10.37782 -5.80143,0 -12.19486,-2.44188 -14.56292,-5.5621 -2.9839,-3.93166 -3.7259,-8.56162 -1.92898,-12.03648 0.78453,-1.51712 1.81849,-3.7896 2.29767,-5.04996 0.84046,-2.21057 0.77674,-2.2708 -1.80312,-1.70416 -3.58716,0.78787 -10.25972,-2.46541 -12.45268,-6.07144 -2.74903,-4.52043 -3.08047,-9.65206 -0.90704,-14.04371 2.88936,-5.83828 5.56661,-7.34908 12.92391,-7.29308 3.4096,0.0259 7.69373,0.37698 9.52029,0.78008 5.0145,1.10662 4.35134,-1.12878 -2.49851,-8.42212 -3.20075,-3.40798 -5.65876,-6.68003 -5.46223,-7.27122 0.47994,-1.44378 27.69718,-2.01383 28.57195,-0.59843 z"
     id="path1-8" />
</svg>
