<?xml version="1.0" encoding="UTF-8" standalone="no"?>
<svg
   width="1.6in"
   height="2.4in"
   viewBox="0 0 480 720"
   version="1.1"
   id="svg1"
   sodipodi:docname="kreuzA.svg"
   inkscape:version="1.3.2 (091e20e, 2023-11-25, custom)"
   xmlns:inkscape="http://www.inkscape.org/namespaces/inkscape"
   xmlns:sodipodi="http://sodipodi.sourceforge.net/DTD/sodipodi-0.dtd"
   xmlns:xlink="http://www.w3.org/1999/xlink"
   xmlns="http://www.w3.org/2000/svg"
   xmlns:svg="http://www.w3.org/2000/svg">
  <defs
     id="defs1">
    <pattern
       inkscape:collect="always"
       xlink:href="#tiles-1"
       id="pattern10"
       patternTransform="matrix(4.6,0,0,4.6,76.218461,373.73705)"
       x="-2"
       y="-3"
       preserveAspectRatio="none" />
    <pattern
       patternUnits="userSpaceOnUse"
       width="15.021545"
       height="25.90893"
       patternTransform="translate(76.218461,373.73705)"
       style="fill:#d0972d"
       id="tiles-1"
       inkscape:label="Kacheln 1"
       inkscape:collect="always"
       inkscape:isstock="true">
      <path
         id="path5144"
         style="opacity:1;stroke-width:4.85611;stroke-linecap:square;paint-order:stroke markers fill;stop-color:#000000"
         d="M 7.510773,0 15.021545,12.95447 7.51077,25.90893 0,12.95447 Z"
         sodipodi:nodetypes="ccccc" />
    </pattern>
    <linearGradient
       id="swatch8"
       inkscape:swatch="solid">
      <stop
         style="stop-color:#e6e6e6;stop-opacity:1;"
         offset="0"
         id="stop9" />
    </linearGradient>
  </defs>
  <sodipodi:namedview
     id="namedview1"
     pagecolor="#ffffff"
     bordercolor="#000000"
     borderopacity="0.25"
     inkscape:showpageshadow="2"
     inkscape:pageopacity="0.0"
     inkscape:pagecheckerboard="0"
     inkscape:deskcolor="#d1d1d1"
     inkscape:document-units="in"
     inkscape:zoom="2.8284271"
     inkscape:cx="116.67262"
     inkscape:cy="89.272232"
     inkscape:window-width="1920"
     inkscape:window-height="1009"
     inkscape:window-x="-8"
     inkscape:window-y="-8"
     inkscape:window-maximized="1"
     inkscape:current-layer="svg1" />
  <path
     id="Auswahl #4"
     fill="none"
     stroke="#000000"
     stroke-width="1"
     d="M 21,0.64 C 21,0.64 60,0 60,0 c 0,0 76,0 76,0 0,0 240,0 240,0 0,0 75,0 75,0 2.66,0 5.42,-0.11 8,0.64 8.79,2.52 18.41,12.4 20.47,21.36 0.61,2.62 0.53,5.33 0.53,8 0,0 0,530 0,530 0,0 0,129 0,129 0,2.67 0.08,5.38 -0.53,8 -2.35,10.19 -13.4,20.16 -23.47,22.47 -2.62,0.61 -5.33,0.53 -8,0.53 0,0 -344,0 -344,0 0,0 -75,0 -75,0 -2.66,0 -5.42,0.11 -8,-0.64 C 12.21,716.84 2.59,706.96 0.53,698 -0.08,695.38 0,692.67 0,690 0,690 0,167 0,167 0,167 0,47 0,47 0,47 0.53,22 0.53,22 2.81,12.1 11.8,4.08 21,0.64 Z"
     style="fill:url(#pattern10);fill-opacity:1;stroke-width:0.9;stroke-linecap:butt;stroke-dasharray:none" />
  <path
     id="Auswahl #4-6"
     fill="none"
     stroke="#000000"
     stroke-width="1"
     d="m 21.040171,0.64451702 c 0,0 38.999997,-0.64 38.999997,-0.64 0,0 75.999992,0 75.999992,0 0,0 240,0 240,0 0,0 75,0 75,0 2.66,0 5.42,-0.11 8,0.64 8.79,2.51999998 18.41,12.39999998 20.47,21.35999998 0.61,2.62 0.53,5.33 0.53,8 0,0 0,529.999993 0,529.999993 0,0 0,129 0,129 0,2.67 0.08,5.38 -0.53,8 -2.35,10.19 -13.4,20.16 -23.47,22.47 -2.62,0.61 -5.33,0.53 -8,0.53 0,0 -344,0 -344,0 0,0 -74.999989,0 -74.999989,0 -2.66,0 -5.42,0.11 -8,-0.64 -8.79,-2.52 -18.4100004,-12.4 -20.47000035,-21.36 -0.61000002,-2.62 -0.53000002,-5.33 -0.53000002,-8 0,0 0,-523 0,-523 0,0 0,-119.999993 0,-119.999993 0,0 0.53000002,-25 0.53000002,-25 2.27999995,-9.9 11.27000035,-17.92 20.47000035,-21.35999998 z"
     style="fill:#edae00;fill-opacity:0.811765" />
  <path
     style="fill:#800080;stroke:#000000;stroke-width:0.885609"
     d="m 59.585396,209.08961 c -0.327534,-0.52996 -0.03425,-1.63587 0.65175,-2.45758 0.685997,-0.8217 2.962172,-3.48663 5.058166,-5.92205 3.809781,-4.42675 5.491577,-7.42733 4.812212,-8.58571 -0.198438,-0.33837 -2.243909,-0.0438 -4.545466,0.65462 -6.401812,1.94266 -12.659418,1.66459 -16.230799,-0.72125 -5.858153,-3.9135 -7.579009,-11.04914 -4.36965,-18.11903 2.248506,-4.95324 6.190344,-7.31698 12.209162,-7.32126 4.737,-0.003 5.6582,-0.72046 3.367638,-2.62146 -2.195428,-1.82204 -4.294369,-8.54613 -3.683741,-11.80108 1.03635,-5.5242 8.720081,-10.37783 16.429068,-10.37783 5.801428,0 12.194856,2.44189 14.562925,5.56211 2.983897,3.93166 3.7259,8.56162 1.928978,12.03648 -0.784534,1.51712 -1.818488,3.7896 -2.297675,5.04996 -0.840459,2.21058 -0.776738,2.2708 1.803125,1.70417 3.587156,-0.78787 10.259715,2.46541 12.452671,6.07144 2.74904,4.52042 3.08047,9.65206 0.90705,14.0437 -2.889365,5.83829 -5.566609,7.34908 -12.923915,7.29308 -3.409594,-0.0259 -7.693725,-0.37698 -9.520293,-0.78008 -5.014494,-1.10662 -4.351335,1.12878 2.498518,8.42212 3.20075,3.40798 5.658756,6.68003 5.462231,7.27122 -0.479943,1.44378 -27.697186,2.01383 -28.571955,0.59843 z"
     id="path1" />
  <path
     style="fill:#800080;stroke:#000000;stroke-width:3.69478"
     d="m 191.00569,486.93405 c -1.29981,-2.32437 -0.13611,-7.17485 2.5865,-10.7788 2.72236,-3.604 11.7554,-15.29218 20.07337,-25.97382 15.11917,-19.41552 21.79341,-32.57583 19.09735,-37.65644 -0.78751,-1.48413 -8.90497,-0.19209 -18.03876,2.87112 -25.40564,8.52041 -50.23906,7.30077 -64.41213,-3.16335 -23.24814,-17.16442 -30.07737,-48.46094 -17.341,-79.46915 8.92323,-21.72462 24.56644,-32.09186 48.4522,-32.11063 18.79885,-0.0144 22.45464,-3.15988 13.36452,-11.49755 -8.7126,-7.99142 -17.04228,-37.48286 -14.61897,-51.75889 4.11278,-24.22885 34.60573,-45.51657 65.19897,-45.51657 23.02306,0 48.39542,10.70995 57.79315,24.39507 11.84163,17.24405 14.78626,37.5508 7.65517,52.79136 -3.11341,6.65399 -7.21669,16.62098 -9.11832,22.14886 -3.33541,9.69545 -3.08252,9.95959 7.15567,7.47436 14.2357,-3.45557 40.71586,10.81312 49.4186,26.629 10.90959,19.82633 12.22491,42.33339 3.59964,61.59496 -11.46647,25.60637 -22.09117,32.23266 -51.28873,31.98703 -13.53101,-0.11375 -30.53265,-1.65344 -37.7814,-3.42137 -19.90009,-4.85358 -17.26831,4.95076 9.9154,36.93895 12.7022,14.94722 22.45688,29.29826 21.67694,31.89118 -1.90465,6.33234 -109.91662,8.83258 -113.38817,2.62468 z"
     id="path1-5" />
  <path
     style="fill:#800080;stroke:#000000;stroke-width:0.885609"
     d="m 419.98635,512.88284 c 0.32753,0.52996 0.0343,1.63587 -0.65175,2.45758 -0.686,0.82171 -2.96217,3.48663 -5.05817,5.92206 -3.80978,4.42675 -5.49157,7.42732 -4.81221,8.5857 0.19844,0.33838 2.24391,0.0438 4.54547,-0.65462 6.40181,-1.94266 12.65942,-1.66458 16.2308,0.72125 5.85815,3.9135 7.57901,11.04914 4.36965,18.11904 -2.24851,4.95324 -6.19035,7.31697 -12.20916,7.32126 -4.737,0.003 -5.6582,0.72045 -3.36764,2.62145 2.19543,1.82205 4.29437,8.54613 3.68374,11.80108 -1.03635,5.5242 -8.72008,10.37782 -16.42907,10.37782 -5.80143,0 -12.19486,-2.44188 -14.56292,-5.5621 -2.9839,-3.93166 -3.7259,-8.56162 -1.92898,-12.03648 0.78453,-1.51712 1.81849,-3.7896 2.29767,-5.04996 0.84046,-2.21057 0.77674,-2.2708 -1.80312,-1.70416 -3.58716,0.78787 -10.25972,-2.46541 -12.45268,-6.07144 -2.74903,-4.52043 -3.08047,-9.65206 -0.90704,-14.04371 2.88936,-5.83828 5.56661,-7.34908 12.92391,-7.29308 3.4096,0.0259 7.69373,0.37698 9.52029,0.78008 5.0145,1.10662 4.35134,-1.12878 -2.49851,-8.42212 -3.20075,-3.40798 -5.65876,-6.68003 -5.46223,-7.27122 0.47994,-1.44378 27.69718,-2.01383 28.57195,-0.59843 z"
     id="path1-8" />
  <path
     style="fill:#800080;stroke:#000000;stroke-width:3.27739"
     d="M 34.352788,163.42004 C 28.895674,163.55619 14.621212,162.77382 9.9718447,160.49845 4.3257324,124.66521 46.817028,79.556448 69.442311,34.235196 80.912612,11.258768 70.990864,38.471694 79.250449,10.627808 81.381195,8.6572081 44.479811,25.817167 82.19663,24.148301 113.99204,27.916641 87.787074,7.5061976 89.050939,10.062892 91.800435,57.720627 105.33505,128.01556 137.22302,162.75975 l -20.14736,0.74919 c -11.69411,-17.51318 -10.5991,-29.2434 -19.096904,-57.27503 -0.628088,-2.07185 -32.461194,-15.957096 -55.684289,8.49891 10.75157,-10.38952 15.643248,-20.102685 22.732126,-27.652608 17.42239,6.910002 28.616123,4.423413 27.678714,1.119705 C 84.402263,58.93801 85.691167,41.865902 81.283501,35.66719 33.523602,98.421505 84.238412,59.662227 38.911591,111.61168 30.766635,123.42545 26.0495,140.9263 34.352788,163.42004 Z"
     id="path1-5-4"
     sodipodi:nodetypes="ccscccccsccsccc" />
  <path
     style="fill:#800080;stroke:#000000;stroke-width:3.27739"
     d="m 444.33976,551.28474 c 5.45712,-0.13615 19.73158,0.64622 24.38095,2.92159 5.64611,35.83323 -36.84519,80.94199 -59.47047,126.26324 -11.4703,22.97643 -1.54855,-4.23649 -9.80813,23.60739 -2.13075,1.9706 34.77063,-15.18936 -2.94619,-13.52049 -31.79541,-3.76834 -5.59044,16.6421 -6.85431,14.08541 -2.74949,-47.65774 -16.28411,-117.95267 -48.17208,-152.69685 l 20.14736,-0.74919 c 11.69411,17.51318 10.5991,29.2434 19.09691,57.27502 0.62808,2.07185 32.46119,15.9571 55.68428,-8.49891 -10.75157,10.38952 -15.64324,20.10269 -22.73212,27.65261 -17.42239,-6.91 -28.61612,-4.42341 -27.67871,-1.11971 8.30304,29.26191 7.01414,46.33402 11.4218,52.53273 47.7599,-62.75431 -2.95491,-23.99504 42.37191,-75.94449 8.14496,-11.81377 12.86209,-29.31461 4.5588,-51.80835 z"
     id="path1-5-4-6"
     sodipodi:nodetypes="ccscccccsccsccc" />
</svg>
