<?xml version="1.0" encoding="UTF-8" standalone="no"?>
<svg
   width="1.6in"
   height="2.4in"
   viewBox="0 0 480 720"
   version="1.1"
   id="svg1"
   sodipodi:docname="kreuz3.svg"
   inkscape:version="1.3.2 (091e20e, 2023-11-25, custom)"
   xmlns:inkscape="http://www.inkscape.org/namespaces/inkscape"
   xmlns:sodipodi="http://sodipodi.sourceforge.net/DTD/sodipodi-0.dtd"
   xmlns:xlink="http://www.w3.org/1999/xlink"
   xmlns="http://www.w3.org/2000/svg"
   xmlns:svg="http://www.w3.org/2000/svg">
  <defs
     id="defs1">
    <pattern
       inkscape:collect="always"
       xlink:href="#tiles-1"
       id="pattern10"
       patternTransform="matrix(4.6,0,0,4.6,76.218461,373.73705)"
       x="-2"
       y="-3"
       preserveAspectRatio="none" />
    <pattern
       patternUnits="userSpaceOnUse"
       width="15.021545"
       height="25.90893"
       patternTransform="translate(76.218461,373.73705)"
       style="fill:#d0972d"
       id="tiles-1"
       inkscape:label="Kacheln 1"
       inkscape:collect="always"
       inkscape:isstock="true">
      <path
         id="path5144"
         style="opacity:1;stroke-width:4.85611;stroke-linecap:square;paint-order:stroke markers fill;stop-color:#000000"
         d="M 7.510773,0 15.021545,12.95447 7.51077,25.90893 0,12.95447 Z"
         sodipodi:nodetypes="ccccc" />
    </pattern>
    <linearGradient
       id="swatch8"
       inkscape:swatch="solid">
      <stop
         style="stop-color:#e6e6e6;stop-opacity:1;"
         offset="0"
         id="stop9" />
    </linearGradient>
  </defs>
  <sodipodi:namedview
     id="namedview1"
     pagecolor="#ffffff"
     bordercolor="#000000"
     borderopacity="0.25"
     inkscape:showpageshadow="2"
     inkscape:pageopacity="0.0"
     inkscape:pagecheckerboard="0"
     inkscape:deskcolor="#d1d1d1"
     inkscape:document-units="in"
     inkscape:zoom="2.4859227"
     inkscape:cx="16.895135"
     inkscape:cy="145.82111"
     inkscape:window-width="1920"
     inkscape:window-height="1009"
     inkscape:window-x="-8"
     inkscape:window-y="-8"
     inkscape:window-maximized="1"
     inkscape:current-layer="svg1" />
  <path
     id="Auswahl #4"
     fill="none"
     stroke="#000000"
     stroke-width="1"
     d="M 21,0.64 C 21,0.64 60,0 60,0 c 0,0 76,0 76,0 0,0 240,0 240,0 0,0 75,0 75,0 2.66,0 5.42,-0.11 8,0.64 8.79,2.52 18.41,12.4 20.47,21.36 0.61,2.62 0.53,5.33 0.53,8 0,0 0,530 0,530 0,0 0,129 0,129 0,2.67 0.08,5.38 -0.53,8 -2.35,10.19 -13.4,20.16 -23.47,22.47 -2.62,0.61 -5.33,0.53 -8,0.53 0,0 -344,0 -344,0 0,0 -75,0 -75,0 -2.66,0 -5.42,0.11 -8,-0.64 C 12.21,716.84 2.59,706.96 0.53,698 -0.08,695.38 0,692.67 0,690 0,690 0,167 0,167 0,167 0,47 0,47 0,47 0.53,22 0.53,22 2.81,12.1 11.8,4.08 21,0.64 Z"
     style="fill:url(#pattern10);fill-opacity:1;stroke-width:0.9;stroke-linecap:butt;stroke-dasharray:none" />
  <path
     id="Auswahl #4-6"
     fill="none"
     stroke="#000000"
     stroke-width="1"
     d="m 21.040171,0.64451702 c 0,0 38.999997,-0.64 38.999997,-0.64 0,0 75.999992,0 75.999992,0 0,0 240,0 240,0 0,0 75,0 75,0 2.66,0 5.42,-0.11 8,0.64 8.79,2.51999998 18.41,12.39999998 20.47,21.35999998 0.61,2.62 0.53,5.33 0.53,8 0,0 0,529.999993 0,529.999993 0,0 0,129 0,129 0,2.67 0.08,5.38 -0.53,8 -2.35,10.19 -13.4,20.16 -23.47,22.47 -2.62,0.61 -5.33,0.53 -8,0.53 0,0 -344,0 -344,0 0,0 -74.999989,0 -74.999989,0 -2.66,0 -5.42,0.11 -8,-0.64 -8.79,-2.52 -18.4100004,-12.4 -20.47000035,-21.36 -0.61000002,-2.62 -0.53000002,-5.33 -0.53000002,-8 0,0 0,-523 0,-523 0,0 0,-119.999993 0,-119.999993 0,0 0.53000002,-25 0.53000002,-25 2.27999995,-9.9 11.27000035,-17.92 20.47000035,-21.35999998 z"
     style="fill:#edae00;fill-opacity:0.811765" />
  <text
     xml:space="preserve"
     style="font-style:normal;font-variant:normal;font-weight:normal;font-stretch:normal;font-size:158.333px;font-family:'MV Boli';-inkscape-font-specification:'MV Boli, Normal';font-variant-ligatures:normal;font-variant-caps:normal;font-variant-numeric:normal;font-variant-east-asian:normal;fill:#800080;stroke:#000000;stroke-width:3.125"
     x="3.0848362"
     y="124.67429"
     id="text1"><tspan
       id="tspan1"
       style="font-style:normal;font-variant:normal;font-weight:normal;font-stretch:normal;font-size:158.333px;font-family:'MV Boli';-inkscape-font-specification:'MV Boli, Normal';font-variant-ligatures:normal;font-variant-caps:normal;font-variant-numeric:normal;font-variant-east-asian:normal;fill:#800080;stroke-width:3.125"
       x="3.0848362"
       y="124.67429"
       sodipodi:role="line">3</tspan></text>
  <text
     xml:space="preserve"
     style="font-style:normal;font-variant:normal;font-weight:normal;font-stretch:normal;font-size:158.333px;font-family:'MV Boli';-inkscape-font-specification:'MV Boli, Normal';font-variant-ligatures:normal;font-variant-caps:normal;font-variant-numeric:normal;font-variant-east-asian:normal;fill:#800080;stroke:#000000;stroke-width:3.125"
     x="-478.39471"
     y="-597.31372"
     id="text1-1"
     transform="scale(-1)"><tspan
       id="tspan1-1"
       style="font-style:normal;font-variant:normal;font-weight:normal;font-stretch:normal;font-size:158.333px;font-family:'MV Boli';-inkscape-font-specification:'MV Boli, Normal';font-variant-ligatures:normal;font-variant-caps:normal;font-variant-numeric:normal;font-variant-east-asian:normal;fill:#800080;stroke-width:3.125"
       x="-478.39471"
       y="-597.31372"
       sodipodi:role="line">3</tspan></text>
  <path
     style="fill:#800080;stroke:#000000;stroke-width:0.885609"
     d="m 32.390055,207.23105 c -0.327534,-0.52996 -0.03425,-1.63587 0.65175,-2.45758 0.685997,-0.8217 2.962172,-3.48663 5.058166,-5.92205 3.809781,-4.42675 5.491577,-7.42733 4.812212,-8.58571 -0.198438,-0.33837 -2.243909,-0.0438 -4.545466,0.65462 -6.401812,1.94266 -12.659418,1.66459 -16.230799,-0.72125 -5.858153,-3.9135 -7.579009,-11.04914 -4.36965,-18.11903 2.248506,-4.95324 6.190344,-7.31698 12.209162,-7.32126 4.737,-0.003 5.6582,-0.72046 3.367638,-2.62146 -2.195428,-1.82204 -4.294369,-8.54612 -3.683741,-11.80107 1.03635,-5.52421 8.720081,-10.37783 16.429068,-10.37783 5.801428,0 12.194856,2.44189 14.562925,5.56211 2.983897,3.93166 3.7259,8.56161 1.928978,12.03647 -0.784534,1.51712 -1.818488,3.7896 -2.297675,5.04996 -0.840459,2.21058 -0.776738,2.2708 1.803125,1.70417 3.587156,-0.78787 10.259715,2.46541 12.452675,6.07144 2.749034,4.52042 3.080471,9.65206 0.907046,14.0437 -2.889365,5.83829 -5.566609,7.34908 -12.923915,7.29308 -3.409594,-0.0259 -7.693725,-0.37698 -9.520293,-0.78008 -5.014494,-1.10662 -4.351335,1.12878 2.498518,8.42212 3.20075,3.40798 5.658756,6.68003 5.462231,7.27122 -0.479943,1.44378 -27.697186,2.01383 -28.571955,0.59843 z"
     id="path1" />
  <path
     style="fill:#800080;stroke:#000000;stroke-width:2.06867"
     d="m 87.870762,628.08682 c -0.74271,-1.27518 -0.0778,-3.93621 1.47793,-5.91339 1.55555,-1.9772 6.71703,-8.38948 11.469918,-14.24957 8.63909,-10.65159 12.45275,-17.87151 10.91222,-20.65879 -0.44999,-0.81421 -5.0883,-0.10539 -10.30735,1.57513 -14.516768,4.6744 -28.706578,4.00529 -36.805068,-1.73545 -13.28397,-9.41662 -17.18619,-26.58629 -9.90864,-43.59778 5.09874,-11.9184 14.03726,-17.606 27.68558,-17.6163 10.74165,-0.008 12.83057,-1.73355 7.63648,-6.3077 -4.97838,-4.38419 -9.73795,-20.56357 -8.35328,-28.39558 2.35004,-13.29225 19.773698,-24.97097 37.254668,-24.97097 13.15537,0 27.65313,5.87562 33.02299,13.38345 6.7663,9.4603 8.44886,20.60084 4.37416,28.96201 -1.779,3.65046 -4.12361,9.11847 -5.2102,12.15114 -1.90585,5.31904 -1.76135,5.46396 4.08874,4.10053 8.13427,-1.89577 23.26503,5.93221 28.23777,14.609 6.23374,10.87698 6.98531,23.22464 2.05684,33.79177 -6.55194,14.04798 -12.62289,17.68325 -29.30637,17.5485 -7.73161,-0.0624 -17.44634,-0.9071 -21.58827,-1.87701 -11.37091,-2.66274 -9.86711,2.71605 5.66565,20.26517 7.25803,8.20023 12.83185,16.0734 12.3862,17.49591 -1.08832,3.474 -62.806318,4.84566 -64.789968,1.43993 z"
     id="path1-5-0" />
  <path
     style="fill:#800080;stroke:#000000;stroke-width:2.06867"
     d="m 207.48416,430.32686 c -0.74271,-1.27518 -0.0778,-3.93621 1.47793,-5.91339 1.55555,-1.9772 6.71703,-8.38948 11.46992,-14.24957 8.63909,-10.65159 12.45275,-17.87151 10.91222,-20.65879 -0.44999,-0.81421 -5.0883,-0.10539 -10.30735,1.57513 -14.51677,4.6744 -28.70658,4.00529 -36.80507,-1.73545 -13.28397,-9.41662 -17.18619,-26.58629 -9.90864,-43.59778 5.09874,-11.9184 14.03726,-17.606 27.68558,-17.6163 10.74165,-0.008 12.83057,-1.73355 7.63648,-6.3077 -4.97838,-4.38419 -9.73795,-20.56357 -8.35328,-28.39558 2.35004,-13.29225 19.7737,-24.97097 37.25467,-24.97097 13.15537,0 27.65313,5.87562 33.02299,13.38345 6.7663,9.4603 8.44886,20.60084 4.37416,28.96201 -1.779,3.65046 -4.12361,9.11847 -5.2102,12.15114 -1.90585,5.31904 -1.76135,5.46396 4.08874,4.10053 8.13427,-1.89577 23.26503,5.93221 28.23777,14.609 6.23374,10.87698 6.98531,23.22464 2.05684,33.79177 -6.55194,14.04798 -12.62289,17.68325 -29.30637,17.5485 -7.73161,-0.0624 -17.44634,-0.9071 -21.58827,-1.87701 -11.37091,-2.66274 -9.86711,2.71605 5.66565,20.26517 7.25803,8.20023 12.83185,16.0734 12.3862,17.49591 -1.08832,3.474 -62.80632,4.84566 -64.78997,1.43993 z"
     id="path1-5-0-6" />
  <path
     style="fill:#800080;stroke:#000000;stroke-width:2.06867"
     d="m 326.83583,242.8452 c -0.74271,-1.27518 -0.0778,-3.93621 1.47793,-5.91339 1.55555,-1.9772 6.71703,-8.38948 11.46992,-14.24957 8.63909,-10.65159 12.45275,-17.87151 10.91222,-20.65879 -0.44999,-0.81421 -5.0883,-0.10539 -10.30735,1.57513 -14.51677,4.6744 -28.70658,4.00529 -36.80507,-1.73545 -13.28397,-9.41662 -17.18619,-26.58629 -9.90864,-43.59778 5.09874,-11.9184 14.03726,-17.606 27.68558,-17.6163 10.74165,-0.008 12.83057,-1.73355 7.63648,-6.3077 -4.97838,-4.38419 -9.73795,-20.56357 -8.35328,-28.39558 2.35004,-13.292246 19.7737,-24.970966 37.25467,-24.970966 13.15537,0 27.65313,5.87562 33.02299,13.38345 6.7663,9.460296 8.44886,20.600836 4.37416,28.962006 -1.779,3.65046 -4.12361,9.11847 -5.2102,12.15114 -1.90585,5.31904 -1.76135,5.46396 4.08874,4.10053 8.13427,-1.89577 23.26503,5.93221 28.23777,14.609 6.23374,10.87698 6.98531,23.22464 2.05684,33.79177 -6.55194,14.04798 -12.62289,17.68325 -29.30637,17.5485 -7.73161,-0.0624 -17.44634,-0.9071 -21.58827,-1.87701 -11.37091,-2.66274 -9.86711,2.71605 5.66565,20.26517 7.25803,8.20023 12.83185,16.0734 12.3862,17.49591 -1.08832,3.474 -62.80632,4.84566 -64.78997,1.43993 z"
     id="path1-5-0-69" />
  <path
     style="fill:#800080;stroke:#000000;stroke-width:0.885609"
     d="m 441.66605,518.14687 c 0.32753,0.52996 0.0343,1.63587 -0.65175,2.45758 -0.686,0.82171 -2.96217,3.48663 -5.05817,5.92206 -3.80978,4.42675 -5.49157,7.42732 -4.81221,8.5857 0.19844,0.33838 2.24391,0.0438 4.54547,-0.65462 6.40181,-1.94266 12.65942,-1.66458 16.2308,0.72125 5.85815,3.9135 7.57901,11.04914 4.36965,18.11904 -2.24851,4.95324 -6.19035,7.31697 -12.20916,7.32126 -4.737,0.003 -5.6582,0.72045 -3.36764,2.62145 2.19543,1.82205 4.29437,8.54613 3.68374,11.80108 -1.03635,5.5242 -8.72008,10.37782 -16.42907,10.37782 -5.80143,0 -12.19486,-2.44188 -14.56292,-5.5621 -2.9839,-3.93166 -3.7259,-8.56162 -1.92898,-12.03648 0.78453,-1.51712 1.81849,-3.7896 2.29767,-5.04996 0.84046,-2.21057 0.77674,-2.2708 -1.80312,-1.70416 -3.58716,0.78787 -10.25972,-2.46541 -12.45268,-6.07144 -2.74903,-4.52043 -3.08047,-9.65206 -0.90704,-14.04371 2.88936,-5.83828 5.56661,-7.34908 12.92391,-7.29308 3.4096,0.0259 7.69373,0.37698 9.52029,0.78008 5.0145,1.10662 4.35134,-1.12878 -2.49851,-8.42212 -3.20075,-3.40798 -5.65876,-6.68003 -5.46223,-7.27122 0.47994,-1.44378 27.69718,-2.01383 28.57195,-0.59843 z"
     id="path1-8" />
</svg>
