<?xml version="1.0" encoding="UTF-8" standalone="no"?>
<svg
   width="1.6in"
   height="2.4in"
   viewBox="0 0 480 720"
   version="1.1"
   id="svg1"
   sodipodi:docname="kreuz4.svg"
   inkscape:version="1.3.2 (091e20e, 2023-11-25, custom)"
   xmlns:inkscape="http://www.inkscape.org/namespaces/inkscape"
   xmlns:sodipodi="http://sodipodi.sourceforge.net/DTD/sodipodi-0.dtd"
   xmlns:xlink="http://www.w3.org/1999/xlink"
   xmlns="http://www.w3.org/2000/svg"
   xmlns:svg="http://www.w3.org/2000/svg">
  <defs
     id="defs1">
    <pattern
       inkscape:collect="always"
       xlink:href="#tiles-1"
       id="pattern10"
       patternTransform="matrix(4.6,0,0,4.6,76.218461,373.73705)"
       x="-2"
       y="-3"
       preserveAspectRatio="none" />
    <pattern
       patternUnits="userSpaceOnUse"
       width="15.021545"
       height="25.90893"
       patternTransform="translate(76.218461,373.73705)"
       style="fill:#d0972d"
       id="tiles-1"
       inkscape:label="Kacheln 1"
       inkscape:collect="always"
       inkscape:isstock="true">
      <path
         id="path5144"
         style="opacity:1;stroke-width:4.85611;stroke-linecap:square;paint-order:stroke markers fill;stop-color:#000000"
         d="M 7.510773,0 15.021545,12.95447 7.51077,25.90893 0,12.95447 Z"
         sodipodi:nodetypes="ccccc" />
    </pattern>
    <linearGradient
       id="swatch8"
       inkscape:swatch="solid">
      <stop
         style="stop-color:#e6e6e6;stop-opacity:1;"
         offset="0"
         id="stop9" />
    </linearGradient>
  </defs>
  <sodipodi:namedview
     id="namedview1"
     pagecolor="#ffffff"
     bordercolor="#000000"
     borderopacity="0.25"
     inkscape:showpageshadow="2"
     inkscape:pageopacity="0.0"
     inkscape:pagecheckerboard="0"
     inkscape:deskcolor="#d1d1d1"
     inkscape:document-units="in"
     inkscape:zoom="2.4859227"
     inkscape:cx="16.895135"
     inkscape:cy="145.82111"
     inkscape:window-width="1920"
     inkscape:window-height="1009"
     inkscape:window-x="-8"
     inkscape:window-y="-8"
     inkscape:window-maximized="1"
     inkscape:current-layer="svg1" />
  <g
     id="g2"
     transform="translate(0.0071402,0.00565841)">
    <path
       id="path1"
       fill="none"
       stroke="#000000"
       stroke-width="1"
       d="M 21,0.64 C 21,0.64 60,0 60,0 c 0,0 76,0 76,0 0,0 240,0 240,0 0,0 75,0 75,0 2.66,0 5.42,-0.11 8,0.64 8.79,2.52 18.41,12.4 20.47,21.36 0.61,2.62 0.53,5.33 0.53,8 0,0 0,530 0,530 0,0 0,129 0,129 0,2.67 0.08,5.38 -0.53,8 -2.35,10.19 -13.4,20.16 -23.47,22.47 -2.62,0.61 -5.33,0.53 -8,0.53 0,0 -344,0 -344,0 0,0 -75,0 -75,0 -2.66,0 -5.42,0.11 -8,-0.64 C 12.21,716.84 2.59,706.96 0.53,698 -0.08,695.38 0,692.67 0,690 0,690 0,167 0,167 0,167 0,47 0,47 0,47 0.53,22 0.53,22 2.81,12.1 11.8,4.08 21,0.64 Z"
       style="display:inline;fill:#ffffff;fill-opacity:1;stroke:none;stroke-width:0.9;stroke-linecap:butt;stroke-dasharray:none" />
    <path
       id="Auswahl #4"
       fill="none"
       stroke="#000000"
       stroke-width="1"
       d="m 21.409933,1.3286375 c 0,0 38.918303,-0.6389537 38.918303,-0.6389537 0,0 75.840794,0 75.840794,0 0,0 239.49725,0 239.49725,0 0,0 74.84289,0 74.84289,0 2.65443,0 5.40864,-0.10982017 7.98324,0.6389537 8.77159,2.51588 18.37144,12.3797275 20.42712,21.3250785 0.60872,2.615717 0.52889,5.321287 0.52889,7.986921 0,0 0,529.133513 0,529.133513 0,0 0,128.7891 0,128.7891 0,2.66563 0.0798,5.37121 -0.52889,7.98692 -2.34508,10.17334 -13.37192,20.12704 -23.42084,22.43327 -2.61451,0.609 -5.31882,0.52913 -7.98323,0.52913 0,0 -343.27939,0 -343.27939,0 0,0 -74.842895,0 -74.842895,0 -2.654428,0 -5.408647,0.10982 -7.983242,-0.63896 -8.771587,-2.51587 -18.3714349,-12.37972 -20.42711966,-21.32508 -0.60872215,-2.61571 -0.52888975,-5.32127 -0.52888975,-7.98691 0,0 0,-522.14496 0,-522.14496 0,0 0,-119.803815 0,-119.803815 0,0 0.52888975,-24.959129 0.52888975,-24.959129 C 3.2580372,12.769902 12.229206,4.7630135 21.409933,1.3286375 Z"
       style="display:inline;fill:url(#pattern10);fill-opacity:1;stroke-width:0.898322;stroke-linecap:butt;stroke-dasharray:none" />
    <path
       id="Auswahl #4-6"
       fill="none"
       stroke="#000000"
       stroke-width="0.998128"
       d="m 21.451861,1.1949433 c 0,0 38.918158,-0.63894645 38.918158,-0.63894645 0,0 75.840521,0 75.840521,0 0,0 239.49638,0 239.49638,0 0,0 74.84261,0 74.84261,0 2.65442,0 5.40863,-0.10981892 7.98321,0.63894645 8.77155,2.5158514 18.37137,12.3795867 20.42705,21.3248357 0.60872,2.615687 0.52889,5.321226 0.52889,7.986831 0,0 0,529.12749 0,529.12749 0,0 0,128.78763 0,128.78763 0,2.6656 0.0798,5.37114 -0.52889,7.98682 -2.34507,10.17324 -13.37188,20.12682 -23.42075,22.43301 -2.6145,0.60899 -5.31882,0.52912 -7.98321,0.52912 0,0 -343.27815,0 -343.27815,0 0,0 -74.842607,0 -74.842607,0 -2.654418,0 -5.408626,0.10983 -7.983212,-0.63894 -8.771555,-2.51585 -18.3713689,-12.37959 -20.4270458,-21.32483 -0.60872005,-2.61568 -0.52888798,-5.32122 -0.52888798,-7.98683 0,0 0,-522.13901 0,-522.13901 0,0 0,-119.802447 0,-119.802447 0,0 0.52888798,-24.958844 0.52888798,-24.958844 C 3.3000303,12.636078 12.271166,4.6292801 21.451861,1.1949433 Z"
       style="display:inline;fill:#edae00;fill-opacity:0.811765" />
  </g>
  <text
     xml:space="preserve"
     style="font-style:normal;font-variant:normal;font-weight:normal;font-stretch:normal;font-size:158.333px;font-family:'MV Boli';-inkscape-font-specification:'MV Boli, Normal';font-variant-ligatures:normal;font-variant-caps:normal;font-variant-numeric:normal;font-variant-east-asian:normal;fill:#800080;stroke:#000000;stroke-width:3.125"
     x="0.57067925"
     y="123.41721"
     id="text1"><tspan
       id="tspan1"
       style="font-style:normal;font-variant:normal;font-weight:normal;font-stretch:normal;font-size:158.333px;font-family:'MV Boli';-inkscape-font-specification:'MV Boli, Normal';font-variant-ligatures:normal;font-variant-caps:normal;font-variant-numeric:normal;font-variant-east-asian:normal;fill:#800080;stroke-width:3.125"
       x="0.57067925"
       y="123.41721"
       sodipodi:role="line">4</tspan></text>
  <text
     xml:space="preserve"
     style="font-style:normal;font-variant:normal;font-weight:normal;font-stretch:normal;font-size:158.333px;font-family:'MV Boli';-inkscape-font-specification:'MV Boli, Normal';font-variant-ligatures:normal;font-variant-caps:normal;font-variant-numeric:normal;font-variant-east-asian:normal;fill:#800080;stroke:#000000;stroke-width:3.125"
     x="-483.42303"
     y="-596.05664"
     id="text1-1"
     transform="scale(-1)"><tspan
       id="tspan1-1"
       style="font-style:normal;font-variant:normal;font-weight:normal;font-stretch:normal;font-size:158.333px;font-family:'MV Boli';-inkscape-font-specification:'MV Boli, Normal';font-variant-ligatures:normal;font-variant-caps:normal;font-variant-numeric:normal;font-variant-east-asian:normal;fill:#800080;stroke-width:3.125"
       x="-483.42303"
       y="-596.05664"
       sodipodi:role="line">4</tspan></text>
  <path
     style="fill:#800080;stroke:#000000;stroke-width:0.885609"
     d="m 47.474997,204.7169 c -0.327534,-0.52996 -0.03425,-1.63587 0.65175,-2.45758 0.685997,-0.8217 2.962172,-3.48663 5.058166,-5.92205 3.809781,-4.42675 5.491577,-7.42733 4.812212,-8.58571 -0.198438,-0.33837 -2.243909,-0.0438 -4.545466,0.65462 -6.401812,1.94266 -12.659418,1.66459 -16.230799,-0.72125 -5.858153,-3.9135 -7.57901,-11.04914 -4.36965,-18.11903 2.248506,-4.95324 6.190344,-7.31698 12.209162,-7.32126 4.737,-0.003 5.6582,-0.72046 3.367638,-2.62146 -2.195428,-1.82204 -4.294369,-8.54613 -3.683741,-11.80108 1.03635,-5.5242 8.720081,-10.37782 16.429068,-10.37782 5.801428,0 12.194856,2.44188 14.562925,5.5621 2.983897,3.93166 3.7259,8.56162 1.928978,12.03648 -0.784534,1.51712 -1.818488,3.7896 -2.297675,5.04996 -0.840459,2.21058 -0.776738,2.2708 1.803125,1.70417 3.587156,-0.78787 10.259715,2.46541 12.452675,6.07144 2.749034,4.52042 3.080471,9.65206 0.907046,14.0437 -2.889365,5.83829 -5.566609,7.34908 -12.923915,7.29308 -3.409594,-0.0259 -7.693725,-0.37698 -9.520293,-0.78008 -5.014494,-1.10662 -4.351335,1.12878 2.498518,8.42212 3.20075,3.40798 5.658756,6.68003 5.462231,7.27122 -0.479943,1.44378 -27.697186,2.01383 -28.571955,0.59843 z"
     id="path1" />
  <path
     style="fill:#800080;stroke:#000000;stroke-width:1.69579"
     d="m 212.25994,233.34753 c -0.61582,-1.03348 -0.0645,-3.19013 1.22542,-4.79255 1.28978,-1.60243 5.56941,-6.7993 9.51026,-11.54865 7.16308,-8.63265 10.32516,-14.48408 9.04784,-16.74305 -0.37311,-0.65988 -4.21896,-0.0854 -8.54632,1.27658 -12.03654,3.78839 -23.80199,3.24611 -30.51683,-1.40651 -11.01438,-7.63176 -14.24989,-21.54703 -8.21573,-35.33409 4.22761,-9.65935 11.63896,-14.2689 22.95543,-14.27725 8.90642,-0.006 10.63844,-1.40496 6.33177,-5.11211 -4.12781,-3.5532 -8.0742,-16.66588 -6.9261,-23.01338 1.94853,-10.77278 16.39532,-20.23787 30.88962,-20.23787 10.90774,0 22.92853,4.76193 27.38093,10.8467 5.61027,7.66716 7.00536,16.69607 3.62683,23.47244 -1.47505,2.95854 -3.41908,7.39012 -4.32003,9.84797 -1.58023,4.31084 -1.46042,4.4283 3.39017,3.3233 6.74451,-1.53644 19.29015,4.80779 23.41328,11.83995 5.16869,8.81532 5.79186,18.82256 1.70543,27.38675 -5.43253,11.38528 -10.46624,14.33151 -24.29931,14.2223 -6.41065,-0.0506 -14.46559,-0.73517 -17.89986,-1.52124 -9.42817,-2.15803 -8.18129,2.20124 4.69766,16.42404 6.01798,6.64592 10.6395,13.02679 10.26999,14.17967 -0.90238,2.81552 -52.07572,3.92719 -53.72045,1.167 z"
     id="path1-5-0-69" />
  <path
     style="fill:#800080;stroke:#000000;stroke-width:1.69579"
     d="m 74.130111,422.60803 c -0.61582,-1.03348 -0.0645,-3.19013 1.22542,-4.79255 1.28978,-1.60243 5.56941,-6.7993 9.51026,-11.54865 7.163081,-8.63265 10.325161,-14.48408 9.047841,-16.74305 -0.37311,-0.65988 -4.218961,-0.0854 -8.546321,1.27658 -12.03654,3.78839 -23.80199,3.24611 -30.51683,-1.40651 -11.01438,-7.63176 -14.24989,-21.54703 -8.21573,-35.33409 4.22761,-9.65935 11.63896,-14.2689 22.95543,-14.27725 8.90642,-0.006 10.63844,-1.40496 6.33177,-5.11211 -4.12781,-3.5532 -8.0742,-16.66588 -6.9261,-23.01338 1.94853,-10.77278 16.39532,-20.23787 30.889621,-20.23787 10.907738,0 22.928528,4.76193 27.380928,10.8467 5.61027,7.66716 7.00536,16.69607 3.62683,23.47244 -1.47505,2.95854 -3.41908,7.39012 -4.32003,9.84797 -1.58023,4.31084 -1.46042,4.4283 3.39017,3.3233 6.74451,-1.53644 19.29015,4.80779 23.41328,11.83995 5.16869,8.81532 5.79186,18.82256 1.70543,27.38675 -5.43253,11.38528 -10.46624,14.33151 -24.29931,14.2223 -6.41065,-0.0506 -14.46559,-0.73517 -17.89986,-1.52124 -9.42817,-2.15803 -8.18129,2.20124 4.69766,16.42404 6.01798,6.64592 10.6395,13.02679 10.26999,14.17967 -0.90238,2.81552 -52.075719,3.92719 -53.720449,1.167 z"
     id="path1-5-0-69-5" />
  <path
     style="fill:#800080;stroke:#000000;stroke-width:1.69579"
     d="m 216.32155,605.1505 c -0.61582,-1.03348 -0.0645,-3.19013 1.22542,-4.79255 1.28978,-1.60243 5.56941,-6.7993 9.51026,-11.54865 7.16308,-8.63265 10.32516,-14.48408 9.04784,-16.74305 -0.37311,-0.65988 -4.21896,-0.0854 -8.54632,1.27658 -12.03654,3.78839 -23.80199,3.24611 -30.51683,-1.40651 -11.01438,-7.63176 -14.24989,-21.54703 -8.21573,-35.33409 4.22761,-9.65935 11.63896,-14.2689 22.95543,-14.27725 8.90642,-0.006 10.63844,-1.40496 6.33177,-5.11211 -4.12781,-3.5532 -8.0742,-16.66588 -6.9261,-23.01338 1.94853,-10.77278 16.39532,-20.23787 30.88962,-20.23787 10.90774,0 22.92853,4.76193 27.38093,10.8467 5.61027,7.66715 7.00536,16.69607 3.62683,23.47244 -1.47505,2.95854 -3.41908,7.39012 -4.32003,9.84797 -1.58023,4.31084 -1.46042,4.4283 3.39017,3.3233 6.74451,-1.53644 19.29015,4.80779 23.41328,11.83995 5.16869,8.81532 5.79186,18.82256 1.70543,27.38675 -5.43253,11.38528 -10.46624,14.33151 -24.29931,14.2223 -6.41065,-0.0506 -14.46559,-0.73517 -17.89986,-1.52124 -9.42817,-2.15803 -8.18129,2.20124 4.69766,16.42404 6.01798,6.64592 10.6395,13.02679 10.26999,14.17967 -0.90238,2.81552 -52.07572,3.92719 -53.72045,1.167 z"
     id="path1-5-0-69-6" />
  <path
     style="fill:#800080;stroke:#000000;stroke-width:1.69579"
     d="m 352.54612,415.19008 c -0.61582,-1.03348 -0.0645,-3.19013 1.22542,-4.79255 1.28978,-1.60243 5.56941,-6.7993 9.51026,-11.54865 7.16308,-8.63265 10.32516,-14.48408 9.04784,-16.74305 -0.37311,-0.65988 -4.21896,-0.0854 -8.54632,1.27658 -12.03654,3.78839 -23.80199,3.24611 -30.51683,-1.40651 -11.01438,-7.63176 -14.24989,-21.54703 -8.21573,-35.33409 4.22761,-9.65935 11.63896,-14.2689 22.95543,-14.27725 8.90642,-0.006 10.63844,-1.40496 6.33177,-5.11211 -4.12781,-3.5532 -8.0742,-16.66588 -6.9261,-23.01338 1.94853,-10.77278 16.39532,-20.23787 30.88962,-20.23787 10.90774,0 22.92853,4.76193 27.38093,10.8467 5.61027,7.66715 7.00536,16.69607 3.62683,23.47244 -1.47505,2.95854 -3.41908,7.39012 -4.32003,9.84797 -1.58023,4.31084 -1.46042,4.4283 3.39017,3.3233 6.74451,-1.53644 19.29015,4.80779 23.41328,11.83995 5.16869,8.81532 5.79186,18.82256 1.70543,27.38675 -5.43253,11.38528 -10.46624,14.33151 -24.29931,14.2223 -6.41065,-0.0506 -14.46559,-0.73517 -17.89986,-1.52124 -9.42817,-2.15803 -8.18129,2.20124 4.69766,16.42404 6.01798,6.64592 10.6395,13.02679 10.26999,14.17967 -0.90238,2.81552 -52.07572,3.92719 -53.72045,1.167 z"
     id="path1-5-0-69-0" />
  <path
     style="fill:#800080;stroke:#000000;stroke-width:0.885609"
     d="m 439.1519,515.63271 c 0.32753,0.52996 0.0343,1.63587 -0.65175,2.45758 -0.686,0.82171 -2.96217,3.48663 -5.05817,5.92206 -3.80978,4.42675 -5.49157,7.42732 -4.81221,8.5857 0.19844,0.33838 2.24391,0.0438 4.54547,-0.65462 6.40181,-1.94266 12.65942,-1.66458 16.2308,0.72125 5.85815,3.9135 7.57901,11.04914 4.36965,18.11904 -2.24851,4.95324 -6.19035,7.31697 -12.20916,7.32126 -4.737,0.003 -5.6582,0.72045 -3.36764,2.62145 2.19543,1.82205 4.29437,8.54613 3.68374,11.80108 -1.03635,5.5242 -8.72008,10.37782 -16.42907,10.37782 -5.80143,0 -12.19486,-2.44188 -14.56292,-5.5621 -2.9839,-3.93166 -3.7259,-8.56162 -1.92898,-12.03648 0.78453,-1.51712 1.81849,-3.7896 2.29767,-5.04996 0.84046,-2.21057 0.77674,-2.2708 -1.80312,-1.70416 -3.58716,0.78787 -10.25972,-2.46541 -12.45268,-6.07144 -2.74903,-4.52043 -3.08047,-9.65206 -0.90704,-14.04371 2.88936,-5.83828 5.56661,-7.34908 12.92391,-7.29308 3.4096,0.0259 7.69373,0.37698 9.52029,0.78008 5.0145,1.10662 4.35134,-1.12878 -2.49851,-8.42212 -3.20075,-3.40798 -5.65876,-6.68003 -5.46223,-7.27122 0.47994,-1.44378 27.69718,-2.01383 28.57195,-0.59843 z"
     id="path1-8" />
</svg>
