<?xml version="1.0" encoding="UTF-8" standalone="no"?>
<svg
   width="1.6in"
   height="2.4in"
   viewBox="0 0 480 720"
   version="1.1"
   id="svg1"
   sodipodi:docname="kreuzK.svg"
   inkscape:version="1.3.2 (091e20e, 2023-11-25, custom)"
   xmlns:inkscape="http://www.inkscape.org/namespaces/inkscape"
   xmlns:sodipodi="http://sodipodi.sourceforge.net/DTD/sodipodi-0.dtd"
   xmlns:xlink="http://www.w3.org/1999/xlink"
   xmlns="http://www.w3.org/2000/svg"
   xmlns:svg="http://www.w3.org/2000/svg">
  <defs
     id="defs1">
    <rect
       x="197.51218"
       y="90.911918"
       width="240.95681"
       height="58.730708"
       id="rect8" />
    <pattern
       inkscape:collect="always"
       xlink:href="#tiles-1"
       id="pattern10"
       patternTransform="matrix(4.6,0,0,4.6,76.218461,373.73705)"
       x="-2"
       y="-3"
       preserveAspectRatio="none" />
    <pattern
       patternUnits="userSpaceOnUse"
       width="15.021545"
       height="25.90893"
       patternTransform="translate(76.218461,373.73705)"
       style="fill:#d0972d"
       id="tiles-1"
       inkscape:label="Kacheln 1"
       inkscape:collect="always"
       inkscape:isstock="true">
      <path
         id="path5144"
         style="opacity:1;stroke-width:4.85611;stroke-linecap:square;paint-order:stroke markers fill;stop-color:#000000"
         d="M 7.510773,0 15.021545,12.95447 7.51077,25.90893 0,12.95447 Z"
         sodipodi:nodetypes="ccccc" />
    </pattern>
    <linearGradient
       id="swatch8"
       inkscape:swatch="solid">
      <stop
         style="stop-color:#e6e6e6;stop-opacity:1;"
         offset="0"
         id="stop9" />
    </linearGradient>
  </defs>
  <sodipodi:namedview
     id="namedview1"
     pagecolor="#ffffff"
     bordercolor="#000000"
     borderopacity="0.25"
     inkscape:showpageshadow="2"
     inkscape:pageopacity="0.0"
     inkscape:pagecheckerboard="0"
     inkscape:deskcolor="#d1d1d1"
     inkscape:document-units="in"
     inkscape:zoom="2"
     inkscape:cx="61.500001"
     inkscape:cy="112.75"
     inkscape:window-width="1920"
     inkscape:window-height="1009"
     inkscape:window-x="-8"
     inkscape:window-y="-8"
     inkscape:window-maximized="1"
     inkscape:current-layer="svg1" />
  <g
     id="g2"
     transform="translate(0.0071402,0.00565841)">
    <path
       id="path1"
       fill="none"
       stroke="#000000"
       stroke-width="1"
       d="M 21,0.64 C 21,0.64 60,0 60,0 c 0,0 76,0 76,0 0,0 240,0 240,0 0,0 75,0 75,0 2.66,0 5.42,-0.11 8,0.64 8.79,2.52 18.41,12.4 20.47,21.36 0.61,2.62 0.53,5.33 0.53,8 0,0 0,530 0,530 0,0 0,129 0,129 0,2.67 0.08,5.38 -0.53,8 -2.35,10.19 -13.4,20.16 -23.47,22.47 -2.62,0.61 -5.33,0.53 -8,0.53 0,0 -344,0 -344,0 0,0 -75,0 -75,0 -2.66,0 -5.42,0.11 -8,-0.64 C 12.21,716.84 2.59,706.96 0.53,698 -0.08,695.38 0,692.67 0,690 0,690 0,167 0,167 0,167 0,47 0,47 0,47 0.53,22 0.53,22 2.81,12.1 11.8,4.08 21,0.64 Z"
       style="display:inline;fill:#ffffff;fill-opacity:1;stroke:none;stroke-width:0.9;stroke-linecap:butt;stroke-dasharray:none" />
    <path
       id="Auswahl #4"
       fill="none"
       stroke="#000000"
       stroke-width="1"
       d="m 21.409933,1.3286375 c 0,0 38.918303,-0.6389537 38.918303,-0.6389537 0,0 75.840794,0 75.840794,0 0,0 239.49725,0 239.49725,0 0,0 74.84289,0 74.84289,0 2.65443,0 5.40864,-0.10982017 7.98324,0.6389537 8.77159,2.51588 18.37144,12.3797275 20.42712,21.3250785 0.60872,2.615717 0.52889,5.321287 0.52889,7.986921 0,0 0,529.133513 0,529.133513 0,0 0,128.7891 0,128.7891 0,2.66563 0.0798,5.37121 -0.52889,7.98692 -2.34508,10.17334 -13.37192,20.12704 -23.42084,22.43327 -2.61451,0.609 -5.31882,0.52913 -7.98323,0.52913 0,0 -343.27939,0 -343.27939,0 0,0 -74.842895,0 -74.842895,0 -2.654428,0 -5.408647,0.10982 -7.983242,-0.63896 -8.771587,-2.51587 -18.3714349,-12.37972 -20.42711966,-21.32508 -0.60872215,-2.61571 -0.52888975,-5.32127 -0.52888975,-7.98691 0,0 0,-522.14496 0,-522.14496 0,0 0,-119.803815 0,-119.803815 0,0 0.52888975,-24.959129 0.52888975,-24.959129 C 3.2580372,12.769902 12.229206,4.7630135 21.409933,1.3286375 Z"
       style="display:inline;fill:url(#pattern10);fill-opacity:1;stroke-width:0.898322;stroke-linecap:butt;stroke-dasharray:none" />
    <path
       id="Auswahl #4-6"
       fill="none"
       stroke="#000000"
       stroke-width="0.998128"
       d="m 21.451861,1.1949433 c 0,0 38.918158,-0.63894645 38.918158,-0.63894645 0,0 75.840521,0 75.840521,0 0,0 239.49638,0 239.49638,0 0,0 74.84261,0 74.84261,0 2.65442,0 5.40863,-0.10981892 7.98321,0.63894645 8.77155,2.5158514 18.37137,12.3795867 20.42705,21.3248357 0.60872,2.615687 0.52889,5.321226 0.52889,7.986831 0,0 0,529.12749 0,529.12749 0,0 0,128.78763 0,128.78763 0,2.6656 0.0798,5.37114 -0.52889,7.98682 -2.34507,10.17324 -13.37188,20.12682 -23.42075,22.43301 -2.6145,0.60899 -5.31882,0.52912 -7.98321,0.52912 0,0 -343.27815,0 -343.27815,0 0,0 -74.842607,0 -74.842607,0 -2.654418,0 -5.408626,0.10983 -7.983212,-0.63894 -8.771555,-2.51585 -18.3713689,-12.37959 -20.4270458,-21.32483 -0.60872005,-2.61568 -0.52888798,-5.32122 -0.52888798,-7.98683 0,0 0,-522.13901 0,-522.13901 0,0 0,-119.802447 0,-119.802447 0,0 0.52888798,-24.958844 0.52888798,-24.958844 C 3.3000303,12.636078 12.271166,4.6292801 21.451861,1.1949433 Z"
       style="display:inline;fill:#edae00;fill-opacity:0.811765" />
  </g>
  <text
     xml:space="preserve"
     style="font-style:normal;font-variant:normal;font-weight:normal;font-stretch:normal;font-size:158.333px;font-family:'MV Boli';-inkscape-font-specification:'MV Boli, Normal';font-variant-ligatures:normal;font-variant-caps:normal;font-variant-numeric:normal;font-variant-east-asian:normal;fill:#800080;stroke:#000000;stroke-width:3.125;fill-opacity:1"
     x="-9.2600708"
     y="115.27075"
     id="text1"><tspan
       id="tspan1"
       style="font-style:normal;font-variant:normal;font-weight:normal;font-stretch:normal;font-size:158.333px;font-family:'MV Boli';-inkscape-font-specification:'MV Boli, Normal';font-variant-ligatures:normal;font-variant-caps:normal;font-variant-numeric:normal;font-variant-east-asian:normal;fill:#800080;stroke-width:3.125;fill-opacity:1"
       x="-9.2600708"
       y="115.27075"
       sodipodi:role="line">K</tspan></text>
  <g
     id="g81"
     transform="matrix(0.56455114,0,0,0.57642982,-118.52565,29.641891)">
    <path
       id="Auswahl"
       fill="none"
       stroke="#000000"
       stroke-width="1"
       d="m 405,23 c 5.21,2.73 8.59,9.3 12.04,14.01 0,0 8.2,9.99 8.2,9.99 0,0 9.25,14 9.25,14 0,0 13.68,24 13.68,24 0,0 15.05,26 15.05,26 0,0 13.38,31 13.38,31 0,0 15.98,28.99 15.98,28.99 0,0 5.02,7.18 5.02,7.18 2.67,4.67 1.91,8.47 5.37,13.83 3.27,5.06 6.62,5.98 10.08,11.01 2.1,3.07 5.62,10.18 8.33,12.25 4.96,3.8 16.59,-3.29 18.06,-6.39 0,0 4.94,-18.87 4.94,-18.87 0,0 9.15,-25 9.15,-25 1.73,-3.74 5.33,-11.96 9.56,-13.13 7.33,-2.03 7.47,10.5 9.33,16.13 4.36,13.13 3.78,20.2 11.75,33 3.41,5.49 5.74,9.22 12.83,10.07 6.27,0.75 8.82,-8.51 10.74,-13.07 4.09,-9.68 9.49,-19 14.86,-28 1.46,-2.45 5.04,-9.68 7.01,-11.01 1.27,-0.85 2.92,-0.97 4.4,-0.75 6.34,0.95 7.21,8.54 7.99,13.76 3.28,22.12 3,33.14 3,55 7.11,0.82 9.3,4.51 15,8.5 12.11,8.47 21.83,15.85 32.09,26.54 5.48,5.7 10.68,11.72 15.53,17.96 0,0 4.76,7 4.76,7 10.76,13.84 22.72,27.81 36.62,38.62 9.25,7.19 24.99,14.61 36,18.93 18.76,7.36 40.13,8.9 60,7.34 0,0 8,0 8,0 0,0 19,-4.6 19,-4.6 13.07,-3.72 27.85,-11.2 36.08,-22.29 10.11,-13.64 8.59,-18.64 11.38,-34 0.61,-3.37 3.36,-14.24 6.18,-15.95 2.45,-1.49 4.43,0.83 5.28,2.92 1.24,3.06 1.04,9.63 1.08,13.03 0,0 1,15 1,15 0,0 0,38 0,38 -0.03,18.53 -9.84,45.6 -19.95,61 0,0 -12.05,15 -12.05,15 0,0 24,-6.44 24,-6.44 0,0 12,-2.86 12,-2.86 4.64,-1.32 17.63,-7.25 22,-9.7 6.96,-3.91 15.76,-9.15 22,-14.02 2.73,-2.12 8.54,-7.82 11.42,-8.51 7.83,-1.86 8.69,7.25 8.57,12.53 -0.57,25.08 -12.08,49.21 -26.97,68.83 0,0 -8.11,10.17 -8.11,10.17 -4.17,4.53 -7.16,6.77 -10.91,12 17.5,-3.35 19.61,-8 28,-10.87 3.9,-1.33 8.15,-1.08 8.68,3.91 0.34,3.19 -1.89,8.11 -3.28,10.96 -4.4,8.95 -6.67,12.67 -12.03,21 -11.86,18.41 -28.45,34.07 -46.37,46.44 0,0 -10,5.88 -10,5.88 0,0 -8,5.42 -8,5.42 0,0 -29,12.14 -29,12.14 -6.24,2.48 -11.95,12.31 -18.3,17.38 -7.27,5.8 -23.71,12.95 -32.7,16.32 0,0 -29,8.12 -29,8.12 0,0 -18,1.46 -18,1.46 0,0 -15.71,1.6 -15.71,1.6 -38.51,1.31 -81.25,-10.1 -110.12,-36.51 C 641.44,569.04 643.95,561.08 635,548 c -1.15,5.13 -0.37,4.8 -0.83,9 0,0 -1.13,7 -1.13,7 0,0 0,20 0,20 -0.04,11.51 -1.05,21.14 6.49,31 8.08,10.55 16.61,13.17 28.47,16.72 8.85,2.65 17.76,4.56 27,5.32 0,0 9,0 9,0 0,0 28,1.96 28,1.96 0,0 10,0.91 10,0.91 9.35,0.64 16.25,0.12 25,4.35 6.33,3.06 7.47,3.77 13,8.14 2.58,2.04 6.68,5.65 10,5.97 5.22,0.51 13.95,-7.41 19,-9.88 9.75,-4.76 25.11,-8.23 36,-8.48 7.43,-0.16 14.79,1.33 22,3 10.45,2.42 23.72,11.68 30.24,20.03 4.33,5.54 6.82,10.75 9.84,16.96 13.08,26.93 11.82,69.08 5.92,98 0,0 -7.37,28 -7.37,28 -3.32,12.74 -7.47,30.91 -7.63,44 -0.14,12.25 -0.53,17.06 6.02,28 1.74,2.91 3.24,5.3 6.02,7.35 6.64,4.92 15.37,4.57 22.96,6.71 3.26,0.92 6.53,2.95 5.34,6.91 -0.87,2.92 -4.98,5.64 -7.34,7.45 -8.27,6.36 -12.71,7.78 -22,11.73 0,0 -20,6.27 -20,6.27 -17.94,5.24 -30.07,8.33 -49,5.86 -2.5,-0.33 -4.55,-0.35 -7,-1.12 0,0 -14.96,-6.72 -14.96,-6.72 -4,-2.83 -3.11,-4.11 -9.04,-7.44 0,0 0,13 0,13 0,0 -4,37 -4,37 -0.03,5.09 -1.27,14.78 -4.7,18.69 -4.08,4.65 -15.69,1.76 -21.3,1.4 -7.85,-0.5 -25,3.08 -29.98,-5.3 -1.55,-2.62 -1.98,-16.14 -2.02,-19.79 -0.13,-11.03 -3.55,-21.42 -6.1,-32 0,0 -1.34,-7 -1.34,-7 -4.46,-18.37 -12.43,-36.14 -20.81,-53 0,0 -8.9,-19 -8.9,-19 -1.17,-2.72 -2.39,-6.4 -5.06,-8.13 -2.98,-1.61 -7.56,-0.54 -10.79,0 0,0 -21,1.13 -21,1.13 -13.08,0.02 -41.77,1.1 -53,-3 0,0 -2.27,17 -2.27,17 0,0 -2.56,17 -2.56,17 0,0 -1.37,17 -1.37,17 0,0 -1.61,7 -1.61,7 0,0 -1.62,13 -1.62,13 0,0 -3.65,26 -3.65,26 0,0 -1.75,12 -1.75,12 0,0 -1.6,23 -1.6,23 0,0 -3.27,15 -3.27,15 -1.31,9.08 0.92,17.81 -7.75,24.33 -3.74,2.73 -7.51,0.36 -11.55,0 -7.09,-0.47 -17.56,3.84 -24.78,-1.34 -5.3,-3.8 -5.89,-13.66 -16.22,-12.82 -12.09,0.99 -25.06,7.84 -37.99,2.8 -5.65,-2.2 -10.57,-10.44 -12.57,-15.97 -2.3,-6.37 -3.42,-21.84 -3.44,-29 0,0 -1,-25 -1,-25 0,0 0,-23 0,-23 0,0 0.96,-12 0.96,-12 0,0 0,-17 0,-17 0,0 0.95,-12 0.95,-12 0,0 1.09,-30 1.09,-30 0,0 1.15,-23 1.15,-23 1.28,-10.77 2.72,-21.56 5.71,-32 1.06,-3.7 5.19,-13.22 4.92,-16 -0.32,-3.19 -4.81,-9.74 -6.41,-13 0,0 -7.84,-20 -7.84,-20 -7.09,-19.17 -8.76,-33.83 -8.53,-54 0.18,-14.68 8.79,-48.11 14.31,-62 0,0 5.47,-14 5.47,-14 0.92,-2.04 1.81,-4.54 0,-6.21 -2.78,-2.14 -6.46,0.28 -8.78,1.69 -5.14,3.12 -15.21,14.23 -18.12,19.52 -5.14,9.35 -4.69,21.69 -6.18,32 0,0 -2.26,11 -2.26,11 -2.16,13.64 -5.42,37.64 -5.44,51 0,0 0,23 0,23 0.03,16.07 3.43,36.84 5.72,53 0,0 2.89,23 2.89,23 0,0 2.1,10 2.1,10 0,0 1.75,13 1.75,13 0,0 3.81,19 3.81,19 0.75,5.16 2.34,13.03 1.39,18 -0.77,4.02 -5.15,11.1 -7.29,15 -7.5,13.69 -17.38,25.33 -26.34,38 0,0 -9.35,12 -9.35,12 0,0 -16.68,21.42 -16.68,21.42 -3.14,3.6 -8.07,9.58 -12.91,10.59 -9.09,1.88 -16.12,-14.58 -19.34,-21.01 0,0 -11.69,-26 -11.69,-26 0,0 -3.71,-11 -3.71,-11 0,0 -3.12,-7 -3.12,-7 0,0 -4.97,-17 -4.97,-17 0,0 -5.34,-18 -5.34,-18 0,0 -8.81,-38 -8.81,-38 0.27,-4.81 2.95,-10.38 4.55,-15 0,0 5.68,-18 5.68,-18 0,0 3.91,-10 3.91,-10 13.87,-41.9 31.19,-83.09 50.07,-123 0,0 19.41,-40 19.41,-40 0,0 4.4,-10 4.4,-10 0,0 5.66,-9 5.66,-9 5.63,-9.94 0.86,-6.6 11.21,-19 -2.24,-1.21 -4.78,-2.43 -6.49,-4.37 -8.61,-9.8 6.66,-21.64 12.45,-27.63 0,0 5.15,-5.49 5.15,-5.49 0,0 19.61,-22.51 19.61,-22.51 3.6,-4.58 5.79,-8.62 10.37,-12.55 9.24,-7.91 20.49,-9.56 25.7,-13.44 5.05,-3.76 13.23,-21.61 15.98,-28.01 4.1,-9.54 8.4,-24.18 7.29,-34.58 -0.39,-3.65 -5.32,-12.12 -9.8,-10.25 -1.56,0.65 -4.08,4.39 -5.39,5.82 -3.59,3.91 -6.72,6.61 -11.87,8.01 0,0 5,-6 5,-6 -2.41,1.28 -6.27,3.48 -9,3.52 -6.73,0.08 -17.19,-10.15 -20,-11.04 -2.24,-0.7 -15.55,2.72 -17.89,3.95 -2.9,1.51 -5.55,6.86 -8.12,9.85 -11.15,12.96 -16.58,28.56 -31.99,37.63 -19.74,11.61 -38.11,5.22 -53.98,-9.19 -6.15,-5.58 -5.67,-8.4 -9.15,-11.41 -3.21,-2.77 -5.59,-1.84 -8.48,-4.62 -1.69,-1.62 -3.68,-5.53 -5.16,-7.69 -5.52,-8.01 -11.09,-14.74 -11.23,-25 0,0 0,-5 0,-5 0.1,-21.06 17.8,-49.22 33,-62.87 7.34,-6.6 15.6,-11.94 24,-17.07 9.12,-5.57 21.57,-10.02 32,-12.41 2.24,-0.51 9.89,-1.35 10.38,-3.91 0.37,-1.94 -1.97,-3.24 -3.4,-3.89 -3.51,-1.59 -7.36,-1.23 -13.98,-5.32 -3.3,-2.03 -14,-12.37 -15.44,-15.62 C 406.94,289.24 407,282.07 407,278 c 10.23,0.26 11.78,5.02 21,8.3 4.3,1.53 7.45,0.87 10,4.7 0,0 12,-2.11 12,-2.11 0,0 10,-2.89 10,-2.89 0,0 -2,-3 -2,-3 0,0 6,2 6,2 -7.85,-8.31 -19.83,-12.18 -27.83,-20.17 -6.02,-6.02 -8.35,-13.54 -9,-21.83 -0.96,-12.4 14.18,-17.54 23.83,-20.64 5.69,-1.83 10.94,-0.9 11.17,-5.47 0,0 -3.09,-13.89 -3.09,-13.89 0,0 -2.71,-18 -2.71,-18 0,0 -9.31,-21 -9.31,-21 0,0 -6.83,-18 -6.83,-18 0,0 -3.9,-13 -3.9,-13 0,0 -16.05,-52 -16.05,-52 C 414.76,62.48 407.69,42.07 405,23 Z m 8,15 c -1.23,4.08 3.42,17.55 7,20 0.07,6.68 6.5,7.73 12,8 -5.63,-11.01 -11.71,-18.33 -19,-28 z m 15,53 c 2.51,-1.13 3.75,-1.81 5.91,-3.62 1.24,-1.04 2.95,-2.62 3.8,-3.99 C 443.77,73.63 428.63,68.55 422,67 Z m 14,-8 c 0,0 -11,9 -11,9 0,0 -1,4 -1,4 0,0 6.1,6.99 6.1,6.99 0,0 5.49,5.43 5.49,5.43 3.62,4.06 2.35,5.57 8.41,6.58 -1.14,-4.52 -3.94,-16.01 -2,-20 z m 11,48 c -7.21,-6.36 -7.7,-19.1 -18,-17 0,0 0,2 0,2 6.49,6.16 8.45,22.7 11.34,31 1.83,5.24 4.48,7.31 9.66,5 0,0 2,6 2,6 0,0 -4,-36 -4,-36 0,0 -2,0 -2,0 z m -3,-11 c 0,0 -1,0 -1,0 0,0 1,1 1,1 z m 11,2 c 0,0 -1,18 -1,18 0,0 3,3 3,3 0,0 -3,-2 -3,-2 0,0 0,11 0,11 0,0 3,-1 3,-1 0,0 -1,5 -1,5 4.01,-2.77 2.19,-5.88 1,-10 0,0 5,-2 5,-2 0,0 -2,-4 -2,-4 0,0 2,2 2,2 z m 1,22 c 0,0 1,0 1,0 0,0 -1,1 -1,1 z m 11,1 c 0,0 -2,13 -2,13 0,0 -2,-5 -2,-5 0,0 -3,7 -3,7 -7.54,1.29 -6.37,9.13 -5.19,15 2.1,10.52 5.59,13.04 7.79,19 2.24,6.06 1.75,11.5 2.81,16 0,0 2.59,8 2.59,8 3.23,1.44 3.55,1.45 4,5 0,0 4,-6 4,-6 0,0 1,5 1,5 0,0 12,-7 12,-7 0,0 -11.32,9.34 -11.32,9.34 0,0 1.32,7.66 1.32,7.66 2.68,-2.11 11.01,-9.12 11.78,-12.04 2.39,-9.04 -9.77,-5.42 -13.78,-3.96 3.33,-3.07 9.93,-5.61 14,-3 0,0 6,-3 6,-3 0,0 -3,1 -3,1 2.42,-10.08 -1,-10.59 -4.71,-18.17 -2.2,-4.48 -2.21,-5.91 -5.29,-10.83 0,0 -5,-1 -5,-1 -0.12,5.25 -1.47,13.97 -6.13,17.15 0,0 -6.87,2.85 -6.87,2.85 0,0 0,-11 0,-11 2.02,-0.34 4.59,-0.54 5.11,-3.06 0.4,-1.93 -1.42,-3.5 -2.02,-6.98 0,0 -0.73,-7.96 -0.73,-7.96 0,0 -2.36,-13 -2.36,-13 0,0 2.47,2.21 2.47,2.21 0,0 3.53,21.79 3.53,21.79 15.44,-5.08 1.89,-20.99 -1.76,-29 -1.32,-2.91 -2.41,-5.92 -3.24,-9 z m -18,5 c 0,0 1,0 1,0 0,0 -1,1 -1,1 z m 106,21 c -2.75,3.55 -6.74,12.56 -7.34,17 0,0 -0.66,7 -0.66,7 0,0 2,2 2,2 0,0 -1,1 -1,1 0,0 -2,-6 -2,-6 0,0 -4,18 -4,18 0,0 16,-1.96 16,-1.96 0,0 17,0 17,0 0,0 -7,-9.04 -7,-9.04 0,0 4,1 4,1 0,0 -11,-7 -11,-7 2.32,-3.88 0.82,-4.96 -2,-8 0,0 4,1 4,1 -1.16,-3.61 -1.78,-6.79 -5,-9 z m 72,4 c 0,0 -2,0 -2,0 0,0 -12.24,25 -12.24,25 0,0 -6.04,14 -6.04,14 0,0 1.28,23 1.28,23 0,0 -2,0 -2,0 0,0 -3,-12 -3,-12 0,0 1,20 1,20 -0.16,15.25 -4,35.3 -16.09,45.7 -4.46,3.84 -10.7,5.87 -15.91,8.3 2.12,-3.27 3.3,-3.2 7,-4 0.46,-4.17 2.44,-4.89 5,-8.09 3.9,-4.88 6.42,-7.78 8.06,-13.91 0.75,-2.52 3.07,-7.83 0,-9 -0.88,-2.64 -2.73,-0.17 -4.06,1 0,0 1,-3 1,-3 0,0 -6,5 -6,5 -10.71,-1.87 -10.23,6.64 -18,4 0,0 -1,4 -1,4 -6.37,1.58 -19.68,8.43 -24,13 6.25,3.77 16.43,10.08 24,9.78 2.38,-0.09 4.74,-1.08 7,-1.78 -1.29,2.83 -3.54,7.3 -6.14,9.04 -2.92,1.95 -4.76,0.84 -8.82,4.2 -7.6,6.27 -12.83,15.33 -23.04,18.55 -2.8,0.61 -7.05,0.36 -10,0 -3.67,2.37 -6.44,0.44 -10,-1.47 -6.77,-3.63 -12.91,-12.38 -16,-19.32 0,0 -15,6.77 -15,6.77 0,0 -13,4.68 -13,4.68 0,0 -22,8.69 -22,8.69 0,0 -19,4.37 -19,4.37 0,0 -14,4.29 -14,4.29 -20.53,7.3 -41.26,21.16 -53.82,39.2 -6.04,8.66 -5.82,8.5 -9.9,18 -6.61,15.36 -7.87,24.96 0.62,40 1.79,3.16 8.03,11.33 11.19,12.77 4.97,2.27 8.7,-3.48 13.91,-6.8 0,0 9,-4.2 9,-4.2 8.32,-4.04 9.9,-7.22 20,-4.77 0,0 -6,9 -6,9 -2.34,-1.84 -4.43,-0.55 -7,0.58 -5.2,2.28 -13.11,5.81 -15,11.42 6.79,-1.07 10.67,-3.82 16,-8 -2.25,3.73 -8.61,8.29 -13,8.97 0,0 -8,0 -8,0 1.34,7.02 5.4,10.8 11,14.88 2.44,1.76 5.2,3.92 8,5.01 9.49,3.66 22.46,1.57 31,-3.68 5.83,-3.58 9.49,-9.76 13.42,-15.18 0,0 17.58,-24 17.58,-24 0,0 -10.18,-4.79 -10.18,-4.79 0,0 -6.82,-5.21 -6.82,-5.21 1.58,-5.12 3.48,-5.59 8,-8 2.62,4.41 6.51,9.56 12,10.09 5.3,0.69 5.84,-2.13 12,0 7.61,-5.07 14.28,-8.23 22.75,-3.2 4.89,2.9 6.13,7.4 12.25,8 6.72,0.66 9.53,-2.51 13.99,-6.89 2.61,-2.57 4.96,-6.06 9.05,-4.44 3.08,1.23 11.56,9.32 14.96,11.92 11.54,8.81 22.34,13.68 37,13.52 6.5,-0.08 13.68,-1.41 18.41,-6.21 6.03,-6.14 4.15,-8.38 7.59,-14.79 1.55,5.36 2.76,9.5 0.74,15 -4.52,12.28 -24.55,19.19 -36.74,17.02 -9.33,-1.67 -16.71,-7.7 -23,-9.02 -6.08,15.3 -3.59,15.7 -6.42,26 -2.26,8.19 -14.07,30.89 -19.79,36.82 -1.48,1.53 -8.97,7.29 -10.79,8.18 -5.29,2.57 -18.88,3 -18.47,12 0.18,4.02 4.57,6.93 7.48,9.03 10.31,7.46 11.64,7.66 23.99,9.72 16.81,2.8 34.02,4.94 51,2.16 12.58,-2.07 18.58,-5 30,-8.91 0,0 15.94,-5.11 15.94,-5.11 4.49,-2.14 4.21,-5.46 5.06,-9.89 0,0 4.42,-26 4.42,-26 0,0 3.73,-18 3.73,-18 0,0 4.2,-14 4.2,-14 0,0 2.93,-16 2.93,-16 0,0 5.21,-23 5.21,-23 0,0 2.92,-18 2.92,-18 1.25,-7.41 6.87,-26.24 4.59,-32 -6.89,7.94 -15.2,9.93 -25,11.8 -4.4,0.85 -12.74,2.35 -17,2.11 -6.84,-0.39 -19.66,-2.06 -26,-4.21 0,0 -28,-13.7 -28,-13.7 0,0 20,-2.12 20,-2.12 0,0 10,0 10,0 21.67,-2.99 44.14,-15.37 47.52,-38.88 0.72,-4.98 -1.27,-6.49 -2.21,-11 0,0 -0.83,-8 -0.83,-8 -1.24,-9.57 -2.57,-7.08 0.52,-17 0,0 -7,0 -7,0 0,0 2.51,-23 2.51,-23 0,0 2.03,-8 2.03,-8 0,0 2.44,-27 2.44,-27 0,0 0,-28 0,-28 0,0 -1.42,-22 -1.42,-22 z m -152,14 c 0,0 -2,0 -2,0 0,0 2,4 2,4 z m 94,4 c 0,0 -1,0 -1,0 0,0 1,1 1,1 z m -17,4 c 0,0 1,0 1,0 0,0 -1,1 -1,1 z m -42,41 c 0.43,-1.43 0.9,-2.42 0.85,-4 -0.22,-6.48 -7.65,-17.69 -13.85,-20 -2.21,3.99 -8.24,16.45 -6.4,20.71 0.66,1.53 1.24,1.51 2.4,2.29 0,0 0,2 0,2 0,0 -3,1 -3,1 0,0 -2,15 -2,15 9.55,-0.69 2.31,2.84 22,-3.14 8.36,-2.54 5.2,-4.73 12,-4.86 0,0 1,-5 1,-5 0,0 -3,-1 -3,-1 0,0 0,3 0,3 0,0 -7,-7 -7,-7 z m -16,-21 c 0,0 -1,0 -1,0 0,0 1,1 1,1 z m 81,4 c 1.3,-1.99 -1.33,-2.45 -3.02,-2.93 -3.49,-0.8 -6.6,-1.37 -9.98,0 0,0 15,6.93 15,6.93 z m -10,0 c 0,0 -8,0 -8,0 3.62,1.64 4.6,2.38 8,0 z m -113,2 c -6.32,0.16 -13.45,2.5 -18,7 4.42,-0.47 14.67,-4.16 18,-7 z m 118,4 c 0,0 -5,-1 -5,-1 z m -22,2 c -5.61,-6.5 -19.24,1.12 -26,2 -0.58,7.02 0.26,8.93 7,12 0,0 4,-4 4,-4 0,0 -1,3 -1,3 0,0 5,-2 5,-2 0,0 -8,-6 -8,-6 7.8,0.6 14.77,6.66 22,0 0,0 -9,-6 -9,-6 z m 31,0 c 0,0 -1,0 -1,0 0,0 1,1 1,1 z m -146,1 c 0,0 -4,2 -4,2 z m 45,25 c -1.36,-5.19 -4.67,-18.06 -8.55,-21.2 -6.54,-5.81 -23.01,-1.48 -30.45,0 2.69,4.82 6.47,5.53 11,7.99 0,0 13,7.79 13,7.79 3.57,1.83 5.3,3.52 9,1.42 z m 102,-25 c -0.77,3.7 2.24,5.09 5,7 z m -94,1 c 0,0 -3,1 -3,1 0,0 1,6 1,6 2.47,-2.22 1.96,-3.81 2,-7 z m -57,1 c 0,0 -4,3 -4,3 z m -5,4 c 0,0 -1,0 -1,0 0,0 1,1 1,1 z m 154,0 c 0,0 -1,0 -1,0 0,0 1,1 1,1 z m -67,3 c 0,0 1,0 1,0 0,0 -1,1 -1,1 z m 70,1 c 0,0 1,5 1,5 -15.38,-7.27 -25.17,0.24 -34,2 0,0 1,4 1,4 -2.42,-1.22 -3.04,-2.14 -5,0 0,0 -13,2 -13,2 -6.47,7 -27.28,16.57 -37,16.2 -3.29,-0.12 -12.8,-1.5 -16,-2.3 -3.25,-1.02 -5.41,-2.65 -8,0 0,0 5,1.1 5,1.1 0,0 -7,-1 -7,-1 0,0 1,-3 1,-3 0,0 -3,2 -3,2 0,0 0,-3 0,-3 0,0 -6,2 -6,2 -4.53,-4.01 -23.99,-14.5 -30,-16 2.19,4.82 6.02,10.7 10.1,14.1 10.47,8.73 36.23,14.74 49.9,14.9 11.96,0.14 10.33,-0.66 21,-2.88 6.25,-1.3 9.37,-0.14 13,-6.12 0,0 2,2 2,2 0,0 1,0 1,0 0,0 22,-10 22,-10 0,0 0,-2 0,-2 0,0 -3,-1 -3,-1 0,0 1,-4 1,-4 0,0 4,-1 4,-1 4.39,3.36 10.63,3.63 16,4 4.19,-3.59 14.69,-5.23 20,-4 0,0 0,3 0,3 1.68,-6.47 -1.43,-11.52 -6,-16 z m 59,0 c 0,0 -1,0 -1,0 0,0 1,1 1,1 z m 0,3 c -2.19,4.31 -1.8,7.34 -2.04,12 -0.2,3.91 -1.46,8.18 -0.54,12 0,0 14.09,27 14.09,27 0,0 4.02,11 4.02,11 6.09,17.04 7.31,23.91 7.47,42 0.48,53.63 -8.5,82.14 -19.12,133 -5.85,28.02 -13.93,53.37 1.98,80 12.77,21.35 40.28,38.11 64.14,44.11 0,0 15,2.21 15,2.21 8.5,1.39 16.25,3.67 25,3.68 15.12,0.02 32.16,-1.34 47,-4.34 0,0 9,-1.33 9,-1.33 10.98,-2.34 32.86,-9.9 40,-18.33 0,0 -9,0.96 -9,0.96 0,0 -13,0 -13,0 0,0 -16,0.99 -16,0.99 0,0 -14,-0.95 -14,-0.95 -35.58,-0.06 -71.18,0.08 -94.25,-32 -3.31,-4.6 -7.22,-11.7 -9.22,-17 -2.91,-7.74 -6.33,-22.79 -6.52,-31 0,0 3.99,-31 3.99,-31 -7.36,14.11 -16.83,29.68 -30,39 0,0 4.95,-11 4.95,-11 0,0 3.4,-10 3.4,-10 0,0 7.09,-17 7.09,-17 0,0 3.88,-8 3.88,-8 4.24,-12 11.27,-43.27 12.51,-56 0,0 1.26,-20 1.26,-20 0,0 2.79,-19 2.79,-19 0,0 -1.88,-20 -1.88,-20 0,0 0,-9 0,-9 0,0 -5.3,-30 -5.3,-30 -3.34,-11.89 -10.88,-26.44 -17.25,-37 -7.97,-13.2 -16.72,-25.89 -29.45,-35 z m -121,5 c 0,0 -1,0 -1,0 0,0 1,1 1,1 z m 33,8 c 0,0 -3,3 -3,3 0,0 1,1 1,1 z m 29,0 c 0,0 -1,0 -1,0 0,0 1,1 1,1 z m 3,0 c 0,0 -1,0 -1,0 0,0 1,1 1,1 z m -71,1 c -4.14,1.48 -6.64,2.08 -9,6 4.5,-1.52 6.59,-1.62 9,-6 z m 67,2 c 0,0 -1,0 -1,0 0,0 1,1 1,1 z m 14,2 c 0,0 -1,0 -1,0 0,0 1,1 1,1 z m -93,2 c 0,0 -1,0 -1,0 0,0 1,1 1,1 z m 1,1 c 0,0 -1,0 -1,0 0,0 1,1 1,1 z m -3,2 c 0,0 -1,0 -1,0 0,0 1,1 1,1 z m 57,4 c -4.38,0.66 -12.32,3.69 -14,8 5.29,-1.26 10.28,-4.03 14,-8 z m -15,6 c -4.84,1.32 -7.48,2.31 -11,6 5.63,-0.13 9.1,0 11,-6 z m -11,6 c 0,0 -1,0 -1,0 0,0 1,1 1,1 z m -7,1 c -6.22,1.11 -18.69,5.75 -24,2 0,0 -31,1 -31,1 0,0 0,1 0,1 0,0 2,2 2,2 0,0 -7.83,2.65 -7.83,2.65 -2.97,1.24 -5.61,3.62 -9.17,4.56 -4.29,1.13 -6.13,-0.8 -10,-1.32 -8.95,-1.19 -13.43,1.98 -21,-5.89 -0.45,6.16 4.72,8.02 10,9.46 0,0 11.28,1.65 11.28,1.65 3,0.74 4.57,2.39 9.72,3.26 5.84,0.98 6.08,-1.36 12,1.63 0,0 -8,0 -8,0 4.97,5.54 16.24,-2.27 26,-1 5.3,-6.26 11.89,-7.04 19,-11 3.53,5.08 11.45,-0.65 13,-5 0,0 5,2 5,2 z m -101,14 c -4.19,-5.07 -8.42,-8.75 -15,-10 3.03,7.32 7.54,8.85 15,10 z m 272,-9 c -0.61,4.55 4.06,11.91 6.28,16 0,0 5.71,13 5.71,13 0,0 12.58,17 12.58,17 12.16,18.32 19.41,32.44 39.43,44.37 9.51,5.68 19.19,9.05 30,11.09 7.84,1.48 10.65,2.53 19,2.54 22.37,0.03 35.88,-2.27 56,-12.64 14.68,-7.57 29.11,-18.41 37,-33.36 -7.8,1.95 -11.03,5.83 -18,8.53 -10.51,4.08 -31.83,9.45 -43,9.47 0,0 -16,0 -16,0 -8.93,-0.01 -15.4,-1.45 -24,-3.2 0,0 -26,-6.5 -26,-6.5 -14.27,-5.05 -34.65,-18.43 -46,-28.45 C 718.91,313.4 711.26,302.53 700,288 Z m -61,1 c 0,0 -2,0 -2,0 0,0 -1,5 -1,5 z m -117,3 c 0,0 -1,0 -1,0 0,0 1,1 1,1 z m -3,18 c 7.52,6.29 10.03,7.87 19,3.86 3.19,-1.43 4.95,-2.07 7.72,-4.38 2.07,-1.72 8.43,-6.29 7.11,-9.19 -0.64,-1.39 -2.55,-2.53 -3.85,-3.23 -7.75,-4.16 -13.54,0.47 -19.98,4.84 -3.44,2.33 -7.21,5.04 -10,8.1 z m 130,-15 c -1.69,4.26 -1,12.19 -1,17 0,13.02 0.63,26.57 -6.81,38 -1.73,2.65 -3.99,4.75 -6.18,7 -9.05,9.32 -8.19,8.22 -20.01,13.68 -5.17,2.39 -13.96,3.49 -17,8.32 0,0 19,1 19,1 6.08,-0.03 12.17,-0.99 18,-2.72 6.29,-1.87 19.17,-8.71 22.59,-14.41 3.26,-5.43 2.48,-15.5 2.41,-21.87 -0.08,-6.44 -2.68,-21.89 -4.67,-28 z m -91,4 c 0,0 -1,0 -1,0 0,0 1,1 1,1 z m -96,6 c 0,0 -6,2 -6,2 z m 23,0 c 0,0 -1,0 -1,0 0,0 1,1 1,1 z m 227,22 c 0,0 -2,0 -2,0 -2.46,10.37 0.71,14.56 0.88,24 0,0 -0.56,6 -0.56,6 0,0 0.68,12 0.68,12 0,0 0,18 0,18 0,0 -1,14 -1,14 -0.16,14.18 -1.64,16.95 -4.08,30 -0.96,5.14 -2.93,9.92 -0.92,15 0,0 10.45,-30 10.45,-30 2.08,-8.14 1.86,-16.73 2.83,-25 0.88,-7.41 1.81,-21.29 -1.28,-28 0,0 0,1 0,1 0,0 -2.08,2 -2.08,2 0,0 0,-16 0,-16 0,0 -1.75,-11 -1.75,-11 z m 211,13 c 0,0 -2,0 -2,0 -3.4,10.17 -5.96,13.46 -12.37,22 -19.31,25.69 -49.14,38.52 -80.63,40.04 0,0 -10,0.78 -10,0.78 -13.58,-0.97 -24.07,-2.78 -37,-7.08 -5.46,-1.81 -14.05,-5.05 -19,-7.77 -7.59,-4.17 -19.72,-14.57 -25.38,-21.06 -3.44,-3.94 -4.73,-7.28 -8.62,-10.91 0,0 2.48,19 2.48,19 -0.02,4.89 -1.25,12.5 0,17 3.97,11.5 18.01,22.44 28.52,27.31 6.84,3.16 12.44,6.48 20,8.18 5.35,1.2 10.59,1.23 16,1.6 9.54,0.65 18.38,1.49 28,0.82 0,0 8,-0.87 8,-0.87 15.43,-0.74 31.59,-0.47 46,-6.94 16.82,-7.56 32.68,-27.89 38.7,-45.1 2.58,-7.36 4.34,-19.13 5.47,-27 z m 65,58 c 0,0 -10,6.88 -10,6.88 -7.78,4.97 -22.55,13.12 -31,16.54 -14.93,6.04 -48.43,11.83 -65,13.64 0,0 -9,0 -9,0 0,0 -14,3.57 -14,3.57 0,0 -20,4.24 -20,4.24 0,0 -10,0 -10,0 0,0 -12,1.09 -12,1.09 0,0 -18,-0.96 -18,-0.96 -16.18,-0.03 -39.98,-7.9 -52.83,-17.74 -5.6,-4.29 -12.89,-13.64 -18.17,-16.26 0,0 -1.82,13 -1.82,13 -0.34,4.75 1.84,14.21 3.09,19 3.22,12.36 8.47,23.91 17.74,32.96 10.75,10.49 19.38,13.04 32.99,17.38 16.02,5.12 32.11,8.63 49,8.66 0,0 24,0 24,0 0,0 18,-1 18,-1 11.27,-0.06 22.21,-3.41 33,-6.27 6.27,-1.66 15.39,-3.51 21,-6.47 7.4,-3.89 9.25,-6.29 15.09,-11.51 0,0 9.87,-8.76 9.87,-8.76 6.16,-6.36 15.68,-19.42 20.58,-26.99 6.59,-10.19 16.86,-28.85 17.46,-41 z m -471,29 c 0,0 -8,5 -8,5 4.63,-0.43 6.21,-0.44 8,-5 z m -115,13 c 0,0 -2,3 -2,3 0,0 0,-1 0,-1 z m 317,3 c -4.25,6.46 -7.53,16.6 -10,24 -5.47,16.4 -8.03,21.02 -8,39 0.04,25.66 16.12,54.77 42,62.08 14.43,4.07 49.49,6.9 65,6.92 17.49,0.02 12.95,-0.65 28,-2.34 0,0 32,-4.82 32,-4.82 24.55,-6.43 47.42,-19.47 67,-35.38 13.42,-10.91 25.87,-24.04 34,-39.46 0,0 -21,5.63 -21,5.63 0,0 -20,2.87 -20,2.87 0,0 -44,10.07 -44,10.07 -17.07,2.48 -31.89,2.46 -49,2.43 -20.6,-0.03 -51.04,-6.4 -70,-14.35 -4.04,-1.69 -14.58,-8.29 -18,-11.03 -9.6,-7.69 -17.2,-18.42 -22.14,-29.62 -2.48,-5.62 -3.14,-11.99 -5.86,-16 z M 503,544 c -3.8,3.67 -2.93,6.07 -1.88,11 1.36,6.37 7.54,19.14 10.88,25 0,0 15,-7.73 15,-7.73 0,0 25,-13.27 25,-13.27 0,0 -11,-1.76 -11,-1.76 -10.51,-1.82 -30.53,-5.78 -38,-13.24 z m 119,13 c 0,0 -18,3.34 -18,3.34 0,0 -7,2.66 -7,2.66 0,0 -23,-1.39 -23,-1.39 -3.42,0.81 -7.45,4.45 -11,6.27 0,0 -29,16.13 -29,16.13 -8.08,4.76 -15.17,12.44 -25,12.99 0,0 -7.54,19 -7.54,19 0,0 -4.82,17 -4.82,17 -3.23,12.02 -7.49,35.78 -7.64,48 -0.22,19.21 4.27,38.1 11.06,56 0,0 8,16.83 8,16.83 0,0 4.59,6.21 4.59,6.21 0,0 13.09,20.96 13.09,20.96 5.49,7.34 12.46,13.72 16.6,22 3.99,7.98 7.65,26.91 7.66,36 0,0 0,83 0,83 0.12,13.37 0.68,31.56 5.19,44 1.22,3.36 1.79,8.88 4.24,11.03 4.87,4.27 9.18,2.08 14.57,2.34 4.34,0.21 6.45,1.11 10.98,-0.63 5.59,-2.15 4.7,-5.81 5.68,-10.74 0,0 3.76,-30 3.76,-30 0,0 4.41,-28 4.41,-28 0,0 1.34,-17 1.34,-17 0,0 3.55,-21 3.55,-21 1.07,-9.06 3.18,-30.07 5.63,-38 2.62,-8.48 6.74,-26.82 14.65,-31 -0.72,3.99 -3.24,19.53 -0.98,22.4 1.29,1.64 4.07,1.61 5.98,1.88 0,0 13,1.8 13,1.8 20.59,2.53 41.38,-0.08 62,0 -5.52,-27.52 -11.49,-43.84 -2,-72.08 1.88,-5.58 4.86,-13.45 8.53,-17.98 1.24,-1.54 4.54,-5.28 6.77,-3.28 3,2.7 -3.28,8.12 -5.06,15.26 -1.99,8 -4.38,26.9 -4.22,35 0,0 1.03,14 1.03,14 0.98,25.61 15.14,52.07 25.64,75 0,0 10.42,25 10.42,25 3.99,12.04 10.87,42.46 11.89,55 8.1,1.32 8.63,4.03 14,5.5 7.49,2.05 17.2,-1.34 22.71,-6.54 2.92,-2.76 2.1,-5.31 2.46,-8.96 0,0 0.83,-24 0.83,-24 0,0 0.99,-10 0.99,-10 0,0 0,-15 0,-15 0,0 2.95,-19 2.95,-19 0,0 0,-9 0,-9 0,0 2.94,-15 2.94,-15 0,0 7.69,-32 7.69,-32 4.29,-25.52 3.43,-26.73 3.43,-52 0,0 0,-23 0,-23 -0.02,-9.67 -1.29,-9.2 -2.57,-18 -2.01,-13.82 -5.33,-28.82 -12.77,-40.91 -4.72,-7.69 -14.44,-17.57 -21.62,-23.07 -5.94,-4.56 -12.11,-8.06 -19.04,-10.97 -4.23,-1.77 -13.14,-2.56 -18,-3.1 0,0 -38,-1.95 -38,-1.95 -7.78,-0.01 -13.46,-1.21 -21,-2.58 -18.81,-3.39 -36.24,-7.27 -49.27,-22.42 -2.61,-3.04 -4.83,-5.3 -6.54,-9 -8.1,-17.49 -4.19,-38.54 -4.19,-57 z m -137,1 c 0,0 -7,8 -7,8 0,0 1,3 1,3 -5.12,2.01 -3.41,5.58 -9,4 0,0 -2,3 -2,3 0,0 4,2 4,2 0,0 -1,-1 -1,-1 0,0 -2,1 -2,1 0,0 4,5 4,5 0,0 -4,7 -4,7 0,0 6,-5 6,-5 0,0 -2,6 -2,6 0,0 9.09,-6.44 9.09,-6.44 3.01,-1.06 7.33,0.22 9.07,-3.12 1.2,-2.29 0.06,-5.22 -0.78,-7.44 z m 12,24 c 0,0 -3,-1 -3,-1 0,0 0,4 0,4 z m -1,5 c 0,0 -1,0 -1,0 0,0 1,1 1,1 z m -16,1 c 0,0 -3,2 -3,2 z m 12,2 c 0,0 -1,0 -1,0 0,0 1,1 1,1 z m -2,2 c 0,0 -1,0 -1,0 0,0 1,1 1,1 z m -1,2 c 0,0 -1,0 -1,0 0,0 1,1 1,1 z m -31,5 c 0,0 -1,0 -1,0 0,0 1,1 1,1 z m 1,14 c 0,0 -1,0 -1,0 0,0 1,1 1,1 z m -4,3 c 0,0 -1,0 -1,0 0,0 1,1 1,1 z m -1,1 c 0,0 -1,0 -1,0 0,0 1,1 1,1 z m -1,1 c 0,0 -7.88,8.34 -7.88,8.34 -7.73,7.88 -8.18,7.51 -11.12,18.66 8.03,-2.1 7.86,-5.78 16,-2 3.53,-8.35 3,-16.17 3,-25 z m -4,27 c 0,0 -1,0 -1,0 0,0 1,1 1,1 z m 454,249 c -2.57,-4.13 -7.26,-6 -10.01,-10.09 -2.56,-3.82 -7.24,-17.26 -7.9,-21.91 0,0 0,-13 0,-13 0,0 6.5,-40 6.5,-40 0,0 5.94,-20 5.94,-20 0,0 7.47,-46 7.47,-46 0,0 0.82,-14 0.82,-14 0.36,-5.1 -1.57,-16.7 -2.56,-22 -3.78,-20.12 -12,-41.92 -32.26,-50.66 -6.1,-2.64 -10.58,-2.97 -17,-3.43 -7.42,-0.53 -5.2,-1.19 -13,0.72 -4.9,1.2 -9.64,1.7 -14,4.37 8.79,0.92 15.04,-2.23 27,5.27 6.1,3.83 9.36,9.55 12.69,15.73 6.39,11.87 7.05,21.15 8.59,34 0,0 1.72,20 1.72,20 0.03,20.23 -1.07,40.03 -4.61,60 0,0 -3.4,19 -3.4,19 -2.27,10.51 -5.94,21.18 -5.99,32 0,0 0,10 0,10 0.27,23.06 16.98,39.79 40,40 z M 447,653 c 0,0 -11,4.38 -11,4.38 -10.67,5.38 -18.9,15.53 -20,27.62 0,0 18,-10.14 18,-10.14 3.61,-1.63 9.65,-3.53 11.69,-7.07 1.8,-3.15 1.31,-10.97 1.31,-14.79 z m 432,248 c -2.81,-4.72 -10.17,-7.85 -14.82,-13.01 -7.62,-8.49 -11.92,-23.75 -13.01,-34.99 -1.19,-12.24 5.14,-36.59 7.4,-49.57 5.84,-33.68 6.48,-45.43 6.43,-79.43 0,0 -0.91,-12 -0.91,-12 -0.83,-11.88 -1.7,-20.5 -8.09,-31 -2.33,-3.82 -5.94,-8.94 -10,-10.98 -2.66,-1.33 -14.56,-1.88 -18.17,-1.85 -4.89,0.04 -10.4,0.78 -14.83,2.83 2.78,5.83 9.23,10.04 13.82,14.91 6.79,7.21 10.03,14.23 11.01,24.09 1.28,12.81 0.63,38.29 -1.26,51 -1.76,11.92 -6.24,27.73 -5.83,39 0,0 2.26,33 2.26,33 0.2,17.39 2.61,30.79 8.91,47 2.22,5.71 4.96,13.15 10.18,16.66 7.27,4.88 18.51,4.34 26.91,4.34 z M 442.84,683 c 0,0 -25.84,16.72 -25.84,16.72 0,0 -10.9,8.52 -10.9,8.52 0,0 -5.97,12.76 -5.97,12.76 0,0 -9.13,22 -9.13,22 0,0 12,-8.64 12,-8.64 0,0 23,-15.03 23,-15.03 0,0 15.02,-9.96 15.02,-9.96 0,0 1.82,-6.79 1.82,-6.79 z M 813,687 c 0,0 4.67,14 4.67,14 0,0 5.67,19 5.67,19 0,0 3.66,15 3.66,15 1.05,-12.99 2.66,-27.54 -4.99,-38.97 -2.07,-3.1 -6.19,-6.34 -9.01,-9.03 z m -372.02,36 c -9.74,5.48 -32.11,21.32 -40.98,28.58 -3.59,2.93 -12.98,9.66 -15.25,12.59 -5.34,6.89 -10.88,23.23 -13.75,31.83 7.1,-2.78 12.32,-8.68 18,-13.58 10.13,-8.73 20.01,-16.77 31,-24.4 0,0 13,-9.43 13,-9.43 2.21,-1.41 6.67,-3.7 7.98,-5.84 1.84,-3.07 1.02,-16.24 0,-19.75 z M 427,749 c 0,0 1,0 1,0 0,0 -1,1 -1,1 z m 17,8 c -8.63,2.06 -19.02,11.24 -26,16.92 0,0 -40,33.17 -40,33.17 -3.48,3.24 -16.15,16.02 -17.36,19.91 -1.13,3.63 3.71,15.24 5.36,19 6.1,-2.88 14.05,-11.82 19.13,-16.87 0,0 28.87,-24.69 28.87,-24.69 0,0 21,-14.86 21,-14.86 2.62,-1.9 8.5,-6.08 9.98,-8.75 2.39,-4.31 -0.54,-18.34 -0.98,-23.83 z m 64,20 c -4.14,5.79 -5.28,14.08 -6.27,21 -1.37,9.57 -1.71,15.38 -1.73,25 0,0 -1,17 -1,17 0,0 0,12 0,12 0,0 -1,18 -1,18 0,0 -1,17 -1,17 0,0 0,64 0,64 0,2.96 -0.21,6.29 1.17,8.99 2.85,5.56 14.38,12.88 20.83,12.51 4.08,-0.23 8.45,-3 12,-4.9 2.14,-1.14 6.64,-3.31 8.11,-5.07 3.39,-4.06 0.9,-15.03 0.89,-20.53 0,0 -1,-25 -1,-25 0,0 0,-58 0,-58 0,-11.26 1.29,-34.19 -2.24,-44 -3.56,-9.9 -7.99,-12.65 -14.59,-20.04 0,0 -6.69,-8.96 -6.69,-8.96 z m -60,18 c -6.21,2.46 -19.47,12.79 -25,17.19 0,0 -16,12.13 -16,12.13 0,0 -17.96,16.4 -17.96,16.4 -3.69,3.38 -17.15,17.22 -18.38,21.32 -1.48,4.94 1.93,8.62 2.34,16.96 6.83,-2 14.65,-11.42 20.09,-16.42 0,0 41.91,-32.78 41.91,-32.78 3.42,-2.7 13.36,-8.85 14.97,-11.89 2.05,-3.86 -1.32,-18 -1.97,-22.91 z m 5,37 c -8.83,4.96 -18.91,13.19 -27,19.49 0,0 -15,11.03 -15,11.03 0,0 -18.91,16.65 -18.91,16.65 0,0 -6.01,6.79 -6.01,6.79 -3.66,4.27 -10.06,10.49 -3.08,15.04 -1.09,4.76 0.81,8.22 6.01,5.67 3.51,-1.72 12.46,-10.4 15.99,-13.37 0,0 30.01,-21.59 30.01,-21.59 0,0 12.99,-8.65 12.99,-8.65 2.66,-1.66 6.22,-3.19 7.6,-6.16 2.09,-4.53 -1.08,-19.93 -2.6,-24.9 z m 368,2 c 0,0 -2,0 -2,0 0,0 -1.76,8 -1.76,8 0,0 -1.36,12 -1.36,12 -1.6,11.74 -3.84,23.06 -3.88,35 -0.02,7.81 1.06,14.41 6.49,20.56 3.34,3.77 9.88,6.1 14.51,8.28 7.06,3.33 6.03,0.87 12,1.44 0,0 5,0.83 5,0.83 6.43,0.44 22.59,-0.9 28,-4.11 -4.82,-0.68 -22.33,-4.22 -26,-6.28 -3.73,-2.08 -6.5,-5.4 -9.41,-8.44 C 824.18,882.07 822.95,858.81 821,834 Z m -370,40 c 0,0 -2,3 -2,3 -5.58,0.56 -9.58,5.39 -14,8.5 0,0 -18.04,14.04 -18.04,14.04 0,0 -14.05,10.9 -14.05,10.9 -2.71,2.44 -10.49,8.64 -11.38,11.85 -2.16,7.76 7.59,12.66 7.47,19.71 7.36,-2.51 10.24,-8.38 15.15,-14 7.87,-9 21.85,-26.27 28.23,-36 4.94,-7.52 8.37,-8.42 8.62,-18 z m 400,32 c 0,0 -1,0 -1,0 0,0 1,1 1,1 z m -13,12 c 0,0 1,0 1,0 0,0 -1,1 -1,1 z m -339,45 c 0,0 6,12 6,12 0,0 -2,-2 -2,-2 0,0 0,5 0,5 14.38,-0.85 0.62,-10.79 -4,-15 z m 295,1 c 0,0 -1,0 -1,0 0,0 1,1 1,1 z m 0,2 c 0,0 -21,3.82 -21,3.82 0,0 -16,-4.82 -16,-4.82 0,0 2.6,9.98 2.6,9.98 0,0 5.4,1.06 5.4,1.06 0,0 13,0 13,0 0,0 10,0.96 10,0.96 0.76,-4.59 1.32,-5.44 6,-6 z m -251,6 c -5.01,0.95 -10.32,3.45 -14,7 6.36,0.62 10.65,-1.34 14,-7 z m 251,0 c 0,0 -3,0 -3,0 0,0 3,5 3,5 z m -271,3 c 0,0 -1,0 -1,0 0,0 1,1 1,1 z m 228,2 c 0,0 -1,0 -1,0 0,0 1,1 1,1 z m -206,2 c 0,0 -3,7 -3,7 0,0 4,2 4,2 z m -20,2 c -11.59,0.94 -8.67,1.63 -21,0 0,0 -0.72,5 -0.72,5 0.07,10.98 9.69,3.46 15.72,6 0,0 8,-3 8,-3 0,0 -7,-4 -7,-4 z m 22,0 c 0,0 -1,0 -1,0 0,0 1,1 1,1 z m -3,12 c -4.95,-8.74 -12.75,-5.41 -19,0 z m 42,-3 c -16.76,3 -18.23,-0.7 -28,-2 0.68,3.02 2.32,10.42 4.51,12.4 3.39,3.06 14.18,2.45 18.49,1.6 2.05,3.71 4.54,6.29 9,5 -10.35,-7.04 -6.23,-6.95 -4,-17 z m -40,0 c 0,0 -1,0 -1,0 0,0 1,1 1,1 z m 44,0 c -0.99,2.48 -0.51,2.93 1,5 z m -67,2 c 0,0 -1,0 -1,0 0,0 1,1 1,1 z m 64,9 c 0,0 -1,0 -1,0 0,0 1,1 1,1 z m -9,4 c 0,0 -22,-2 -22,-2 1.94,3.36 6.47,7.75 10,4 5.33,2.12 7.62,1.86 12,-2 z"
       style="fill:#000000;fill-opacity:1" />
    <path
       style="fill:#ffffff;fill-opacity:1;stroke:#000000;stroke-width:1.67937;stroke-opacity:0.811765"
       d="m 729.35464,727.05801 c -25.34671,-2.45345 -42.7804,-6.48826 -51.15676,-11.8396 -9.39225,-6.00036 -16.52444,-12.87279 -16.52444,-15.92264 0,-3.99983 6.61674,-8.51068 17.17159,-11.70643 15.5801,-4.71728 26.48866,-16.26695 38.75268,-41.03027 7.29369,-14.7273 10.3434,-23.26072 12.84451,-35.94035 1.80393,-9.14515 3.90841,-17.25609 4.67662,-18.02431 0.76823,-0.76822 6.28419,0.93926 12.2577,3.79442 26.46155,12.64782 58.72476,4.45929 67.69328,-17.18081 2.90185,-7.00188 2.95633,-8.26981 0.68283,-15.8919 l -2.47063,-8.28294 -2.82679,6.7175 c -7.94097,18.8707 -11.68834,21.60687 -30.70563,22.41993 -21.1546,0.90442 -36.36192,-5.66541 -61.54231,-26.58739 -4.46714,-3.71166 -9.67879,-6.74848 -11.58147,-6.74848 -1.90266,0 -7.09505,3.40074 -11.53863,7.55719 -10.12029,9.46634 -16.90683,10.15175 -25.53216,2.57861 -10.42624,-9.15437 -19.05614,-10.55129 -31.18507,-5.04795 -4.18057,1.89689 -11.39624,3.42801 -16.73506,3.55109 -8.97415,0.20688 -9.65201,-0.0838 -15.46175,-6.63056 l -6.07611,-6.84692 -5.1684,3.14308 c -2.84262,1.7287 -5.68227,4.76217 -6.31035,6.74104 -1.31401,4.1401 0.90655,6.30069 12.9972,12.64631 l 7.95671,4.17597 -13.70021,18.87495 c -24.4148,33.63663 -29.34796,37.22995 -51.21119,37.30252 -13.35527,0.0443 -13.98988,-0.1383 -23.18423,-6.67192 -5.1992,-3.69463 -10.99697,-9.17358 -12.88393,-12.17547 l -3.43084,-5.45796 h 5.71394 c 6.47706,0 18.99086,-7.21426 24.36522,-14.04664 1.91502,-2.43456 4.12882,-4.43583 4.91955,-4.44727 2.23188,-0.0323 9.23536,-11.66643 8.11457,-13.4799 -0.54852,-0.88752 -3.74157,-1.61368 -7.09566,-1.61368 -6.75464,0 -35.09688,13.18096 -40.0058,18.60525 -4.60735,5.09108 -9.74682,3.95572 -16.64193,-3.67635 -15.69517,-17.37267 -18.35215,-36.02782 -8.52805,-59.87701 17.45508,-42.37431 56.54241,-71.92404 111.72219,-84.46116 13.92257,-3.16328 34.95721,-10.58571 66.81041,-23.5752 l 15.53432,-6.3348 1.90126,3.66795 c 4.02712,7.76927 13.78301,18.16524 20.04449,21.35961 5.19571,2.65066 8.53417,3.13882 16.22876,2.37299 15.98093,-1.59057 17.09385,-2.12266 30.01035,-14.34817 6.83941,-6.47352 15.00814,-12.84503 18.15271,-14.15892 3.1446,-1.31389 7.12812,-4.10831 8.85229,-6.20979 1.72414,-2.10149 4.21014,-4.05948 5.52442,-4.3511 6.83685,-1.51703 21.09312,-10.12706 26.28679,-15.87582 10.52977,-11.65522 17.33898,-33.33542 17.39571,-55.38721 0.0237,-9.1989 0.52929,-11.33577 2.68226,-11.33577 2.26849,0 2.58525,-2.37375 2.1851,-16.3739 -0.45966,-16.0823 -0.34087,-16.65803 6.66986,-32.32796 3.9258,-8.77473 9.28702,-20.1105 11.9138,-25.19061 l 4.77599,-9.23656 1.43527,10.07625 c 0.78941,5.54193 1.37341,29.34706 1.29777,52.90029 -0.10563,32.88853 -0.76755,45.65383 -2.85305,55.02103 -1.49354,6.70834 -3.23594,18.61091 -3.872,26.45014 l -1.1565,14.25316 h 4.05392 c 3.67615,0 3.9976,0.59047 3.44961,6.33677 -0.33237,3.48523 0.29061,11.98706 1.38441,18.89297 4.03199,25.45666 4.07058,24.58288 -1.5939,36.08906 -6.15452,12.50162 -15.02563,20.80023 -29.5037,27.59969 -12.85623,6.03781 -22.49038,8.02585 -44.9196,9.26939 -28.929,1.60391 -29.14095,2.25378 -4.55276,13.95913 22.69158,10.80248 24.3702,11.32792 44.0239,13.78022 19.63466,2.44994 46.77522,-2.57469 59.10583,-10.94246 l 5.96042,-4.04486 v 3.63433 c 0,6.91844 -16.80208,89.97975 -24.38309,120.53815 -3.09344,12.46935 -7.64507,34.38518 -10.11474,48.70185 -2.95494,17.12975 -5.43324,26.95387 -7.24796,28.73135 -4.74389,4.64656 -53.60606,19.69984 -70.065,21.58537 -8.24009,0.94398 -16.11554,1.61954 -17.50103,1.50126 -1.38548,-0.11828 -8.71486,-0.81478 -16.28751,-1.54778 z"
       id="path1-1"
       transform="scale(0.75000112)" />
    <path
       style="fill:#ffffff;fill-opacity:1;stroke:#000000;stroke-width:1.67937;stroke-opacity:0.811765"
       d="m 970.6783,806.63136 c -59.734,-10.73185 -101.33483,-44.49203 -111.13509,-90.18904 -3.11743,-14.53606 -0.43831,-34.77927 12.69381,-95.91355 13.52613,-62.96845 16.83898,-81.80216 19.49652,-110.8387 2.18268,-23.8481 2.14547,-59.15133 -0.077,-73.05277 -2.59366,-16.2233 -11.90956,-42.03278 -23.0344,-63.81622 l -9.86308,-19.31281 0.96711,-12.04251 c 0.53191,-6.62339 1.54462,-12.62003 2.25046,-13.32588 1.61413,-1.61412 12.76539,9.06327 22.10948,21.16996 19.65615,25.46752 35.81443,59.0914 40.35196,83.96871 4.49254,24.63064 7.54653,64.7563 5.75181,75.57184 -0.84298,5.0801 -2.25155,18.34662 -3.13014,29.48114 -1.69698,21.50609 -7.72466,52.99333 -14.22533,74.30994 -2.16794,7.10898 -9.65877,26.8731 -16.64629,43.92026 -6.98752,17.04716 -12.39143,31.30797 -12.00869,31.69071 0.38274,0.38275 3.76563,-1.73539 7.51754,-4.70695 7.20169,-5.70386 18.23912,-19.33075 25.87727,-31.94829 l 4.57481,-7.55719 -1.34584,11.75562 c -3.21766,28.10564 1.59493,55.64659 13.35075,76.40216 7.74171,13.66839 26.74062,31.77097 40.02625,38.13788 23.44449,11.23535 45.04729,14.01624 109.43599,14.08748 24.7078,0.0273 44.9233,0.34956 44.9233,0.71605 0,1.92541 -16.1302,9.62371 -29.3891,14.02622 -35.8692,11.91016 -87.1485,14.89017 -128.47211,7.46594 z"
       id="path2"
       transform="scale(0.75000112)" />
    <path
       style="fill:#ffffff;fill-opacity:1;stroke:#000000;stroke-width:1.67937;stroke-opacity:0.811765"
       d="m 682.19855,768.74738 c -5.61264,-6.81215 -14.61021,-33.0452 -13.03563,-38.00629 0.86748,-2.73316 1.74507,-2.58687 10.58306,1.76412 8.74794,4.30667 24.29921,8.76594 43.79694,12.55862 l 7.28982,1.41801 -23.44661,12.18929 c -18.18096,9.45182 -23.8376,11.71474 -25.18758,10.07625 z"
       id="path4"
       transform="scale(0.75000112)" />
    <path
       style="fill:#ffffff;fill-opacity:1;stroke:#000000;stroke-width:1.67937;stroke-opacity:0.811765"
       d="m 1140.9745,1195.8759 c -8.2833,-3.7619 -12.0972,-9.6126 -18.8876,-28.9753 -6.9097,-19.7026 -8.2938,-28.4679 -10.9685,-69.464 -2.3487,-35.9985 -1.9867,-43.784 3.1605,-67.9802 4.0302,-18.9458 6.1979,-57.5495 4.3401,-77.29393 -2.0185,-21.45181 -5.728,-29.2803 -20.9532,-44.21931 -10.8355,-10.63181 -11.4857,-11.66044 -8.4838,-13.4223 4.9302,-2.89367 32.587,-2.07586 38.8212,1.14794 5.7849,2.99153 14.268,15.24909 18.1312,26.19866 4.0449,11.46445 6.4532,45.12866 5.3644,74.98621 -1.0805,29.62793 -3.7637,50.58213 -11.3791,88.86173 -6.6496,33.425 -7.8221,52.0975 -4.1654,66.3353 5.3679,20.9003 11.7092,31.1553 26.1727,42.3253 l 5.8778,4.5395 -10.0763,0.042 c -6.3188,0.026 -12.6409,-1.1227 -16.954,-3.0815 z"
       id="path5"
       transform="scale(0.75000112)" />
    <path
       style="fill:#ffffff;fill-opacity:1;stroke:#000000;stroke-width:1.67937;stroke-opacity:0.811765"
       d="m 1131.8982,1225.3916 c -0.4618,-0.4651 -5.0599,-1.2109 -10.2181,-1.6573 -15.6317,-1.3527 -30.8489,-10.841 -35.0131,-21.8315 -2.8333,-7.4779 -2.1656,-28.2535 1.872,-58.249 3.5778,-26.5796 5.7501,-30.9451 6.2677,-12.5953 0.345,12.2326 6.6652,38.3225 11.7801,48.6281 5.9965,12.0819 19.6903,29.1339 26.6947,33.241 2.7562,1.6162 10.9408,4.3431 18.1879,6.0599 11.327,2.6833 12.4694,3.2627 8.1385,4.1282 -8.3258,1.6638 -26.8101,3.182 -27.7097,2.2759 z"
       id="path6"
       transform="scale(0.75000112)" />
    <path
       style="fill:#ffffff;fill-opacity:1;stroke:#000000;stroke-width:1.67937;stroke-opacity:0.811765"
       d="m 1189.8366,1188.3272 c -15.73,-4.9748 -25.0696,-12.7422 -32.2541,-26.8246 -6.7476,-13.2262 -7.3071,-35.8643 -1.5201,-61.5125 11.5095,-51.0104 15.4803,-86.6689 13.9321,-125.11337 -1.7245,-42.82189 -8.412,-68.28456 -22.2269,-84.62853 -6.3654,-7.53074 -19.5368,-13.5382 -30.1441,-13.74862 l -8.3968,-0.16657 8.3968,-2.44776 c 18.0379,-5.25818 43.4995,0.009 57.5709,11.90954 17.5739,14.86262 30.6262,52.28738 30.5746,87.66637 -0.024,16.76904 -9.4446,75.56244 -14.8916,92.94144 -5.6507,18.0292 -12.4424,64.4877 -11.5387,78.9306 1.0388,16.6017 7.7762,33.471 16.1122,40.3422 6.5016,5.3592 5.0759,6.0326 -5.6143,2.6518 z"
       id="path7"
       transform="scale(0.75000112)" />
    <path
       style="fill:#ffffff;fill-opacity:1;stroke:#000000;stroke-width:1.67937;stroke-opacity:0.811765"
       d="m 1100.2835,963.8183 c -0.1614,-1.46386 -2.9891,-11.17457 -6.2838,-21.57935 -3.2947,-10.40478 -5.6005,-19.3076 -5.1241,-19.78405 0.4765,-0.47645 3.1406,2.71987 5.9202,7.10293 5.5162,8.6981 7.4851,17.66247 6.4497,29.36485 -0.3677,4.15645 -0.8006,6.35948 -0.962,4.89562 z"
       id="path8"
       transform="scale(0.75000112)" />
    <path
       style="fill:#ffffff;fill-opacity:1;stroke:#000000;stroke-width:1.67937;stroke-opacity:0.811765"
       d="m 1031.2195,1300.2602 c -14.8168,-0.5964 -18.5568,-2.0773 -18.5568,-7.3477 0,-3.8111 0.9134,-3.8669 10.1216,-0.618 6.4071,2.2605 8.6326,2.2605 20.5492,0 15.7105,-2.9802 14.6723,-2.9006 14.6723,-1.1253 0,0.7754 -1.8893,2.2706 -4.1985,3.3228 -2.3091,1.0521 -4.1984,3.0627 -4.1984,4.468 0,1.4052 -0.9447,2.4012 -2.0992,2.2132 -1.1546,-0.188 -8.4852,-0.5989 -16.2902,-0.913 z"
       id="path9"
       transform="scale(0.75000112)" />
    <path
       style="fill:#ffffff;fill-opacity:1;stroke:#000000;stroke-width:1.67937;stroke-opacity:0.811765"
       d=""
       id="path10"
       transform="scale(0.75000112)" />
    <path
       style="fill:#ffffff;fill-opacity:1;stroke:#000000;stroke-width:1.67937;stroke-opacity:0.811765"
       d="m 752.84463,1333.7584 c -1.11874,-0.711 -3.23774,-4.1734 -4.70889,-7.6944 l -2.67481,-6.4017 7.22795,1.4224 c 3.97537,0.7824 11.60022,1.3742 16.94411,1.3152 7.68913,-0.085 9.52701,0.3855 8.80955,2.2552 -0.49863,1.2994 -1.36316,4.1817 -1.92119,6.405 -0.93496,3.7252 -1.82393,4.0404 -11.32861,4.0167 -5.67272,-0.014 -11.22937,-0.6074 -12.34811,-1.3184 z"
       id="path11"
       transform="scale(0.75000112)" />
    <path
       style="fill:#ffffff;fill-opacity:1;stroke:#000000;stroke-width:1.67937;stroke-opacity:0.811765"
       d=""
       id="path12"
       transform="scale(0.75000112)" />
    <path
       style="fill:#ffffff;fill-opacity:1;stroke:#000000;stroke-width:0.148437;stroke-opacity:0.811765"
       d="m 748.92288,1343.5262 c -1.73476,-0.6451 -3.55734,-2.0725 -5.13083,-4.0182 -0.55607,-0.6876 -0.99472,-1.2621 -0.97478,-1.2766 0.0344,-0.025 24.62679,2.2109 25.56744,2.3246 0.43213,0.052 0.41236,0.077 -0.66797,0.8467 -3.6539,2.6022 -6.32554,2.8901 -11.04326,1.1897 -0.90646,-0.3267 -1.76315,-0.6299 -1.90376,-0.6737 -0.16424,-0.051 -0.50922,0.1439 -0.96484,0.5455 -1.07755,0.95 -1.72985,1.2298 -3.00997,1.2909 -0.83142,0.04 -1.30537,-0.018 -1.87203,-0.2289 z"
       id="path13"
       transform="scale(0.75000112)" />
    <path
       style="fill:#ffffff;fill-opacity:1;stroke:#000000;stroke-width:0.148437;stroke-opacity:0.811765"
       d="m 675.33393,1321.8867 c -1.8673,-0.5735 -2.81786,-1.8193 -3.29641,-4.3205 -0.30701,-1.6046 -0.27125,-2.7383 0.18712,-5.9334 0.38606,-2.6911 0.42617,-2.8482 0.71052,-2.7842 0.16575,0.037 1.37011,0.2001 2.67636,0.3618 7.74275,0.9584 10.08115,0.9917 17.07026,0.2433 2.6125,-0.2798 4.76934,-0.4898 4.79298,-0.4666 0.0236,0.023 -1.1453,0.9923 -2.59765,2.1537 -1.45235,1.1614 -2.64064,2.1811 -2.64064,2.266 0,0.085 1.95525,1.2717 4.345,2.6373 l 4.34499,2.483 -4.43705,1.6641 -4.43705,1.6642 -0.79856,-0.2525 c -0.55026,-0.1739 -1.51398,-0.274 -3.09935,-0.3218 -1.99583,-0.06 -2.74957,-0.01 -5.68695,0.3894 -3.74027,0.5068 -5.96735,0.5743 -7.13357,0.2162 z"
       id="path15"
       transform="scale(0.75000112)" />
    <path
       style="fill:#ffffff;fill-opacity:1;stroke:#000000;stroke-width:0.148437;stroke-opacity:0.811765"
       d="m 671.38106,1301.094 v -2.0355 l 0.71017,0.6995 c 0.3906,0.3848 0.76244,0.6995 0.82631,0.6995 0.0639,0 0.34271,-0.1728 0.61964,-0.384 l 0.5035,-0.384 -3.04532,-6.0893 c -1.67493,-3.349 -3.0142,-6.1203 -2.97617,-6.1584 0.11688,-0.1168 3.6244,3.0152 5.67106,5.0639 3.54868,3.5524 5.08907,6.1277 4.64094,7.7591 -0.20854,0.7592 -1.09975,1.5764 -2.15486,1.9759 -1.06801,0.4044 -3.32109,0.8842 -4.16441,0.8868 h -0.63086 z"
       id="path16"
       transform="scale(0.75000112)" />
    <path
       style="fill:#ffffff;fill-opacity:1;stroke:#000000;stroke-width:0.148437;stroke-opacity:0.811765"
       d="m 707.1544,1304.7213 c 0,-0.1271 2.56769,-2.0161 3.85937,-2.8393 2.02989,-1.2936 5.72833,-3.0081 8.36741,-3.8788 1.37728,-0.4544 2.60023,-0.8061 2.71766,-0.7816 0.50481,0.1053 -2.50142,3.4413 -4.19908,4.6596 -1.75452,1.2591 -3.93771,2.1642 -6.21802,2.5779 -1.03517,0.1877 -4.52734,0.39 -4.52734,0.2622 z"
       id="path17"
       transform="scale(0.75000112)" />
    <path
       style="fill:#ffffff;fill-opacity:1;stroke:#000000;stroke-width:0.148437;stroke-opacity:0.811765"
       d="m 702.47863,1322.9322 c 0.93108,-0.7819 4.02374,-2.7748 5.30309,-3.4173 1.89808,-0.9533 4.11222,-1.6573 5.85589,-1.8619 1.25453,-0.1472 1.67678,-0.137 2.78889,0.067 2.22358,0.4083 4.3406,1.6195 5.94006,3.3985 0.69076,0.7683 1.56124,1.9467 1.56124,2.1136 0,0.047 -4.92626,0.082 -10.94724,0.079 l -10.94724,-0.01 z"
       id="path18"
       transform="scale(0.75000112)" />
    <path
       style="fill:#ffffff;fill-opacity:1;stroke:#000000;stroke-width:0.148437;stroke-opacity:0.811765"
       d="m 725.33795,1315.1947 c -0.89805,-0.45 -1.65107,-0.8343 -1.67339,-0.854 -0.0223,-0.02 0.55045,-1.4158 1.27284,-3.1022 l 1.31342,-3.0662 0.41409,3.7732 c 0.22775,2.0753 0.38973,3.8394 0.35997,3.9203 -0.0298,0.081 -0.78889,-0.2211 -1.68693,-0.6711 z"
       id="path19"
       transform="scale(0.75000112)" />
    <path
       style="fill:#ffffff;fill-opacity:1;stroke:#000000;stroke-width:0.148437;stroke-opacity:0.811765"
       d=""
       id="path20"
       transform="scale(0.75000112)" />
    <path
       style="fill:#ffffff;fill-opacity:1;stroke:#000000;stroke-width:0.148437;stroke-opacity:0.811765"
       d=""
       id="path21"
       transform="scale(0.75000112)" />
    <path
       style="fill:#ffffff;fill-opacity:1;stroke:#000000;stroke-width:1.1875;stroke-opacity:0.811765"
       d="m 746.93555,392.5721 c -3.59218,-1.52019 -8.85014,-4.1058 -11.68437,-5.7458 l -5.15313,-2.98183 3.96564,-3.01611 c 4.33229,-3.29497 23.17134,-12.70432 25.43613,-12.70432 0.77478,0 1.68818,-1.06875 2.02977,-2.375 0.39393,-1.5064 1.63889,-2.38854 3.40411,-2.41205 1.53068,-0.0204 4.92054,-1.35358 7.53303,-2.96266 2.7873,-1.71674 6.56105,-2.92811 9.13302,-2.93168 2.41067,-0.003 4.73581,-0.57689 5.16698,-1.27454 0.43117,-0.69765 1.47011,-1.00515 2.30875,-0.68333 0.83864,0.32182 2.65583,-0.20708 4.0382,-1.17533 8.24933,-5.77806 5.22025,9.80374 -4.48694,23.08111 -3.00989,4.1169 -6.6962,9.17053 -8.19179,11.23028 -2.89429,3.98606 -9.32323,7.50058 -10.001,5.46727 -0.25417,-0.76251 -1.55616,-0.73206 -3.70983,0.0868 -5.25111,1.99647 -12.71145,1.39221 -19.78857,-1.60278 z"
       id="path27"
       transform="scale(0.75000112)" />
    <path
       style="fill:#ffffff;fill-opacity:1;stroke:#000000;stroke-width:1.1875;stroke-opacity:0.811765"
       d="m 699.73255,417.38746 c -2.77578,-1.69711 -5.04687,-3.59247 -5.04687,-4.21191 0,-1.49504 14.7527,-12.3618 20.85925,-15.36481 2.65542,-1.30585 6.60014,-2.37427 8.76606,-2.37427 4.18045,0 11.93709,4.06004 11.93709,6.24822 0,2.39027 -10.89403,11.48947 -17.49387,14.6117 -9.57607,4.5302 -13.06897,4.73055 -19.02166,1.09107 z"
       id="path28"
       transform="scale(0.75000112)" />
    <path
       style="fill:#ffffff;fill-opacity:1;stroke:#000000;stroke-width:1.1875;stroke-opacity:0.811765"
       d="m 809.87288,504.80115 c -11.60642,-0.81493 -11.28284,-1.39634 3.76622,-6.76709 15.73543,-5.6157 23.99073,-10.7125 33.5397,-20.7073 14.7674,-15.45685 17.36257,-23.46477 18.03323,-55.6451 0.23683,-11.36351 0.6197,-20.85003 0.85082,-21.08116 1.11646,-1.11645 8.26013,23.1105 10.33724,35.05759 2.60267,14.96996 3.06286,34.26096 1.01165,42.40708 -1.63135,6.47867 -8.02937,12.50907 -19.87683,18.73473 -13.07749,6.87203 -28.01959,9.38043 -47.66203,8.00125 z"
       id="path29"
       transform="scale(0.75000112)" />
    <path
       style="fill:#ffffff;fill-opacity:1;stroke:#000000;stroke-width:1.1875;stroke-opacity:0.811765"
       d="m 1060.469,518.32815 c -38.5558,-8.00379 -59.477,-22.67018 -82.98213,-58.1731 -5.62131,-8.49061 -13.79592,-20.24682 -18.16578,-26.12493 -6.86728,-9.23749 -23.30791,-40.44261 -21.99773,-41.75278 0.22544,-0.22545 3.81607,4.00015 7.97916,9.39021 22.21835,28.7667 54.66208,55.04832 84.41398,68.38105 9.7279,4.35934 49.2026,14.01404 64.5391,15.7849 32.4826,3.75067 75.6028,-3.57571 100.1433,-17.01493 4.7758,-2.6154 8.9927,-4.44587 9.3708,-4.06773 1.0442,1.04418 -8.7601,13.24085 -15.5764,19.37723 -14.3472,12.91608 -38.4252,26.09083 -58.0021,31.73697 -21.6066,6.23152 -47.2116,7.13608 -69.7222,2.46311 z"
       id="path30"
       transform="scale(0.75000112)" />
    <path
       style="fill:#ffffff;fill-opacity:1;stroke:#000000;stroke-width:1.1875;stroke-opacity:0.811765"
       d="m 1059.2472,571.05578 c -18.4452,-1.4224 -25.351,-3.13016 -39.6182,-9.79723 -19.2189,-8.98103 -31.38007,-18.20463 -39.44829,-29.91933 l -4.63569,-6.73081 -0.78777,-18.57047 c -0.43328,-10.21375 -1.13582,-20.44077 -1.5612,-22.7267 l -0.77343,-4.15624 3.26564,4.15624 c 6.13315,7.80576 22.3908,23.27224 30.52434,29.03885 15.0174,10.64726 41.758,20.27614 66.4264,23.9191 27.6847,4.0884 63.4299,-0.96395 89.4656,-12.64537 24.5781,-11.02747 49.0059,-33.65186 61.6314,-57.08138 2.245,-4.16619 4.094,-7.10428 4.1088,-6.5291 0.078,3.01288 -4.0278,26.3183 -6.0677,34.44421 -4.477,17.83361 -14.849,34.97978 -30.7143,50.7744 -17.0721,16.99606 -31.5858,22.47157 -65.7679,24.81177 -27.4364,1.87838 -50.2754,2.22834 -66.0477,1.01206 z"
       id="path31"
       transform="scale(0.75000112)" />
    <path
       style="fill:#ffffff;fill-opacity:1;stroke:#000000;stroke-width:1.1875;stroke-opacity:0.811765"
       d="m 1084.7784,664.19954 c -19.3569,-2.40636 -55.679,-12.94614 -70.0623,-20.33032 -5.7282,-2.94079 -11.2714,-7.24189 -17.82998,-13.8348 -13.74597,-13.81788 -20.31707,-27.41084 -25.46663,-52.68015 -2.12628,-10.43383 -2.26337,-13.07547 -1.08849,-20.9748 l 1.34417,-9.03755 2.52051,2.11806 c 1.38629,1.16494 7.06269,6.41159 12.61424,11.65923 14.60448,13.805 33.27178,22.86424 59.05728,28.66052 7.6157,1.71191 14.9172,2.05995 41.88,1.99631 l 32.6561,-0.0771 19,-4.41957 c 10.4499,-2.43076 24.5553,-4.90255 31.3452,-5.49285 22.5375,-1.95937 59.6718,-8.81817 80.6392,-14.89429 15.9651,-4.62652 41.6319,-17.61284 58.7183,-29.70896 3.1023,-2.19627 5.6406,-3.51603 5.6406,-2.93279 0,0.58324 -1.1314,4.72375 -2.5142,9.20113 -5.4205,17.55088 -20.8337,44.08534 -38.1309,65.64392 -10.503,13.09068 -33.5253,33.49348 -42.9624,38.07426 -11.4636,5.56447 -51.7301,15.42378 -68.2039,16.69983 -13.1841,1.02123 -71.6361,1.26485 -79.1568,0.32991 z"
       id="path32"
       transform="scale(0.75000112)" />
    <path
       style="fill:#ffffff;fill-opacity:1;stroke:#000000;stroke-width:1.1875;stroke-opacity:0.811765"
       d="m 1064.591,765.16528 c -30.5891,-1.5652 -63.5987,-5.91179 -76.22598,-10.03717 -20.46064,-6.68457 -39.16916,-27.03823 -47.31317,-51.47366 -7.91634,-23.75232 -6.90754,-44.1465 3.73179,-75.44293 6.34117,-18.65309 12.73157,-34.46307 13.92997,-34.46307 0.3039,0 1.72307,3.87421 3.15369,8.60935 5.2861,17.49617 18.0067,37.18307 31.12843,48.17559 15.57637,13.04883 37.70267,22.62204 67.43897,29.17819 22.1161,4.87606 39.5731,6.66199 65.0763,6.65757 33.5759,-0.006 46.1633,-1.47566 81.5939,-9.52768 16.9891,-3.86098 36.761,-7.86876 43.9374,-8.9062 7.1765,-1.03743 18.037,-3.22065 24.1345,-4.85159 6.0974,-1.63094 11.6233,-2.78632 12.2798,-2.56752 1.9676,0.65588 -10.01,17.43442 -20.2873,28.41905 -24.084,25.7416 -62.2865,50.70003 -95.0094,62.07147 -22.9475,7.97442 -80.4671,15.54535 -107.5689,14.1586 z"
       id="path33"
       transform="scale(0.75000112)" />
    <path
       style="fill:#ffffff;fill-opacity:1;stroke:#000000;stroke-width:1.1875;stroke-opacity:0.811765"
       d="m 940.56891,586.02972 c -0.0325,-1.30625 1.30286,-8.78748 2.96755,-16.62496 1.66469,-7.83748 3.51667,-20.92963 4.1155,-29.09367 1.55958,-21.26226 1.41857,-75.85598 -0.2253,-87.22556 -1.00571,-6.95589 -1.03131,-10.53861 -0.0937,-13.1241 1.27177,-3.50712 1.29097,-3.4824 1.38788,1.78742 0.0541,2.93905 0.88847,10.15309 1.85426,16.0312 0.9658,5.87811 1.76533,15.69586 1.77673,21.81723 0.0179,9.61735 0.25613,10.93438 1.75305,9.69205 2.83445,-2.35239 3.45154,3.22059 2.61429,23.6098 -1.22407,29.80912 -2.41366,36.88693 -9.6192,57.23205 -3.55952,10.05045 -6.49847,17.20479 -6.53101,15.89854 z"
       id="path34"
       transform="scale(0.75000112)" />
    <path
       style="fill:#ffffff;fill-opacity:1;stroke:#000000;stroke-width:1.1875;stroke-opacity:0.811765"
       d="m 733.09669,275.09417 c 0.33783,-1.41 0.97849,-4.57344 1.42368,-7.02986 0.8491,-4.68502 2.9152,-7.28031 2.9152,-3.66187 0,1.92345 0.16325,1.94255 1.88527,0.22053 1.55799,-1.55799 1.62746,-2.29807 0.40019,-4.26324 -1.92032,-3.07492 -0.13331,-12.49029 4.23944,-22.3367 2.9466,-6.63504 3.2311,-6.91355 4.78073,-4.67989 0.90623,1.30625 2.39982,3.17655 3.31911,4.15624 1.81369,1.93285 4.37521,6.48155 4.37521,7.7694 0,0.4403 -1.37917,0.4544 -3.06482,0.0313 l -3.06483,-0.76922 3.11675,4.08626 c 2.27565,2.98354 2.91407,4.89378 2.36571,7.0786 -0.6095,2.42844 -0.15414,3.30506 2.41643,4.65192 2.60993,1.36749 14.21927,15.13399 13.339,15.81757 -0.14549,0.11298 -8.9938,0.49503 -19.66292,0.849 l -19.39839,0.64358 z m 12.67518,-10.90481 c 0.82616,-0.99547 1.18183,-2.13023 0.79036,-2.52169 -1.21606,-1.21607 -4.37667,0.59878 -4.37667,2.51312 0,2.32585 1.65984,2.32982 3.58631,0.009 z"
       id="path35"
       transform="scale(0.75000112)" />
    <path
       style="fill:#ffffff;fill-opacity:1;stroke:#000000;stroke-width:0.296874;stroke-opacity:0.811765"
       d="m 655.68521,369.5807 c -20.05574,-1.65293 -44.72775,-8.98281 -56.8899,-16.90159 -5.06055,-3.29492 -10.31152,-9.28349 -14.25434,-16.25662 -0.85718,-1.51597 -1.50523,-2.80958 -1.44011,-2.8747 0.1789,-0.1789 4.09548,1.44215 8.42103,3.48541 10.51746,4.96814 23.83551,12.58483 28.31819,16.19536 l 1.30263,1.0492 3.67001,-1.21488 3.67001,-1.21487 v 2.05209 c 0,1.12865 0.10259,2.0521 0.22796,2.0521 0.12538,0 0.73694,-0.34586 1.35903,-0.76858 1.32104,-0.89767 1.57055,-0.79389 1.12996,0.46999 -0.2422,0.69479 -0.23246,0.94685 0.0399,1.03237 0.50504,0.15858 9.15318,1.34809 9.78609,1.34603 0.34958,-0.001 0.51953,-0.23409 0.51953,-0.71212 0,-0.81888 -0.068,-0.85307 -2.74609,-1.37955 -2.09128,-0.41113 -2.4633,-0.6864 -1.33593,-0.98852 1.26932,-0.34017 2.22009,-0.18297 5.29735,0.87589 3.07526,1.05818 9.01206,2.19578 17.04243,3.26565 5.40407,0.71998 10.79955,0.66823 14.54684,-0.13954 13.39734,-2.88793 30.93678,-11.21099 40.17161,-19.06279 l 2.17172,-1.84647 8.50368,-1.31215 c 8.10559,-1.25072 8.5499,-1.35273 9.49093,-2.17897 0.54299,-0.47675 1.11916,-0.86681 1.28038,-0.86681 0.16122,0 1.35892,0.53586 2.66154,1.19081 2.73267,1.37396 2.69261,1.42093 1.77466,-2.08143 -0.75764,-2.89068 -0.7582,-2.88598 0.37109,-3.13039 0.53066,-0.11485 4.10428,-1.25287 7.94138,-2.52894 7.8405,-2.60742 11.62416,-3.47694 16.26294,-3.73738 5.52465,-0.31018 12.0834,1.02541 17.77676,3.61995 2.46663,1.12408 2.39561,1.20489 1.72842,-1.96682 -0.24779,-1.17798 -0.40346,-2.18885 -0.34593,-2.24639 0.19952,-0.19952 3.52332,4.4752 4.35897,6.13062 0.91968,1.82187 1.65197,4.21811 1.87066,6.12124 l 0.14052,1.22283 -3.94114,-0.15039 c -7.87035,-0.30032 -16.46709,1.59929 -21.40261,4.7293 l -1.44791,0.91825 -3.26988,-0.20547 c -7.56809,-0.47556 -13.39747,-2.04394 -16.64926,-4.47943 l -0.91066,-0.68206 -3.12042,0.76665 -3.12041,0.76665 -0.80078,3.25677 c -0.44042,1.79123 -0.76393,3.28662 -0.7189,3.3231 0.045,0.0365 0.98361,0.36253 2.08576,0.72455 1.81364,0.59574 2.00315,0.73344 1.99602,1.45043 -0.008,0.7561 -0.64997,1.08308 -14.09712,7.175 -7.74908,3.51053 -14.37588,6.42777 -14.72621,6.48275 -0.44707,0.0702 -1.11003,-0.36722 -2.22363,-1.46698 -0.87265,-0.86181 -1.63606,-1.50796 -1.69646,-1.43589 -0.0604,0.0721 -0.65988,0.95132 -1.33218,1.95387 -2.48304,3.70281 -4.55652,4.81008 -10.79914,5.76688 -4.58828,0.70324 -6.44424,1.08441 -13.6016,2.79347 -3.0207,0.72129 -6.87566,1.45221 -8.56659,1.62427 -3.48783,0.3549 -12.1066,0.34876 -16.4808,-0.0118 z"
       id="path36"
       transform="scale(0.75000112)" />
    <path
       style="fill:#ffffff;fill-opacity:1;stroke:#000000;stroke-width:0.296874;stroke-opacity:0.811765"
       d="m 767.49467,294.56234 c -4.12252,-1.91244 -7.49575,-3.5601 -7.49607,-3.66147 -3.2e-4,-0.10137 0.76758,-0.26901 1.70644,-0.37252 2.98228,-0.32881 11.38873,1.30505 12.28767,2.3882 0.23819,0.28701 0.24997,0.6068 0.0394,1.07022 -0.23924,0.52656 -0.12626,1.00789 0.55581,2.36792 0.47084,0.93887 0.75396,1.70203 0.62915,1.69592 -0.12481,-0.006 -3.5999,-1.57583 -7.72242,-3.48827 z"
       id="path37"
       transform="scale(0.75000112)" />
    <path
       style="fill:#ffffff;fill-opacity:1;stroke:#000000;stroke-width:0.296874;stroke-opacity:0.811765"
       d="m 710.93497,321.91067 c -2.49293,-1.32967 -4.51565,-3.08339 -5.27651,-4.57481 -0.74497,-1.46026 -1.23147,-4.89255 -0.9876,-6.96754 0.18294,-1.55653 0.23108,-1.6288 1.26265,-1.89557 0.58985,-0.15253 1.63138,-0.42269 2.31451,-0.60034 0.68314,-0.17766 3.79787,-1.11556 6.92163,-2.08422 3.12377,-0.96867 6.99911,-2.03465 8.61188,-2.36885 3.36778,-0.69787 8.0971,-0.77903 9.94312,-0.17063 0.93952,0.30964 1.03251,0.39517 0.44531,0.40956 -0.4082,0.01 -1.34284,-0.0977 -2.07698,-0.23924 -1.38793,-0.2677 -1.76846,-0.0735 -1.77784,0.90719 -0.003,0.28967 2.13824,1.89977 5.47896,4.12034 l 5.4835,3.64487 -0.70082,0.55127 c -1.19206,0.93768 -3.57325,2.01557 -5.24433,2.37395 -2.3788,0.51016 -5.84118,0.13918 -10.21716,-1.09473 -2.12265,-0.59853 -5.09138,-1.39658 -6.59718,-1.77343 -3.02865,-0.75797 -7.84485,-1.28286 -7.35591,-0.80168 0.16329,0.16069 2.66816,2.0631 5.5664,4.22758 2.89823,2.16447 5.26951,4.03466 5.26951,4.15596 0,0.19794 -3.02532,1.49391 -3.18175,1.36298 -0.0355,-0.0297 0.0877,-0.55009 0.27373,-1.15637 0.29862,-0.97299 0.27137,-1.1522 -0.23229,-1.52744 -0.52728,-0.39282 -0.7627,-0.23469 -3.09992,2.08226 -1.39111,1.37906 -2.59346,2.5035 -2.67187,2.49877 -0.0784,-0.005 -1.04638,-0.49068 -2.15104,-1.07988 z"
       id="path38"
       transform="scale(0.75000112)" />
    <path
       style="fill:#ffffff;fill-opacity:1;stroke:#000000;stroke-width:0.296874;stroke-opacity:0.811765"
       d="m 664.99826,339.31209 c -0.73476,-0.13074 -2.23769,-0.24762 -3.33983,-0.25972 -1.10215,-0.0121 -2.00303,-0.1222 -2.00196,-0.24466 10e-4,-0.12246 0.53457,-4.16366 1.18555,-8.98045 0.65099,-4.81678 1.18449,-8.85028 1.18556,-8.96332 0.001,-0.11304 0.93709,-0.50672 2.08006,-0.87484 l 2.07812,-0.6693 v -1.86753 c 0,-1.85871 -0.006,-1.87109 -1.19826,-2.62395 -1.79796,-1.135 -2.3622,-2.26852 -2.36104,-4.74319 0.001,-2.49994 0.73455,-5.69891 2.31406,-10.09373 1.82677,-5.08278 5.70802,-13.50926 6.2212,-13.50666 0.12063,6.1e-4 0.68692,0.28411 1.2584,0.63 6.85429,4.14857 14.42345,15.41853 15.70657,23.38601 0.31684,1.96737 0.12081,3.63554 -0.69686,5.93028 -0.66526,1.86703 -0.62023,2.16014 0.27931,1.81814 l 0.74219,-0.28218 v 1.98798 1.98797 l 1.94152,-1.9211 1.94153,-1.92111 -1.71887,-0.14844 -1.71887,-0.14843 1.43553,-0.41678 1.43553,-0.41678 5.16992,5.16358 5.16992,5.16359 v -2.43868 -2.43869 l 0.81641,0.29834 c 0.44902,0.16408 0.96911,0.35149 1.15575,0.41646 0.31325,0.10905 0.12918,1.51 -0.62981,4.79348 -0.12201,0.52782 -0.43256,0.65162 -2.00507,0.79934 -2.32754,0.21864 -3.7265,0.79799 -5.67507,2.35022 -2.23235,1.77828 -5.60917,3.24628 -11.42319,4.96599 -11.40257,3.37274 -15.17727,4.01033 -19.3483,3.26816 z"
       id="path39"
       transform="scale(0.75000112)" />
    <path
       style="fill:#ffffff;fill-opacity:1;stroke:#000000;stroke-width:0.296874;stroke-opacity:0.811765"
       d="m 683.40446,347.80577 c 0.953,-1.00865 4.14269,-2.7742 5.93749,-3.2865 0.66557,-0.18997 0.6196,-0.0841 -0.44531,1.02556 -1.18413,1.23388 -3.95112,2.78497 -5.64061,3.16195 l -0.89062,0.19872 z"
       id="path40"
       transform="scale(0.75000112)" />
    <path
       style="fill:#ffffff;fill-opacity:1;stroke:#000000;stroke-width:0.296874;stroke-opacity:0.811765"
       d="m 640.43276,335.74099 -3.04213,-2.06728 -1.26255,0.66101 c -0.89849,0.47041 -1.77617,0.66064 -3.0438,0.65974 -2.26744,-0.002 -3.32034,-0.53193 -15.31728,-7.71453 -4.99561,-2.99089 -11.27325,-6.54255 -13.95031,-7.89257 -4.29844,-2.16768 -5.12465,-2.70772 -7.06844,-4.62023 -1.21058,-1.19111 -2.12374,-2.24297 -2.02923,-2.33748 0.2497,-0.2497 6.10265,-1.47354 12.09189,-2.5284 6.78771,-1.19548 15.37479,-1.5193 19.28391,-0.72721 5.03745,1.02071 7.98666,3.06943 10.25334,7.12263 1.62731,2.9099 3.72599,8.39103 5.57862,14.56965 1.93066,6.43888 2.06915,6.98143 1.77641,6.95925 -0.12557,-0.01 -1.59726,-0.94757 -3.27043,-2.08458 z"
       id="path41"
       transform="scale(0.75000112)" />
    <path
       style="fill:#ffffff;fill-opacity:1;stroke:#000000;stroke-width:0.296874;stroke-opacity:0.811765"
       d="m 637.59333,294.25936 c -0.2584,-1.29199 -1.48309,-2.56199 -3.30029,-3.42239 l -1.62103,-0.76753 -1.67117,-5.13274 c -1.9183,-5.89174 -2.00345,-6.29764 -2.79093,-13.30344 -1.17869,-10.4862 -1.74329,-12.22488 -7.5174,-23.14953 -5.34714,-10.11682 -7.99861,-23.89994 -5.70187,-29.64004 0.71594,-1.78932 2.9564,-3.68509 5.18511,-4.3874 l 1.82896,-0.57634 1.54792,-3.61894 c 0.85136,-1.99042 1.61951,-3.69054 1.70701,-3.77804 0.0875,-0.0875 0.53653,0.8103 0.99785,1.9951 1.55239,3.98704 1.95639,4.81577 2.1751,4.46189 0.34386,-0.55638 3.29105,16.83035 3.78559,22.33286 0.51285,5.70613 0.66995,6.45144 2.08137,9.87455 1.2296,2.98215 1.28259,4.15587 0.24341,5.39087 -0.75543,0.89778 -2.28033,1.49654 -4.94695,1.94246 l -1.11328,0.18617 v 8.15059 c 0,5.63171 0.099,8.15059 0.32021,8.15059 0.17611,0 2.54739,-0.90176 5.26952,-2.0039 4.58796,-1.8576 5.07351,-2.12865 6.65049,-3.71252 3.46877,-3.48393 5.75932,-10.05215 6.61035,-18.95542 l 0.18744,-1.96095 2.45234,0.50111 c 1.34879,0.2756 2.6053,0.59563 2.79223,0.71117 0.53306,0.32944 2.84893,4.74856 4.45379,8.49868 2.02188,4.72454 3.46623,7.52797 6.20072,12.03534 3.10336,5.1154 3.47291,6.32801 3.28383,10.77534 -0.081,1.90448 -0.32281,4.17467 -0.53743,5.04487 -0.36264,1.47042 -0.49583,1.63571 -1.88542,2.33987 -1.47649,0.7482 -1.51206,0.75139 -2.8381,0.25458 -3.45803,-1.29557 -7.90712,-0.78545 -12.62408,1.44745 -4.15156,1.96526 -5.99767,3.59108 -8.72159,7.68089 -2.20319,3.30799 -2.34022,3.45219 -2.5037,2.6348 z"
       id="path42"
       transform="scale(0.75000112)" />
    <path
       style="fill:#ffffff;fill-opacity:1;stroke:#000000;stroke-width:0.296874;stroke-opacity:0.811765"
       d="m 643.93258,291.46029 c -0.35641,-1.78887 -0.59084,-3.30967 -0.52095,-3.37956 0.0699,-0.0699 0.28337,0.0612 0.47439,0.2914 0.2952,0.3557 0.74535,0.29047 3.00075,-0.43482 4.30884,-1.38565 10.92601,-2.27211 11.38744,-1.5255 0.0765,0.12378 -2.97327,2.04213 -6.77726,4.26301 l -6.91635,4.03795 z"
       id="path43"
       transform="scale(0.75000112)" />
    <path
       style="fill:#ffffff;fill-opacity:1;stroke:#000000;stroke-width:0.296874;stroke-opacity:0.811765"
       d="m 646.88131,305.7047 c -0.19669,-1.18294 -0.52874,-3.06109 -0.73787,-4.17366 l -0.38025,-2.02286 4.19958,-3.4756 c 9.16408,-7.58424 10.32465,-8.50989 10.66963,-8.50989 0.19693,0 0.61473,0.52583 0.92843,1.16851 0.50141,1.02725 0.53205,1.39222 0.25339,3.01902 -0.20885,1.21923 -0.64812,2.33973 -1.28767,3.2846 -1.16394,1.71961 -6.82437,7.36934 -10.58143,10.56144 l -2.70618,2.29924 z"
       id="path44"
       transform="scale(0.75000112)" />
    <path
       style="fill:#ffffff;fill-opacity:1;stroke:#000000;stroke-width:0.296874;stroke-opacity:0.811765"
       d="m 590.47753,304.63735 c 3.22651,-2.61065 10.09758,-5.28647 15.73964,-6.12952 1.3263,-0.19818 1.33082,-0.1959 0.62653,0.31674 -1.73268,1.26118 -12.88071,5.54249 -16.21243,6.22624 l -0.89062,0.18277 z"
       id="path45"
       transform="scale(0.75000112)" />
    <path
       style="fill:#ffffff;fill-opacity:1;stroke:#000000;stroke-width:0.296874;stroke-opacity:0.811765"
       d="m 637.88848,242.17515 c -0.0872,-0.36738 -1.11369,-6.67967 -2.28101,-14.02731 l -2.1224,-13.35934 -2.32504,-2.22656 -2.32504,-2.22655 0.85692,-5.49218 c 0.47131,-3.02069 0.93922,-5.95975 1.0398,-6.53123 0.17434,-0.99049 0.23765,-0.89336 1.35455,2.07812 1.56443,4.16214 3.41943,7.90074 7.34806,14.80947 4.97153,8.74272 6.5653,12.97965 6.5898,17.51851 0.0119,2.20351 -0.0934,2.70919 -0.90927,4.36644 -1.04742,2.12762 -2.60263,3.61446 -5.11977,4.89469 -0.93421,0.47515 -1.75469,0.86391 -1.82328,0.86391 -0.0686,0 -0.19609,-0.30059 -0.28332,-0.66797 z"
       id="path46"
       transform="scale(0.75000112)" />
    <path
       style="fill:#ffffff;fill-opacity:1;stroke:#000000;stroke-width:0.296874;stroke-opacity:0.811765"
       d="m 600.53827,202.46644 c -1.34706,-0.7118 -2.42924,-1.98439 -3.50738,-4.12448 -1.1696,-2.32164 -2.09507,-5.39591 -4.46835,-14.84328 -1.13219,-4.50695 -2.38173,-9.2966 -2.77675,-10.64366 l -0.7182,-2.44922 h 5.13652 5.13652 l 0.60185,0.96485 c 0.72659,1.16481 4.70996,5.15196 4.92862,4.93329 0.0853,-0.0853 0.0265,-1.14673 -0.13085,-2.35867 -0.39447,-3.03932 -0.37645,-3.53947 0.12753,-3.53947 0.55606,0 0.51324,-0.29137 2.09427,14.24997 0.73675,6.77615 1.41666,12.82125 1.51092,13.43356 l 0.17138,1.11327 h -1.36203 -1.36203 v 1.74414 c 0,1.71593 -0.015,1.74714 -0.92773,1.92968 -1.64817,0.32964 -3.35125,0.17288 -4.45429,-0.40998 z"
       id="path47"
       transform="scale(0.75000112)" />
    <path
       style="fill:#ffffff;fill-opacity:1;stroke:#000000;stroke-width:0.296874;stroke-opacity:0.811765"
       d="m 617.88345,192.73307 c 0.60462,-0.61918 1.09931,-1.22035 1.09931,-1.33593 0,-0.11558 -0.40191,-0.21014 -0.89314,-0.21014 -0.81702,0 -0.86173,-0.0503 -0.52457,-0.59018 0.3302,-0.52872 0.17214,-0.78837 -1.518,-2.49367 l -1.88657,-1.90349 0.34134,-6.63521 c 0.45984,-8.93868 0.49193,-9.15865 1.33624,-9.15865 0.62004,0 0.91083,0.66588 3.38597,7.75338 l 2.70769,7.75337 -0.65808,0.53479 -0.65807,0.53479 1.12803,2.2856 c 0.62041,1.25708 1.08799,2.31535 1.03906,2.35171 -0.20511,0.1524 -5.60283,2.23943 -5.79188,2.23943 -0.11365,0 0.28805,-0.50661 0.89267,-1.1258 z"
       id="path48"
       transform="scale(0.75000112)" />
    <path
       style="fill:#ffffff;fill-opacity:1;stroke:#000000;stroke-width:0.419844;stroke-opacity:0.811765"
       d="m 569.19928,86.251784 c -3.21723,-0.779618 -4.48807,-1.482719 -6.29496,-3.482733 -1.10764,-1.226026 -1.59188,-2.216165 -1.80991,-3.70081 -0.21137,-1.439263 -0.7041,-2.480393 -1.69945,-3.590895 -1.73915,-1.940345 -3.86276,-6.111956 -5.55894,-10.919934 -1.34066,-3.800214 -2.7734,-10.031617 -2.49709,-10.860556 0.16606,-0.498174 9.19514,11.277017 13.8761,18.096392 2.91895,4.252418 6.88735,10.683095 8.29348,13.43934 l 0.85454,1.675028 -1.37303,-0.03498 c -0.75516,-0.01924 -2.46099,-0.298622 -3.79074,-0.620852 z"
       id="path49"
       transform="scale(0.75000112)" />
    <path
       style="fill:#ffffff;fill-opacity:1;stroke:#000000;stroke-width:0.419844;stroke-opacity:0.811765"
       d="m 571.2066,119.57647 c -0.96173,-2.7294 -7.15889,-28.890262 -6.84371,-28.890262 1.1508,0 8.47909,2.774246 11.20848,4.243161 6.28627,3.38316 8.85086,6.378541 8.85086,10.337591 0,3.23074 -1.39761,5.66902 -5.37922,9.38466 -3.69137,3.44477 -7.51189,5.84581 -7.83641,4.92485 z"
       id="path50"
       transform="scale(0.75000112)" />
    <path
       style="fill:#ffffff;fill-opacity:1;stroke:#000000;stroke-width:0.419844;stroke-opacity:0.811765"
       d="m 595.92832,151.38491 c -0.81083,-0.35299 -2.43686,-2.07927 -4.32598,-4.59267 -1.66475,-2.21491 -4.14997,-5.0231 -5.5227,-6.24044 -1.37274,-1.21734 -4.12279,-4.06556 -6.11123,-6.32936 -6.23511,-7.09857 -5.69999,-6.18993 -5.12146,-8.69624 0.54926,-2.37953 -0.33611,-1.50139 10.71531,-10.6278 l 3.44917,-2.84837 3.42506,6.84006 3.42506,6.84005 0.10091,7.14384 c 0.0967,6.8421 0.66108,10.85951 2.52257,17.95482 0.25099,0.95669 0.16918,1.15175 -0.47733,1.13813 -0.42914,-0.009 -1.36486,-0.27094 -2.07938,-0.58202 z"
       id="path51"
       transform="scale(0.75000112)" />
    <path
       style="fill:#ffffff;fill-opacity:1;stroke:#000000;stroke-width:0.419844;stroke-opacity:0.811765"
       d="m 588.91126,169.72176 c -0.0983,-0.17319 -0.51582,-1.354 -0.92775,-2.62403 -1.14841,-3.54072 -3.4526,-8.16791 -5.27531,-10.59371 -0.9046,-1.20391 -1.64472,-2.52103 -1.64472,-2.92694 0,-1.10876 1.73919,-1.33812 4.36294,-0.57537 3.175,0.923 5.67662,3.55767 9.06763,9.54987 1.48031,2.61584 3.0502,5.3701 3.48864,6.12057 l 0.79716,1.36449 h -4.84489 c -2.6647,0 -4.92536,-0.1417 -5.0237,-0.31488 z"
       id="path52"
       transform="scale(0.75000112)" />
    <path
       style="fill:#ffffff;fill-opacity:1;stroke:#000000;stroke-width:1.67937;stroke-opacity:0.811765"
       d="m 627.24627,404.72919 c -1.84731,-0.79382 -6.09768,-1.49642 -9.44526,-1.56134 -3.34758,-0.0649 -9.03071,-1.15681 -12.62918,-2.42643 -3.59847,-1.26961 -10.34216,-2.83095 -14.98598,-3.46964 -4.64382,-0.63869 -9.54075,-1.8951 -10.88206,-2.79204 -1.70315,-1.13889 -0.66582,-1.34226 3.43906,-0.67422 3.2328,0.52611 11.92356,1.10256 19.31281,1.281 11.42803,0.27596 14.94021,-0.35436 23.51124,-4.21953 5.54193,-2.49917 9.88731,-5.31474 9.6564,-6.25681 -0.45057,-1.83818 8.44994,-2.39436 39.88513,-2.49235 10.62205,-0.0331 21.10259,-0.70629 23.29009,-1.49596 3.03818,-1.09675 3.7901,-0.89849 3.18453,0.83969 -0.43602,1.2515 -2.12802,2.03246 -3.76,1.73547 -1.63198,-0.29699 -5.10273,1.50595 -7.71276,4.00652 -3.83551,3.67466 -5.74798,4.34601 -9.97313,3.50098 -5.07343,-1.01468 -18.38097,4.15006 -25.18122,9.773 -1.38548,1.14562 -6.99048,2.94876 -12.45555,4.00699 -11.28505,2.18517 -10.758,2.17671 -15.25412,0.24467 z"
       id="path53"
       transform="scale(0.75000112)" />
    <path
       style="fill:#800080;fill-opacity:1;stroke:#000000;stroke-width:1.1875;stroke-opacity:0.811765"
       d="m 581.32302,854.70089 c 1.65903,-5.56117 6.5779,-12.43115 14.24155,-19.89057 l 7.93006,-7.71873 -0.79996,9.49997 c -0.43998,5.22499 -1.31831,11.50678 -1.95185,13.95953 -1.12727,4.36423 -1.24858,4.44409 -5.67525,3.73624 -3.05053,-0.4878 -5.72244,-0.10324 -8.206,1.18106 -5.09377,2.63409 -6.49538,2.43986 -5.53855,-0.7675 z"
       id="path54"
       transform="scale(0.75000112)" />
    <path
       style="fill:#c64516;fill-opacity:1;stroke:#000000;stroke-width:1.1875;stroke-opacity:0.811765"
       d="m 556.93604,907.71696 c 0,-3.34984 5.95268,-13.97425 10.4707,-18.68822 5.53808,-5.77827 12.38365,-10.47218 19.21673,-13.17663 2.93905,-1.16324 6.07924,-2.40663 6.9782,-2.76309 1.31698,-0.5222 1.53719,0.87966 1.13366,7.21692 -0.58669,9.21373 -2.81576,12.32922 -11.49432,16.06514 -3.03807,1.30782 -9.79876,4.82046 -15.02374,7.80587 -10.56913,6.03889 -11.28123,6.26235 -11.28123,3.54001 z"
       id="path55"
       transform="scale(0.75000112)" />
    <path
       style="fill:#29572f;fill-opacity:1;stroke:#000000;stroke-width:1.1875;stroke-opacity:0.811765"
       d="m 527.10477,980.08909 c 2.92316,-7.36587 11.06355,-25.88957 13.74585,-31.27907 2.43609,-4.8948 11.3214,-11.85201 32.76509,-25.65512 l 15.62946,-10.06054 -0.42768,14.59221 c -0.23522,8.02572 -0.88036,15.29855 -1.43363,16.16186 -0.81159,1.26635 -58.3906,40.09792 -61.64457,41.57339 -0.50356,0.22834 0.1109,-2.17139 1.36548,-5.33273 z"
       id="path56"
       transform="scale(0.75000112)" />
    <path
       style="fill:#658dd8;fill-opacity:1;stroke:#000000;stroke-width:1.1875;stroke-opacity:0.811765"
       d="m 497.5612,1057.0504 c 0,-2.1418 10.56625,-27.6688 13.58479,-32.8196 3.20979,-5.4771 13.28576,-14.1117 36.29008,-31.09899 14.25579,-10.52702 37.97242,-26.50934 39.33798,-26.50934 0.5703,0 1.03691,4.9834 1.03691,11.07423 0,9.99641 -0.26004,11.30294 -2.67186,13.42422 -4.47745,3.93808 -12.7656,8.85997 -12.7656,7.58082 0,-0.66239 -1.10591,-1.20435 -2.45758,-1.20435 -1.86938,0 -2.36676,0.6395 -2.07812,2.67191 0.31561,2.2222 -2.71792,4.9897 -18.02674,16.4456 -10.12341,7.5755 -23.21556,17.9989 -29.09367,23.163 -20.89492,18.3567 -23.15619,20.0434 -23.15619,17.2725 z"
       id="path57"
       transform="scale(0.75000112)" />
    <path
       style="fill:#800080;fill-opacity:1;stroke:#000000;stroke-width:1.1875;stroke-opacity:0.811765"
       d="m 485.84612,1119.0973 c -4.31039,-11.2637 -4.4956,-15.2648 -0.94325,-20.3772 5.68116,-8.1761 23.69133,-24.8201 54.22072,-50.1077 28.68425,-23.7593 41.77521,-33.5562 48.8321,-36.5445 l 3.11346,-1.3185 1.36443,12.1257 c 0.98816,8.7817 1.0092,13.1446 0.0763,15.8208 -1.39918,4.0137 -6.67453,8.4236 -28.44882,23.7814 -15.07615,10.6335 -45.63309,36.3767 -62.58717,52.7276 -6.01208,5.7982 -11.41524,10.5422 -12.00704,10.5422 -0.59179,0 -2.22111,-2.9924 -3.6207,-6.6498 z"
       id="path58"
       transform="scale(0.75000112)" />
    <path
       style="fill:#c64516;fill-opacity:1;stroke:#000000;stroke-width:1.1875;stroke-opacity:0.811765"
       d="m 497.57678,1165.2313 c -0.70596,-2.4492 -1.59152,-6.8601 -1.96792,-9.802 -0.63815,-4.9876 -0.30898,-5.8482 4.87447,-12.7437 3.05736,-4.0672 12.60138,-14.1461 21.20893,-22.3975 21.56917,-20.6767 70.1126,-58.3166 73.68825,-57.1368 1.72349,0.5687 4.89707,20.8894 3.88941,24.9042 -0.51715,2.0605 -4.55298,5.8796 -12.34796,11.6849 -25.52316,19.0084 -60.76454,47.0649 -69.17331,55.0706 -8.75085,8.3314 -16.74091,14.8734 -18.1656,14.8734 -0.3975,0 -1.30032,-2.0039 -2.00627,-4.4531 z"
       id="path59"
       transform="scale(0.75000112)" />
    <path
       style="fill:#29572f;fill-opacity:1;stroke:#000000;stroke-width:1.1875;stroke-opacity:0.811765"
       d="m 512.60283,1208.0802 c -0.43542,-0.4354 -0.79167,-2.2403 -0.79167,-4.0109 0,-1.7705 -0.80156,-3.8844 -1.78124,-4.6974 -3.4092,-2.8294 -2.08622,-7.8253 3.99308,-15.079 10.78068,-12.8632 27.72736,-27.8692 52.81164,-46.7639 28.37762,-21.3753 35.60988,-26.2395 36.53717,-24.5738 1.47896,2.6567 3.4391,15.3815 3.4391,22.3259 0,7.919 0.467,7.3946 -16.62495,18.6662 -19.50904,12.8657 -51.81318,36.5705 -60.79096,44.6085 -10.49223,9.3939 -14.59537,11.7212 -16.79217,9.5244 z"
       id="path60"
       transform="scale(0.75000112)" />
    <path
       style="fill:#658dd8;fill-opacity:1;stroke:#000000;stroke-width:1.1875;stroke-opacity:0.811765"
       d="m 528.11449,1244.104 c -4.11954,-7.054 -5.48871,-10.511 -5.01794,-12.6697 0.97337,-4.4634 11.36777,-13.763 42.17061,-37.7289 25.50887,-19.847 32.19138,-24.2692 33.97654,-22.484 0.87066,0.8706 -1.40888,5.0628 -6.59001,12.1193 -24.26081,33.0421 -50.30921,65.105 -55.56365,68.393 l -3.31018,2.0714 z"
       id="path61"
       transform="scale(0.75000112)" />
    <path
       style="fill:#658dd8;fill-opacity:1;stroke:#000000;stroke-width:1.1875;stroke-opacity:0.811765"
       d="m 1183.2136,1184.0302 c -8.765,-4.0582 -16.1468,-10.4889 -21.3501,-18.5993 -10.0519,-15.668 -10.6623,-33.8356 -2.4905,-74.1213 10.8749,-53.6114 13.8964,-85.1932 11.6328,-121.59363 -1.6259,-26.14679 -3.862,-40.35295 -8.6178,-54.74961 -7.3208,-22.16158 -16.0688,-31.94583 -33.9455,-37.96662 l -7.814,-2.63172 6.4187,-0.74292 c 11.2397,-1.30093 25.9071,1.52795 37.1543,7.16587 21.7106,10.88295 37.5126,44.52517 39.4792,84.05026 1.0668,21.43981 -5.0053,64.39607 -14.3519,101.53097 -7.4174,29.4701 -12.0331,63.1152 -10.9941,80.1385 0.9131,14.9594 6.1809,29.4035 13.7569,37.7206 2.7212,2.9874 2.7787,3.261 0.6743,3.2111 -1.2651,-0.03 -5.5637,-1.5655 -9.5523,-3.4122 z"
       id="path62"
       transform="scale(0.75000112)" />
    <path
       style="fill:#800080;fill-opacity:1;stroke:#000000;stroke-width:1.1875;stroke-opacity:0.811765"
       d="m 1145.9268,1195.8873 c -11.7242,-3.5663 -16.3228,-10.4381 -24.6867,-36.8903 -4.4598,-14.105 -5.6864,-22.1069 -7.9334,-51.7566 -2.6595,-35.0905 -2.3917,-51.8084 1.1357,-70.9073 4.5448,-24.607 5.6962,-37.3806 5.7486,-63.77314 0.074,-37.25677 -2.6783,-46.04766 -20.0613,-64.07985 -5.5042,-5.70967 -10.0075,-10.9704 -10.0075,-11.69052 0,-2.13637 7.8916,-2.9861 20.8943,-2.24977 7.3865,0.4183 13.593,1.41175 15.7328,2.5183 7.8853,4.07762 16.7461,19.02591 19.7661,33.3457 0.9642,4.57186 2.3553,18.25779 3.0914,30.41317 2.1455,35.43114 -0.5938,69.92721 -9.128,114.95041 -8.5629,45.1738 -9.6582,61.8878 -5.1769,78.9968 4.0774,15.5672 8.3588,23.4858 18.0294,33.3463 l 8.7152,8.8864 -6.5716,-0.1021 c -3.6144,-0.056 -7.911,-0.5095 -9.5481,-1.0075 z"
       id="path63"
       transform="scale(0.75000112)" />
    <path
       style="fill:#29572f;fill-opacity:1;stroke:#000000;stroke-width:1.1875;stroke-opacity:0.811765"
       d="m 1122.2478,1222.3873 c -11.6504,-1.9517 -20.2654,-5.5782 -26.7256,-11.2504 -7.0091,-6.154 -8.9058,-11.4974 -8.9365,-25.1757 -0.028,-12.6425 2.6808,-40.0095 5.2261,-52.7938 l 1.5956,-8.0141 0.1386,6.3447 c 0.076,3.4896 1.1973,11.5397 2.4913,17.8892 5.1496,25.2695 12.027,39.6722 26.3852,55.2557 8.301,9.0096 13.2822,11.929 25.5901,14.9982 3.4289,0.8551 6.2344,1.9108 6.2344,2.346 0,0.813 -13.696,2.3937 -19,2.1929 -1.6328,-0.062 -7.4824,-0.8686 -12.9992,-1.7927 z"
       id="path64"
       transform="scale(0.75000112)" />
    <path
       style="fill:#800080;fill-opacity:1;stroke:#000000;stroke-width:1.1875;stroke-opacity:0.811765"
       d="m 1067.5597,518.29764 c -38.4749,-6.08348 -62.3541,-21.12184 -85.1621,-53.63255 -4.48944,-6.39926 -12.09038,-17.24595 -16.89098,-24.10374 -8.45348,-12.07603 -22.60911,-36.20528 -22.62585,-38.56734 -0.005,-0.63865 1.70073,0.96447 3.78946,3.56249 6.91199,8.59732 27.5292,29.17478 36.5772,36.50666 12.56669,10.18318 30.18417,21.52199 42.15637,27.13238 18.5906,8.71182 64.7821,18.86568 85.823,18.86568 28.3923,0 62.3162,-7.15786 82.6225,-17.43314 3.1673,-1.60269 6.0284,-2.64431 6.358,-2.31472 1.2107,1.21067 -19.4964,20.65259 -27.6043,25.91769 -33.1975,21.55789 -69.0128,29.76357 -105.0433,24.06659 z"
       id="path65"
       transform="scale(0.75000112)" />
    <path
       style="fill:#c64516;fill-opacity:1;stroke:#000000;stroke-width:1.1875;stroke-opacity:0.811765"
       d="m 1048.0122,568.6776 c -10.6035,-1.54481 -17.8501,-3.93801 -30.3159,-10.01181 -18.28674,-8.91003 -30.56247,-18.82042 -38.35103,-30.96143 -2.73037,-4.25617 -3.01664,-6.07401 -3.71065,-23.56306 l -0.75203,-18.95108 11.60427,11.28792 c 6.38236,6.20836 13.74174,12.93739 16.35424,14.95339 12.1577,9.38183 33.4465,18.20642 56.9999,23.62754 31.7505,7.30777 73.9089,2.91922 103.5595,-10.78021 22.5862,-10.43548 46.5176,-31.90158 58.9112,-52.84259 3.8967,-6.58412 3.916,-5.68008 0.2621,12.31952 -4.323,21.29618 -9.5934,32.89908 -22.2985,49.09094 -23.9582,30.53321 -45.4533,37.3125 -117.2781,36.98818 -15.3484,-0.0693 -31.0917,-0.59009 -34.985,-1.15731 z"
       id="path66"
       transform="scale(0.75000112)" />
    <path
       style="fill:#29572f;fill-opacity:1;stroke:#000000;stroke-width:1.1875;stroke-opacity:0.811765"
       d="m 1079.4347,662.12267 c -21.5024,-3.89765 -50.4469,-12.78223 -63.5311,-19.50103 -11.8822,-6.10153 -25.74348,-20.28747 -32.48527,-33.24604 -6.68412,-12.84772 -12.0782,-33.73966 -11.9624,-46.33188 0.12423,-13.50997 0.7496,-14.32407 6.47396,-8.42777 17.51978,18.04596 37.54301,28.99936 65.08131,35.60164 8.4746,2.03179 14.0546,2.32778 44.0201,2.33504 l 34.3153,0.008 19.122,-4.08341 c 10.5172,-2.24587 27.9393,-5.19147 38.7158,-6.54578 34.9285,-4.38954 67.0035,-11.25195 84.074,-17.98755 11.0164,-4.34679 30.8622,-14.69431 41.9945,-21.89573 4.4652,-2.88859 8.1187,-4.81204 8.1187,-4.27433 0,6.28947 -13.7136,33.69954 -26.2239,52.41526 -15.2751,22.85188 -42.9258,49.98899 -57.5319,56.46341 -7.6751,3.40209 -28.2086,9.0945 -46.9743,13.02244 -13.7838,2.88517 -17.3147,3.1166 -54.5194,3.57338 -30.1638,0.37034 -41.9343,0.0981 -48.6874,-1.12597 z"
       id="path67"
       transform="scale(0.75000112)" />
    <path
       style="fill:#658dd8;fill-opacity:1;stroke:#000000;stroke-width:1.1875;stroke-opacity:0.811765"
       d="m 1056.2909,763.31932 c -34.4273,-2.01891 -62.93703,-6.92184 -75.19779,-12.93207 -15.07334,-7.38895 -30.75073,-25.75966 -37.53927,-43.98836 -6.60752,-17.74261 -7.97104,-32.1014 -4.7906,-50.44818 1.93688,-11.17313 11.1623,-40.18092 16.57221,-52.10854 l 3.23161,-7.12498 2.66567,7.71873 c 8.14131,23.57401 24.15536,44.24601 43.12667,55.6707 17.9155,10.78893 46.6955,20.09357 75.669,24.46404 17.5599,2.64879 56.5451,3.63924 76.6484,1.94731 8.9183,-0.75057 26.3798,-3.49694 39.1874,-6.16344 12.7058,-2.64528 32.7201,-6.6618 44.4763,-8.92558 11.7562,-2.26379 26.359,-5.21912 32.4506,-6.56741 6.0917,-1.34829 11.3663,-2.16088 11.7214,-1.80577 1.1025,1.10254 -10.4334,16.32774 -19.7998,26.13182 -28.8419,30.18962 -73.222,56.67158 -108.6718,64.84527 -30.7443,7.08874 -71.8963,10.91988 -99.75,9.28646 z"
       id="path68"
       transform="scale(0.75000112)" />
    <path
       style="fill:#800080;fill-opacity:1;stroke:#000000;stroke-width:1.1875;stroke-opacity:0.811765"
       d="m 982.05993,806.89824 c -54.01356,-7.38503 -94.52094,-31.96741 -112.78101,-68.4425 -13.35004,-26.66717 -12.90013,-35.50321 6.49535,-127.56486 16.6104,-78.84213 18.86455,-96.88134 18.09372,-144.79835 -0.49218,-30.59619 -0.66397,-32.57336 -3.75645,-43.23542 -4.65625,-16.05351 -11.25989,-32.57086 -21.17016,-52.95183 l -8.66132,-17.81245 0.98442,-10.65159 c 0.54143,-5.85837 1.27533,-10.93492 1.6309,-11.28122 1.39884,-1.36239 20.58502,20.45265 28.71243,32.64658 9.81373,14.72398 20.91722,36.72172 26.20148,51.90922 5.24729,15.08123 8.80945,37.61291 10.74695,67.97762 0.82131,12.87149 0.50613,20.23563 -1.8815,43.96143 -5.6737,56.37933 -10.07749,74.31318 -31.44751,128.066 -10.89299,27.39955 -13.27214,35.21483 -10.72021,35.21483 1.86976,0 10.2309,-6.71884 15.74819,-12.65492 4.67062,-5.02513 11.50278,-13.85423 17.42508,-22.51817 1.27641,-1.8673 1.41919,-0.48253 0.87171,8.45441 -1.70146,27.77434 5.41043,57.14473 18.41377,76.04444 8.92534,12.97254 27.3184,28.41994 41.09247,34.51148 19.67465,8.70108 38.94286,11.00855 100.18896,11.99826 l 46.9061,0.75796 -8.9062,4.06394 c -28.171,12.8545 -57.5628,18.18358 -99.1109,17.96993 -13.0873,-0.0673 -28.8716,-0.81645 -35.07627,-1.66479 z"
       id="path69"
       transform="scale(0.75000112)" />
    <path
       style="fill:#ff00ff;fill-opacity:1;stroke:#000000;stroke-width:0.419844;stroke-opacity:0.811765"
       d="m 942.56653,578.98763 c -0.01,-0.33352 0.73045,-4.39551 1.64491,-9.02664 1.82831,-9.25911 3.52489,-21.08068 4.19102,-29.20249 0.23674,-2.88643 0.63842,-14.04852 0.89263,-24.80466 0.52537,-22.22973 -0.0213,-54.04525 -1.07787,-62.73272 -0.33701,-2.77097 -0.59568,-6.64403 -0.57481,-8.6068 l 0.0379,-3.56867 0.5631,5.1629 c 0.3097,2.83959 0.94807,7.84622 1.4186,11.12585 1.09646,7.64234 1.58938,13.66094 1.93256,23.59639 0.15154,4.38737 0.46165,8.32563 0.68913,8.7517 0.32676,0.61203 0.70993,0.71907 1.82507,0.50987 1.36152,-0.25542 1.4234,-0.20854 1.74819,1.32455 0.7841,3.70117 -0.0613,30.89328 -1.36777,43.99354 -1.17,11.73195 -2.37407,17.04837 -6.89377,30.43866 -3.02349,8.95755 -4.9985,14.07816 -5.02892,13.03852 z"
       id="path70"
       transform="scale(0.75000112)" />
    <path
       style="fill:#c64516;fill-opacity:1;stroke:#000000;stroke-width:1.1875;stroke-opacity:0.811765"
       d="m 805.1229,503.04972 c 0,-0.24693 3.33983,-1.66362 7.42185,-3.14819 16.07948,-5.84791 25.20851,-11.53591 35.17304,-21.9152 5.22022,-5.4375 10.63799,-12.13405 12.03949,-14.88122 3.70888,-7.26999 5.62483,-18.4176 6.62995,-38.57497 l 0.88818,-17.81245 2.25389,7.12498 c 4.41522,13.95737 6.8566,27.52307 7.58671,42.15614 0.88029,17.64308 -0.27522,23.09807 -6.30702,29.77455 -4.88463,5.4067 -19.88839,13.21667 -30.60755,15.93228 -6.21494,1.5745 -35.07854,2.68045 -35.07854,1.34408 z"
       id="path71"
       transform="scale(0.75000112)" />
    <path
       style="fill:#c64516;fill-opacity:1;stroke:#000000;stroke-width:0.839687;stroke-opacity:0.811765"
       d="m 648.65829,368.14699 c -16.17286,-2.4668 -34.41459,-7.94709 -45.13519,-13.55979 -5.92392,-3.10143 -13.76899,-10.61117 -17.25221,-16.51479 l -1.86113,-3.15438 1.89553,0.57126 c 3.54019,1.06692 21.88323,10.8284 28.38094,15.10328 6.19823,4.07785 6.587,4.2128 9.30435,3.22972 3.97475,-1.43797 4.09538,-1.40866 4.09538,0.99507 0,1.27881 0.35485,1.92946 0.87647,1.60708 0.48206,-0.29792 1.33224,-0.17792 1.88929,0.26668 1.61736,1.29086 10.80325,2.15739 11.46799,1.0818 0.40465,-0.65473 3.60385,-0.40472 11.01165,0.86054 7.10497,1.21353 12.34228,1.64274 16.39057,1.34323 11.04868,-0.81744 28.74284,-8.04113 41.51241,-16.94757 5.81554,-4.05618 6.97995,-4.51895 14.66789,-5.82941 4.59297,-0.7829 8.74071,-1.72667 9.21719,-2.09727 0.47648,-0.3706 1.99991,-0.17653 3.38539,0.43126 2.08084,0.91284 2.20828,1.11167 0.73258,1.14296 -2.312,0.049 -3.38617,1.41445 -4.09437,5.20452 -0.49399,2.64376 -0.33041,3.14447 1.18439,3.62525 0.96666,0.30681 1.75756,0.83408 1.75756,1.17171 0,0.33764 -6.11805,3.37381 -13.59565,6.74706 -13.07197,5.89692 -13.68009,6.08328 -15.78783,4.83821 -2.12361,-1.25444 -2.28644,-1.19487 -5.20528,1.90455 -2.68129,2.84715 -3.78612,3.34774 -10.03255,4.54567 -3.8607,0.74039 -10.60911,2.10677 -14.99648,3.0364 -9.20741,1.95094 -18.78456,2.07848 -29.80889,0.39696 z"
       id="path72"
       transform="scale(0.75000112)" />
    <path
       style="fill:#c64516;fill-opacity:1;stroke:#000000;stroke-width:0.839687;stroke-opacity:0.811765"
       d="m 751.63949,339.59225 c -2.47431,-0.66561 -5.68611,-1.86878 -7.13734,-2.67372 -1.45122,-0.80494 -2.68891,-1.46353 -2.75042,-1.46353 -0.0615,0 -0.36069,-1.16324 -0.66486,-2.58497 l -0.55301,-2.58497 9.06172,-2.8725 c 7.89902,-2.50392 10.13912,-2.86583 17.45859,-2.82055 6.64017,0.0411 9.32565,0.43623 12.83632,1.88879 5.33974,2.20937 5.21234,2.20043 5.23563,0.36741 0.0293,-2.303 3.07698,2.07742 4.0141,5.76937 l 0.77263,3.04394 -8.07059,0.40124 c -6.10409,0.30347 -9.41654,0.94326 -13.59444,2.62572 -6.16112,2.48112 -9.97353,2.68858 -16.60833,0.90377 z"
       id="path73"
       transform="scale(0.75000112)" />
    <path
       style="fill:#29572f;fill-opacity:1;stroke:#000000;stroke-width:0.839687;stroke-opacity:0.811765"
       d="m 627.24627,403.53946 c -1.6164,-0.58926 -5.58392,-1.32456 -8.81671,-1.634 -3.2328,-0.30943 -10.03427,-1.67243 -15.11437,-3.02889 l -9.23656,-2.46628 9.27006,-0.039 c 5.49299,-0.0231 11.28422,-0.56361 14.21339,-1.32656 6.42676,-1.67396 14.60129,-5.60141 17.71377,-8.51058 l 2.46651,-2.3054 27.21887,-0.6667 c 14.97038,-0.3667 27.32558,-0.56 27.45601,-0.42957 0.13043,0.13043 -1.49565,1.64231 -3.61352,3.35974 -3.52007,2.85452 -4.29798,3.12259 -9.06135,3.12259 -7.35301,0 -13.86639,2.41947 -26.17682,9.72371 -3.58664,2.12808 -16.37899,5.38626 -20.86131,5.31332 -1.38549,-0.0226 -3.84157,-0.52312 -5.45797,-1.11239 z"
       id="path74"
       transform="scale(0.75000112)" />
    <path
       style="fill:#800080;fill-opacity:1;stroke:#000000;stroke-width:0.839687;stroke-opacity:0.811765"
       d="m 640.04465,334.57907 c -1.25803,-0.88115 -2.80412,-1.09575 -5.16946,-0.71752 -3.14142,0.50233 -4.37754,-0.0282 -17.88716,-7.67709 -16.1054,-9.11857 -20.81018,-12.05946 -20.81018,-13.00813 0,-1.13104 15.30115,-3.5518 23.09139,-3.65323 6.60727,-0.086 8.01313,0.16266 11.18453,1.97849 2.95402,1.69137 4.14997,3.17212 6.44281,7.97703 2.79334,5.85376 5.93057,15.36992 5.28116,16.01933 -0.18605,0.18605 -1.14594,-0.22745 -2.13309,-0.91888 z"
       id="path75"
       transform="scale(0.75000112)" />
    <path
       style="fill:#800080;fill-opacity:1;stroke:#000000;stroke-width:0.839687;stroke-opacity:0.811765"
       d="m 708.19211,318.74523 c -2.27323,-2.27323 -2.85494,-3.5239 -2.85494,-6.13808 v -3.28314 l 9.44648,-2.65202 c 13.03307,-3.65893 14.5881,-3.9011 15.17805,-2.36374 0.26759,0.69733 2.57502,2.65456 5.12762,4.3494 2.55261,1.69483 4.44394,3.40053 4.20297,3.79043 -0.24098,0.38991 -1.8594,1.13474 -3.59651,1.65519 -2.67669,0.80196 -4.51359,0.6134 -12.04449,-1.23638 -4.88737,-1.20046 -9.96831,-2.17489 -11.29098,-2.16539 -2.38404,0.0171 -2.36916,0.0485 1.71897,3.62506 l 4.12382,3.6078 -2.57407,1.8329 c -3.40937,2.42768 -4.07927,2.33562 -7.43692,-1.02203 z"
       id="path76"
       transform="scale(0.75000112)" />
    <path
       style="fill:#ffff00;fill-opacity:1;stroke:#000000;stroke-width:0.839687;stroke-opacity:0.811765"
       d="m 767.89386,293.95225 c -3.89591,-1.89615 -4.5622,-2.4656 -2.9389,-2.51176 4.10821,-0.11683 8.39687,1.58352 8.39687,3.32915 0,0.90195 -0.0945,1.63873 -0.20992,1.63729 -0.11546,-10e-4 -2.47708,-1.10605 -5.24805,-2.45468 z"
       id="path77"
       transform="scale(0.75000112)" />
    <path
       style="fill:#ffffff;fill-opacity:1;stroke:#000000;stroke-width:1.1875;stroke-opacity:0.811765"
       d="m 749.17761,1303.2783 c -3.38645,-1.8405 -4.48906,-4.1194 -8.04397,-16.6254 -5.03242,-17.7038 -5.14245,-19.5425 -6.04021,-100.9372 -0.82549,-74.8431 -1.0266,-80.2323 -3.39049,-90.8573 -4.95885,-22.2886 -7.51968,-27.6425 -20.99975,-43.9037 -4.61116,-5.5625 -12.0438,-15.9918 -16.51698,-23.1761 -4.47319,-7.1844 -9.95045,-15.5648 -12.1717,-18.6231 -6.31304,-8.6922 -16.72059,-32.90431 -21.25454,-49.44655 -5.472,-19.96478 -8.09656,-40.16794 -7.20244,-55.44247 1.57927,-26.97935 10.00175,-65.16211 20.49422,-92.90923 4.63956,-12.26923 5.89533,-14.55092 8.02052,-14.57291 3.75832,-0.0389 12.04917,-4.11332 20.20895,-9.9314 3.9865,-2.84244 16.59971,-10.37584 28.02937,-16.74088 11.42966,-6.36504 23.8427,-13.45115 27.58453,-15.74691 l 6.80333,-4.1741 16.53245,0.85179 c 11.87832,0.61201 17.26839,0.45793 19.14671,-0.54732 2.23352,-1.19534 23.15436,-5.93497 26.19711,-5.93497 0.56912,0 0.94453,11.88982 0.83426,26.42181 -0.29542,38.9321 2.17228,47.2113 19.01271,63.78792 12.0645,11.8755 21.73701,17.24937 39.45099,21.91823 21.47016,5.65886 37.53386,7.79708 72.43732,9.64203 36.00268,1.90303 45.8092,3.01425 53.789,6.0951 15.6257,6.03272 36.363,22.31112 47.7935,37.51705 11.1895,14.88534 16.1758,28.5364 21.9666,60.13783 l 3.7207,20.30505 -0.5347,41.85273 c -0.5834,45.6614 -0.9875,49.4243 -8.6389,80.4463 -6.5225,26.4447 -10.0269,44.7249 -10.1048,52.71 -0.039,3.9922 -0.5779,9.9305 -1.1977,13.1961 -1.1583,6.1026 -2.7543,31.8594 -4.2177,68.0655 -0.7181,17.769 -1.1442,20.9637 -3.1334,23.4924 -3.435,4.367 -13.4741,8.9713 -20.9935,9.6284 -5.638,0.4927 -7.7362,0.038 -14.3243,-3.1006 -4.2453,-2.0228 -8.3551,-3.6783 -9.133,-3.6788 -2.2147,0 -2.6007,-1.2422 -5.2337,-16.8228 -6.3765,-37.7325 -14.6186,-62.7359 -35.58155,-107.9403 -21.67459,-46.739 -26.35608,-64.5248 -26.39216,-100.2685 -0.0249,-24.6732 3.00229,-44.0244 8.63136,-55.1755 4.08229,-8.08698 4.46608,-11.30655 1.54281,-12.94249 -7.57387,-4.23856 -20.32863,18.47505 -25.94808,46.20819 -2.96982,14.6567 -1.82331,38.1897 2.94285,60.4039 2.02015,9.4155 3.52681,17.2653 3.34815,17.4439 -0.17866,0.1787 -15.00781,0.69 -32.95367,1.1364 -27.36228,0.6805 -35.40808,0.476 -49.84754,-1.267 -24.837,-2.998 -23.06355,-1.6423 -22.17904,-16.9544 0.4044,-7.0004 1.08026,-13.9304 1.50193,-15.3999 1.12312,-3.9142 -1.15047,-3.3108 -5.88176,1.5608 -9.31941,9.5959 -17.91282,39.5714 -22.10624,77.1108 -0.72957,6.5313 -2.34741,17.7531 -3.59518,24.9375 -1.24776,7.1843 -2.84136,19.4404 -3.54132,27.2357 -0.69994,7.7953 -2.32756,20.6203 -3.61691,28.4999 -1.28936,7.8797 -3.69182,25.0142 -5.3388,38.0766 -4.09883,32.5085 -3.81373,31.3179 -8.12974,33.9497 -3.03772,1.8523 -5.95625,2.2523 -16.17521,2.217 -8.44876,-0.029 -13.46871,-0.5866 -15.57039,-1.7288 z"
       id="path78"
       transform="scale(0.75000112)" />
    <path
       style="fill:#ffffff;fill-opacity:1;stroke:#000000;stroke-width:1.1875;stroke-opacity:0.811765"
       d="m 685.04592,1293.9197 c -6.09392,-2.1777 -11.6732,-5.8381 -16.48517,-10.8155 l -4.15624,-4.2992 -0.40949,-41.7947 c -0.39983,-40.808 0.45624,-70.4153 3.98966,-137.9819 1.8086,-34.5844 3.52262,-47.8288 7.26943,-56.1713 l 2.21287,-4.9271 8.90623,11.474 c 4.89842,6.3107 12.02267,14.8814 15.83166,19.0458 3.81525,4.1713 8.61496,11.138 10.68748,15.5127 l 3.76203,7.9409 0.76278,80.156 c 0.41952,44.0859 1.15667,86.3014 1.63809,93.8123 1.05917,16.5247 1.08594,16.4783 -14.00802,24.2929 -11.11796,5.756 -13.27082,6.1602 -20.00131,3.7551 z"
       id="path79"
       transform="scale(0.75000112)" />
    <path
       style="fill:#ffffff;fill-opacity:1;stroke:#000000;stroke-width:1.1875;stroke-opacity:0.811765"
       d="m 634.57445,780.92476 c 0.70184,-2.79636 0.52357,-3.28672 -0.98453,-2.70801 -1.10173,0.42277 -1.84157,0.0644 -1.84157,-0.8919 0,-0.87921 -0.80815,-2.26928 -1.79589,-3.08903 -1.3577,-1.12679 -1.46994,-1.8832 -0.46001,-3.10009 1.02039,-1.2295 0.88363,-1.78318 -0.5791,-2.34449 -2.60004,-0.99772 -2.42516,-2.85574 0.26878,-2.85574 3.73363,0 10.9501,-6.20982 10.32262,-8.88268 -0.49877,-2.12461 4.44102,-8.92978 6.48202,-8.92978 0.40238,0 2.56306,5.66659 4.80151,12.59241 l 4.06989,12.59241 -2.78024,2.2513 c -1.52913,1.23822 -4.35981,2.25131 -6.29041,2.25131 -1.99939,0 -5.35226,1.40504 -7.79013,3.26449 l -4.27997,3.26449 z"
       id="path80"
       transform="scale(0.75000112)" />
    <path
       style="fill:#ffffff;fill-opacity:1;stroke:#000000;stroke-width:0.593748;stroke-opacity:0.811765"
       d="m 703.96942,418.31638 c -2.43828,-0.86921 -8.09316,-4.4903 -8.09509,-5.18367 -0.002,-0.61258 9.11173,-7.59839 14.42263,-11.05552 9.09495,-5.92036 14.32612,-6.80693 20.6988,-3.508 2.06672,1.06987 3.83813,2.36302 3.93647,2.87366 0.0983,0.51064 -0.96809,2.07557 -2.36986,3.47762 -6.0676,6.06884 -15.11436,11.6778 -21.52491,13.34538 -4.2,1.09255 -4.14607,1.09217 -7.06804,0.0505 z"
       id="path81"
       transform="scale(0.75000112)" />
  </g>
  <path
     style="fill:#800080;stroke:#000000;stroke-width:0.885609"
     d="m 36.964133,188.02793 c -0.327534,-0.52996 -0.03425,-1.63587 0.65175,-2.45758 0.685997,-0.8217 2.962172,-3.48663 5.058166,-5.92205 3.809781,-4.42675 5.491577,-7.42733 4.812212,-8.58571 -0.198438,-0.33837 -2.243909,-0.0438 -4.545466,0.65462 -6.401812,1.94266 -12.659418,1.66459 -16.230799,-0.72125 -5.858153,-3.9135 -7.579009,-11.04914 -4.36965,-18.11903 2.248506,-4.95324 6.190344,-7.31698 12.209162,-7.32126 4.737,-0.003 5.6582,-0.72046 3.367638,-2.62146 -2.195428,-1.82204 -4.294369,-8.54613 -3.683741,-11.80108 1.03635,-5.5242 8.720081,-10.37783 16.429068,-10.37783 5.801428,0 12.194856,2.44189 14.562925,5.56211 2.983897,3.93166 3.7259,8.56162 1.928978,12.03648 -0.784534,1.51712 -1.818488,3.7896 -2.297675,5.04996 -0.840459,2.21058 -0.776738,2.2708 1.803125,1.70417 3.587156,-0.78787 10.259715,2.46541 12.452675,6.07144 2.74903,4.52042 3.08047,9.65206 0.90705,14.0437 -2.88937,5.83829 -5.566613,7.34908 -12.923919,7.29308 -3.409594,-0.0259 -7.693725,-0.37698 -9.520293,-0.78008 -5.014494,-1.10662 -4.351335,1.12878 2.498518,8.42212 3.20075,3.40798 5.658756,6.68003 5.462231,7.27122 -0.479943,1.44378 -27.697186,2.01383 -28.571955,0.59843 z"
     id="path1" />
  <text
     xml:space="preserve"
     style="font-style:normal;font-variant:normal;font-weight:normal;font-stretch:normal;font-size:158.333px;font-family:'MV Boli';-inkscape-font-specification:'MV Boli, Normal';font-variant-ligatures:normal;font-variant-caps:normal;font-variant-numeric:normal;font-variant-east-asian:normal;fill:#800080;fill-opacity:1;stroke:#000000;stroke-width:3.125"
     x="-491.78848"
     y="-595.89166"
     id="text1-3"
     transform="scale(-1)"><tspan
       id="tspan1-3"
       style="font-style:normal;font-variant:normal;font-weight:normal;font-stretch:normal;font-size:158.333px;font-family:'MV Boli';-inkscape-font-specification:'MV Boli, Normal';font-variant-ligatures:normal;font-variant-caps:normal;font-variant-numeric:normal;font-variant-east-asian:normal;fill:#800080;fill-opacity:1;stroke-width:3.125"
       x="-491.78848"
       y="-595.89166"
       sodipodi:role="line">K</tspan></text>
  <path
     style="fill:#800080;stroke:#000000;stroke-width:0.885609"
     d="m 447.12677,524.69698 c 0.32753,0.52996 0.0343,1.63587 -0.65175,2.45758 -0.686,0.8217 -2.96218,3.48663 -5.05817,5.92205 -3.80978,4.42675 -5.49158,7.42733 -4.81221,8.58571 0.19844,0.33837 2.24391,0.0438 4.54546,-0.65462 6.40182,-1.94266 12.65942,-1.66459 16.2308,0.72125 5.85816,3.9135 7.57901,11.04914 4.36965,18.11903 -2.2485,4.95324 -6.19034,7.31698 -12.20916,7.32126 -4.737,0.003 -5.6582,0.72046 -3.36764,2.62146 2.19543,1.82204 4.29437,8.54612 3.68374,11.80107 -1.03635,5.5242 -8.72008,10.37783 -16.42906,10.37783 -5.80143,0 -12.19486,-2.44189 -14.56293,-5.56211 -2.9839,-3.93166 -3.7259,-8.56162 -1.92898,-12.03647 0.78454,-1.51712 1.81849,-3.7896 2.29768,-5.04996 0.84046,-2.21058 0.77674,-2.2708 -1.80313,-1.70417 -3.58715,0.78787 -10.25971,-2.46541 -12.45267,-6.07144 -2.74903,-4.52042 -3.08047,-9.65206 -0.90705,-14.0437 2.88937,-5.83829 5.56661,-7.34908 12.92392,-7.29308 3.40959,0.0259 7.69372,0.37698 9.52029,0.78008 5.01449,1.10662 4.35134,-1.12878 -2.49852,-8.42212 -3.20075,-3.40798 -5.65875,-6.68003 -5.46223,-7.27122 0.47994,-1.44378 27.69719,-2.01383 28.57196,-0.59843 z"
     id="path1-6" />
  <path
     style="fill:#800080;stroke:#000000;stroke-width:1.08805"
     d="m 220.87234,483.07304 c -0.41077,-0.63784 -0.043,-1.96887 0.81739,-2.95785 0.86035,-0.98896 3.71499,-4.19636 6.34368,-7.12754 4.77802,-5.32785 6.88723,-8.93923 6.03522,-10.33341 -0.24888,-0.40725 -2.81419,-0.0527 -5.70069,0.78788 -8.0288,2.3381 -15.87675,2.00343 -20.35579,-0.86807 -7.34697,-4.71013 -9.50518,-13.2983 -5.48017,-21.80733 2.81996,-5.96152 7.7636,-8.80642 15.31206,-8.81157 5.94089,-0.004 7.09621,-0.86712 4.22352,-3.15508 -2.75339,-2.19294 -5.38577,-10.28578 -4.61995,-14.2033 1.29973,-6.64871 10.93625,-12.49034 20.60445,-12.49034 7.27584,0 15.29413,2.93896 18.26402,6.69433 3.74225,4.73199 4.67283,10.30442 2.41923,14.48662 -0.98392,1.82594 -2.28066,4.56101 -2.88162,6.07793 -1.05406,2.66056 -0.97414,2.73304 2.26138,2.05107 4.49882,-0.94825 12.86718,2.96726 15.61747,7.30733 3.44769,5.4406 3.86336,11.61683 1.13758,16.90243 -3.62369,7.02673 -6.98136,8.84506 -16.20848,8.77766 -4.27614,-0.0312 -9.64906,-0.45372 -11.93983,-0.93888 -6.28892,-1.33188 -5.45722,1.35856 3.13349,10.13653 4.01421,4.1017 7.09691,8.03981 6.85043,8.75134 -0.60191,1.73768 -34.7363,2.42376 -35.83339,0.72025 z"
     id="path1-7" />
</svg>
