<?xml version="1.0" encoding="UTF-8" standalone="no"?>
<svg
   width="1.6in"
   height="2.4in"
   viewBox="0 0 480 720"
   version="1.1"
   id="svg1"
   sodipodi:docname="kreuz7.svg"
   inkscape:version="1.3.2 (091e20e, 2023-11-25, custom)"
   xmlns:inkscape="http://www.inkscape.org/namespaces/inkscape"
   xmlns:sodipodi="http://sodipodi.sourceforge.net/DTD/sodipodi-0.dtd"
   xmlns:xlink="http://www.w3.org/1999/xlink"
   xmlns="http://www.w3.org/2000/svg"
   xmlns:svg="http://www.w3.org/2000/svg">
  <defs
     id="defs1">
    <pattern
       inkscape:collect="always"
       xlink:href="#tiles-1"
       id="pattern10"
       patternTransform="matrix(4.6,0,0,4.6,76.218461,373.73705)"
       x="-2"
       y="-3"
       preserveAspectRatio="none" />
    <pattern
       patternUnits="userSpaceOnUse"
       width="15.021545"
       height="25.90893"
       patternTransform="translate(76.218461,373.73705)"
       style="fill:#d0972d"
       id="tiles-1"
       inkscape:label="Kacheln 1"
       inkscape:collect="always"
       inkscape:isstock="true">
      <path
         id="path5144"
         style="opacity:1;stroke-width:4.85611;stroke-linecap:square;paint-order:stroke markers fill;stop-color:#000000"
         d="M 7.510773,0 15.021545,12.95447 7.51077,25.90893 0,12.95447 Z"
         sodipodi:nodetypes="ccccc" />
    </pattern>
    <linearGradient
       id="swatch8"
       inkscape:swatch="solid">
      <stop
         style="stop-color:#e6e6e6;stop-opacity:1;"
         offset="0"
         id="stop9" />
    </linearGradient>
  </defs>
  <sodipodi:namedview
     id="namedview1"
     pagecolor="#ffffff"
     bordercolor="#000000"
     borderopacity="0.25"
     inkscape:showpageshadow="2"
     inkscape:pageopacity="0.0"
     inkscape:pagecheckerboard="0"
     inkscape:deskcolor="#d1d1d1"
     inkscape:document-units="in"
     inkscape:zoom="2.4859227"
     inkscape:cx="16.895135"
     inkscape:cy="145.82111"
     inkscape:window-width="1920"
     inkscape:window-height="1009"
     inkscape:window-x="-8"
     inkscape:window-y="-8"
     inkscape:window-maximized="1"
     inkscape:current-layer="svg1" />
  <g
     id="g2"
     transform="translate(0.0071402,0.00565841)">
    <path
       id="path1"
       fill="none"
       stroke="#000000"
       stroke-width="1"
       d="M 21,0.64 C 21,0.64 60,0 60,0 c 0,0 76,0 76,0 0,0 240,0 240,0 0,0 75,0 75,0 2.66,0 5.42,-0.11 8,0.64 8.79,2.52 18.41,12.4 20.47,21.36 0.61,2.62 0.53,5.33 0.53,8 0,0 0,530 0,530 0,0 0,129 0,129 0,2.67 0.08,5.38 -0.53,8 -2.35,10.19 -13.4,20.16 -23.47,22.47 -2.62,0.61 -5.33,0.53 -8,0.53 0,0 -344,0 -344,0 0,0 -75,0 -75,0 -2.66,0 -5.42,0.11 -8,-0.64 C 12.21,716.84 2.59,706.96 0.53,698 -0.08,695.38 0,692.67 0,690 0,690 0,167 0,167 0,167 0,47 0,47 0,47 0.53,22 0.53,22 2.81,12.1 11.8,4.08 21,0.64 Z"
       style="display:inline;fill:#ffffff;fill-opacity:1;stroke:none;stroke-width:0.9;stroke-linecap:butt;stroke-dasharray:none" />
    <path
       id="Auswahl #4"
       fill="none"
       stroke="#000000"
       stroke-width="1"
       d="m 21.409933,1.3286375 c 0,0 38.918303,-0.6389537 38.918303,-0.6389537 0,0 75.840794,0 75.840794,0 0,0 239.49725,0 239.49725,0 0,0 74.84289,0 74.84289,0 2.65443,0 5.40864,-0.10982017 7.98324,0.6389537 8.77159,2.51588 18.37144,12.3797275 20.42712,21.3250785 0.60872,2.615717 0.52889,5.321287 0.52889,7.986921 0,0 0,529.133513 0,529.133513 0,0 0,128.7891 0,128.7891 0,2.66563 0.0798,5.37121 -0.52889,7.98692 -2.34508,10.17334 -13.37192,20.12704 -23.42084,22.43327 -2.61451,0.609 -5.31882,0.52913 -7.98323,0.52913 0,0 -343.27939,0 -343.27939,0 0,0 -74.842895,0 -74.842895,0 -2.654428,0 -5.408647,0.10982 -7.983242,-0.63896 -8.771587,-2.51587 -18.3714349,-12.37972 -20.42711966,-21.32508 -0.60872215,-2.61571 -0.52888975,-5.32127 -0.52888975,-7.98691 0,0 0,-522.14496 0,-522.14496 0,0 0,-119.803815 0,-119.803815 0,0 0.52888975,-24.959129 0.52888975,-24.959129 C 3.2580372,12.769902 12.229206,4.7630135 21.409933,1.3286375 Z"
       style="display:inline;fill:url(#pattern10);fill-opacity:1;stroke-width:0.898322;stroke-linecap:butt;stroke-dasharray:none" />
    <path
       id="Auswahl #4-6"
       fill="none"
       stroke="#000000"
       stroke-width="0.998128"
       d="m 21.451861,1.1949433 c 0,0 38.918158,-0.63894645 38.918158,-0.63894645 0,0 75.840521,0 75.840521,0 0,0 239.49638,0 239.49638,0 0,0 74.84261,0 74.84261,0 2.65442,0 5.40863,-0.10981892 7.98321,0.63894645 8.77155,2.5158514 18.37137,12.3795867 20.42705,21.3248357 0.60872,2.615687 0.52889,5.321226 0.52889,7.986831 0,0 0,529.12749 0,529.12749 0,0 0,128.78763 0,128.78763 0,2.6656 0.0798,5.37114 -0.52889,7.98682 -2.34507,10.17324 -13.37188,20.12682 -23.42075,22.43301 -2.6145,0.60899 -5.31882,0.52912 -7.98321,0.52912 0,0 -343.27815,0 -343.27815,0 0,0 -74.842607,0 -74.842607,0 -2.654418,0 -5.408626,0.10983 -7.983212,-0.63894 -8.771555,-2.51585 -18.3713689,-12.37959 -20.4270458,-21.32483 -0.60872005,-2.61568 -0.52888798,-5.32122 -0.52888798,-7.98683 0,0 0,-522.13901 0,-522.13901 0,0 0,-119.802447 0,-119.802447 0,0 0.52888798,-24.958844 0.52888798,-24.958844 C 3.3000303,12.636078 12.271166,4.6292801 21.451861,1.1949433 Z"
       style="display:inline;fill:#edae00;fill-opacity:0.811765" />
  </g>
  <text
     xml:space="preserve"
     style="font-style:normal;font-variant:normal;font-weight:normal;font-stretch:normal;font-size:158.333px;font-family:'MV Boli';-inkscape-font-specification:'MV Boli, Normal';font-variant-ligatures:normal;font-variant-caps:normal;font-variant-numeric:normal;font-variant-east-asian:normal;fill:#800080;stroke:#000000;stroke-width:3.125"
     x="1.8277577"
     y="124.67429"
     id="text1"><tspan
       id="tspan1"
       style="font-style:normal;font-variant:normal;font-weight:normal;font-stretch:normal;font-size:158.333px;font-family:'MV Boli';-inkscape-font-specification:'MV Boli, Normal';font-variant-ligatures:normal;font-variant-caps:normal;font-variant-numeric:normal;font-variant-east-asian:normal;fill:#800080;stroke-width:3.125"
       x="1.8277577"
       y="124.67429"
       sodipodi:role="line">7</tspan></text>
  <text
     xml:space="preserve"
     style="font-style:normal;font-variant:normal;font-weight:normal;font-stretch:normal;font-size:158.333px;font-family:'MV Boli';-inkscape-font-specification:'MV Boli, Normal';font-variant-ligatures:normal;font-variant-caps:normal;font-variant-numeric:normal;font-variant-east-asian:normal;fill:#800080;stroke:#000000;stroke-width:3.125"
     x="-483.42303"
     y="-586"
     id="text1-1"
     transform="scale(-1)"><tspan
       id="tspan1-1"
       style="font-style:normal;font-variant:normal;font-weight:normal;font-stretch:normal;font-size:158.333px;font-family:'MV Boli';-inkscape-font-specification:'MV Boli, Normal';font-variant-ligatures:normal;font-variant-caps:normal;font-variant-numeric:normal;font-variant-east-asian:normal;fill:#800080;stroke-width:3.125"
       x="-483.42303"
       y="-586"
       sodipodi:role="line">7</tspan></text>
  <path
     style="fill:#800080;stroke:#000000;stroke-width:0.885609"
     d="m 31.132977,207.23105 c -0.327534,-0.52996 -0.03425,-1.63587 0.65175,-2.45758 0.685997,-0.8217 2.962172,-3.48663 5.058166,-5.92205 3.809781,-4.42675 5.491577,-7.42733 4.812212,-8.58571 -0.198438,-0.33837 -2.243909,-0.0438 -4.545466,0.65462 -6.401812,1.94266 -12.659418,1.66459 -16.230799,-0.72125 -5.858153,-3.9135 -7.579009,-11.04914 -4.36965,-18.11903 2.248506,-4.95324 6.190344,-7.31698 12.209162,-7.32126 4.737,-0.003 5.6582,-0.72046 3.367638,-2.62146 -2.195428,-1.82204 -4.294369,-8.54612 -3.683741,-11.80107 1.03635,-5.52421 8.720081,-10.37783 16.429068,-10.37783 5.801428,0 12.194856,2.44189 14.562925,5.56211 2.983897,3.93166 3.7259,8.56161 1.928978,12.03647 -0.784534,1.51712 -1.818488,3.7896 -2.297675,5.04996 -0.840459,2.21058 -0.776738,2.2708 1.803125,1.70417 3.587156,-0.78787 10.259715,2.46541 12.452675,6.07144 2.749034,4.52042 3.080471,9.65206 0.907046,14.0437 -2.889365,5.83829 -5.566609,7.34908 -12.923915,7.29308 -3.409594,-0.0259 -7.693725,-0.37698 -9.520293,-0.78008 -5.014494,-1.10662 -4.351335,1.12878 2.498518,8.42212 3.20075,3.40798 5.658756,6.68003 5.462231,7.27122 -0.479943,1.44378 -27.697186,2.01383 -28.571955,0.59843 z"
     id="path1" />
  <path
     style="fill:#800080;stroke:#000000;stroke-width:1.47437"
     d="m 64.871897,413.42891 c -0.5356,-0.89823 -0.0561,-2.77263 1.06579,-4.16533 1.12176,-1.39272 4.84389,-5.90945 8.27138,-10.03723 6.22996,-7.50286 8.98012,-12.58849 7.8692,-14.55182 -0.32451,-0.57352 -3.66937,-0.0742 -7.43302,1.10951 -10.46856,3.29259 -20.70134,2.82128 -26.54146,-1.22243 -9.57956,-6.63296 -12.39359,-18.72708 -7.14548,-30.70977 3.67689,-8.39519 10.12278,-12.40147 19.96507,-12.40873 7.7462,-0.005 9.25259,-1.22109 5.50694,-4.44307 -3.59009,-3.08817 -7.02239,-14.48474 -6.02385,-20.00152 1.6947,-9.3629 14.25954,-17.58925 26.8657,-17.58925 9.486809,0 19.941683,4.13871 23.814083,9.42714 4.87943,6.66373 6.09278,14.51099 3.15437,20.40051 -1.2829,2.57134 -2.97369,6.42294 -3.75727,8.55912 -1.37438,3.74666 -1.27018,3.84875 2.94854,2.88837 5.86592,-1.33536 16.77726,4.17857 20.36328,10.2904 4.49538,7.66163 5.03737,16.35918 1.48327,23.80253 -4.72485,9.89524 -9.10283,12.45589 -21.13389,12.36097 -5.57555,-0.044 -12.58119,-0.63895 -15.568094,-1.32215 -8.199979,-1.8756 -7.115529,1.91316 4.085714,14.27456 5.23403,5.77614 9.25351,11.32192 8.93214,12.32392 -0.78483,2.44704 -45.291943,3.41322 -46.722413,1.01427 z"
     id="path1-5-0-69" />
  <path
     style="fill:#800080;stroke:#000000;stroke-width:1.47437"
     d="m 208.38004,411.73799 c -0.5356,-0.89823 -0.0561,-2.77263 1.06579,-4.16533 1.12176,-1.39272 4.84389,-5.90945 8.27138,-10.03723 6.22996,-7.50286 8.98012,-12.58849 7.8692,-14.55182 -0.32451,-0.57352 -3.66937,-0.0742 -7.43302,1.10951 -10.46856,3.29259 -20.70135,2.82128 -26.54147,-1.22243 -9.57956,-6.63296 -12.39359,-18.72708 -7.14548,-30.70977 3.67689,-8.39519 10.12278,-12.40147 19.96508,-12.40873 7.7462,-0.005 9.25259,-1.22109 5.50694,-4.44307 -3.59009,-3.08817 -7.02239,-14.48474 -6.02385,-20.00152 1.6947,-9.3629 14.25954,-17.58925 26.8657,-17.58925 9.48681,0 19.94168,4.13871 23.81408,9.42714 4.87943,6.66373 6.09278,14.51099 3.15437,20.40051 -1.2829,2.57134 -2.97369,6.42294 -3.75727,8.55912 -1.37438,3.74666 -1.27018,3.84875 2.94854,2.88837 5.86592,-1.33536 16.77726,4.17857 20.36328,10.2904 4.49538,7.66163 5.03737,16.35918 1.48327,23.80253 -4.72485,9.89524 -9.10283,12.45589 -21.13389,12.36097 -5.57555,-0.044 -12.58119,-0.63895 -15.56809,-1.32215 -8.19998,-1.8756 -7.11553,1.91316 4.08571,14.27456 5.23403,5.77614 9.25351,11.32192 8.93214,12.32392 -0.78483,2.44704 -45.29194,3.41322 -46.72241,1.01427 z"
     id="path1-5-0-69-6" />
  <path
     style="fill:#800080;stroke:#000000;stroke-width:1.47437"
     d="m 281.18441,234.56071 c -0.5356,-0.89823 -0.0561,-2.77263 1.06579,-4.16533 1.12176,-1.39272 4.84389,-5.90945 8.27138,-10.03723 6.22996,-7.50286 8.98012,-12.58849 7.8692,-14.55182 -0.32451,-0.57352 -3.66937,-0.0742 -7.43302,1.10951 -10.46856,3.29259 -20.70135,2.82128 -26.54147,-1.22243 -9.57956,-6.63296 -12.39359,-18.72708 -7.14548,-30.70977 3.67689,-8.39519 10.12278,-12.40147 19.96508,-12.40873 7.7462,-0.005 9.25259,-1.22109 5.50694,-4.44307 -3.59009,-3.08817 -7.02239,-14.48474 -6.02385,-20.00152 1.6947,-9.3629 14.25954,-17.58925 26.8657,-17.58925 9.48681,0 19.94168,4.13871 23.81408,9.42714 4.87943,6.66373 6.09278,14.51099 3.15437,20.40051 -1.2829,2.57134 -2.97369,6.42294 -3.75727,8.55912 -1.37438,3.74666 -1.27018,3.84875 2.94854,2.88837 5.86592,-1.33536 16.77726,4.17857 20.36328,10.2904 4.49538,7.66163 5.03737,16.35918 1.48327,23.80253 -4.72485,9.89524 -9.10283,12.45589 -21.13389,12.36097 -5.57555,-0.044 -12.58119,-0.63895 -15.56809,-1.32215 -8.19998,-1.8756 -7.11553,1.91316 4.08571,14.27456 5.23403,5.77614 9.25351,11.32192 8.93214,12.32392 -0.78483,2.44704 -45.29194,3.41322 -46.72241,1.01427 z"
     id="path1-5-0-69-32" />
  <path
     style="fill:#800080;stroke:#000000;stroke-width:1.47437"
     d="m 136.48798,236.34867 c -0.5356,-0.89823 -0.0561,-2.77263 1.06579,-4.16533 1.12176,-1.39272 4.84389,-5.90945 8.27138,-10.03723 6.22996,-7.50286 8.98012,-12.58849 7.8692,-14.55182 -0.32451,-0.57352 -3.66937,-0.0742 -7.43302,1.10951 -10.46856,3.29259 -20.70135,2.82128 -26.54147,-1.22243 -9.57956,-6.63296 -12.39359,-18.72708 -7.14548,-30.70977 3.67689,-8.39519 10.12278,-12.40147 19.96508,-12.40873 7.7462,-0.005 9.25259,-1.22109 5.50694,-4.44307 -3.59009,-3.08817 -7.02239,-14.48474 -6.02385,-20.00152 1.6947,-9.3629 14.25954,-17.58925 26.8657,-17.58925 9.48681,0 19.94168,4.13871 23.81408,9.42714 4.87943,6.66373 6.09278,14.51099 3.15437,20.40051 -1.2829,2.57134 -2.97369,6.42294 -3.75727,8.55912 -1.37438,3.74666 -1.27018,3.84875 2.94854,2.88837 5.86592,-1.33536 16.77726,4.17857 20.36328,10.2904 4.49538,7.66163 5.03737,16.35918 1.48327,23.80253 -4.72485,9.89524 -9.10283,12.45589 -21.13389,12.36097 -5.57555,-0.044 -12.58119,-0.63895 -15.56809,-1.32215 -8.19998,-1.8756 -7.11553,1.91316 4.08571,14.27456 5.23403,5.77614 9.25351,11.32192 8.93214,12.32392 -0.78483,2.44704 -45.29194,3.41322 -46.72241,1.01427 z"
     id="path1-5-0-69-4" />
  <path
     style="fill:#800080;stroke:#000000;stroke-width:1.47437"
     d="m 352.70548,412.33965 c -0.5356,-0.89823 -0.0561,-2.77263 1.06579,-4.16533 1.12176,-1.39272 4.84389,-5.90945 8.27138,-10.03723 6.22996,-7.50286 8.98012,-12.58849 7.8692,-14.55182 -0.32451,-0.57352 -3.66937,-0.0742 -7.43302,1.10951 -10.46856,3.29259 -20.70135,2.82128 -26.54147,-1.22243 -9.57956,-6.63296 -12.39359,-18.72708 -7.14548,-30.70977 3.67689,-8.39519 10.12278,-12.40147 19.96508,-12.40873 7.7462,-0.005 9.25259,-1.22109 5.50694,-4.44307 -3.59009,-3.08817 -7.02239,-14.48474 -6.02385,-20.00152 1.6947,-9.3629 14.25954,-17.58925 26.8657,-17.58925 9.48681,0 19.94168,4.13871 23.81408,9.42714 4.87943,6.66373 6.09278,14.51099 3.15437,20.40051 -1.2829,2.57134 -2.97369,6.42294 -3.75727,8.55912 -1.37438,3.74666 -1.27018,3.84875 2.94854,2.88837 5.86592,-1.33536 16.77726,4.17857 20.36328,10.2904 4.49538,7.66163 5.03737,16.35918 1.48327,23.80253 -4.72485,9.89524 -9.10283,12.45589 -21.13389,12.36097 -5.57555,-0.044 -12.58119,-0.63895 -15.56809,-1.32215 -8.19998,-1.8756 -7.11553,1.91316 4.08571,14.27456 5.23403,5.77614 9.25351,11.32192 8.93214,12.32392 -0.78483,2.44704 -45.29194,3.41322 -46.72241,1.01427 z"
     id="path1-5-0-69-5" />
  <path
     style="fill:#800080;stroke:#000000;stroke-width:1.47437"
     d="m 135.7618,577.99088 c -0.5356,-0.89823 -0.0561,-2.77263 1.06579,-4.16533 1.12176,-1.39272 4.84389,-5.90945 8.27138,-10.03723 6.22996,-7.50286 8.98012,-12.58849 7.8692,-14.55182 -0.32451,-0.57352 -3.66937,-0.0742 -7.43302,1.10951 -10.46856,3.29259 -20.70135,2.82128 -26.54147,-1.22243 -9.57957,-6.63296 -12.3936,-18.72708 -7.14549,-30.70977 3.67689,-8.39519 10.12279,-12.40147 19.96509,-12.40873 7.7462,-0.005 9.25259,-1.22109 5.50694,-4.44307 -3.59009,-3.08817 -7.02239,-14.48474 -6.02385,-20.00152 1.6947,-9.3629 14.25954,-17.58925 26.8657,-17.58925 9.48681,0 19.94168,4.13871 23.81408,9.42714 4.87943,6.66373 6.09278,14.51099 3.15437,20.40051 -1.2829,2.57134 -2.97369,6.42294 -3.75727,8.55912 -1.37438,3.74666 -1.27018,3.84875 2.94854,2.88837 5.86592,-1.33536 16.77726,4.17857 20.36328,10.2904 4.49538,7.66163 5.03737,16.35918 1.48327,23.80253 -4.72485,9.89524 -9.10283,12.45589 -21.13389,12.36097 -5.57555,-0.044 -12.58119,-0.63895 -15.56809,-1.32215 -8.19998,-1.8756 -7.11553,1.91316 4.08571,14.27456 5.23403,5.77614 9.25351,11.32192 8.93214,12.32392 -0.78483,2.44704 -45.29194,3.41322 -46.72241,1.01427 z"
     id="path1-5-0-69-3" />
  <path
     style="fill:#800080;stroke:#000000;stroke-width:1.47437"
     d="m 286.75278,576.7338 c -0.5356,-0.89823 -0.0561,-2.77263 1.06579,-4.16533 1.12176,-1.39272 4.84389,-5.90945 8.27139,-10.03723 6.22996,-7.50286 8.98012,-12.58849 7.86919,-14.55182 -0.3245,-0.57352 -3.66936,-0.0742 -7.43302,1.10951 -10.46855,3.29259 -20.70135,2.82128 -26.54147,-1.22243 -9.57956,-6.63296 -12.39358,-18.72708 -7.14547,-30.70977 3.67688,-8.39519 10.12277,-12.40147 19.96508,-12.40873 7.7462,-0.005 9.25259,-1.22109 5.50693,-4.44307 -3.59008,-3.08817 -7.02238,-14.48474 -6.02384,-20.00152 1.6947,-9.3629 14.25953,-17.58925 26.8657,-17.58925 9.48681,0 19.94167,4.13871 23.81408,9.42714 4.87942,6.66373 6.09277,14.51099 3.15436,20.40051 -1.2829,2.57134 -2.97368,6.42294 -3.75727,8.55912 -1.37437,3.74666 -1.27018,3.84875 2.94854,2.88837 5.86592,-1.33536 16.77726,4.17857 20.36328,10.2904 4.49538,7.66163 5.03737,16.35918 1.48327,23.80253 -4.72485,9.89524 -9.10283,12.45589 -21.13389,12.36097 -5.57555,-0.044 -12.58119,-0.63895 -15.56809,-1.32215 -8.19998,-1.8756 -7.11553,1.91316 4.08571,14.27456 5.23403,5.77614 9.25351,11.32192 8.93214,12.32392 -0.78483,2.44704 -45.29194,3.41322 -46.72241,1.01427 z"
     id="path1-5-0-69-7" />
  <path
     style="fill:#800080;stroke:#000000;stroke-width:0.885609"
     d="m 445.43729,508.09024 c 0.32753,0.52996 0.0343,1.63587 -0.65175,2.45758 -0.686,0.82171 -2.96217,3.48663 -5.05817,5.92206 -3.80978,4.42675 -5.49157,7.42732 -4.81221,8.5857 0.19844,0.33838 2.24391,0.0438 4.54547,-0.65462 6.40181,-1.94266 12.65942,-1.66458 16.2308,0.72125 5.85815,3.9135 7.57901,11.04914 4.36965,18.11904 -2.24851,4.95324 -6.19035,7.31697 -12.20916,7.32126 -4.737,0.003 -5.6582,0.72045 -3.36764,2.62145 2.19543,1.82205 4.29437,8.54613 3.68374,11.80108 -1.03635,5.5242 -8.72008,10.37782 -16.42907,10.37782 -5.80143,0 -12.19486,-2.44188 -14.56292,-5.5621 -2.9839,-3.93166 -3.7259,-8.56162 -1.92898,-12.03648 0.78453,-1.51712 1.81849,-3.7896 2.29767,-5.04996 0.84046,-2.21057 0.77674,-2.2708 -1.80312,-1.70416 -3.58716,0.78787 -10.25972,-2.46541 -12.45268,-6.07144 -2.74903,-4.52043 -3.08047,-9.65206 -0.90704,-14.04371 2.88936,-5.83828 5.56661,-7.34908 12.92391,-7.29308 3.4096,0.0259 7.69373,0.37698 9.52029,0.78008 5.0145,1.10662 4.35134,-1.12878 -2.49851,-8.42212 -3.20075,-3.40798 -5.65876,-6.68003 -5.46223,-7.27122 0.47994,-1.44378 27.69718,-2.01383 28.57195,-0.59843 z"
     id="path1-8" />
</svg>
