<?xml version="1.0" encoding="UTF-8" standalone="no"?>
<svg
   width="1.6in"
   height="2.4in"
   viewBox="0 0 480 720"
   version="1.1"
   id="svg1"
   sodipodi:docname="pik2.svg"
   inkscape:version="1.3.2 (091e20e, 2023-11-25, custom)"
   xmlns:inkscape="http://www.inkscape.org/namespaces/inkscape"
   xmlns:sodipodi="http://sodipodi.sourceforge.net/DTD/sodipodi-0.dtd"
   xmlns:xlink="http://www.w3.org/1999/xlink"
   xmlns="http://www.w3.org/2000/svg"
   xmlns:svg="http://www.w3.org/2000/svg">
  <defs
     id="defs1">
    <pattern
       inkscape:collect="always"
       xlink:href="#tiles-1"
       id="pattern10"
       patternTransform="matrix(4.6,0,0,4.6,76.218461,373.73705)"
       x="-2"
       y="-3"
       preserveAspectRatio="none" />
    <pattern
       patternUnits="userSpaceOnUse"
       width="15.021545"
       height="25.90893"
       patternTransform="translate(76.218461,373.73705)"
       style="fill:#d0972d"
       id="tiles-1"
       inkscape:label="Kacheln 1"
       inkscape:collect="always"
       inkscape:isstock="true">
      <path
         id="path5144"
         style="opacity:1;stroke-width:4.85611;stroke-linecap:square;paint-order:stroke markers fill;stop-color:#000000"
         d="M 7.510773,0 15.021545,12.95447 7.51077,25.90893 0,12.95447 Z"
         sodipodi:nodetypes="ccccc" />
    </pattern>
    <linearGradient
       id="swatch8"
       inkscape:swatch="solid">
      <stop
         style="stop-color:#e6e6e6;stop-opacity:1;"
         offset="0"
         id="stop9" />
    </linearGradient>
  </defs>
  <sodipodi:namedview
     id="namedview1"
     pagecolor="#ffffff"
     bordercolor="#000000"
     borderopacity="0.25"
     inkscape:showpageshadow="2"
     inkscape:pageopacity="0.0"
     inkscape:pagecheckerboard="0"
     inkscape:deskcolor="#d1d1d1"
     inkscape:document-units="in"
     inkscape:zoom="2"
     inkscape:cx="85.5"
     inkscape:cy="78.75"
     inkscape:window-width="1920"
     inkscape:window-height="1009"
     inkscape:window-x="-8"
     inkscape:window-y="-8"
     inkscape:window-maximized="1"
     inkscape:current-layer="svg1" />
  <g
     id="g2"
     transform="translate(0.0071402,0.00565841)">
    <path
       id="path1"
       fill="none"
       stroke="#000000"
       stroke-width="1"
       d="M 21,0.64 C 21,0.64 60,0 60,0 c 0,0 76,0 76,0 0,0 240,0 240,0 0,0 75,0 75,0 2.66,0 5.42,-0.11 8,0.64 8.79,2.52 18.41,12.4 20.47,21.36 0.61,2.62 0.53,5.33 0.53,8 0,0 0,530 0,530 0,0 0,129 0,129 0,2.67 0.08,5.38 -0.53,8 -2.35,10.19 -13.4,20.16 -23.47,22.47 -2.62,0.61 -5.33,0.53 -8,0.53 0,0 -344,0 -344,0 0,0 -75,0 -75,0 -2.66,0 -5.42,0.11 -8,-0.64 C 12.21,716.84 2.59,706.96 0.53,698 -0.08,695.38 0,692.67 0,690 0,690 0,167 0,167 0,167 0,47 0,47 0,47 0.53,22 0.53,22 2.81,12.1 11.8,4.08 21,0.64 Z"
       style="display:inline;fill:#ffffff;fill-opacity:1;stroke:none;stroke-width:0.9;stroke-linecap:butt;stroke-dasharray:none" />
    <path
       id="Auswahl #4"
       fill="none"
       stroke="#000000"
       stroke-width="1"
       d="m 21.409933,1.3286375 c 0,0 38.918303,-0.6389537 38.918303,-0.6389537 0,0 75.840794,0 75.840794,0 0,0 239.49725,0 239.49725,0 0,0 74.84289,0 74.84289,0 2.65443,0 5.40864,-0.10982017 7.98324,0.6389537 8.77159,2.51588 18.37144,12.3797275 20.42712,21.3250785 0.60872,2.615717 0.52889,5.321287 0.52889,7.986921 0,0 0,529.133513 0,529.133513 0,0 0,128.7891 0,128.7891 0,2.66563 0.0798,5.37121 -0.52889,7.98692 -2.34508,10.17334 -13.37192,20.12704 -23.42084,22.43327 -2.61451,0.609 -5.31882,0.52913 -7.98323,0.52913 0,0 -343.27939,0 -343.27939,0 0,0 -74.842895,0 -74.842895,0 -2.654428,0 -5.408647,0.10982 -7.983242,-0.63896 -8.771587,-2.51587 -18.3714349,-12.37972 -20.42711966,-21.32508 -0.60872215,-2.61571 -0.52888975,-5.32127 -0.52888975,-7.98691 0,0 0,-522.14496 0,-522.14496 0,0 0,-119.803815 0,-119.803815 0,0 0.52888975,-24.959129 0.52888975,-24.959129 C 3.2580372,12.769902 12.229206,4.7630135 21.409933,1.3286375 Z"
       style="display:inline;fill:url(#pattern10);fill-opacity:1;stroke-width:0.898322;stroke-linecap:butt;stroke-dasharray:none" />
    <path
       id="Auswahl #4-6"
       fill="none"
       stroke="#000000"
       stroke-width="0.998128"
       d="m 21.451861,1.1949433 c 0,0 38.918158,-0.63894645 38.918158,-0.63894645 0,0 75.840521,0 75.840521,0 0,0 239.49638,0 239.49638,0 0,0 74.84261,0 74.84261,0 2.65442,0 5.40863,-0.10981892 7.98321,0.63894645 8.77155,2.5158514 18.37137,12.3795867 20.42705,21.3248357 0.60872,2.615687 0.52889,5.321226 0.52889,7.986831 0,0 0,529.12749 0,529.12749 0,0 0,128.78763 0,128.78763 0,2.6656 0.0798,5.37114 -0.52889,7.98682 -2.34507,10.17324 -13.37188,20.12682 -23.42075,22.43301 -2.6145,0.60899 -5.31882,0.52912 -7.98321,0.52912 0,0 -343.27815,0 -343.27815,0 0,0 -74.842607,0 -74.842607,0 -2.654418,0 -5.408626,0.10983 -7.983212,-0.63894 -8.771555,-2.51585 -18.3713689,-12.37959 -20.4270458,-21.32483 -0.60872005,-2.61568 -0.52888798,-5.32122 -0.52888798,-7.98683 0,0 0,-522.13901 0,-522.13901 0,0 0,-119.802447 0,-119.802447 0,0 0.52888798,-24.958844 0.52888798,-24.958844 C 3.3000303,12.636078 12.271166,4.6292801 21.451861,1.1949433 Z"
       style="display:inline;fill:#edae00;fill-opacity:0.811765" />
  </g>
  <text
     xml:space="preserve"
     style="font-style:normal;font-variant:normal;font-weight:normal;font-stretch:normal;font-size:158.333px;font-family:'MV Boli';-inkscape-font-specification:'MV Boli, Normal';font-variant-ligatures:normal;font-variant-caps:normal;font-variant-numeric:normal;font-variant-east-asian:normal;fill:#29572f;fill-opacity:1;stroke:#000000;stroke-width:5.8924"
     x="-464.11038"
     y="-590.51331"
     id="text1-1"
     transform="scale(-1.0027661,-0.99724149)"><tspan
       id="tspan1-1"
       style="font-style:normal;font-variant:normal;font-weight:normal;font-stretch:normal;font-size:158.333px;font-family:'MV Boli';-inkscape-font-specification:'MV Boli, Normal';font-variant-ligatures:normal;font-variant-caps:normal;font-variant-numeric:normal;font-variant-east-asian:normal;fill:#29572f;fill-opacity:1;stroke-width:5.8924"
       x="-464.11038"
       y="-590.51331"
       sodipodi:role="line">2</tspan></text>
  <text
     xml:space="preserve"
     style="font-style:normal;font-variant:normal;font-weight:normal;font-stretch:normal;font-size:158.333px;font-family:'MV Boli';-inkscape-font-specification:'MV Boli, Normal';font-variant-ligatures:normal;font-variant-caps:normal;font-variant-numeric:normal;font-variant-east-asian:normal;fill:#29572f;fill-opacity:1;stroke:#000000;stroke-width:5.8924"
     x="13.839767"
     y="129.07295"
     id="text1-1-2"
     transform="scale(1.0027661,0.99724153)"><tspan
       id="tspan1-1-2"
       style="font-style:normal;font-variant:normal;font-weight:normal;font-stretch:normal;font-size:158.333px;font-family:'MV Boli';-inkscape-font-specification:'MV Boli, Normal';font-variant-ligatures:normal;font-variant-caps:normal;font-variant-numeric:normal;font-variant-east-asian:normal;fill:#29572f;fill-opacity:1;stroke-width:5.8924"
       x="13.839767"
       y="129.07295"
       sodipodi:role="line">2</tspan></text>
  <path
     id="Auswahl #2"
     fill="none"
     stroke="#000000"
     stroke-width="1"
     d="m 319.34444,79.688687 c 6.90417,-0.860361 14.91793,1.999075 20.21935,6.528623 2.88988,2.469743 6.90416,7.41935 9.50802,10.46604 0,0 8.32445,9.6158 8.32445,9.6158 6.37649,7.32319 15.12506,16.54424 19.91852,24.79865 2.60386,4.484 8.07788,20.20837 10.01598,25.81083 0,0 2.99838,7.08533 2.99838,7.08533 0,0 9.42419,25.81084 9.42419,25.81084 0,0 2.9392,8.60361 2.9392,8.60361 3.95017,9.9397 8.50199,18.86721 8.3787,29.85959 -0.2022,17.53113 -14.55793,29.55088 -31.06875,29.3535 -4.85265,-0.0607 -12.15627,-2.57096 -16.76727,-4.34229 0,0 -13.80833,-6.06808 -13.80833,-6.06808 0,0 -12.82202,-5.43546 -12.82202,-5.43546 -3.11181,-1.46261 -12.4275,-6.11868 -15.2878,-6.43752 -1.64221,-0.18726 -4.32004,0.95652 -5.91786,1.55877 0,0 -12.82202,5.83527 -12.82202,5.83527 0,0 -5.4247,2.51529 -5.4247,2.51529 0,0 -6.90417,2.68737 -6.90417,2.68737 -14.45437,6.55392 -30.36354,15.17778 -45.86339,6.49319 -2.56934,-1.43731 -4.32497,-2.80376 -6.41102,-4.90912 -2.43618,-2.46974 -3.94524,-4.46881 -5.53319,-7.58636 -2.74194,-5.38991 -3.4077,-10.21805 -3.34359,-16.19503 0.069,-5.7543 2.55947,-11.8578 4.53209,-17.20723 0,0 4.23127,-10.62799 4.23127,-10.62799 0,0 4.34469,-12.65237 4.34469,-12.65237 0,0 4.43839,-11.64018 4.43839,-11.64018 0,0 3.38798,-9.6158 3.38798,-9.6158 0,0 2.80605,-6.57923 2.80605,-6.57923 1.9381,-5.60247 7.41211,-21.32684 10.01597,-25.81084 5.19292,-8.93763 14.03519,-17.82466 20.77661,-25.81083 5.23731,-6.20473 14.85876,-18.437036 21.41278,-22.111285 5.10909,-2.859435 8.76336,-3.168153 14.30149,-3.993088 z M 316.38551,241.6947 c 2.44112,-0.415 7.13595,-0.56683 9.36994,0.52634 2.97373,1.45755 4.62086,4.70668 6.52444,7.30294 0,0 12.45216,17.71332 12.45216,17.71332 2.16002,3.00114 7.86088,9.66641 8.7387,12.65237 1.54357,5.2482 -1.74577,13.06737 -6.50964,15.40047 -1.76057,0.86542 -3.53099,0.7895 -5.4247,0.79456 0,0 -47.83602,0 -47.83602,0 -1.68166,-0.005 -3.33372,0.0607 -4.93155,-0.582 -6.65265,-2.66712 -6.16443,-10.52678 -3.90085,-16.11912 1.32166,-3.26938 4.47291,-6.18954 6.628,-9.10971 0,0 10.8642,-13.66456 10.8642,-13.66456 0,0 5.12388,-6.57923 5.12388,-6.57923 2.83564,-3.29974 4.65045,-6.9335 8.90144,-8.33538 z"
     style="fill:#29572f;fill-opacity:1;stroke-width:2.4;stroke-dasharray:none" />
  <path
     id="Auswahl #2-0"
     fill="none"
     stroke="#000000"
     stroke-width="1"
     d="m 148.73553,364.86106 c 6.90417,-0.86036 14.91793,1.99907 20.21935,6.52862 2.88988,2.46974 6.90416,7.41935 9.50802,10.46604 0,0 8.32445,9.6158 8.32445,9.6158 6.37649,7.32319 15.12506,16.54424 19.91852,24.79865 2.60386,4.484 8.07788,20.20837 10.01598,25.81083 0,0 2.99838,7.08533 2.99838,7.08533 0,0 9.42419,25.81084 9.42419,25.81084 0,0 2.9392,8.60361 2.9392,8.60361 3.95017,9.9397 8.50199,18.86721 8.3787,29.85959 -0.2022,17.53113 -14.55793,29.55088 -31.06875,29.3535 -4.85265,-0.0607 -12.15627,-2.57096 -16.76727,-4.34229 0,0 -13.80833,-6.06808 -13.80833,-6.06808 0,0 -12.82202,-5.43546 -12.82202,-5.43546 -3.11181,-1.46261 -12.4275,-6.11868 -15.2878,-6.43752 -1.64221,-0.18726 -4.32004,0.95652 -5.91786,1.55877 0,0 -12.82202,5.83527 -12.82202,5.83527 0,0 -5.4247,2.51529 -5.4247,2.51529 0,0 -6.90417,2.68737 -6.90417,2.68737 -14.45437,6.55392 -30.363539,15.17778 -45.863389,6.49319 -2.56934,-1.43731 -4.32497,-2.80376 -6.41102,-4.90912 -2.436179,-2.46974 -3.945239,-4.46881 -5.533189,-7.58636 -2.74194,-5.38991 -3.4077,-10.21805 -3.34359,-16.19503 0.069,-5.7543 2.55947,-11.8578 4.53209,-17.20723 0,0 4.231269,-10.62799 4.231269,-10.62799 0,0 4.34469,-12.65237 4.34469,-12.65237 0,0 4.43839,-11.64018 4.43839,-11.64018 0,0 3.38798,-9.6158 3.38798,-9.6158 0,0 2.80605,-6.57923 2.80605,-6.57923 1.9381,-5.60247 7.41211,-21.32684 10.01597,-25.81084 5.19292,-8.93763 14.035189,-17.82466 20.776609,-25.81083 5.23731,-6.20473 14.85876,-18.43704 21.41278,-22.11129 5.10909,-2.85943 8.76336,-3.16815 14.30149,-3.99308 z m -2.95893,162.00601 c 2.44112,-0.415 7.13595,-0.56683 9.36994,0.52634 2.97373,1.45755 4.62086,4.70668 6.52444,7.30294 0,0 12.45216,17.71332 12.45216,17.71332 2.16002,3.00114 7.86088,9.66641 8.7387,12.65237 1.54357,5.2482 -1.74577,13.06737 -6.50964,15.40047 -1.76057,0.86542 -3.53099,0.7895 -5.4247,0.79456 0,0 -47.83602,0 -47.83602,0 -1.68166,-0.005 -3.33372,0.0607 -4.93155,-0.582 -6.65265,-2.66712 -6.16443,-10.52678 -3.90085,-16.11912 1.32166,-3.26938 4.47291,-6.18954 6.628,-9.10971 0,0 10.8642,-13.66456 10.8642,-13.66456 0,0 5.12388,-6.57923 5.12388,-6.57923 2.83564,-3.29974 4.65045,-6.9335 8.90144,-8.33538 z"
     style="fill:#29572f;fill-opacity:1;stroke-width:2.4;stroke-dasharray:none" />
  <path
     id="Auswahl #2-0-6"
     fill="none"
     stroke="#000000"
     stroke-width="1"
     d="m 57.451398,139.58146 c 2.891785,-0.348 6.248318,0.8086 8.468797,2.64074 1.210415,0.99898 2.891781,3.00103 3.982398,4.23337 0,0 3.486664,3.88946 3.486664,3.88946 2.670768,2.96213 6.335073,6.69192 8.342796,10.03072 1.090617,1.81372 3.383389,8.17401 4.195155,10.44013 0,0 1.25586,2.86592 1.25586,2.86592 0,0 3.947286,10.44014 3.947286,10.44014 0,0 1.231072,3.48004 1.231072,3.48004 1.654514,4.02047 3.561026,7.63153 3.509387,12.0778 -0.08469,7.0911 -6.097533,11.95293 -13.013027,11.87309 -2.032514,-0.0246 -5.091607,-1.03992 -7.022907,-1.7564 0,0 -5.783566,-2.45445 -5.783566,-2.45445 0,0 -5.370454,-2.19857 -5.370454,-2.19857 -1.30337,-0.59161 -5.205211,-2.47492 -6.403237,-2.60389 -0.687833,-0.0757 -1.809432,0.3869 -2.478673,0.6305 0,0 -5.370455,2.36029 -5.370455,2.36029 0,0 -2.272115,1.0174 -2.272115,1.0174 0,0 -2.891785,1.087 -2.891785,1.087 -6.054157,2.65098 -12.717652,6.13921 -19.209705,2.62641 -1.076159,-0.58137 -1.811498,-1.13408 -2.685232,-1.98567 -1.020384,-0.99898 -1.652449,-1.80757 -2.317555,-3.06858 -1.148452,-2.18015 -1.427303,-4.13306 -1.40045,-6.55067 0.0289,-2.32754 1.072024,-4.79632 1.898248,-6.96009 0,0 1.772252,-4.29888 1.772252,-4.29888 0,0 1.819757,-5.11771 1.819757,-5.11771 0,0 1.859002,-4.7083 1.859002,-4.7083 0,0 1.419043,-3.88946 1.419043,-3.88946 0,0 1.175303,-2.66121 1.175303,-2.66121 0.811766,-2.26612 3.104534,-8.62642 4.195151,-10.44013 2.175035,-3.61515 5.878586,-7.20984 8.702203,-10.44013 2.193628,-2.50973 6.223535,-7.45754 8.968661,-8.94372 2.139923,-1.1566 3.670501,-1.28147 5.990126,-1.61515 z m -1.239337,65.52924 c 1.022454,-0.16786 2.988866,-0.22928 3.924564,0.21289 1.245535,0.58956 1.935429,1.90379 2.732736,2.95395 0,0 5.21554,7.16479 5.21554,7.16479 0.904716,1.21392 3.2925,3.90993 3.660171,5.11772 0.646519,2.12282 -0.731209,5.28557 -2.726538,6.22928 -0.737408,0.35005 -1.478941,0.31934 -2.272115,0.32139 0,0 -20.035934,0 -20.035934,0 -0.704357,-0.002 -1.396316,0.0246 -2.065561,-0.23542 -2.786437,-1.07881 -2.581948,-4.25794 -1.633856,-6.51996 0.553572,-1.32242 1.873461,-2.50359 2.776112,-3.68476 0,0 4.550429,-5.52712 4.550429,-5.52712 0,0 2.146117,-2.66121 2.146117,-2.66121 1.187697,-1.3347 1.947824,-2.80451 3.728335,-3.37155 z"
     style="fill:#29572f;fill-opacity:1;stroke-width:0.987849;stroke-dasharray:none" />
  <path
     id="Auswahl #2-0-6-8"
     fill="none"
     stroke="#000000"
     stroke-width="1"
     d="m 419.76945,577.04358 c -2.89179,0.348 -6.24832,-0.8086 -8.4688,-2.64074 -1.21041,-0.99898 -2.89178,-3.00103 -3.9824,-4.23337 0,0 -3.48666,-3.88946 -3.48666,-3.88946 -2.67077,-2.96213 -6.33507,-6.69191 -8.3428,-10.03071 -1.09061,-1.81372 -3.38339,-8.17401 -4.19515,-10.44013 0,0 -1.25586,-2.86592 -1.25586,-2.86592 0,0 -3.94729,-10.44014 -3.94729,-10.44014 0,0 -1.23107,-3.48004 -1.23107,-3.48004 -1.65451,-4.02047 -3.56103,-7.63153 -3.50939,-12.0778 0.0847,-7.0911 6.09754,-11.95293 13.01303,-11.87309 2.03251,0.0246 5.09161,1.03992 7.02291,1.7564 0,0 5.78356,2.45445 5.78356,2.45445 0,0 5.37046,2.19857 5.37046,2.19857 1.30337,0.59161 5.20521,2.47492 6.40323,2.60389 0.68784,0.0757 1.80944,-0.3869 2.47868,-0.6305 0,0 5.37045,-2.36029 5.37045,-2.36029 0,0 2.27212,-1.0174 2.27212,-1.0174 0,0 2.89178,-1.087 2.89178,-1.087 6.05416,-2.65098 12.71765,-6.13921 19.20971,-2.62641 1.07616,0.58137 1.8115,1.13408 2.68523,1.98567 1.02038,0.99898 1.65245,1.80757 2.31756,3.06858 1.14845,2.18015 1.4273,4.13306 1.40045,6.55067 -0.0289,2.32754 -1.07203,4.79632 -1.89825,6.96009 0,0 -1.77225,4.29888 -1.77225,4.29888 0,0 -1.81976,5.11771 -1.81976,5.11771 0,0 -1.859,4.7083 -1.859,4.7083 0,0 -1.41905,3.88946 -1.41905,3.88946 0,0 -1.1753,2.66121 -1.1753,2.66121 -0.81177,2.26612 -3.10453,8.62642 -4.19515,10.44013 -2.17504,3.61515 -5.87859,7.20983 -8.7022,10.44012 -2.19363,2.50973 -6.22354,7.45754 -8.96867,8.94372 -2.13992,1.1566 -3.6705,1.28147 -5.99012,1.61515 z m 1.23934,-65.52923 c -1.02246,0.16786 -2.98887,0.22928 -3.92457,-0.21289 -1.24553,-0.58956 -1.93543,-1.90379 -2.73273,-2.95395 0,0 -5.21554,-7.16479 -5.21554,-7.16479 -0.90472,-1.21392 -3.2925,-3.90993 -3.66017,-5.11772 -0.64652,-2.12282 0.7312,-5.28557 2.72653,-6.22928 0.73741,-0.35005 1.47894,-0.31934 2.27212,-0.32139 0,0 20.03593,0 20.03593,0 0.70436,0.002 1.39632,-0.0246 2.06556,0.23542 2.78644,1.07881 2.58195,4.25794 1.63386,6.51996 -0.55357,1.32242 -1.87346,2.50359 -2.77611,3.68476 0,0 -4.55043,5.52712 -4.55043,5.52712 0,0 -2.14612,2.66121 -2.14612,2.66121 -1.1877,1.3347 -1.94782,2.80451 -3.72833,3.37155 z"
     style="fill:#29572f;fill-opacity:1;stroke-width:0.987849;stroke-dasharray:none" />
</svg>
