<?xml version="1.0" encoding="UTF-8" standalone="no"?>
<svg
   width="1.6in"
   height="2.4in"
   viewBox="0 0 480 720"
   version="1.1"
   id="svg1"
   sodipodi:docname="pik3.svg"
   inkscape:version="1.3.2 (091e20e, 2023-11-25, custom)"
   xmlns:inkscape="http://www.inkscape.org/namespaces/inkscape"
   xmlns:sodipodi="http://sodipodi.sourceforge.net/DTD/sodipodi-0.dtd"
   xmlns:xlink="http://www.w3.org/1999/xlink"
   xmlns="http://www.w3.org/2000/svg"
   xmlns:svg="http://www.w3.org/2000/svg">
  <defs
     id="defs1">
    <pattern
       inkscape:collect="always"
       xlink:href="#tiles-1"
       id="pattern10"
       patternTransform="matrix(4.6,0,0,4.6,76.218461,373.73705)"
       x="-2"
       y="-3"
       preserveAspectRatio="none" />
    <pattern
       patternUnits="userSpaceOnUse"
       width="15.021545"
       height="25.90893"
       patternTransform="translate(76.218461,373.73705)"
       style="fill:#d0972d"
       id="tiles-1"
       inkscape:label="Kacheln 1"
       inkscape:collect="always"
       inkscape:isstock="true">
      <path
         id="path5144"
         style="opacity:1;stroke-width:4.85611;stroke-linecap:square;paint-order:stroke markers fill;stop-color:#000000"
         d="M 7.510773,0 15.021545,12.95447 7.51077,25.90893 0,12.95447 Z"
         sodipodi:nodetypes="ccccc" />
    </pattern>
    <linearGradient
       id="swatch8"
       inkscape:swatch="solid">
      <stop
         style="stop-color:#e6e6e6;stop-opacity:1;"
         offset="0"
         id="stop9" />
    </linearGradient>
  </defs>
  <sodipodi:namedview
     id="namedview1"
     pagecolor="#ffffff"
     bordercolor="#000000"
     borderopacity="0.25"
     inkscape:showpageshadow="2"
     inkscape:pageopacity="0.0"
     inkscape:pagecheckerboard="0"
     inkscape:deskcolor="#d1d1d1"
     inkscape:document-units="in"
     inkscape:zoom="2"
     inkscape:cx="85.500001"
     inkscape:cy="78.750001"
     inkscape:window-width="1920"
     inkscape:window-height="1009"
     inkscape:window-x="-8"
     inkscape:window-y="-8"
     inkscape:window-maximized="1"
     inkscape:current-layer="svg1" />
  <g
     id="g2"
     transform="translate(0.0071402,0.00565841)">
    <path
       id="path1"
       fill="none"
       stroke="#000000"
       stroke-width="1"
       d="M 21,0.64 C 21,0.64 60,0 60,0 c 0,0 76,0 76,0 0,0 240,0 240,0 0,0 75,0 75,0 2.66,0 5.42,-0.11 8,0.64 8.79,2.52 18.41,12.4 20.47,21.36 0.61,2.62 0.53,5.33 0.53,8 0,0 0,530 0,530 0,0 0,129 0,129 0,2.67 0.08,5.38 -0.53,8 -2.35,10.19 -13.4,20.16 -23.47,22.47 -2.62,0.61 -5.33,0.53 -8,0.53 0,0 -344,0 -344,0 0,0 -75,0 -75,0 -2.66,0 -5.42,0.11 -8,-0.64 C 12.21,716.84 2.59,706.96 0.53,698 -0.08,695.38 0,692.67 0,690 0,690 0,167 0,167 0,167 0,47 0,47 0,47 0.53,22 0.53,22 2.81,12.1 11.8,4.08 21,0.64 Z"
       style="display:inline;fill:#ffffff;fill-opacity:1;stroke:none;stroke-width:0.9;stroke-linecap:butt;stroke-dasharray:none" />
    <path
       id="Auswahl #4"
       fill="none"
       stroke="#000000"
       stroke-width="1"
       d="m 21.409933,1.3286375 c 0,0 38.918303,-0.6389537 38.918303,-0.6389537 0,0 75.840794,0 75.840794,0 0,0 239.49725,0 239.49725,0 0,0 74.84289,0 74.84289,0 2.65443,0 5.40864,-0.10982017 7.98324,0.6389537 8.77159,2.51588 18.37144,12.3797275 20.42712,21.3250785 0.60872,2.615717 0.52889,5.321287 0.52889,7.986921 0,0 0,529.133513 0,529.133513 0,0 0,128.7891 0,128.7891 0,2.66563 0.0798,5.37121 -0.52889,7.98692 -2.34508,10.17334 -13.37192,20.12704 -23.42084,22.43327 -2.61451,0.609 -5.31882,0.52913 -7.98323,0.52913 0,0 -343.27939,0 -343.27939,0 0,0 -74.842895,0 -74.842895,0 -2.654428,0 -5.408647,0.10982 -7.983242,-0.63896 -8.771587,-2.51587 -18.3714349,-12.37972 -20.42711966,-21.32508 -0.60872215,-2.61571 -0.52888975,-5.32127 -0.52888975,-7.98691 0,0 0,-522.14496 0,-522.14496 0,0 0,-119.803815 0,-119.803815 0,0 0.52888975,-24.959129 0.52888975,-24.959129 C 3.2580372,12.769902 12.229206,4.7630135 21.409933,1.3286375 Z"
       style="display:inline;fill:url(#pattern10);fill-opacity:1;stroke-width:0.898322;stroke-linecap:butt;stroke-dasharray:none" />
    <path
       id="Auswahl #4-6"
       fill="none"
       stroke="#000000"
       stroke-width="0.998128"
       d="m 21.451861,1.1949433 c 0,0 38.918158,-0.63894645 38.918158,-0.63894645 0,0 75.840521,0 75.840521,0 0,0 239.49638,0 239.49638,0 0,0 74.84261,0 74.84261,0 2.65442,0 5.40863,-0.10981892 7.98321,0.63894645 8.77155,2.5158514 18.37137,12.3795867 20.42705,21.3248357 0.60872,2.615687 0.52889,5.321226 0.52889,7.986831 0,0 0,529.12749 0,529.12749 0,0 0,128.78763 0,128.78763 0,2.6656 0.0798,5.37114 -0.52889,7.98682 -2.34507,10.17324 -13.37188,20.12682 -23.42075,22.43301 -2.6145,0.60899 -5.31882,0.52912 -7.98321,0.52912 0,0 -343.27815,0 -343.27815,0 0,0 -74.842607,0 -74.842607,0 -2.654418,0 -5.408626,0.10983 -7.983212,-0.63894 -8.771555,-2.51585 -18.3713689,-12.37959 -20.4270458,-21.32483 -0.60872005,-2.61568 -0.52888798,-5.32122 -0.52888798,-7.98683 0,0 0,-522.13901 0,-522.13901 0,0 0,-119.802447 0,-119.802447 0,0 0.52888798,-24.958844 0.52888798,-24.958844 C 3.3000303,12.636078 12.271166,4.6292801 21.451861,1.1949433 Z"
       style="display:inline;fill:#edae00;fill-opacity:0.811765" />
  </g>
  <text
     xml:space="preserve"
     style="font-style:normal;font-variant:normal;font-weight:normal;font-stretch:normal;font-size:158.333px;font-family:'MV Boli';-inkscape-font-specification:'MV Boli, Normal';font-variant-ligatures:normal;font-variant-caps:normal;font-variant-numeric:normal;font-variant-east-asian:normal;fill:#29572f;fill-opacity:1;stroke:#000000;stroke-width:5.8924"
     x="-464.11038"
     y="-590.51331"
     id="text1-1"
     transform="scale(-1.0027661,-0.99724149)"><tspan
       id="tspan1-1"
       style="font-style:normal;font-variant:normal;font-weight:normal;font-stretch:normal;font-size:158.333px;font-family:'MV Boli';-inkscape-font-specification:'MV Boli, Normal';font-variant-ligatures:normal;font-variant-caps:normal;font-variant-numeric:normal;font-variant-east-asian:normal;fill:#29572f;fill-opacity:1;stroke-width:5.8924"
       x="-464.11038"
       y="-590.51331"
       sodipodi:role="line">4</tspan></text>
  <text
     xml:space="preserve"
     style="font-style:normal;font-variant:normal;font-weight:normal;font-stretch:normal;font-size:158.333px;font-family:'MV Boli';-inkscape-font-specification:'MV Boli, Normal';font-variant-ligatures:normal;font-variant-caps:normal;font-variant-numeric:normal;font-variant-east-asian:normal;fill:#29572f;fill-opacity:1;stroke:#000000;stroke-width:5.8924"
     x="13.839767"
     y="129.07295"
     id="text1-1-2"
     transform="scale(1.0027661,0.99724153)"><tspan
       id="tspan1-1-2"
       style="font-style:normal;font-variant:normal;font-weight:normal;font-stretch:normal;font-size:158.333px;font-family:'MV Boli';-inkscape-font-specification:'MV Boli, Normal';font-variant-ligatures:normal;font-variant-caps:normal;font-variant-numeric:normal;font-variant-east-asian:normal;fill:#29572f;fill-opacity:1;stroke-width:5.8924"
       x="13.839767"
       y="129.07295"
       sodipodi:role="line">4</tspan></text>
  <path
     id="Auswahl #2"
     fill="none"
     stroke="#000000"
     stroke-width="1"
     d="m 99.919728,281.06757 c 5.908832,-0.74992 12.767282,1.74247 17.304412,5.69058 2.47326,2.15271 5.90882,6.46697 8.13729,9.12257 0,0 7.12435,8.38147 7.12435,8.38147 5.45722,6.38315 12.94454,14.42054 17.04695,21.61538 2.22847,3.90841 6.91332,17.61432 8.57201,22.49762 0,0 2.56612,6.17583 2.56612,6.17583 0,0 8.06554,22.49764 8.06554,22.49764 0,0 2.51547,7.49921 2.51547,7.49921 3.38069,8.66379 7.27629,16.44532 7.17078,26.02667 -0.17305,15.28075 -12.45918,25.75759 -26.5897,25.58555 -4.15306,-0.0529 -10.40375,-2.24094 -14.35,-3.7849 0,0 -11.81764,-5.28915 -11.81764,-5.28915 0,0 -10.97352,-4.73774 -10.97352,-4.73774 -2.66319,-1.27486 -10.63588,-5.33326 -13.08382,-5.61117 -1.40546,-0.16322 -3.697242,0.83374 -5.064712,1.35868 0,0 -10.97352,5.08623 -10.97352,5.08623 0,0 -4.64264,2.19241 -4.64264,2.19241 0,0 -5.90882,2.34241 -5.90882,2.34241 -12.37055,5.71263 -25.98616,13.22949 -39.25146,5.65969 -2.19893,-1.25281 -3.70145,-2.44385 -5.48677,-4.27896 -2.08496,-2.15271 -3.37647,-3.89517 -4.73549,-6.61254 -2.34664,-4.69803 -2.91642,-8.90641 -2.86156,-14.11616 0.0591,-5.01565 2.19048,-10.33567 3.87872,-14.99843 0,0 3.62127,-9.26373 3.62127,-9.26373 0,0 3.71833,-11.02825 3.71833,-11.02825 0,0 3.79852,-10.14599 3.79852,-10.14599 0,0 2.89955,-8.38147 2.89955,-8.38147 0,0 2.40152,-5.73469 2.40152,-5.73469 1.65869,-4.88331 6.34353,-18.58923 8.572,-22.49764 4.44428,-7.79035 12.0118,-15.5366 17.78134,-22.49763 4.48226,-5.40826 12.71663,-16.07037 18.32578,-19.27297 4.37254,-2.49239 7.49998,-2.76148 12.2397,-3.48052 z m -2.53235,141.21016 c 2.0892,-0.36173 6.107192,-0.49407 8.019122,0.45877 2.54502,1.27045 3.95468,4.10251 5.58383,6.3655 0,0 10.65699,15.43956 10.65699,15.43956 1.84862,2.6159 6.72761,8.42558 7.47887,11.02825 1.32104,4.57452 -1.49409,11.38998 -5.57117,13.42359 -1.50675,0.75433 -3.02194,0.68816 -4.64264,0.69257 0,0 -40.939702,0 -40.939702,0 -1.43922,-0.004 -2.85311,0.0529 -4.22059,-0.50729 -5.69356,-2.32476 -5.27572,-9.17552 -3.33848,-14.05 1.13113,-2.8497 3.82807,-5.39502 5.67247,-7.94034 0,0 9.29795,-11.91051 9.29795,-11.91051 0,0 4.3852,-5.73469 4.3852,-5.73469 2.42683,-2.87617 3.98001,-6.04349 7.61815,-7.26541 z"
     style="fill:#29572f;fill-opacity:1;stroke-width:2.07288;stroke-dasharray:none" />
  <path
     id="Auswahl #2-8"
     fill="none"
     stroke="#000000"
     stroke-width="1"
     d="m 370.46407,258.98502 c 5.90883,-0.74992 12.76728,1.74246 17.30441,5.69058 2.47326,2.15271 5.90882,6.46697 8.13729,9.12257 0,0 7.12435,8.38147 7.12435,8.38147 5.45722,6.38315 12.94454,14.42054 17.04695,21.61538 2.22847,3.90841 6.91332,17.61432 8.57201,22.49762 0,0 2.56612,6.17583 2.56612,6.17583 0,0 8.06554,22.49764 8.06554,22.49764 0,0 2.51547,7.49921 2.51547,7.49921 3.38069,8.66379 7.27629,16.44532 7.17078,26.02667 -0.17305,15.28075 -12.45918,25.75759 -26.5897,25.58555 -4.15306,-0.0529 -10.40375,-2.24094 -14.35,-3.7849 0,0 -11.81764,-5.28915 -11.81764,-5.28915 0,0 -10.97352,-4.73774 -10.97352,-4.73774 -2.66319,-1.27486 -10.63588,-5.33326 -13.08382,-5.61117 -1.40546,-0.16322 -3.69724,0.83374 -5.06471,1.35868 0,0 -10.97352,5.08623 -10.97352,5.08623 0,0 -4.64264,2.19241 -4.64264,2.19241 0,0 -5.90882,2.34241 -5.90882,2.34241 -12.37055,5.71263 -25.98616,13.22949 -39.25146,5.65969 -2.19893,-1.25281 -3.70145,-2.44385 -5.48677,-4.27896 -2.08496,-2.15271 -3.37647,-3.89517 -4.73549,-6.61254 -2.34664,-4.69803 -2.91642,-8.90641 -2.86156,-14.11616 0.0591,-5.01565 2.19048,-10.33567 3.87872,-14.99843 0,0 3.62127,-9.26373 3.62127,-9.26373 0,0 3.71833,-11.02825 3.71833,-11.02825 0,0 3.79852,-10.14599 3.79852,-10.14599 0,0 2.89955,-8.38147 2.89955,-8.38147 0,0 2.40152,-5.73469 2.40152,-5.73469 1.65869,-4.88331 6.34353,-18.58923 8.572,-22.49764 4.44428,-7.79035 12.0118,-15.5366 17.78134,-22.49763 4.48226,-5.40826 12.71663,-16.07037 18.32578,-19.27297 4.37254,-2.49239 7.49998,-2.76148 12.2397,-3.48052 z m -2.53235,141.21016 c 2.0892,-0.36173 6.10719,-0.49407 8.01912,0.45877 2.54502,1.27045 3.95468,4.10251 5.58383,6.3655 0,0 10.65699,15.43956 10.65699,15.43956 1.84862,2.6159 6.72761,8.42558 7.47887,11.02825 1.32104,4.57452 -1.49409,11.38998 -5.57117,13.42359 -1.50675,0.75433 -3.02194,0.68816 -4.64264,0.69257 0,0 -40.9397,0 -40.9397,0 -1.43922,-0.004 -2.85311,0.0529 -4.22059,-0.50729 -5.69356,-2.32476 -5.27572,-9.17552 -3.33848,-14.05 1.13113,-2.8497 3.82807,-5.39502 5.67247,-7.94034 0,0 9.29795,-11.91051 9.29795,-11.91051 0,0 4.3852,-5.73469 4.3852,-5.73469 2.42683,-2.87617 3.98001,-6.04349 7.61815,-7.26541 z"
     style="fill:#29572f;fill-opacity:1;stroke-width:2.07288;stroke-dasharray:none" />
  <path
     id="Auswahl #2-8-1"
     fill="none"
     stroke="#000000"
     stroke-width="1"
     d="m 232.96407,99.610023 c 5.90883,-0.74992 12.76728,1.742457 17.30441,5.690577 2.47326,2.15271 5.90882,6.46697 8.13729,9.12257 0,0 7.12435,8.38147 7.12435,8.38147 5.45722,6.38315 12.94454,14.42054 17.04695,21.61538 2.22847,3.90841 6.91332,17.61432 8.57201,22.49762 0,0 2.56612,6.17583 2.56612,6.17583 0,0 8.06554,22.49764 8.06554,22.49764 0,0 2.51547,7.49921 2.51547,7.49921 3.38069,8.66379 7.27629,16.44532 7.17078,26.02667 -0.17305,15.28075 -12.45918,25.75759 -26.5897,25.58555 -4.15306,-0.0529 -10.40375,-2.24094 -14.35,-3.7849 0,0 -11.81764,-5.28915 -11.81764,-5.28915 0,0 -10.97352,-4.73774 -10.97352,-4.73774 -2.66319,-1.27486 -10.63588,-5.33326 -13.08382,-5.61117 -1.40546,-0.16322 -3.69724,0.83374 -5.06471,1.35868 0,0 -10.97352,5.08623 -10.97352,5.08623 0,0 -4.64264,2.19241 -4.64264,2.19241 0,0 -5.90882,2.34241 -5.90882,2.34241 -12.37055,5.71263 -25.98616,13.22949 -39.25146,5.65969 -2.19893,-1.25281 -3.70145,-2.44385 -5.48677,-4.27896 -2.08496,-2.15271 -3.37647,-3.89517 -4.73549,-6.61254 -2.34664,-4.69803 -2.91642,-8.90641 -2.86156,-14.11616 0.0591,-5.01565 2.19048,-10.33567 3.87872,-14.99843 0,0 3.62127,-9.26373 3.62127,-9.26373 0,0 3.71833,-11.02825 3.71833,-11.02825 0,0 3.79852,-10.14599 3.79852,-10.14599 0,0 2.89955,-8.38147 2.89955,-8.38147 0,0 2.40152,-5.73469 2.40152,-5.73469 1.65869,-4.88331 6.34353,-18.58923 8.572,-22.49764 4.44428,-7.79035 12.0118,-15.5366 17.78134,-22.49763 4.48226,-5.40826 12.71663,-16.07037 18.32578,-19.27297 4.37254,-2.49239 7.49998,-2.76148 12.2397,-3.480517 z m -2.53235,141.210157 c 2.0892,-0.36173 6.10719,-0.49407 8.01912,0.45877 2.54502,1.27045 3.95468,4.10251 5.58383,6.3655 0,0 10.65699,15.43956 10.65699,15.43956 1.84862,2.6159 6.72761,8.42558 7.47887,11.02825 1.32104,4.57452 -1.49409,11.38998 -5.57117,13.42359 -1.50675,0.75433 -3.02194,0.68816 -4.64264,0.69257 0,0 -40.9397,0 -40.9397,0 -1.43922,-0.004 -2.85311,0.0529 -4.22059,-0.50729 -5.69356,-2.32476 -5.27572,-9.17552 -3.33848,-14.05 1.13113,-2.8497 3.82807,-5.39502 5.67247,-7.94034 0,0 9.29795,-11.91051 9.29795,-11.91051 0,0 4.3852,-5.73469 4.3852,-5.73469 2.42683,-2.87617 3.98001,-6.04349 7.61815,-7.26541 z"
     style="fill:#29572f;fill-opacity:1;stroke-width:2.07288;stroke-dasharray:none" />
  <path
     id="Auswahl #2-7"
     fill="none"
     stroke="#000000"
     stroke-width="1"
     d="m 237.65157,432.42251 c 5.90883,-0.74992 12.76728,1.74246 17.30441,5.69058 2.47326,2.15271 5.90882,6.46696 8.13729,9.12257 0,0 7.12435,8.38147 7.12435,8.38147 5.45722,6.38315 12.94454,14.42054 17.04695,21.61538 2.22847,3.90841 6.91332,17.61432 8.57201,22.49762 0,0 2.56612,6.17583 2.56612,6.17583 0,0 8.06554,22.49764 8.06554,22.49764 0,0 2.51547,7.49921 2.51547,7.49921 3.38069,8.66379 7.27629,16.44532 7.17078,26.02667 -0.17305,15.28075 -12.45918,25.75759 -26.5897,25.58555 -4.15306,-0.0529 -10.40375,-2.24094 -14.35,-3.7849 0,0 -11.81764,-5.28915 -11.81764,-5.28915 0,0 -10.97352,-4.73774 -10.97352,-4.73774 -2.66319,-1.27486 -10.63588,-5.33326 -13.08382,-5.61117 -1.40546,-0.16322 -3.69724,0.83374 -5.06471,1.35868 0,0 -10.97352,5.08623 -10.97352,5.08623 0,0 -4.64264,2.19241 -4.64264,2.19241 0,0 -5.90882,2.34241 -5.90882,2.34241 -12.37055,5.71263 -25.98616,13.22949 -39.25146,5.65969 -2.19893,-1.25281 -3.70145,-2.44385 -5.48677,-4.27896 -2.08496,-2.15271 -3.37647,-3.89517 -4.73549,-6.61254 -2.34664,-4.69803 -2.91642,-8.90641 -2.86156,-14.11616 0.0591,-5.01565 2.19048,-10.33567 3.87872,-14.99843 0,0 3.62127,-9.26373 3.62127,-9.26373 0,0 3.71833,-11.02825 3.71833,-11.02825 0,0 3.79852,-10.14599 3.79852,-10.14599 0,0 2.89955,-8.38147 2.89955,-8.38147 0,0 2.40152,-5.73469 2.40152,-5.73469 1.65869,-4.88331 6.34353,-18.58923 8.572,-22.49764 4.44428,-7.79035 12.0118,-15.5366 17.78134,-22.49763 4.48226,-5.40826 12.71663,-16.07037 18.32578,-19.27298 4.37254,-2.49238 7.49998,-2.76147 12.2397,-3.48051 z m -2.53235,141.21016 c 2.0892,-0.36173 6.10719,-0.49407 8.01912,0.45877 2.54502,1.27045 3.95468,4.10251 5.58383,6.3655 0,0 10.65699,15.43956 10.65699,15.43956 1.84862,2.6159 6.72761,8.42558 7.47887,11.02825 1.32104,4.57452 -1.49409,11.38998 -5.57117,13.42359 -1.50675,0.75433 -3.02194,0.68816 -4.64264,0.69257 0,0 -40.9397,0 -40.9397,0 -1.43922,-0.004 -2.85311,0.0529 -4.22059,-0.50729 -5.69356,-2.32476 -5.27572,-9.17552 -3.33848,-14.05 1.13113,-2.8497 3.82807,-5.39502 5.67247,-7.94034 0,0 9.29795,-11.91051 9.29795,-11.91051 0,0 4.3852,-5.73469 4.3852,-5.73469 2.42683,-2.87617 3.98001,-6.04349 7.61815,-7.26541 z"
     style="fill:#29572f;fill-opacity:1;stroke-width:2.07288;stroke-dasharray:none" />
  <path
     id="Auswahl #2-0-6"
     fill="none"
     stroke="#000000"
     stroke-width="1"
     d="m 57.451398,139.58146 c 2.891785,-0.348 6.248318,0.8086 8.468797,2.64074 1.210415,0.99898 2.891781,3.00103 3.982398,4.23337 0,0 3.486664,3.88946 3.486664,3.88946 2.670768,2.96213 6.335073,6.69192 8.342796,10.03072 1.090617,1.81372 3.383389,8.17401 4.195155,10.44013 0,0 1.25586,2.86592 1.25586,2.86592 0,0 3.947286,10.44014 3.947286,10.44014 0,0 1.231072,3.48004 1.231072,3.48004 1.654514,4.02047 3.561026,7.63153 3.509387,12.0778 -0.08469,7.0911 -6.097533,11.95293 -13.013027,11.87309 -2.032514,-0.0246 -5.091607,-1.03992 -7.022907,-1.7564 0,0 -5.783566,-2.45445 -5.783566,-2.45445 0,0 -5.370454,-2.19857 -5.370454,-2.19857 -1.30337,-0.59161 -5.205211,-2.47492 -6.403237,-2.60389 -0.687833,-0.0757 -1.809432,0.3869 -2.478673,0.6305 0,0 -5.370455,2.36029 -5.370455,2.36029 0,0 -2.272115,1.0174 -2.272115,1.0174 0,0 -2.891785,1.087 -2.891785,1.087 -6.054157,2.65098 -12.717652,6.13921 -19.209705,2.62641 -1.076159,-0.58137 -1.811498,-1.13408 -2.685232,-1.98567 -1.020384,-0.99898 -1.652449,-1.80757 -2.317555,-3.06858 -1.148452,-2.18015 -1.427303,-4.13306 -1.40045,-6.55067 0.0289,-2.32754 1.072024,-4.79632 1.898248,-6.96009 0,0 1.772252,-4.29888 1.772252,-4.29888 0,0 1.819757,-5.11771 1.819757,-5.11771 0,0 1.859002,-4.7083 1.859002,-4.7083 0,0 1.419043,-3.88946 1.419043,-3.88946 0,0 1.175303,-2.66121 1.175303,-2.66121 0.811766,-2.26612 3.104534,-8.62642 4.195151,-10.44013 2.175035,-3.61515 5.878586,-7.20984 8.702203,-10.44013 2.193628,-2.50973 6.223535,-7.45754 8.968661,-8.94372 2.139923,-1.1566 3.670501,-1.28147 5.990126,-1.61515 z m -1.239337,65.52924 c 1.022454,-0.16786 2.988866,-0.22928 3.924564,0.21289 1.245535,0.58956 1.935429,1.90379 2.732736,2.95395 0,0 5.21554,7.16479 5.21554,7.16479 0.904716,1.21392 3.2925,3.90993 3.660171,5.11772 0.646519,2.12282 -0.731209,5.28557 -2.726538,6.22928 -0.737408,0.35005 -1.478941,0.31934 -2.272115,0.32139 0,0 -20.035934,0 -20.035934,0 -0.704357,-0.002 -1.396316,0.0246 -2.065561,-0.23542 -2.786437,-1.07881 -2.581948,-4.25794 -1.633856,-6.51996 0.553572,-1.32242 1.873461,-2.50359 2.776112,-3.68476 0,0 4.550429,-5.52712 4.550429,-5.52712 0,0 2.146117,-2.66121 2.146117,-2.66121 1.187697,-1.3347 1.947824,-2.80451 3.728335,-3.37155 z"
     style="fill:#29572f;fill-opacity:1;stroke-width:0.987849;stroke-dasharray:none" />
  <path
     id="Auswahl #2-0-6-8"
     fill="none"
     stroke="#000000"
     stroke-width="1"
     d="m 419.76945,577.04358 c -2.89179,0.348 -6.24832,-0.8086 -8.4688,-2.64074 -1.21041,-0.99898 -2.89178,-3.00103 -3.9824,-4.23337 0,0 -3.48666,-3.88946 -3.48666,-3.88946 -2.67077,-2.96213 -6.33507,-6.69191 -8.3428,-10.03071 -1.09061,-1.81372 -3.38339,-8.17401 -4.19515,-10.44013 0,0 -1.25586,-2.86592 -1.25586,-2.86592 0,0 -3.94729,-10.44014 -3.94729,-10.44014 0,0 -1.23107,-3.48004 -1.23107,-3.48004 -1.65451,-4.02047 -3.56103,-7.63153 -3.50939,-12.0778 0.0847,-7.0911 6.09754,-11.95293 13.01303,-11.87309 2.03251,0.0246 5.09161,1.03992 7.02291,1.7564 0,0 5.78356,2.45445 5.78356,2.45445 0,0 5.37046,2.19857 5.37046,2.19857 1.30337,0.59161 5.20521,2.47492 6.40323,2.60389 0.68784,0.0757 1.80944,-0.3869 2.47868,-0.6305 0,0 5.37045,-2.36029 5.37045,-2.36029 0,0 2.27212,-1.0174 2.27212,-1.0174 0,0 2.89178,-1.087 2.89178,-1.087 6.05416,-2.65098 12.71765,-6.13921 19.20971,-2.62641 1.07616,0.58137 1.8115,1.13408 2.68523,1.98567 1.02038,0.99898 1.65245,1.80757 2.31756,3.06858 1.14845,2.18015 1.4273,4.13306 1.40045,6.55067 -0.0289,2.32754 -1.07203,4.79632 -1.89825,6.96009 0,0 -1.77225,4.29888 -1.77225,4.29888 0,0 -1.81976,5.11771 -1.81976,5.11771 0,0 -1.859,4.7083 -1.859,4.7083 0,0 -1.41905,3.88946 -1.41905,3.88946 0,0 -1.1753,2.66121 -1.1753,2.66121 -0.81177,2.26612 -3.10453,8.62642 -4.19515,10.44013 -2.17504,3.61515 -5.87859,7.20983 -8.7022,10.44012 -2.19363,2.50973 -6.22354,7.45754 -8.96867,8.94372 -2.13992,1.1566 -3.6705,1.28147 -5.99012,1.61515 z m 1.23934,-65.52923 c -1.02246,0.16786 -2.98887,0.22928 -3.92457,-0.21289 -1.24553,-0.58956 -1.93543,-1.90379 -2.73273,-2.95395 0,0 -5.21554,-7.16479 -5.21554,-7.16479 -0.90472,-1.21392 -3.2925,-3.90993 -3.66017,-5.11772 -0.64652,-2.12282 0.7312,-5.28557 2.72653,-6.22928 0.73741,-0.35005 1.47894,-0.31934 2.27212,-0.32139 0,0 20.03593,0 20.03593,0 0.70436,0.002 1.39632,-0.0246 2.06556,0.23542 2.78644,1.07881 2.58195,4.25794 1.63386,6.51996 -0.55357,1.32242 -1.87346,2.50359 -2.77611,3.68476 0,0 -4.55043,5.52712 -4.55043,5.52712 0,0 -2.14612,2.66121 -2.14612,2.66121 -1.1877,1.3347 -1.94782,2.80451 -3.72833,3.37155 z"
     style="fill:#29572f;fill-opacity:1;stroke-width:0.987849;stroke-dasharray:none" />
</svg>
