<?xml version="1.0" encoding="UTF-8" standalone="no"?>
<svg
   width="1.6in"
   height="2.4in"
   viewBox="0 0 480 720"
   version="1.1"
   id="svg1"
   sodipodi:docname="pik6.svg"
   inkscape:version="1.3.2 (091e20e, 2023-11-25, custom)"
   xmlns:inkscape="http://www.inkscape.org/namespaces/inkscape"
   xmlns:sodipodi="http://sodipodi.sourceforge.net/DTD/sodipodi-0.dtd"
   xmlns:xlink="http://www.w3.org/1999/xlink"
   xmlns="http://www.w3.org/2000/svg"
   xmlns:svg="http://www.w3.org/2000/svg">
  <defs
     id="defs1">
    <pattern
       inkscape:collect="always"
       xlink:href="#tiles-1"
       id="pattern10"
       patternTransform="matrix(4.6,0,0,4.6,76.218461,373.73705)"
       x="-2"
       y="-3"
       preserveAspectRatio="none" />
    <pattern
       patternUnits="userSpaceOnUse"
       width="15.021545"
       height="25.90893"
       patternTransform="translate(76.218461,373.73705)"
       style="fill:#d0972d"
       id="tiles-1"
       inkscape:label="Kacheln 1"
       inkscape:collect="always"
       inkscape:isstock="true">
      <path
         id="path5144"
         style="opacity:1;stroke-width:4.85611;stroke-linecap:square;paint-order:stroke markers fill;stop-color:#000000"
         d="M 7.510773,0 15.021545,12.95447 7.51077,25.90893 0,12.95447 Z"
         sodipodi:nodetypes="ccccc" />
    </pattern>
    <linearGradient
       id="swatch8"
       inkscape:swatch="solid">
      <stop
         style="stop-color:#e6e6e6;stop-opacity:1;"
         offset="0"
         id="stop9" />
    </linearGradient>
  </defs>
  <sodipodi:namedview
     id="namedview1"
     pagecolor="#ffffff"
     bordercolor="#000000"
     borderopacity="0.25"
     inkscape:showpageshadow="2"
     inkscape:pageopacity="0.0"
     inkscape:pagecheckerboard="0"
     inkscape:deskcolor="#d1d1d1"
     inkscape:document-units="in"
     inkscape:zoom="2"
     inkscape:cx="85.500001"
     inkscape:cy="78.750001"
     inkscape:window-width="1920"
     inkscape:window-height="1009"
     inkscape:window-x="-8"
     inkscape:window-y="-8"
     inkscape:window-maximized="1"
     inkscape:current-layer="svg1" />
  <path
     id="Auswahl #4"
     fill="none"
     stroke="#000000"
     stroke-width="1"
     d="M 21,0.64 C 21,0.64 60,0 60,0 c 0,0 76,0 76,0 0,0 240,0 240,0 0,0 75,0 75,0 2.66,0 5.42,-0.11 8,0.64 8.79,2.52 18.41,12.4 20.47,21.36 0.61,2.62 0.53,5.33 0.53,8 0,0 0,530 0,530 0,0 0,129 0,129 0,2.67 0.08,5.38 -0.53,8 -2.35,10.19 -13.4,20.16 -23.47,22.47 -2.62,0.61 -5.33,0.53 -8,0.53 0,0 -344,0 -344,0 0,0 -75,0 -75,0 -2.66,0 -5.42,0.11 -8,-0.64 C 12.21,716.84 2.59,706.96 0.53,698 -0.08,695.38 0,692.67 0,690 0,690 0,167 0,167 0,167 0,47 0,47 0,47 0.53,22 0.53,22 2.81,12.1 11.8,4.08 21,0.64 Z"
     style="fill:url(#pattern10);fill-opacity:1;stroke-width:0.9;stroke-linecap:butt;stroke-dasharray:none" />
  <path
     id="Auswahl #4-6"
     fill="none"
     stroke="#000000"
     stroke-width="1"
     d="m 21.040171,0.64451702 c 0,0 38.999997,-0.64 38.999997,-0.64 0,0 75.999992,0 75.999992,0 0,0 240,0 240,0 0,0 75,0 75,0 2.66,0 5.42,-0.11 8,0.64 8.79,2.51999998 18.41,12.39999998 20.47,21.35999998 0.61,2.62 0.53,5.33 0.53,8 0,0 0,529.999993 0,529.999993 0,0 0,129 0,129 0,2.67 0.08,5.38 -0.53,8 -2.35,10.19 -13.4,20.16 -23.47,22.47 -2.62,0.61 -5.33,0.53 -8,0.53 0,0 -344,0 -344,0 0,0 -74.999989,0 -74.999989,0 -2.66,0 -5.42,0.11 -8,-0.64 -8.79,-2.52 -18.4100004,-12.4 -20.47000035,-21.36 -0.61000002,-2.62 -0.53000002,-5.33 -0.53000002,-8 0,0 0,-523 0,-523 0,0 0,-119.999993 0,-119.999993 0,0 0.53000002,-25 0.53000002,-25 2.27999995,-9.9 11.27000035,-17.92 20.47000035,-21.35999998 z"
     style="fill:#edae00;fill-opacity:0.81176502" />
  <text
     xml:space="preserve"
     style="font-style:normal;font-variant:normal;font-weight:normal;font-stretch:normal;font-size:158.333px;font-family:'MV Boli';-inkscape-font-specification:'MV Boli, Normal';font-variant-ligatures:normal;font-variant-caps:normal;font-variant-numeric:normal;font-variant-east-asian:normal;fill:#29572f;fill-opacity:1;stroke:#000000;stroke-width:5.8924"
     x="-464.11038"
     y="-590.51331"
     id="text1-1"
     transform="scale(-1.0027661,-0.99724149)"><tspan
       id="tspan1-1"
       style="font-style:normal;font-variant:normal;font-weight:normal;font-stretch:normal;font-size:158.333px;font-family:'MV Boli';-inkscape-font-specification:'MV Boli, Normal';font-variant-ligatures:normal;font-variant-caps:normal;font-variant-numeric:normal;font-variant-east-asian:normal;fill:#29572f;fill-opacity:1;stroke-width:5.8924"
       x="-464.11038"
       y="-590.51331"
       sodipodi:role="line">6</tspan></text>
  <text
     xml:space="preserve"
     style="font-style:normal;font-variant:normal;font-weight:normal;font-stretch:normal;font-size:158.333px;font-family:'MV Boli';-inkscape-font-specification:'MV Boli, Normal';font-variant-ligatures:normal;font-variant-caps:normal;font-variant-numeric:normal;font-variant-east-asian:normal;fill:#29572f;fill-opacity:1;stroke:#000000;stroke-width:5.8924"
     x="13.839767"
     y="129.07295"
     id="text1-1-2"
     transform="scale(1.0027661,0.99724153)"><tspan
       id="tspan1-1-2"
       style="font-style:normal;font-variant:normal;font-weight:normal;font-stretch:normal;font-size:158.333px;font-family:'MV Boli';-inkscape-font-specification:'MV Boli, Normal';font-variant-ligatures:normal;font-variant-caps:normal;font-variant-numeric:normal;font-variant-east-asian:normal;fill:#29572f;fill-opacity:1;stroke-width:5.8924"
       x="13.839767"
       y="129.07295"
       sodipodi:role="line">6</tspan></text>
  <path
     id="Auswahl #2-8-1-4"
     fill="none"
     stroke="#000000"
     stroke-width="1"
     d="m 219.78922,77.529921 c 4.91477,-0.614785 10.61941,1.428466 14.39325,4.665135 2.05718,1.764791 4.91477,5.301622 6.76834,7.478682 0,0 5.92581,6.871132 5.92581,6.871132 4.53914,5.2329 10.76685,11.82196 14.17911,17.72028 1.85357,3.20412 5.75028,14.44022 7.12992,18.44355 0,0 2.13442,5.06295 2.13442,5.06295 0,0 6.70866,18.44356 6.70866,18.44356 0,0 2.09228,6.14786 2.09228,6.14786 2.81195,7.10257 6.05219,13.48187 5.96443,21.33666 -0.14394,12.52716 -10.36315,21.11607 -22.11646,20.97503 -3.45439,-0.0434 -8.65351,-1.83712 -11.93588,-3.10286 0,0 -9.82953,-4.33604 -9.82953,-4.33604 0,0 -9.12742,-3.884 -9.12742,-3.884 -2.21516,-1.04513 -8.84659,-4.37221 -10.88271,-4.60004 -1.16902,-0.13381 -3.07524,0.6835 -4.21266,1.11385 0,0 -9.12743,4.16969 -9.12743,4.16969 0,0 -3.8616,1.79733 -3.8616,1.79733 0,0 -4.91476,1.92031 -4.91476,1.92031 -10.28943,4.68322 -21.61446,10.84554 -32.64811,4.63982 -1.829,-1.02706 -3.07875,-2.00347 -4.56372,-3.5079 -1.73421,-1.76479 -2.80844,-3.19326 -3.93883,-5.42096 -1.95186,-3.85144 -2.42579,-7.30147 -2.38016,-11.57242 0.0492,-4.11183 1.82197,-8.47319 3.2262,-12.29572 0,0 3.01205,-7.5944 3.01205,-7.5944 0,0 3.09279,-9.04096 3.09279,-9.04096 0,0 3.15949,-8.31768 3.15949,-8.31768 0,0 2.41175,-6.87113 2.41175,-6.87113 0,0 1.99751,-4.7013 1.99751,-4.7013 1.37965,-4.00334 5.27635,-15.23945 7.12992,-18.44356 3.69661,-6.38653 9.99103,-12.73691 14.78995,-18.44356 3.7282,-4.43369 10.57728,-13.17449 15.2428,-15.799981 3.63694,-2.043262 6.23824,-2.263862 10.18059,-2.853328 z M 217.68289,193.294 c 1.73773,-0.29654 5.07977,-0.40503 6.67005,0.3761 2.11686,1.04152 3.28937,3.36324 4.64445,5.21844 0,0 8.86414,12.65735 8.86414,12.65735 1.53763,2.14452 5.59581,6.90729 6.22069,9.04096 1.0988,3.75019 -1.24274,9.33751 -4.63392,11.00466 -1.25327,0.6184 -2.51356,0.56415 -3.8616,0.56777 0,0 -34.05234,0 -34.05234,0 -1.19709,-0.003 -2.37312,0.0434 -3.51055,-0.41588 -4.73572,-1.90584 -4.38818,-7.52209 -2.77684,-11.51819 0.94084,-2.33618 3.18407,-4.42284 4.71818,-6.50949 0,0 7.73374,-9.76423 7.73374,-9.76423 0,0 3.64747,-4.7013 3.64747,-4.7013 2.01856,-2.35789 3.31044,-4.95446 6.33653,-5.95619 z"
     style="fill:#29572f;fill-opacity:1;stroke-width:1.71171;stroke-dasharray:none" />
  <path
     id="Auswahl #2-8-1-4-5"
     fill="none"
     stroke="#000000"
     stroke-width="1"
     d="m 294.78923,285.34239 c 4.91477,-0.61478 10.61941,1.42847 14.39325,4.66514 2.05718,1.76479 4.91477,5.30162 6.76834,7.47868 0,0 5.92581,6.87113 5.92581,6.87113 4.53914,5.2329 10.76685,11.82196 14.17911,17.72028 1.85357,3.20412 5.75028,14.44022 7.12992,18.44355 0,0 2.13442,5.06295 2.13442,5.06295 0,0 6.70866,18.44356 6.70866,18.44356 0,0 2.09228,6.14786 2.09228,6.14786 2.81195,7.10257 6.05219,13.48187 5.96443,21.33666 -0.14394,12.52716 -10.36315,21.11607 -22.11646,20.97503 -3.45439,-0.0434 -8.65351,-1.83712 -11.93588,-3.10286 0,0 -9.82953,-4.33604 -9.82953,-4.33604 0,0 -9.12742,-3.884 -9.12742,-3.884 -2.21516,-1.04513 -8.84659,-4.37221 -10.88271,-4.60004 -1.16902,-0.13381 -3.07524,0.6835 -4.21266,1.11385 0,0 -9.12743,4.16969 -9.12743,4.16969 0,0 -3.8616,1.79733 -3.8616,1.79733 0,0 -4.91476,1.92031 -4.91476,1.92031 -10.28943,4.68322 -21.61446,10.84554 -32.64811,4.63982 -1.829,-1.02706 -3.07875,-2.00347 -4.56372,-3.5079 -1.73421,-1.76479 -2.80844,-3.19326 -3.93883,-5.42096 -1.95186,-3.85144 -2.42579,-7.30147 -2.38016,-11.57242 0.0492,-4.11183 1.82197,-8.47319 3.2262,-12.29572 0,0 3.01205,-7.5944 3.01205,-7.5944 0,0 3.09279,-9.04096 3.09279,-9.04096 0,0 3.15949,-8.31768 3.15949,-8.31768 0,0 2.41175,-6.87113 2.41175,-6.87113 0,0 1.99751,-4.7013 1.99751,-4.7013 1.37965,-4.00334 5.27635,-15.23945 7.12992,-18.44356 3.69661,-6.38653 9.99103,-12.73691 14.78995,-18.44356 3.7282,-4.43369 10.57728,-13.17449 15.2428,-15.79998 3.63694,-2.04326 6.23824,-2.26386 10.18059,-2.85333 z m -2.10633,115.76408 c 1.73773,-0.29654 5.07977,-0.40503 6.67005,0.3761 2.11686,1.04152 3.28937,3.36324 4.64445,5.21844 0,0 8.86414,12.65735 8.86414,12.65735 1.53763,2.14452 5.59581,6.90729 6.22069,9.04096 1.0988,3.75019 -1.24274,9.33751 -4.63392,11.00466 -1.25327,0.6184 -2.51356,0.56415 -3.8616,0.56777 0,0 -34.05234,0 -34.05234,0 -1.19709,-0.003 -2.37312,0.0434 -3.51055,-0.41588 -4.73572,-1.90584 -4.38818,-7.52209 -2.77684,-11.51819 0.94084,-2.33618 3.18407,-4.42284 4.71818,-6.50949 0,0 7.73374,-9.76423 7.73374,-9.76423 0,0 3.64747,-4.7013 3.64747,-4.7013 2.01856,-2.35789 3.31044,-4.95446 6.33653,-5.95619 z"
     style="fill:#29572f;fill-opacity:1;stroke-width:1.71171;stroke-dasharray:none" />
  <path
     id="Auswahl #2-8-1-4-5-8"
     fill="none"
     stroke="#000000"
     stroke-width="1"
     d="m 247.91423,485.34238 c 4.91477,-0.61478 10.61941,1.42847 14.39325,4.66514 2.05718,1.76479 4.91477,5.30162 6.76834,7.47868 0,0 5.92581,6.87113 5.92581,6.87113 4.53914,5.2329 10.76685,11.82196 14.17911,17.72028 1.85357,3.20412 5.75028,14.44022 7.12992,18.44355 0,0 2.13442,5.06295 2.13442,5.06295 0,0 6.70866,18.44356 6.70866,18.44356 0,0 2.09228,6.14786 2.09228,6.14786 2.81195,7.10257 6.05219,13.48187 5.96443,21.33666 -0.14394,12.52716 -10.36315,21.11607 -22.11646,20.97503 -3.45439,-0.0434 -8.65351,-1.83712 -11.93588,-3.10286 0,0 -9.82953,-4.33604 -9.82953,-4.33604 0,0 -9.12742,-3.884 -9.12742,-3.884 -2.21516,-1.04513 -8.84659,-4.37221 -10.88271,-4.60004 -1.16902,-0.13381 -3.07524,0.6835 -4.21266,1.11385 0,0 -9.12743,4.16969 -9.12743,4.16969 0,0 -3.8616,1.79733 -3.8616,1.79733 0,0 -4.91476,1.92031 -4.91476,1.92031 -10.28943,4.68322 -21.61446,10.84554 -32.64811,4.63982 -1.829,-1.02706 -3.07875,-2.00347 -4.56372,-3.5079 -1.73421,-1.76479 -2.80844,-3.19326 -3.93883,-5.42096 -1.95186,-3.85144 -2.42579,-7.30147 -2.38016,-11.57242 0.0492,-4.11183 1.82197,-8.47319 3.2262,-12.29572 0,0 3.01205,-7.5944 3.01205,-7.5944 0,0 3.09279,-9.04096 3.09279,-9.04096 0,0 3.15949,-8.31768 3.15949,-8.31768 0,0 2.41175,-6.87113 2.41175,-6.87113 0,0 1.99751,-4.7013 1.99751,-4.7013 1.37965,-4.00334 5.27635,-15.23945 7.12992,-18.44356 3.69661,-6.38653 9.99103,-12.73691 14.78995,-18.44356 3.7282,-4.43369 10.57728,-13.17449 15.2428,-15.79998 3.63694,-2.04326 6.23824,-2.26386 10.18059,-2.85333 z m -2.10633,115.76408 c 1.73773,-0.29654 5.07977,-0.40503 6.67005,0.3761 2.11686,1.04152 3.28937,3.36324 4.64445,5.21844 0,0 8.86414,12.65735 8.86414,12.65735 1.53763,2.14452 5.59581,6.90729 6.22069,9.04096 1.0988,3.75019 -1.24274,9.33751 -4.63392,11.00466 -1.25327,0.6184 -2.51356,0.56415 -3.8616,0.56777 0,0 -34.05234,0 -34.05234,0 -1.19709,-0.003 -2.37312,0.0434 -3.51055,-0.41588 -4.73572,-1.90584 -4.38818,-7.52209 -2.77684,-11.51819 0.94084,-2.33618 3.18407,-4.42284 4.71818,-6.50949 0,0 7.73374,-9.76423 7.73374,-9.76423 0,0 3.64747,-4.7013 3.64747,-4.7013 2.01856,-2.35789 3.31044,-4.95446 6.33653,-5.95619 z"
     style="fill:#29572f;fill-opacity:1;stroke-width:1.71171;stroke-dasharray:none" />
  <path
     id="Auswahl #2-8-1-4-4"
     fill="none"
     stroke="#000000"
     stroke-width="1"
     d="m 133.85174,280.65489 c 4.91477,-0.61478 10.61941,1.42847 14.39325,4.66514 2.05718,1.76479 4.91477,5.30162 6.76834,7.47868 0,0 5.92581,6.87113 5.92581,6.87113 4.53914,5.2329 10.76685,11.82196 14.17911,17.72028 1.85357,3.20412 5.75028,14.44022 7.12992,18.44355 0,0 2.13442,5.06295 2.13442,5.06295 0,0 6.70866,18.44356 6.70866,18.44356 0,0 2.09228,6.14786 2.09228,6.14786 2.81195,7.10257 6.05219,13.48187 5.96443,21.33666 -0.14394,12.52716 -10.36315,21.11607 -22.11646,20.97503 -3.45439,-0.0434 -8.65351,-1.83712 -11.93588,-3.10286 0,0 -9.82953,-4.33604 -9.82953,-4.33604 0,0 -9.12742,-3.884 -9.12742,-3.884 -2.21516,-1.04513 -8.84659,-4.37221 -10.88271,-4.60004 -1.16902,-0.13381 -3.07524,0.6835 -4.21266,1.11385 0,0 -9.12743,4.16969 -9.12743,4.16969 0,0 -3.8616,1.79733 -3.8616,1.79733 0,0 -4.91476,1.92031 -4.91476,1.92031 -10.28943,4.68322 -21.614457,10.84554 -32.648107,4.63982 -1.829,-1.02706 -3.07875,-2.00347 -4.56372,-3.5079 -1.73421,-1.76479 -2.80844,-3.19326 -3.93883,-5.42096 -1.95186,-3.85144 -2.42579,-7.30147 -2.38016,-11.57242 0.0492,-4.11183 1.82197,-8.47319 3.2262,-12.29572 0,0 3.01205,-7.5944 3.01205,-7.5944 0,0 3.09279,-9.04096 3.09279,-9.04096 0,0 3.15949,-8.31768 3.15949,-8.31768 0,0 2.41175,-6.87113 2.41175,-6.87113 0,0 1.99751,-4.7013 1.99751,-4.7013 1.37965,-4.00334 5.27635,-15.23945 7.12992,-18.44356 3.69661,-6.38653 9.991027,-12.73691 14.789947,-18.44356 3.7282,-4.43369 10.57728,-13.17449 15.2428,-15.79998 3.63694,-2.04326 6.23824,-2.26386 10.18059,-2.85333 z m -2.10633,115.76408 c 1.73773,-0.29654 5.07977,-0.40503 6.67005,0.3761 2.11686,1.04152 3.28937,3.36324 4.64445,5.21844 0,0 8.86414,12.65735 8.86414,12.65735 1.53763,2.14452 5.59581,6.90729 6.22069,9.04096 1.0988,3.75019 -1.24274,9.33751 -4.63392,11.00466 -1.25327,0.6184 -2.51356,0.56415 -3.8616,0.56777 0,0 -34.05234,0 -34.05234,0 -1.19709,-0.003 -2.37312,0.0434 -3.51055,-0.41588 -4.73572,-1.90584 -4.38818,-7.52209 -2.77684,-11.51819 0.94084,-2.33618 3.18407,-4.42284 4.71818,-6.50949 0,0 7.73374,-9.76423 7.73374,-9.76423 0,0 3.64747,-4.7013 3.64747,-4.7013 2.01856,-2.35789 3.31044,-4.95446 6.33653,-5.95619 z"
     style="fill:#29572f;fill-opacity:1;stroke-width:1.71171;stroke-dasharray:none" />
  <path
     id="Auswahl #2-8-1-4-3"
     fill="none"
     stroke="#000000"
     stroke-width="1"
     d="m 379.16423,75.967402 c 4.91477,-0.61478 10.61941,1.42847 14.39325,4.66514 2.05718,1.76479 4.91477,5.30162 6.76834,7.47868 0,0 5.92581,6.87113 5.92581,6.87113 4.53914,5.232898 10.76685,11.821958 14.17911,17.720278 1.85357,3.20412 5.75028,14.44022 7.12992,18.44355 0,0 2.13442,5.06295 2.13442,5.06295 0,0 6.70866,18.44356 6.70866,18.44356 0,0 2.09228,6.14786 2.09228,6.14786 2.81195,7.10257 6.05219,13.48187 5.96443,21.33666 -0.14394,12.52716 -10.36315,21.11607 -22.11646,20.97503 -3.45439,-0.0434 -8.65351,-1.83712 -11.93588,-3.10286 0,0 -9.82953,-4.33604 -9.82953,-4.33604 0,0 -9.12742,-3.884 -9.12742,-3.884 -2.21516,-1.04513 -8.84659,-4.37221 -10.88271,-4.60004 -1.16902,-0.13381 -3.07524,0.6835 -4.21266,1.11385 0,0 -9.12743,4.16969 -9.12743,4.16969 0,0 -3.8616,1.79733 -3.8616,1.79733 0,0 -4.91476,1.92031 -4.91476,1.92031 -10.28943,4.68322 -21.61446,10.84554 -32.64811,4.63982 -1.829,-1.02706 -3.07875,-2.00347 -4.56372,-3.5079 -1.73421,-1.76479 -2.80844,-3.19326 -3.93883,-5.42096 -1.95186,-3.85144 -2.42579,-7.30147 -2.38016,-11.57242 0.0492,-4.11183 1.82197,-8.47319 3.2262,-12.29572 0,0 3.01205,-7.5944 3.01205,-7.5944 0,0 3.09279,-9.04096 3.09279,-9.04096 0,0 3.15949,-8.31768 3.15949,-8.31768 0,0 2.41175,-6.87113 2.41175,-6.87113 0,0 1.99751,-4.7013 1.99751,-4.7013 1.37965,-4.00334 5.27635,-15.23945 7.12992,-18.44356 3.69661,-6.38653 9.99103,-12.73691 14.78995,-18.443558 3.7282,-4.43369 10.57728,-13.17449 15.2428,-15.79998 3.63694,-2.04326 6.23824,-2.26386 10.18059,-2.85333 z M 377.0579,191.73148 c 1.73773,-0.29654 5.07977,-0.40503 6.67005,0.3761 2.11686,1.04152 3.28937,3.36324 4.64445,5.21844 0,0 8.86414,12.65735 8.86414,12.65735 1.53763,2.14452 5.59581,6.90729 6.22069,9.04096 1.0988,3.75019 -1.24274,9.33751 -4.63392,11.00466 -1.25327,0.6184 -2.51356,0.56415 -3.8616,0.56777 0,0 -34.05234,0 -34.05234,0 -1.19709,-0.003 -2.37312,0.0434 -3.51055,-0.41588 -4.73572,-1.90584 -4.38818,-7.52209 -2.77684,-11.51819 0.94084,-2.33618 3.18407,-4.42284 4.71818,-6.50949 0,0 7.73374,-9.76423 7.73374,-9.76423 0,0 3.64747,-4.7013 3.64747,-4.7013 2.01856,-2.35789 3.31044,-4.95446 6.33653,-5.95619 z"
     style="fill:#29572f;fill-opacity:1;stroke-width:1.71171;stroke-dasharray:none" />
  <path
     id="Auswahl #2-8-1-4-1"
     fill="none"
     stroke="#000000"
     stroke-width="1"
     d="m 76.039238,485.3424 c 4.914773,-0.61478 10.619413,1.42847 14.393253,4.66514 2.05718,1.76479 4.91477,5.30162 6.76834,7.47868 0,0 5.925809,6.87113 5.925809,6.87113 4.53914,5.2329 10.76685,11.82196 14.17911,17.72028 1.85357,3.20412 5.75028,14.44022 7.12992,18.44355 0,0 2.13442,5.06295 2.13442,5.06295 0,0 6.70866,18.44356 6.70866,18.44356 0,0 2.09228,6.14786 2.09228,6.14786 2.81195,7.10257 6.05219,13.48187 5.96443,21.33666 -0.14394,12.52716 -10.36315,21.11607 -22.11646,20.97503 -3.45439,-0.0434 -8.65351,-1.83712 -11.93588,-3.10286 0,0 -9.829529,-4.33604 -9.829529,-4.33604 0,0 -9.12742,-3.884 -9.12742,-3.884 -2.21516,-1.04513 -8.84659,-4.37221 -10.882713,-4.60004 -1.16902,-0.13381 -3.07524,0.6835 -4.21266,1.11385 0,0 -9.12743,4.16969 -9.12743,4.16969 0,0 -3.8616,1.79733 -3.8616,1.79733 0,0 -4.91476,1.92031 -4.91476,1.92031 -10.28943,4.68322 -21.61446,10.84554 -32.64811,4.63982 -1.829,-1.02706 -3.07875,-2.00347 -4.56372,-3.5079 -1.73421,-1.76479 -2.80844,-3.19326 -3.93883,-5.42096 -1.95186,-3.85144 -2.42579,-7.30147 -2.38016,-11.57242 0.0492,-4.11183 1.82197,-8.47319 3.2262,-12.29572 0,0 3.01205,-7.5944 3.01205,-7.5944 0,0 3.09279,-9.04096 3.09279,-9.04096 0,0 3.15949,-8.31768 3.15949,-8.31768 0,0 2.41175,-6.87113 2.41175,-6.87113 0,0 1.99751,-4.7013 1.99751,-4.7013 1.37965,-4.00334 5.27635,-15.23945 7.12992,-18.44356 3.69661,-6.38653 9.99103,-12.73691 14.78995,-18.44356 3.7282,-4.43369 10.57728,-13.17449 15.2428,-15.79998 3.63694,-2.04326 6.23824,-2.26386 10.18059,-2.85333 z m -2.10633,115.76408 c 1.73773,-0.29654 5.079773,-0.40503 6.670053,0.3761 2.11686,1.04152 3.28937,3.36324 4.64445,5.21844 0,0 8.86414,12.65735 8.86414,12.65735 1.53763,2.14452 5.59581,6.90729 6.220689,9.04096 1.0988,3.75019 -1.242739,9.33751 -4.633919,11.00466 -1.25327,0.6184 -2.51356,0.56415 -3.8616,0.56777 0,0 -34.052343,0 -34.052343,0 -1.19709,-0.003 -2.37312,0.0434 -3.51055,-0.41588 -4.73572,-1.90584 -4.38818,-7.52209 -2.77684,-11.51819 0.94084,-2.33618 3.18407,-4.42284 4.71818,-6.50949 0,0 7.73374,-9.76423 7.73374,-9.76423 0,0 3.64747,-4.7013 3.64747,-4.7013 2.01856,-2.35789 3.31044,-4.95446 6.33653,-5.95619 z"
     style="fill:#29572f;fill-opacity:1;stroke-width:1.71171;stroke-dasharray:none" />
  <path
     id="Auswahl #2-0-6"
     fill="none"
     stroke="#000000"
     stroke-width="1"
     d="m 57.451398,139.58146 c 2.891785,-0.348 6.248318,0.8086 8.468797,2.64074 1.210415,0.99898 2.891781,3.00103 3.982398,4.23337 0,0 3.486664,3.88946 3.486664,3.88946 2.670768,2.96213 6.335073,6.69192 8.342796,10.03072 1.090617,1.81372 3.383389,8.17401 4.195155,10.44013 0,0 1.25586,2.86592 1.25586,2.86592 0,0 3.947286,10.44014 3.947286,10.44014 0,0 1.231072,3.48004 1.231072,3.48004 1.654514,4.02047 3.561026,7.63153 3.509387,12.0778 -0.08469,7.0911 -6.097533,11.95293 -13.013027,11.87309 -2.032514,-0.0246 -5.091607,-1.03992 -7.022907,-1.7564 0,0 -5.783566,-2.45445 -5.783566,-2.45445 0,0 -5.370454,-2.19857 -5.370454,-2.19857 -1.30337,-0.59161 -5.205211,-2.47492 -6.403237,-2.60389 -0.687833,-0.0757 -1.809432,0.3869 -2.478673,0.6305 0,0 -5.370455,2.36029 -5.370455,2.36029 0,0 -2.272115,1.0174 -2.272115,1.0174 0,0 -2.891785,1.087 -2.891785,1.087 -6.054157,2.65098 -12.717652,6.13921 -19.209705,2.62641 -1.076159,-0.58137 -1.811498,-1.13408 -2.685232,-1.98567 -1.020384,-0.99898 -1.652449,-1.80757 -2.317555,-3.06858 -1.148452,-2.18015 -1.427303,-4.13306 -1.40045,-6.55067 0.0289,-2.32754 1.072024,-4.79632 1.898248,-6.96009 0,0 1.772252,-4.29888 1.772252,-4.29888 0,0 1.819757,-5.11771 1.819757,-5.11771 0,0 1.859002,-4.7083 1.859002,-4.7083 0,0 1.419043,-3.88946 1.419043,-3.88946 0,0 1.175303,-2.66121 1.175303,-2.66121 0.811766,-2.26612 3.104534,-8.62642 4.195151,-10.44013 2.175035,-3.61515 5.878586,-7.20984 8.702203,-10.44013 2.193628,-2.50973 6.223535,-7.45754 8.968661,-8.94372 2.139923,-1.1566 3.670501,-1.28147 5.990126,-1.61515 z m -1.239337,65.52924 c 1.022454,-0.16786 2.988866,-0.22928 3.924564,0.21289 1.245535,0.58956 1.935429,1.90379 2.732736,2.95395 0,0 5.21554,7.16479 5.21554,7.16479 0.904716,1.21392 3.2925,3.90993 3.660171,5.11772 0.646519,2.12282 -0.731209,5.28557 -2.726538,6.22928 -0.737408,0.35005 -1.478941,0.31934 -2.272115,0.32139 0,0 -20.035934,0 -20.035934,0 -0.704357,-0.002 -1.396316,0.0246 -2.065561,-0.23542 -2.786437,-1.07881 -2.581948,-4.25794 -1.633856,-6.51996 0.553572,-1.32242 1.873461,-2.50359 2.776112,-3.68476 0,0 4.550429,-5.52712 4.550429,-5.52712 0,0 2.146117,-2.66121 2.146117,-2.66121 1.187697,-1.3347 1.947824,-2.80451 3.728335,-3.37155 z"
     style="fill:#29572f;fill-opacity:1;stroke-width:0.987849;stroke-dasharray:none" />
  <path
     id="Auswahl #2-0-6-8"
     fill="none"
     stroke="#000000"
     stroke-width="1"
     d="m 419.76945,577.04358 c -2.89179,0.348 -6.24832,-0.8086 -8.4688,-2.64074 -1.21041,-0.99898 -2.89178,-3.00103 -3.9824,-4.23337 0,0 -3.48666,-3.88946 -3.48666,-3.88946 -2.67077,-2.96213 -6.33507,-6.69191 -8.3428,-10.03071 -1.09061,-1.81372 -3.38339,-8.17401 -4.19515,-10.44013 0,0 -1.25586,-2.86592 -1.25586,-2.86592 0,0 -3.94729,-10.44014 -3.94729,-10.44014 0,0 -1.23107,-3.48004 -1.23107,-3.48004 -1.65451,-4.02047 -3.56103,-7.63153 -3.50939,-12.0778 0.0847,-7.0911 6.09754,-11.95293 13.01303,-11.87309 2.03251,0.0246 5.09161,1.03992 7.02291,1.7564 0,0 5.78356,2.45445 5.78356,2.45445 0,0 5.37046,2.19857 5.37046,2.19857 1.30337,0.59161 5.20521,2.47492 6.40323,2.60389 0.68784,0.0757 1.80944,-0.3869 2.47868,-0.6305 0,0 5.37045,-2.36029 5.37045,-2.36029 0,0 2.27212,-1.0174 2.27212,-1.0174 0,0 2.89178,-1.087 2.89178,-1.087 6.05416,-2.65098 12.71765,-6.13921 19.20971,-2.62641 1.07616,0.58137 1.8115,1.13408 2.68523,1.98567 1.02038,0.99898 1.65245,1.80757 2.31756,3.06858 1.14845,2.18015 1.4273,4.13306 1.40045,6.55067 -0.0289,2.32754 -1.07203,4.79632 -1.89825,6.96009 0,0 -1.77225,4.29888 -1.77225,4.29888 0,0 -1.81976,5.11771 -1.81976,5.11771 0,0 -1.859,4.7083 -1.859,4.7083 0,0 -1.41905,3.88946 -1.41905,3.88946 0,0 -1.1753,2.66121 -1.1753,2.66121 -0.81177,2.26612 -3.10453,8.62642 -4.19515,10.44013 -2.17504,3.61515 -5.87859,7.20983 -8.7022,10.44012 -2.19363,2.50973 -6.22354,7.45754 -8.96867,8.94372 -2.13992,1.1566 -3.6705,1.28147 -5.99012,1.61515 z m 1.23934,-65.52923 c -1.02246,0.16786 -2.98887,0.22928 -3.92457,-0.21289 -1.24553,-0.58956 -1.93543,-1.90379 -2.73273,-2.95395 0,0 -5.21554,-7.16479 -5.21554,-7.16479 -0.90472,-1.21392 -3.2925,-3.90993 -3.66017,-5.11772 -0.64652,-2.12282 0.7312,-5.28557 2.72653,-6.22928 0.73741,-0.35005 1.47894,-0.31934 2.27212,-0.32139 0,0 20.03593,0 20.03593,0 0.70436,0.002 1.39632,-0.0246 2.06556,0.23542 2.78644,1.07881 2.58195,4.25794 1.63386,6.51996 -0.55357,1.32242 -1.87346,2.50359 -2.77611,3.68476 0,0 -4.55043,5.52712 -4.55043,5.52712 0,0 -2.14612,2.66121 -2.14612,2.66121 -1.1877,1.3347 -1.94782,2.80451 -3.72833,3.37155 z"
     style="fill:#29572f;fill-opacity:1;stroke-width:0.987849;stroke-dasharray:none" />
</svg>
