<?xml version="1.0" encoding="UTF-8" standalone="no"?>
<svg
   width="1.6in"
   height="2.4in"
   viewBox="0 0 480 720"
   version="1.1"
   id="svg1"
   sodipodi:docname="pik8.svg"
   inkscape:version="1.3.2 (091e20e, 2023-11-25, custom)"
   xmlns:inkscape="http://www.inkscape.org/namespaces/inkscape"
   xmlns:sodipodi="http://sodipodi.sourceforge.net/DTD/sodipodi-0.dtd"
   xmlns:xlink="http://www.w3.org/1999/xlink"
   xmlns="http://www.w3.org/2000/svg"
   xmlns:svg="http://www.w3.org/2000/svg">
  <defs
     id="defs1">
    <pattern
       inkscape:collect="always"
       xlink:href="#tiles-1"
       id="pattern10"
       patternTransform="matrix(4.6,0,0,4.6,76.218461,373.73705)"
       x="-2"
       y="-3"
       preserveAspectRatio="none" />
    <pattern
       patternUnits="userSpaceOnUse"
       width="15.021545"
       height="25.90893"
       patternTransform="translate(76.218461,373.73705)"
       style="fill:#d0972d"
       id="tiles-1"
       inkscape:label="Kacheln 1"
       inkscape:collect="always"
       inkscape:isstock="true">
      <path
         id="path5144"
         style="opacity:1;stroke-width:4.85611;stroke-linecap:square;paint-order:stroke markers fill;stop-color:#000000"
         d="M 7.510773,0 15.021545,12.95447 7.51077,25.90893 0,12.95447 Z"
         sodipodi:nodetypes="ccccc" />
    </pattern>
    <linearGradient
       id="swatch8"
       inkscape:swatch="solid">
      <stop
         style="stop-color:#e6e6e6;stop-opacity:1;"
         offset="0"
         id="stop9" />
    </linearGradient>
  </defs>
  <sodipodi:namedview
     id="namedview1"
     pagecolor="#ffffff"
     bordercolor="#000000"
     borderopacity="0.25"
     inkscape:showpageshadow="2"
     inkscape:pageopacity="0.0"
     inkscape:pagecheckerboard="0"
     inkscape:deskcolor="#d1d1d1"
     inkscape:document-units="in"
     inkscape:zoom="2"
     inkscape:cx="85.500001"
     inkscape:cy="78.750001"
     inkscape:window-width="1920"
     inkscape:window-height="1009"
     inkscape:window-x="-8"
     inkscape:window-y="-8"
     inkscape:window-maximized="1"
     inkscape:current-layer="svg1" />
  <path
     id="Auswahl #4"
     fill="none"
     stroke="#000000"
     stroke-width="1"
     d="M 21,0.64 C 21,0.64 60,0 60,0 c 0,0 76,0 76,0 0,0 240,0 240,0 0,0 75,0 75,0 2.66,0 5.42,-0.11 8,0.64 8.79,2.52 18.41,12.4 20.47,21.36 0.61,2.62 0.53,5.33 0.53,8 0,0 0,530 0,530 0,0 0,129 0,129 0,2.67 0.08,5.38 -0.53,8 -2.35,10.19 -13.4,20.16 -23.47,22.47 -2.62,0.61 -5.33,0.53 -8,0.53 0,0 -344,0 -344,0 0,0 -75,0 -75,0 -2.66,0 -5.42,0.11 -8,-0.64 C 12.21,716.84 2.59,706.96 0.53,698 -0.08,695.38 0,692.67 0,690 0,690 0,167 0,167 0,167 0,47 0,47 0,47 0.53,22 0.53,22 2.81,12.1 11.8,4.08 21,0.64 Z"
     style="fill:url(#pattern10);fill-opacity:1;stroke-width:0.9;stroke-linecap:butt;stroke-dasharray:none" />
  <path
     id="Auswahl #4-6"
     fill="none"
     stroke="#000000"
     stroke-width="1"
     d="m 21.040171,0.64451702 c 0,0 38.999997,-0.64 38.999997,-0.64 0,0 75.999992,0 75.999992,0 0,0 240,0 240,0 0,0 75,0 75,0 2.66,0 5.42,-0.11 8,0.64 8.79,2.51999998 18.41,12.39999998 20.47,21.35999998 0.61,2.62 0.53,5.33 0.53,8 0,0 0,529.999993 0,529.999993 0,0 0,129 0,129 0,2.67 0.08,5.38 -0.53,8 -2.35,10.19 -13.4,20.16 -23.47,22.47 -2.62,0.61 -5.33,0.53 -8,0.53 0,0 -344,0 -344,0 0,0 -74.999989,0 -74.999989,0 -2.66,0 -5.42,0.11 -8,-0.64 -8.79,-2.52 -18.4100004,-12.4 -20.47000035,-21.36 -0.61000002,-2.62 -0.53000002,-5.33 -0.53000002,-8 0,0 0,-523 0,-523 0,0 0,-119.999993 0,-119.999993 0,0 0.53000002,-25 0.53000002,-25 2.27999995,-9.9 11.27000035,-17.92 20.47000035,-21.35999998 z"
     style="fill:#edae00;fill-opacity:0.81176502" />
  <text
     xml:space="preserve"
     style="font-style:normal;font-variant:normal;font-weight:normal;font-stretch:normal;font-size:158.333px;font-family:'MV Boli';-inkscape-font-specification:'MV Boli, Normal';font-variant-ligatures:normal;font-variant-caps:normal;font-variant-numeric:normal;font-variant-east-asian:normal;fill:#29572f;fill-opacity:1;stroke:#000000;stroke-width:5.8924"
     x="-464.11038"
     y="-590.51331"
     id="text1-1"
     transform="scale(-1.0027661,-0.99724149)"><tspan
       id="tspan1-1"
       style="font-style:normal;font-variant:normal;font-weight:normal;font-stretch:normal;font-size:158.333px;font-family:'MV Boli';-inkscape-font-specification:'MV Boli, Normal';font-variant-ligatures:normal;font-variant-caps:normal;font-variant-numeric:normal;font-variant-east-asian:normal;fill:#29572f;fill-opacity:1;stroke-width:5.8924"
       x="-464.11038"
       y="-590.51331"
       sodipodi:role="line">8</tspan></text>
  <text
     xml:space="preserve"
     style="font-style:normal;font-variant:normal;font-weight:normal;font-stretch:normal;font-size:158.333px;font-family:'MV Boli';-inkscape-font-specification:'MV Boli, Normal';font-variant-ligatures:normal;font-variant-caps:normal;font-variant-numeric:normal;font-variant-east-asian:normal;fill:#29572f;fill-opacity:1;stroke:#000000;stroke-width:5.8924"
     x="13.839767"
     y="129.07295"
     id="text1-1-2"
     transform="scale(1.0027661,0.99724153)"><tspan
       id="tspan1-1-2"
       style="font-style:normal;font-variant:normal;font-weight:normal;font-stretch:normal;font-size:158.333px;font-family:'MV Boli';-inkscape-font-specification:'MV Boli, Normal';font-variant-ligatures:normal;font-variant-caps:normal;font-variant-numeric:normal;font-variant-east-asian:normal;fill:#29572f;fill-opacity:1;stroke-width:5.8924"
       x="13.839767"
       y="129.07295"
       sodipodi:role="line">8</tspan></text>
  <path
     id="Auswahl #2-8-1-4-4"
     fill="none"
     stroke="#000000"
     stroke-width="1"
     d="m 82.32668,436.8149 c 4.56499,-0.54712 9.86364,1.27124 13.3689,4.15166 1.91077,1.57054 4.56499,4.71808 6.28664,6.65552 0,0 5.50408,6.11484 5.50408,6.11484 4.21609,4.65693 10.00058,10.52075 13.17,15.76986 1.72165,2.85145 5.34103,12.85082 6.62249,16.41352 0,0 1.98251,4.50568 1.98251,4.50568 0,0 6.23121,16.41353 6.23121,16.41353 0,0 1.94338,5.47118 1.94338,5.47118 2.61183,6.32081 5.62146,11.99795 5.53995,18.98819 -0.1337,11.14833 -9.62562,18.79188 -20.54246,18.66636 -3.20854,-0.0386 -8.03765,-1.63491 -11.08641,-2.76133 0,0 -9.12998,-3.85879 -9.12998,-3.85879 0,0 -8.47783,-3.4565 -8.47783,-3.4565 -2.05751,-0.93009 -8.21699,-3.89097 -10.1082,-4.09372 -1.08582,-0.11908 -2.85638,0.60827 -3.91285,0.99125 0,0 -8.477839,3.71074 -8.477839,3.71074 0,0 -3.58677,1.59951 -3.58677,1.59951 0,0 -4.56498,1.70894 -4.56498,1.70894 -9.55715,4.16775 -20.076184,9.6518 -30.324581,4.12913 -1.698833,-0.91401 -2.859639,-1.78295 -4.238925,-3.12179 -1.610789,-1.57055 -2.608567,-2.84179 -3.658508,-4.82429 -1.812948,-3.42753 -2.253149,-6.49782 -2.210767,-10.29868 0.0457,-3.65925 1.692303,-7.54057 2.996595,-10.94236 0,0 2.797686,-6.75851 2.797686,-6.75851 0,0 2.872679,-8.04584 2.872679,-8.04584 0,0 2.934633,-7.40218 2.934633,-7.40218 0,0 2.240108,-6.11484 2.240108,-6.11484 0,0 1.85535,-4.18384 1.85535,-4.18384 1.281461,-3.5627 4.900837,-13.56209 6.622491,-16.41353 3.433526,-5.68358 9.279979,-11.33499 13.737359,-16.41352 3.46287,-3.94569 9.82451,-11.72441 14.15799,-14.06092 3.3781,-1.81837 5.794269,-2.01469 9.456049,-2.53927 z m -1.95643,103.02223 c 1.61406,-0.2639 4.71825,-0.36045 6.19535,0.33471 1.96621,0.92688 3.05527,2.99305 4.31391,4.64406 0,0 8.23329,11.26419 8.23329,11.26419 1.4282,1.90847 5.19756,6.14702 5.77797,8.04584 1.0206,3.33742 -1.15429,8.30976 -4.30413,9.79341 -1.16407,0.55033 -2.33467,0.50205 -3.58677,0.50528 0,0 -31.628869,0 -31.628869,0 -1.1119,-0.003 -2.20423,0.0386 -3.26071,-0.37011 -4.39869,-1.69607 -4.07588,-6.69415 -2.57922,-10.25041 0.87389,-2.07905 2.95747,-3.93603 4.3824,-5.79301 0,0 7.18333,-8.68951 7.18333,-8.68951 0,0 3.38789,-4.18384 3.38789,-4.18384 1.8749,-2.09836 3.07484,-4.40913 5.885559,-5.30061 z"
     style="fill:#29572f;fill-opacity:1;stroke-width:1.55624;stroke-dasharray:none" />
  <path
     id="Auswahl #2-8-1-4-4-9"
     fill="none"
     stroke="#000000"
     stroke-width="1"
     d="m 182.32668,538.37733 c 4.56499,-0.54712 9.86364,1.27124 13.3689,4.15166 1.91077,1.57054 4.56499,4.71808 6.28664,6.65552 0,0 5.50408,6.11484 5.50408,6.11484 4.21609,4.65693 10.00058,10.52075 13.17,15.76986 1.72165,2.85145 5.34103,12.85082 6.62249,16.41352 0,0 1.98251,4.50568 1.98251,4.50568 0,0 6.23121,16.41353 6.23121,16.41353 0,0 1.94338,5.47118 1.94338,5.47118 2.61183,6.32081 5.62146,11.99795 5.53995,18.98819 -0.1337,11.14833 -9.62562,18.79188 -20.54246,18.66636 -3.20854,-0.0386 -8.03765,-1.63491 -11.08641,-2.76133 0,0 -9.12998,-3.85879 -9.12998,-3.85879 0,0 -8.47783,-3.4565 -8.47783,-3.4565 -2.05751,-0.93009 -8.21699,-3.89097 -10.1082,-4.09372 -1.08582,-0.11908 -2.85638,0.60827 -3.91285,0.99125 0,0 -8.47784,3.71074 -8.47784,3.71074 0,0 -3.58677,1.59951 -3.58677,1.59951 0,0 -4.56498,1.70894 -4.56498,1.70894 -9.55715,4.16775 -20.07618,9.6518 -30.32458,4.12913 -1.69883,-0.91401 -2.85964,-1.78295 -4.23892,-3.12179 -1.61079,-1.57055 -2.60857,-2.84179 -3.65851,-4.82429 -1.81295,-3.42753 -2.25315,-6.49782 -2.21077,-10.29868 0.0457,-3.65925 1.6923,-7.54057 2.9966,-10.94236 0,0 2.79768,-6.75851 2.79768,-6.75851 0,0 2.87268,-8.04584 2.87268,-8.04584 0,0 2.93463,-7.40218 2.93463,-7.40218 0,0 2.24011,-6.11484 2.24011,-6.11484 0,0 1.85535,-4.18384 1.85535,-4.18384 1.28146,-3.5627 4.90084,-13.56209 6.62249,-16.41353 3.43353,-5.68358 9.27998,-11.33499 13.73736,-16.41352 3.46287,-3.94569 9.82451,-11.72441 14.15799,-14.06092 3.3781,-1.81837 5.79427,-2.01469 9.45605,-2.53927 z m -1.95643,103.02223 c 1.61406,-0.2639 4.71825,-0.36045 6.19535,0.33471 1.96621,0.92688 3.05527,2.99305 4.31391,4.64406 0,0 8.23329,11.26419 8.23329,11.26419 1.4282,1.90847 5.19756,6.14702 5.77797,8.04584 1.0206,3.33742 -1.15429,8.30976 -4.30413,9.79341 -1.16407,0.55033 -2.33467,0.50205 -3.58677,0.50528 0,0 -31.62887,0 -31.62887,0 -1.1119,-0.003 -2.20423,0.0386 -3.26071,-0.37011 -4.39869,-1.69607 -4.07588,-6.69415 -2.57922,-10.25041 0.87389,-2.07905 2.95747,-3.93603 4.3824,-5.79301 0,0 7.18333,-8.68951 7.18333,-8.68951 0,0 3.38789,-4.18384 3.38789,-4.18384 1.8749,-2.09836 3.07484,-4.40913 5.88556,-5.30061 z"
     style="fill:#29572f;fill-opacity:1;stroke-width:1.55624;stroke-dasharray:none" />
  <path
     id="Auswahl #2-8-1-4-4-54"
     fill="none"
     stroke="#000000"
     stroke-width="1"
     d="m 219.82668,149.31485 c 4.56499,-0.54712 9.86364,1.27124 13.3689,4.15166 1.91077,1.57054 4.56499,4.71808 6.28664,6.65552 0,0 5.50408,6.11484 5.50408,6.11484 4.21609,4.65693 10.00058,10.52075 13.17,15.76986 1.72165,2.85145 5.34103,12.85082 6.62249,16.41352 0,0 1.98251,4.50568 1.98251,4.50568 0,0 6.23121,16.41353 6.23121,16.41353 0,0 1.94338,5.47118 1.94338,5.47118 2.61183,6.32081 5.62146,11.99795 5.53995,18.98819 -0.1337,11.14833 -9.62562,18.79188 -20.54246,18.66636 -3.20854,-0.0386 -8.03765,-1.63491 -11.08641,-2.76133 0,0 -9.12998,-3.85879 -9.12998,-3.85879 0,0 -8.47783,-3.4565 -8.47783,-3.4565 -2.05751,-0.93009 -8.21699,-3.89097 -10.1082,-4.09372 -1.08582,-0.11908 -2.85638,0.60827 -3.91285,0.99125 0,0 -8.47784,3.71074 -8.47784,3.71074 0,0 -3.58677,1.59951 -3.58677,1.59951 0,0 -4.56498,1.70894 -4.56498,1.70894 -9.55715,4.16775 -20.07618,9.6518 -30.32458,4.12913 -1.69883,-0.91401 -2.85964,-1.78295 -4.23893,-3.12179 -1.61079,-1.57055 -2.60856,-2.84179 -3.6585,-4.82429 -1.81295,-3.42753 -2.25315,-6.49782 -2.21077,-10.29868 0.0457,-3.65925 1.6923,-7.54057 2.99659,-10.94236 0,0 2.79769,-6.75851 2.79769,-6.75851 0,0 2.87268,-8.04584 2.87268,-8.04584 0,0 2.93463,-7.40218 2.93463,-7.40218 0,0 2.24011,-6.11484 2.24011,-6.11484 0,0 1.85535,-4.18384 1.85535,-4.18384 1.28146,-3.5627 4.90084,-13.56209 6.62249,-16.41353 3.43353,-5.68358 9.27998,-11.33499 13.73736,-16.41352 3.46287,-3.94569 9.82451,-11.72441 14.15799,-14.06092 3.3781,-1.81837 5.79427,-2.01469 9.45605,-2.53927 z m -1.95643,103.02223 c 1.61406,-0.2639 4.71825,-0.36045 6.19535,0.33471 1.96621,0.92688 3.05527,2.99305 4.31391,4.64406 0,0 8.23329,11.26419 8.23329,11.26419 1.4282,1.90847 5.19756,6.14702 5.77797,8.04584 1.0206,3.33742 -1.15429,8.30976 -4.30413,9.79341 -1.16407,0.55033 -2.33467,0.50205 -3.58677,0.50528 0,0 -31.62887,0 -31.62887,0 -1.1119,-0.003 -2.20423,0.0386 -3.26071,-0.37011 -4.39869,-1.69607 -4.07588,-6.69415 -2.57922,-10.25041 0.87389,-2.07905 2.95747,-3.93603 4.3824,-5.79301 0,0 7.18333,-8.68951 7.18333,-8.68951 0,0 3.38789,-4.18384 3.38789,-4.18384 1.8749,-2.09836 3.07484,-4.40913 5.88556,-5.30061 z"
     style="fill:#29572f;fill-opacity:1;stroke-width:1.55624;stroke-dasharray:none" />
  <path
     id="Auswahl #2-8-1-4-4-3"
     fill="none"
     stroke="#000000"
     stroke-width="1"
     d="m 247.95168,396.18983 c 4.56499,-0.54712 9.86364,1.27124 13.3689,4.15166 1.91077,1.57054 4.56499,4.71808 6.28664,6.65552 0,0 5.50408,6.11484 5.50408,6.11484 4.21609,4.65693 10.00058,10.52075 13.17,15.76986 1.72165,2.85145 5.34103,12.85082 6.62249,16.41352 0,0 1.98251,4.50568 1.98251,4.50568 0,0 6.23121,16.41353 6.23121,16.41353 0,0 1.94338,5.47118 1.94338,5.47118 2.61183,6.32081 5.62146,11.99795 5.53995,18.98819 -0.1337,11.14833 -9.62562,18.79188 -20.54246,18.66636 -3.20854,-0.0386 -8.03765,-1.63491 -11.08641,-2.76133 0,0 -9.12998,-3.85879 -9.12998,-3.85879 0,0 -8.47783,-3.4565 -8.47783,-3.4565 -2.05751,-0.93009 -8.21699,-3.89097 -10.1082,-4.09372 -1.08582,-0.11908 -2.85638,0.60827 -3.91285,0.99125 0,0 -8.47784,3.71074 -8.47784,3.71074 0,0 -3.58677,1.59951 -3.58677,1.59951 0,0 -4.56498,1.70894 -4.56498,1.70894 -9.55715,4.16775 -20.07618,9.6518 -30.32458,4.12913 -1.69883,-0.91401 -2.85964,-1.78295 -4.23893,-3.12179 -1.61079,-1.57055 -2.60856,-2.84179 -3.6585,-4.82429 -1.81295,-3.42753 -2.25315,-6.49782 -2.21077,-10.29868 0.0457,-3.65925 1.6923,-7.54057 2.99659,-10.94236 0,0 2.79769,-6.75851 2.79769,-6.75851 0,0 2.87268,-8.04584 2.87268,-8.04584 0,0 2.93463,-7.40218 2.93463,-7.40218 0,0 2.24011,-6.11484 2.24011,-6.11484 0,0 1.85535,-4.18384 1.85535,-4.18384 1.28146,-3.5627 4.90084,-13.56209 6.62249,-16.41353 3.43353,-5.68358 9.27998,-11.33499 13.73736,-16.41352 3.46287,-3.94569 9.82451,-11.72441 14.15799,-14.06092 3.3781,-1.81837 5.79427,-2.01469 9.45605,-2.53927 z m -1.95643,103.02223 c 1.61406,-0.2639 4.71825,-0.36045 6.19535,0.33471 1.96621,0.92688 3.05527,2.99305 4.31391,4.64406 0,0 8.23329,11.26419 8.23329,11.26419 1.4282,1.90847 5.19756,6.14702 5.77797,8.04584 1.0206,3.33742 -1.15429,8.30976 -4.30413,9.79341 -1.16407,0.55033 -2.33467,0.50205 -3.58677,0.50528 0,0 -31.62887,0 -31.62887,0 -1.1119,-0.003 -2.20423,0.0386 -3.26071,-0.37011 -4.39869,-1.69607 -4.07588,-6.69415 -2.57922,-10.25041 0.87389,-2.07905 2.95747,-3.93603 4.3824,-5.79301 0,0 7.18333,-8.68951 7.18333,-8.68951 0,0 3.38789,-4.18384 3.38789,-4.18384 1.8749,-2.09836 3.07484,-4.40913 5.88556,-5.30061 z"
     style="fill:#29572f;fill-opacity:1;stroke-width:1.55624;stroke-dasharray:none" />
  <path
     id="Auswahl #2-8-1-4-4-6"
     fill="none"
     stroke="#000000"
     stroke-width="1"
     d="m 322.95167,250.87734 c 4.56499,-0.54712 9.86364,1.27124 13.3689,4.15166 1.91077,1.57054 4.56499,4.71808 6.28664,6.65552 0,0 5.50408,6.11484 5.50408,6.11484 4.21609,4.65693 10.00058,10.52075 13.17,15.76986 1.72165,2.85145 5.34103,12.85082 6.62249,16.41352 0,0 1.98251,4.50568 1.98251,4.50568 0,0 6.23121,16.41353 6.23121,16.41353 0,0 1.94338,5.47118 1.94338,5.47118 2.61183,6.32081 5.62146,11.99795 5.53995,18.98819 -0.1337,11.14833 -9.62562,18.79188 -20.54246,18.66636 -3.20854,-0.0386 -8.03765,-1.63491 -11.08641,-2.76133 0,0 -9.12998,-3.85879 -9.12998,-3.85879 0,0 -8.47783,-3.4565 -8.47783,-3.4565 -2.05751,-0.93009 -8.21699,-3.89097 -10.1082,-4.09372 -1.08582,-0.11908 -2.85638,0.60827 -3.91285,0.99125 0,0 -8.47784,3.71074 -8.47784,3.71074 0,0 -3.58677,1.59951 -3.58677,1.59951 0,0 -4.56498,1.70894 -4.56498,1.70894 -9.55715,4.16775 -20.07618,9.6518 -30.32458,4.12913 -1.69883,-0.91401 -2.85963,-1.78295 -4.23892,-3.12179 -1.61079,-1.57055 -2.60857,-2.84179 -3.65851,-4.82429 -1.81295,-3.42753 -2.25315,-6.49782 -2.21077,-10.29868 0.0457,-3.65925 1.69231,-7.54057 2.9966,-10.94236 0,0 2.79769,-6.75851 2.79769,-6.75851 0,0 2.87267,-8.04584 2.87267,-8.04584 0,0 2.93464,-7.40218 2.93464,-7.40218 0,0 2.2401,-6.11484 2.2401,-6.11484 0,0 1.85535,-4.18384 1.85535,-4.18384 1.28146,-3.5627 4.90084,-13.56209 6.62249,-16.41353 3.43353,-5.68358 9.27998,-11.33499 13.73736,-16.41352 3.46287,-3.94569 9.82451,-11.72441 14.15799,-14.06092 3.3781,-1.81837 5.79427,-2.01469 9.45605,-2.53927 z m -1.95643,103.02223 c 1.61406,-0.2639 4.71825,-0.36045 6.19535,0.33471 1.96621,0.92688 3.05527,2.99305 4.31391,4.64406 0,0 8.23329,11.26419 8.23329,11.26419 1.4282,1.90847 5.19756,6.14702 5.77797,8.04584 1.0206,3.33742 -1.15429,8.30976 -4.30413,9.79341 -1.16407,0.55033 -2.33467,0.50205 -3.58677,0.50528 0,0 -31.62887,0 -31.62887,0 -1.1119,-0.003 -2.20423,0.0386 -3.26071,-0.37011 -4.39869,-1.69607 -4.07588,-6.69415 -2.57922,-10.25041 0.87389,-2.07905 2.95747,-3.93603 4.3824,-5.79301 0,0 7.18333,-8.68951 7.18333,-8.68951 0,0 3.38789,-4.18384 3.38789,-4.18384 1.8749,-2.09836 3.07484,-4.40913 5.88556,-5.30061 z"
     style="fill:#29572f;fill-opacity:1;stroke-width:1.55624;stroke-dasharray:none" />
  <path
     id="Auswahl #2-8-1-4-4-5"
     fill="none"
     stroke="#000000"
     stroke-width="1"
     d="m 144.82669,291.50234 c 4.56499,-0.54712 9.86364,1.27124 13.3689,4.15166 1.91077,1.57054 4.56499,4.71808 6.28664,6.65552 0,0 5.50408,6.11484 5.50408,6.11484 4.21609,4.65693 10.00058,10.52075 13.17,15.76986 1.72165,2.85145 5.34103,12.85082 6.62249,16.41352 0,0 1.98251,4.50568 1.98251,4.50568 0,0 6.23121,16.41353 6.23121,16.41353 0,0 1.94338,5.47118 1.94338,5.47118 2.61183,6.32081 5.62146,11.99795 5.53995,18.98819 -0.1337,11.14833 -9.62562,18.79188 -20.54246,18.66636 -3.20854,-0.0386 -8.03765,-1.63491 -11.08641,-2.76133 0,0 -9.12998,-3.85879 -9.12998,-3.85879 0,0 -8.47783,-3.4565 -8.47783,-3.4565 -2.05751,-0.93009 -8.21699,-3.89097 -10.1082,-4.09372 -1.08582,-0.11908 -2.85638,0.60827 -3.91285,0.99125 0,0 -8.47784,3.71074 -8.47784,3.71074 0,0 -3.58677,1.59951 -3.58677,1.59951 0,0 -4.56498,1.70894 -4.56498,1.70894 -9.55715,4.16775 -20.07618,9.6518 -30.324585,4.12913 -1.69883,-0.91401 -2.85964,-1.78295 -4.23893,-3.12179 -1.61079,-1.57055 -2.60856,-2.84179 -3.6585,-4.82429 -1.81295,-3.42753 -2.25315,-6.49782 -2.21077,-10.29868 0.0457,-3.65925 1.6923,-7.54057 2.99659,-10.94236 0,0 2.79769,-6.75851 2.79769,-6.75851 0,0 2.87268,-8.04584 2.87268,-8.04584 0,0 2.93463,-7.40218 2.93463,-7.40218 0,0 2.24011,-6.11484 2.24011,-6.11484 0,0 1.855345,-4.18384 1.855345,-4.18384 1.28147,-3.5627 4.90085,-13.56209 6.6225,-16.41353 3.43353,-5.68358 9.27998,-11.33499 13.73736,-16.41352 3.46287,-3.94569 9.82451,-11.72441 14.15799,-14.06092 3.3781,-1.81837 5.79427,-2.01469 9.45605,-2.53927 z m -1.95643,103.02223 c 1.61406,-0.2639 4.71825,-0.36045 6.19535,0.33471 1.96621,0.92688 3.05527,2.99305 4.31391,4.64406 0,0 8.23329,11.26419 8.23329,11.26419 1.4282,1.90847 5.19756,6.14702 5.77797,8.04584 1.0206,3.33742 -1.15429,8.30976 -4.30413,9.79341 -1.16407,0.55033 -2.33467,0.50205 -3.58677,0.50528 0,0 -31.62887,0 -31.62887,0 -1.1119,-0.003 -2.20423,0.0386 -3.26071,-0.37011 -4.39869,-1.69607 -4.07588,-6.69415 -2.57922,-10.25041 0.87389,-2.07905 2.95747,-3.93603 4.3824,-5.79301 0,0 7.18333,-8.68951 7.18333,-8.68951 0,0 3.38789,-4.18384 3.38789,-4.18384 1.8749,-2.09836 3.07484,-4.40913 5.88556,-5.30061 z"
     style="fill:#29572f;fill-opacity:1;stroke-width:1.55624;stroke-dasharray:none" />
  <path
     id="Auswahl #2-8-1-4-4-1"
     fill="none"
     stroke="#000000"
     stroke-width="1"
     d="m 402.63917,114.93985 c 4.56499,-0.54712 9.86364,1.27124 13.3689,4.15166 1.91077,1.57054 4.56499,4.71808 6.28664,6.65552 0,0 5.50408,6.11484 5.50408,6.11484 4.21609,4.65693 10.00058,10.52075 13.17,15.76986 1.72165,2.85145 5.34103,12.85082 6.62249,16.41352 0,0 1.98251,4.50568 1.98251,4.50568 0,0 6.23121,16.41353 6.23121,16.41353 0,0 1.94338,5.47118 1.94338,5.47118 2.61183,6.32081 5.62146,11.99795 5.53995,18.98819 -0.1337,11.14833 -9.62562,18.79188 -20.54246,18.66636 -3.20854,-0.0386 -8.03765,-1.63491 -11.08641,-2.76133 0,0 -9.12998,-3.85879 -9.12998,-3.85879 0,0 -8.47783,-3.4565 -8.47783,-3.4565 -2.05751,-0.93009 -8.21699,-3.89097 -10.1082,-4.09372 -1.08582,-0.11908 -2.85638,0.60827 -3.91285,0.99125 0,0 -8.47784,3.71074 -8.47784,3.71074 0,0 -3.58677,1.59951 -3.58677,1.59951 0,0 -4.56498,1.70894 -4.56498,1.70894 -9.55715,4.16775 -20.07618,9.6518 -30.32457,4.12913 -1.69884,-0.91401 -2.85964,-1.78295 -4.23893,-3.12179 -1.61079,-1.57055 -2.60857,-2.84179 -3.65851,-4.82429 -1.81295,-3.42753 -2.25315,-6.49782 -2.21076,-10.29868 0.0457,-3.65925 1.6923,-7.54057 2.99659,-10.94236 0,0 2.79769,-6.75851 2.79769,-6.75851 0,0 2.87268,-8.04584 2.87268,-8.04584 0,0 2.93463,-7.40218 2.93463,-7.40218 0,0 2.2401,-6.11484 2.2401,-6.11484 0,0 1.85535,-4.18384 1.85535,-4.18384 1.28146,-3.5627 4.90084,-13.56209 6.62249,-16.41353 3.43353,-5.68358 9.27998,-11.33499 13.73736,-16.41352 3.46287,-3.94569 9.82451,-11.72441 14.15799,-14.06092 3.3781,-1.81837 5.79427,-2.01469 9.45605,-2.53927 z m -1.95643,103.02223 c 1.61406,-0.2639 4.71825,-0.36045 6.19535,0.33471 1.96621,0.92688 3.05527,2.99305 4.31391,4.64406 0,0 8.23329,11.26419 8.23329,11.26419 1.4282,1.90847 5.19756,6.14702 5.77797,8.04584 1.0206,3.33742 -1.15429,8.30976 -4.30413,9.79341 -1.16407,0.55033 -2.33467,0.50205 -3.58677,0.50528 0,0 -31.62887,0 -31.62887,0 -1.1119,-0.003 -2.20423,0.0386 -3.26071,-0.37011 -4.39869,-1.69607 -4.07588,-6.69415 -2.57922,-10.25041 0.87389,-2.07905 2.95747,-3.93603 4.3824,-5.79301 0,0 7.18333,-8.68951 7.18333,-8.68951 0,0 3.38789,-4.18384 3.38789,-4.18384 1.8749,-2.09836 3.07484,-4.40913 5.88556,-5.30061 z"
     style="fill:#29572f;fill-opacity:1;stroke-width:1.55624;stroke-dasharray:none" />
  <path
     id="Auswahl #2-8-1-4-4-8"
     fill="none"
     stroke="#000000"
     stroke-width="1"
     d="m 302.63918,18.064853 c 4.56499,-0.54712 9.86364,1.27124 13.3689,4.151659 1.91077,1.57054 4.56499,4.71808 6.28664,6.65552 0,0 5.50408,6.11484 5.50408,6.11484 4.21609,4.65693 10.00058,10.52075 13.17,15.76986 1.72165,2.85145 5.34103,12.85082 6.62249,16.41352 0,0 1.98251,4.50568 1.98251,4.50568 0,0 6.23121,16.41353 6.23121,16.41353 0,0 1.94338,5.47118 1.94338,5.47118 2.61183,6.32081 5.62146,11.997948 5.53995,18.988188 -0.1337,11.14833 -9.62562,18.79188 -20.54246,18.66636 -3.20854,-0.0386 -8.03765,-1.63491 -11.08641,-2.76133 0,0 -9.12998,-3.85879 -9.12998,-3.85879 0,0 -8.47783,-3.4565 -8.47783,-3.4565 -2.05751,-0.93009 -8.21699,-3.89097 -10.1082,-4.09372 -1.08582,-0.11908 -2.85638,0.60827 -3.91285,0.99125 0,0 -8.47784,3.71074 -8.47784,3.71074 0,0 -3.58677,1.59951 -3.58677,1.59951 0,0 -4.56498,1.70894 -4.56498,1.70894 -9.55715,4.16775 -20.07618,9.6518 -30.32458,4.12913 -1.69883,-0.91401 -2.85964,-1.78295 -4.23892,-3.12179 -1.61079,-1.57055 -2.60857,-2.84179 -3.65851,-4.82429 -1.81295,-3.42753 -2.25315,-6.49782 -2.21077,-10.29868 0.0457,-3.65925 1.6923,-7.54057 2.9966,-10.942358 0,0 2.79768,-6.75851 2.79768,-6.75851 0,0 2.87268,-8.04584 2.87268,-8.04584 0,0 2.93463,-7.40218 2.93463,-7.40218 0,0 2.24011,-6.11484 2.24011,-6.11484 0,0 1.85535,-4.18384 1.85535,-4.18384 1.28146,-3.5627 4.90084,-13.56209 6.62249,-16.41353 3.43353,-5.68358 9.27998,-11.33499 13.73736,-16.41352 3.46287,-3.94569 9.82451,-11.72441 14.15799,-14.060919 3.3781,-1.81837 5.79427,-2.01469 9.45605,-2.53927 z m -1.95643,103.022227 c 1.61406,-0.2639 4.71825,-0.36045 6.19535,0.33471 1.96621,0.92688 3.05527,2.99305 4.31391,4.64406 0,0 8.23329,11.26419 8.23329,11.26419 1.4282,1.90847 5.19756,6.14702 5.77797,8.04584 1.0206,3.33742 -1.15429,8.30976 -4.30413,9.79341 -1.16407,0.55033 -2.33467,0.50205 -3.58677,0.50528 0,0 -31.62887,0 -31.62887,0 -1.1119,-0.003 -2.20423,0.0386 -3.26071,-0.37011 -4.39869,-1.69607 -4.07588,-6.69415 -2.57922,-10.25041 0.87389,-2.07905 2.95747,-3.93603 4.3824,-5.79301 0,0 7.18333,-8.68951 7.18333,-8.68951 0,0 3.38789,-4.18384 3.38789,-4.18384 1.8749,-2.09836 3.07484,-4.40913 5.88556,-5.30061 z"
     style="fill:#29572f;fill-opacity:1;stroke-width:1.55624;stroke-dasharray:none" />
  <path
     id="Auswahl #2-0-6"
     fill="none"
     stroke="#000000"
     stroke-width="1"
     d="m 57.451398,139.58146 c 2.891785,-0.348 6.248318,0.8086 8.468797,2.64074 1.210415,0.99898 2.891781,3.00103 3.982398,4.23337 0,0 3.486664,3.88946 3.486664,3.88946 2.670768,2.96213 6.335073,6.69192 8.342796,10.03072 1.090617,1.81372 3.383389,8.17401 4.195155,10.44013 0,0 1.25586,2.86592 1.25586,2.86592 0,0 3.947286,10.44014 3.947286,10.44014 0,0 1.231072,3.48004 1.231072,3.48004 1.654514,4.02047 3.561026,7.63153 3.509387,12.0778 -0.08469,7.0911 -6.097533,11.95293 -13.013027,11.87309 -2.032514,-0.0246 -5.091607,-1.03992 -7.022907,-1.7564 0,0 -5.783566,-2.45445 -5.783566,-2.45445 0,0 -5.370454,-2.19857 -5.370454,-2.19857 -1.30337,-0.59161 -5.205211,-2.47492 -6.403237,-2.60389 -0.687833,-0.0757 -1.809432,0.3869 -2.478673,0.6305 0,0 -5.370455,2.36029 -5.370455,2.36029 0,0 -2.272115,1.0174 -2.272115,1.0174 0,0 -2.891785,1.087 -2.891785,1.087 -6.054157,2.65098 -12.717652,6.13921 -19.209705,2.62641 -1.076159,-0.58137 -1.811498,-1.13408 -2.685232,-1.98567 -1.020384,-0.99898 -1.652449,-1.80757 -2.317555,-3.06858 -1.148452,-2.18015 -1.427303,-4.13306 -1.40045,-6.55067 0.0289,-2.32754 1.072024,-4.79632 1.898248,-6.96009 0,0 1.772252,-4.29888 1.772252,-4.29888 0,0 1.819757,-5.11771 1.819757,-5.11771 0,0 1.859002,-4.7083 1.859002,-4.7083 0,0 1.419043,-3.88946 1.419043,-3.88946 0,0 1.175303,-2.66121 1.175303,-2.66121 0.811766,-2.26612 3.104534,-8.62642 4.195151,-10.44013 2.175035,-3.61515 5.878586,-7.20984 8.702203,-10.44013 2.193628,-2.50973 6.223535,-7.45754 8.968661,-8.94372 2.139923,-1.1566 3.670501,-1.28147 5.990126,-1.61515 z m -1.239337,65.52924 c 1.022454,-0.16786 2.988866,-0.22928 3.924564,0.21289 1.245535,0.58956 1.935429,1.90379 2.732736,2.95395 0,0 5.21554,7.16479 5.21554,7.16479 0.904716,1.21392 3.2925,3.90993 3.660171,5.11772 0.646519,2.12282 -0.731209,5.28557 -2.726538,6.22928 -0.737408,0.35005 -1.478941,0.31934 -2.272115,0.32139 0,0 -20.035934,0 -20.035934,0 -0.704357,-0.002 -1.396316,0.0246 -2.065561,-0.23542 -2.786437,-1.07881 -2.581948,-4.25794 -1.633856,-6.51996 0.553572,-1.32242 1.873461,-2.50359 2.776112,-3.68476 0,0 4.550429,-5.52712 4.550429,-5.52712 0,0 2.146117,-2.66121 2.146117,-2.66121 1.187697,-1.3347 1.947824,-2.80451 3.728335,-3.37155 z"
     style="fill:#29572f;fill-opacity:1;stroke-width:0.987849;stroke-dasharray:none" />
  <path
     id="Auswahl #2-0-6-8"
     fill="none"
     stroke="#000000"
     stroke-width="1"
     d="m 419.76945,577.04358 c -2.89179,0.348 -6.24832,-0.8086 -8.4688,-2.64074 -1.21041,-0.99898 -2.89178,-3.00103 -3.9824,-4.23337 0,0 -3.48666,-3.88946 -3.48666,-3.88946 -2.67077,-2.96213 -6.33507,-6.69191 -8.3428,-10.03071 -1.09061,-1.81372 -3.38339,-8.17401 -4.19515,-10.44013 0,0 -1.25586,-2.86592 -1.25586,-2.86592 0,0 -3.94729,-10.44014 -3.94729,-10.44014 0,0 -1.23107,-3.48004 -1.23107,-3.48004 -1.65451,-4.02047 -3.56103,-7.63153 -3.50939,-12.0778 0.0847,-7.0911 6.09754,-11.95293 13.01303,-11.87309 2.03251,0.0246 5.09161,1.03992 7.02291,1.7564 0,0 5.78356,2.45445 5.78356,2.45445 0,0 5.37046,2.19857 5.37046,2.19857 1.30337,0.59161 5.20521,2.47492 6.40323,2.60389 0.68784,0.0757 1.80944,-0.3869 2.47868,-0.6305 0,0 5.37045,-2.36029 5.37045,-2.36029 0,0 2.27212,-1.0174 2.27212,-1.0174 0,0 2.89178,-1.087 2.89178,-1.087 6.05416,-2.65098 12.71765,-6.13921 19.20971,-2.62641 1.07616,0.58137 1.8115,1.13408 2.68523,1.98567 1.02038,0.99898 1.65245,1.80757 2.31756,3.06858 1.14845,2.18015 1.4273,4.13306 1.40045,6.55067 -0.0289,2.32754 -1.07203,4.79632 -1.89825,6.96009 0,0 -1.77225,4.29888 -1.77225,4.29888 0,0 -1.81976,5.11771 -1.81976,5.11771 0,0 -1.859,4.7083 -1.859,4.7083 0,0 -1.41905,3.88946 -1.41905,3.88946 0,0 -1.1753,2.66121 -1.1753,2.66121 -0.81177,2.26612 -3.10453,8.62642 -4.19515,10.44013 -2.17504,3.61515 -5.87859,7.20983 -8.7022,10.44012 -2.19363,2.50973 -6.22354,7.45754 -8.96867,8.94372 -2.13992,1.1566 -3.6705,1.28147 -5.99012,1.61515 z m 1.23934,-65.52923 c -1.02246,0.16786 -2.98887,0.22928 -3.92457,-0.21289 -1.24553,-0.58956 -1.93543,-1.90379 -2.73273,-2.95395 0,0 -5.21554,-7.16479 -5.21554,-7.16479 -0.90472,-1.21392 -3.2925,-3.90993 -3.66017,-5.11772 -0.64652,-2.12282 0.7312,-5.28557 2.72653,-6.22928 0.73741,-0.35005 1.47894,-0.31934 2.27212,-0.32139 0,0 20.03593,0 20.03593,0 0.70436,0.002 1.39632,-0.0246 2.06556,0.23542 2.78644,1.07881 2.58195,4.25794 1.63386,6.51996 -0.55357,1.32242 -1.87346,2.50359 -2.77611,3.68476 0,0 -4.55043,5.52712 -4.55043,5.52712 0,0 -2.14612,2.66121 -2.14612,2.66121 -1.1877,1.3347 -1.94782,2.80451 -3.72833,3.37155 z"
     style="fill:#29572f;fill-opacity:1;stroke-width:0.987849;stroke-dasharray:none" />
</svg>
