<?xml version="1.0" encoding="UTF-8" standalone="no"?>
<svg
   width="1.6in"
   height="2.4in"
   viewBox="0 0 480 720"
   version="1.1"
   id="svg1"
   sodipodi:docname="pikA.svg"
   inkscape:version="1.3.2 (091e20e, 2023-11-25, custom)"
   xmlns:inkscape="http://www.inkscape.org/namespaces/inkscape"
   xmlns:sodipodi="http://sodipodi.sourceforge.net/DTD/sodipodi-0.dtd"
   xmlns:xlink="http://www.w3.org/1999/xlink"
   xmlns="http://www.w3.org/2000/svg"
   xmlns:svg="http://www.w3.org/2000/svg">
  <defs
     id="defs1">
    <pattern
       inkscape:collect="always"
       xlink:href="#tiles-1"
       id="pattern10"
       patternTransform="matrix(4.6,0,0,4.6,76.218461,373.73705)"
       x="-2"
       y="-3"
       preserveAspectRatio="none" />
    <pattern
       patternUnits="userSpaceOnUse"
       width="15.021545"
       height="25.90893"
       patternTransform="translate(76.218461,373.73705)"
       style="fill:#d0972d"
       id="tiles-1"
       inkscape:label="Kacheln 1"
       inkscape:collect="always"
       inkscape:isstock="true">
      <path
         id="path5144"
         style="opacity:1;stroke-width:4.85611;stroke-linecap:square;paint-order:stroke markers fill;stop-color:#000000"
         d="M 7.510773,0 15.021545,12.95447 7.51077,25.90893 0,12.95447 Z"
         sodipodi:nodetypes="ccccc" />
    </pattern>
    <linearGradient
       id="swatch8"
       inkscape:swatch="solid">
      <stop
         style="stop-color:#e6e6e6;stop-opacity:1;"
         offset="0"
         id="stop9" />
    </linearGradient>
  </defs>
  <sodipodi:namedview
     id="namedview1"
     pagecolor="#ffffff"
     bordercolor="#000000"
     borderopacity="0.25"
     inkscape:showpageshadow="2"
     inkscape:pageopacity="0.0"
     inkscape:pagecheckerboard="0"
     inkscape:deskcolor="#d1d1d1"
     inkscape:document-units="in"
     inkscape:zoom="2"
     inkscape:cx="85.5"
     inkscape:cy="78.75"
     inkscape:window-width="1920"
     inkscape:window-height="1009"
     inkscape:window-x="-8"
     inkscape:window-y="-8"
     inkscape:window-maximized="1"
     inkscape:current-layer="svg1" />
  <g
     id="g2"
     transform="translate(0.0071402,0.00565841)">
    <path
       id="path1"
       fill="none"
       stroke="#000000"
       stroke-width="1"
       d="M 21,0.64 C 21,0.64 60,0 60,0 c 0,0 76,0 76,0 0,0 240,0 240,0 0,0 75,0 75,0 2.66,0 5.42,-0.11 8,0.64 8.79,2.52 18.41,12.4 20.47,21.36 0.61,2.62 0.53,5.33 0.53,8 0,0 0,530 0,530 0,0 0,129 0,129 0,2.67 0.08,5.38 -0.53,8 -2.35,10.19 -13.4,20.16 -23.47,22.47 -2.62,0.61 -5.33,0.53 -8,0.53 0,0 -344,0 -344,0 0,0 -75,0 -75,0 -2.66,0 -5.42,0.11 -8,-0.64 C 12.21,716.84 2.59,706.96 0.53,698 -0.08,695.38 0,692.67 0,690 0,690 0,167 0,167 0,167 0,47 0,47 0,47 0.53,22 0.53,22 2.81,12.1 11.8,4.08 21,0.64 Z"
       style="display:inline;fill:#ffffff;fill-opacity:1;stroke:none;stroke-width:0.9;stroke-linecap:butt;stroke-dasharray:none" />
    <path
       id="Auswahl #4"
       fill="none"
       stroke="#000000"
       stroke-width="1"
       d="m 21.409933,1.3286375 c 0,0 38.918303,-0.6389537 38.918303,-0.6389537 0,0 75.840794,0 75.840794,0 0,0 239.49725,0 239.49725,0 0,0 74.84289,0 74.84289,0 2.65443,0 5.40864,-0.10982017 7.98324,0.6389537 8.77159,2.51588 18.37144,12.3797275 20.42712,21.3250785 0.60872,2.615717 0.52889,5.321287 0.52889,7.986921 0,0 0,529.133513 0,529.133513 0,0 0,128.7891 0,128.7891 0,2.66563 0.0798,5.37121 -0.52889,7.98692 -2.34508,10.17334 -13.37192,20.12704 -23.42084,22.43327 -2.61451,0.609 -5.31882,0.52913 -7.98323,0.52913 0,0 -343.27939,0 -343.27939,0 0,0 -74.842895,0 -74.842895,0 -2.654428,0 -5.408647,0.10982 -7.983242,-0.63896 -8.771587,-2.51587 -18.3714349,-12.37972 -20.42711966,-21.32508 -0.60872215,-2.61571 -0.52888975,-5.32127 -0.52888975,-7.98691 0,0 0,-522.14496 0,-522.14496 0,0 0,-119.803815 0,-119.803815 0,0 0.52888975,-24.959129 0.52888975,-24.959129 C 3.2580372,12.769902 12.229206,4.7630135 21.409933,1.3286375 Z"
       style="display:inline;fill:url(#pattern10);fill-opacity:1;stroke-width:0.898322;stroke-linecap:butt;stroke-dasharray:none" />
    <path
       id="Auswahl #4-6"
       fill="none"
       stroke="#000000"
       stroke-width="0.998128"
       d="m 21.451861,1.1949433 c 0,0 38.918158,-0.63894645 38.918158,-0.63894645 0,0 75.840521,0 75.840521,0 0,0 239.49638,0 239.49638,0 0,0 74.84261,0 74.84261,0 2.65442,0 5.40863,-0.10981892 7.98321,0.63894645 8.77155,2.5158514 18.37137,12.3795867 20.42705,21.3248357 0.60872,2.615687 0.52889,5.321226 0.52889,7.986831 0,0 0,529.12749 0,529.12749 0,0 0,128.78763 0,128.78763 0,2.6656 0.0798,5.37114 -0.52889,7.98682 -2.34507,10.17324 -13.37188,20.12682 -23.42075,22.43301 -2.6145,0.60899 -5.31882,0.52912 -7.98321,0.52912 0,0 -343.27815,0 -343.27815,0 0,0 -74.842607,0 -74.842607,0 -2.654418,0 -5.408626,0.10983 -7.983212,-0.63894 -8.771555,-2.51585 -18.3713689,-12.37959 -20.4270458,-21.32483 -0.60872005,-2.61568 -0.52888798,-5.32122 -0.52888798,-7.98683 0,0 0,-522.13901 0,-522.13901 0,0 0,-119.802447 0,-119.802447 0,0 0.52888798,-24.958844 0.52888798,-24.958844 C 3.3000303,12.636078 12.271166,4.6292801 21.451861,1.1949433 Z"
       style="display:inline;fill:#edae00;fill-opacity:0.811765" />
  </g>
  <path
     id="Auswahl #2"
     fill="none"
     stroke="#000000"
     stroke-width="1"
     d="m 235.40622,199.06365 c 10.12254,-1.25325 21.87191,2.91199 29.64459,9.51002 4.23699,3.59759 10.12253,10.80752 13.94018,15.24553 0,0 12.20489,14.007 12.20489,14.007 9.34888,10.66744 22.1756,24.09943 29.20352,36.12334 3.81765,6.53169 11.84338,29.43684 14.68493,37.59775 0,0 4.39607,10.32096 4.39607,10.32096 0,0 13.81727,37.59776 13.81727,37.59776 0,0 4.30931,12.53258 4.30931,12.53258 5.79154,14.47882 12.46519,27.48321 12.28443,43.49544 -0.29646,25.53699 -21.3441,43.04574 -45.55144,42.75823 -7.11471,-0.0884 -17.8229,-3.74503 -24.58332,-6.32527 0,0 -20.24508,-8.83916 -20.24508,-8.83916 0,0 -18.799,-7.91765 -18.799,-7.91765 -4.56237,-2.13053 -18.22057,-8.91287 -22.4142,-9.37731 -2.40772,-0.27278 -6.33382,1.39333 -8.67646,2.27061 0,0 -18.799,8.50003 -18.799,8.50003 0,0 -7.95342,3.66394 -7.95342,3.66394 0,0 -10.12255,3.9146 -10.12255,3.9146 -21.19227,9.54687 -44.51749,22.10895 -67.24259,9.4584 -3.76703,-2.09368 -6.34105,-4.08414 -9.39951,-7.15094 -3.5718,-3.59759 -5.78431,-6.50956 -8.11248,-11.05079 -4.0201,-7.8513 -4.9962,-14.88428 -4.90221,-23.59074 0.10117,-8.38209 3.75257,-17.27285 6.64473,-25.06518 0,0 6.20367,-15.48143 6.20367,-15.48143 0,0 6.36997,-18.43027 6.36997,-18.43027 0,0 6.50734,-16.95585 6.50734,-16.95585 0,0 4.96728,-14.007 4.96728,-14.007 0,0 4.11409,-9.58374 4.11409,-9.58374 2.84155,-8.16093 10.86726,-31.06607 14.68491,-37.59776 7.6136,-13.01914 20.57769,-25.96457 30.46162,-37.59775 7.67868,-9.03822 21.78516,-26.8566 31.39434,-32.20875 7.49069,-4.16524 12.84839,-4.61494 20.96812,-5.8166 z m -4.33824,235.98859 c 3.57905,-0.60452 10.46237,-0.82568 13.73774,0.7667 4.35993,2.12316 6.77487,6.85606 9.5658,10.63794 0,0 18.25673,25.80238 18.25673,25.80238 3.16691,4.37166 11.52523,14.08073 12.81224,18.43027 2.26311,7.64488 -2.55956,19.03479 -9.5441,22.43334 -2.58126,1.26063 -5.17696,1.15004 -7.95343,1.15741 0,0 -70.13475,0 -70.13475,0 -2.46557,-0.007 -4.88774,0.0884 -7.23039,-0.84778 -9.75378,-3.88511 -9.03798,-15.334 -5.71923,-23.48017 1.93775,-4.76239 6.55795,-9.01609 9.71764,-13.2698 0,0 15.92854,-19.90469 15.92854,-19.90469 0,0 7.51237,-9.58374 7.51237,-9.58374 4.15747,-4.80662 6.81826,-10.09979 13.05084,-12.14186 z"
     style="fill:#29572f;fill-opacity:1;stroke-width:3.50736;stroke-dasharray:none" />
  <path
     id="Auswahl #2-0-6"
     fill="none"
     stroke="#000000"
     stroke-width="1"
     d="m 66.826398,152.08146 c 2.891785,-0.348 6.248318,0.8086 8.468797,2.64074 1.210415,0.99898 2.891781,3.00103 3.982398,4.23337 0,0 3.486664,3.88946 3.486664,3.88946 2.670768,2.96213 6.335073,6.69192 8.342796,10.03072 1.090617,1.81372 3.383389,8.17401 4.195155,10.44013 0,0 1.25586,2.86592 1.25586,2.86592 0,0 3.947282,10.44014 3.947282,10.44014 0,0 1.23108,3.48004 1.23108,3.48004 1.65451,4.02047 3.56102,7.63153 3.50938,12.0778 -0.0847,7.0911 -6.09753,11.95293 -13.013024,11.87309 -2.032514,-0.0246 -5.091607,-1.03992 -7.022907,-1.7564 0,0 -5.783566,-2.45445 -5.783566,-2.45445 0,0 -5.370454,-2.19857 -5.370454,-2.19857 -1.30337,-0.59161 -5.205211,-2.47492 -6.403237,-2.60389 -0.687833,-0.0757 -1.809432,0.3869 -2.478673,0.6305 0,0 -5.370455,2.36029 -5.370455,2.36029 0,0 -2.272115,1.0174 -2.272115,1.0174 0,0 -2.891785,1.087 -2.891785,1.087 -6.054157,2.65098 -12.717652,6.13921 -19.209705,2.62641 -1.076159,-0.58137 -1.811498,-1.13408 -2.685232,-1.98567 -1.020384,-0.99898 -1.652449,-1.80757 -2.317555,-3.06858 -1.148452,-2.18015 -1.427303,-4.13306 -1.40045,-6.55067 0.0289,-2.32754 1.072024,-4.79632 1.898248,-6.96009 0,0 1.772252,-4.29888 1.772252,-4.29888 0,0 1.819757,-5.11771 1.819757,-5.11771 0,0 1.859002,-4.7083 1.859002,-4.7083 0,0 1.419043,-3.88946 1.419043,-3.88946 0,0 1.175303,-2.66121 1.175303,-2.66121 0.811766,-2.26612 3.104534,-8.62642 4.195151,-10.44013 2.175035,-3.61515 5.878586,-7.20984 8.702203,-10.44013 2.193628,-2.50973 6.223535,-7.45754 8.968661,-8.94372 2.139923,-1.1566 3.670501,-1.28147 5.990126,-1.61515 z m -1.239337,65.52924 c 1.022454,-0.16786 2.988866,-0.22928 3.924564,0.21289 1.245535,0.58956 1.935429,1.90379 2.732736,2.95395 0,0 5.21554,7.16479 5.21554,7.16479 0.904716,1.21392 3.2925,3.90993 3.660171,5.11772 0.646519,2.12282 -0.731209,5.28557 -2.726538,6.22928 -0.737408,0.35005 -1.478941,0.31934 -2.272115,0.32139 0,0 -20.035934,0 -20.035934,0 -0.704357,-0.002 -1.396316,0.0246 -2.065561,-0.23542 -2.786437,-1.07881 -2.581948,-4.25794 -1.633856,-6.51996 0.553572,-1.32242 1.873461,-2.50359 2.776112,-3.68476 0,0 4.550429,-5.52712 4.550429,-5.52712 0,0 2.146117,-2.66121 2.146117,-2.66121 1.187697,-1.3347 1.947824,-2.80451 3.728335,-3.37155 z"
     style="fill:#29572f;fill-opacity:1;stroke-width:0.987849;stroke-dasharray:none" />
  <path
     id="Auswahl #2-1"
     fill="none"
     stroke="#000000"
     stroke-width="1"
     d="m 72.615938,29.685668 c 11.79839,4.147626 31.250942,45.36803 53.114462,74.686182 6.06613,8.13443 7.32618,16.29669 7.5263,21.33632 -0.2368,15.64358 -17.04864,26.36918 -36.384281,26.19305 5.973501,-7.40799 27.330891,-24.5355 18.680071,-37.50425 C 86.610192,71.008573 72.894564,34.634759 53.447472,31.433861 c -7.490356,-0.11189 0.06546,29.543151 7.002854,44.566074 1.658157,3.590759 13.736534,-16.439686 21.263771,-3.864401 2.083769,3.481234 18.479223,15.054172 16.539531,15.713605 C 93.390915,89.502307 78.940756,73.039278 69.754698,81.613028 53.312363,96.959386 43.116335,125.26323 40.35582,151.56618 25.092151,145.06002 45.078202,88.681533 45.186586,80.981687 45.328089,71.990093 33.086801,52.227874 29.716431,39.451769 11.748868,-15.58732 70.044485,42.913524 36.589119,9.8210623 104.55107,23.236148 54.215191,18.71408 72.615938,29.685668 Z"
     style="fill:#29572f;fill-opacity:1;stroke-width:2.4534;stroke-dasharray:none"
     sodipodi:nodetypes="csccscssssccccc" />
  <path
     id="Auswahl #2-0-6-7"
     fill="none"
     stroke="#000000"
     stroke-width="1"
     d="m 420.78236,561.46132 c -2.89179,0.348 -6.24832,-0.8086 -8.4688,-2.64074 -1.21042,-0.99898 -2.89178,-3.00103 -3.9824,-4.23337 0,0 -3.48666,-3.88946 -3.48666,-3.88946 -2.67077,-2.96213 -6.33508,-6.69192 -8.3428,-10.03072 -1.09062,-1.81372 -3.38339,-8.17401 -4.19515,-10.44013 0,0 -1.25586,-2.86592 -1.25586,-2.86592 0,0 -3.94729,-10.44014 -3.94729,-10.44014 0,0 -1.23108,-3.48004 -1.23108,-3.48004 -1.65451,-4.02047 -3.56102,-7.63153 -3.50938,-12.0778 0.0847,-7.0911 6.09753,-11.95293 13.01303,-11.87309 2.03251,0.0246 5.09161,1.03992 7.02291,1.7564 0,0 5.78356,2.45445 5.78356,2.45445 0,0 5.37046,2.19857 5.37046,2.19857 1.30337,0.59161 5.20521,2.47492 6.40323,2.60389 0.68784,0.0757 1.80943,-0.3869 2.47868,-0.6305 0,0 5.37045,-2.36029 5.37045,-2.36029 0,0 2.27212,-1.0174 2.27212,-1.0174 0,0 2.89178,-1.087 2.89178,-1.087 6.05416,-2.65098 12.71765,-6.13921 19.20971,-2.62641 1.07615,0.58137 1.81149,1.13408 2.68523,1.98567 1.02038,0.99898 1.65245,1.80757 2.31755,3.06858 1.14845,2.18015 1.42731,4.13306 1.40045,6.55067 -0.0289,2.32754 -1.07202,4.79632 -1.89825,6.96009 0,0 -1.77225,4.29888 -1.77225,4.29888 0,0 -1.81975,5.11771 -1.81975,5.11771 0,0 -1.85901,4.7083 -1.85901,4.7083 0,0 -1.41904,3.88946 -1.41904,3.88946 0,0 -1.1753,2.66121 -1.1753,2.66121 -0.81177,2.26612 -3.10454,8.62642 -4.19515,10.44013 -2.17504,3.61515 -5.87859,7.20984 -8.70221,10.44013 -2.19362,2.50973 -6.22353,7.45754 -8.96866,8.94372 -2.13992,1.1566 -3.6705,1.28147 -5.99012,1.61515 z m 1.23933,-65.52924 c -1.02245,0.16786 -2.98886,0.22928 -3.92456,-0.21289 -1.24554,-0.58956 -1.93543,-1.90379 -2.73274,-2.95395 0,0 -5.21554,-7.16479 -5.21554,-7.16479 -0.90471,-1.21392 -3.2925,-3.90993 -3.66017,-5.11772 -0.64652,-2.12282 0.73121,-5.28557 2.72654,-6.22928 0.73741,-0.35005 1.47894,-0.31934 2.27212,-0.32139 0,0 20.03593,0 20.03593,0 0.70436,0.002 1.39632,-0.0246 2.06556,0.23542 2.78644,1.07881 2.58195,4.25794 1.63386,6.51996 -0.55358,1.32242 -1.87346,2.50359 -2.77612,3.68476 0,0 -4.55042,5.52712 -4.55042,5.52712 0,0 -2.14612,2.66121 -2.14612,2.66121 -1.1877,1.3347 -1.94783,2.80451 -3.72834,3.37155 z"
     style="fill:#29572f;fill-opacity:1;stroke-width:0.987849;stroke-dasharray:none" />
  <path
     id="Auswahl #2-1-3"
     fill="none"
     stroke="#000000"
     stroke-width="1"
     d="m 414.99282,683.85711 c -11.79839,-4.14762 -31.25095,-45.36803 -53.11447,-74.68618 -6.06613,-8.13443 -7.32618,-16.29669 -7.5263,-21.33632 0.2368,-15.64358 17.04864,-26.36918 36.38429,-26.19305 -5.97351,7.40799 -27.3309,24.5355 -18.68008,37.50425 28.9423,43.3884 42.65793,79.76221 62.10502,82.96311 7.49036,0.11189 -0.0655,-29.54315 -7.00285,-44.56608 -1.65816,-3.59075 -13.73654,16.43969 -21.26377,3.86441 -2.08377,-3.48124 -18.47923,-15.05418 -16.53953,-15.71361 4.86271,-1.65317 19.31287,14.80986 28.49893,6.23611 16.44233,-15.34636 26.63836,-43.6502 29.39887,-69.95315 15.26367,6.50616 -4.72238,62.88465 -4.83076,70.58449 -0.1415,8.9916 12.09978,28.75382 15.47015,41.52992 17.96757,55.03909 -40.32805,-3.46175 -6.87268,29.63071 -67.96196,-13.41509 -17.62608,-8.89302 -36.02682,-19.86461 z"
     style="fill:#29572f;fill-opacity:1;stroke-width:2.4534;stroke-dasharray:none"
     sodipodi:nodetypes="csccscssssccccc" />
</svg>
