<?xml version="1.0" encoding="UTF-8" standalone="no"?>
<svg
   width="1.6in"
   height="2.4in"
   viewBox="0 0 480 720"
   version="1.1"
   id="svg1"
   sodipodi:docname="rueckseite_2.0.svg"
   inkscape:version="1.3.2 (091e20e, 2023-11-25, custom)"
   xmlns:inkscape="http://www.inkscape.org/namespaces/inkscape"
   xmlns:sodipodi="http://sodipodi.sourceforge.net/DTD/sodipodi-0.dtd"
   xmlns:xlink="http://www.w3.org/1999/xlink"
   xmlns="http://www.w3.org/2000/svg"
   xmlns:svg="http://www.w3.org/2000/svg">
  <defs
     id="defs1">
    <linearGradient
       id="linearGradient14"
       inkscape:collect="always">
      <stop
         style="stop-color:#fdbb00;stop-opacity:1;"
         offset="0"
         id="stop14" />
      <stop
         style="stop-color:#d0972d;stop-opacity:1;"
         offset="1"
         id="stop15" />
    </linearGradient>
    <linearGradient
       id="linearGradient12"
       inkscape:collect="always">
      <stop
         style="stop-color:#94002f;stop-opacity:0.81176472;"
         offset="0"
         id="stop12" />
      <stop
         style="stop-color:#0100b1;stop-opacity:0.81176472;"
         offset="1"
         id="stop13" />
    </linearGradient>
    <color-profile
       name="Adobe-RGB-1998"
       xlink:href="../../../../../../WINDOWS/system32/spool/drivers/color/AdobeRGB1998.icc"
       id="color-profile1" />
    <linearGradient
       inkscape:collect="always"
       xlink:href="#linearGradient12"
       id="linearGradient13"
       x1="-92.338707"
       y1="125.88791"
       x2="396.3847"
       y2="683.89026"
       gradientUnits="userSpaceOnUse"
       gradientTransform="matrix(1.1357453,0,0,0.99990875,0.03746667,0.03285161)" />
    <linearGradient
       inkscape:collect="always"
       xlink:href="#linearGradient14"
       id="linearGradient15"
       x1="1.9020343"
       y1="360.31392"
       x2="420.88723"
       y2="360.31392"
       gradientUnits="userSpaceOnUse"
       gradientTransform="matrix(1.1357453,0,0,0.99990875,0.03746667,0.03285161)" />
  </defs>
  <sodipodi:namedview
     id="namedview1"
     pagecolor="#ffffff"
     bordercolor="#000000"
     borderopacity="0.30588235"
     inkscape:showpageshadow="2"
     inkscape:pageopacity="0.0"
     inkscape:pagecheckerboard="0"
     inkscape:deskcolor="#d1d1d1"
     inkscape:document-units="in"
     inkscape:zoom="2.8284271"
     inkscape:cx="62.225397"
     inkscape:cy="112.60675"
     inkscape:window-width="1920"
     inkscape:window-height="1009"
     inkscape:window-x="-8"
     inkscape:window-y="-8"
     inkscape:window-maximized="1"
     inkscape:current-layer="svg1" />
  <path
     style="fill:#000000;fill-opacity:1;stroke:#0000ff;stroke-width:0.885507"
     d="M 18.099121,716.80901 C 12.06036,713.79962 4.3069278,705.37661 2.4618555,699.82137 1.1613549,695.90572 1.0577142,666.19404 1.270165,358.18775 L 1.5028528,20.84276 3.8487905,16.857885 C 6.9964615,11.511162 12.609865,6.0936471 17.695688,3.4941984 L 21.86901,1.3611437 239.63066,1.1110374 457.3923,0.86093123 462.04465,3.1372262 c 6.03172,2.951196 13.848,11.3486288 15.74471,16.9153518 1.31003,3.84498 1.43269,32.914251 1.43269,339.504672 0,310.67801 -0.10846,335.62008 -1.47652,339.66364 -2.13004,6.29537 -11.37186,15.3806 -18.2587,17.94927 l -5.12479,1.91145 H 238.51076 22.659474 Z"
     id="path9" />
  <path
     style="fill:url(#linearGradient15);fill-opacity:1;stroke:#000000;stroke-width:2.3999999;stroke-dasharray:none"
     d="M 10.194363,711.94536 C 6.2347958,708.69557 4.0598631,704.0194 1.5124762,699.34177 -0.01767575,696.53206 1.4080005,682.29707 0.88212711,357.44204 0.37692783,45.358322 0.57139312,21.106268 1.8870535,18.530756 6.0349033,10.411002 16.639139,1.6087909 21.76645,1.2219263 L 25.466751,0.94273205 235.01866,0.37207561 c 6.52028,-0.0177562 201.96244,0.36056341 221.61271,0.38862483 6.50431,0.009289 19.29346,11.63387656 20.89404,17.77354056 l 1.46584,5.62278 0.28755,172.502409 c 0.0605,36.30759 0.21947,245.44593 0.13618,338.2144 l -0.14319,159.51223 -0.9808,3.93814 c -1.52529,6.12439 -10.72151,16.63177 -17.40534,18.76772 l -7.04904,2.25266 -215.7724,0.0983 c -114.56937,-0.28979 -205.53078,1.10267 -216.92352,-0.2863 -5.95594,-1.52521 -9.442561,-5.977 -10.946327,-7.21121 z"
     id="path10"
     sodipodi:nodetypes="ssssscssscsscsscccs" />
  <path
     id="Auswahl"
     fill="none"
     stroke="#000000"
     stroke-width="0.987743"
     d="M 8.6012239,41.517743 C 8.1567074,25.790784 12.296694,21.613036 15.587224,17.028673 20.049664,12.427267 23.912246,10.743652 27.83842,9.6409228 34.038823,8.2305762 37.335323,7.533893 40.96398,7.533893 L 23.806409,23.982604 Z m 0.337716,38.55129 c 0,-4.389035 -0.4524534,-11.566794 0.897289,-15.018171 C 11.058822,61.948611 24.829736,46.527777 27.157553,43.56518 L 42.826708,24.386673 C 46.093478,20.21709 52.881355,10.085161 57.126201,8.4492471 58.974762,7.7410167 61.81546,7.9816012 63.81995,7.9397522 L 69.550284,7.8201163 33.929132,49.975361 Z M 8.6875101,122.10901 V 107.28468 L 12.153469,101.37431 27.992244,82.671193 69.489097,31.603024 83.795808,17.352431 91.546939,10.570648 98.612254,8.3355882 108.54074,8.1600559 89.898174,28.208491 69.683858,49.330949 33.039082,94.178792 Z m 1.0686901,40.65257 -1.0686901,-15.57659 c -0.07834,-1.14183 -0.1173691,-5.04739 0.5868448,-6.98255 1.0758821,-2.98255 4.0198871,-5.62594 6.0934061,-7.98005 L 30.289519,116.72402 56.446906,86.337018 89.424914,50.743328 120.45508,18.408203 C 127.63415,10.50794 128.81661,7.8669248 140.01557,7.8469745 L 150.15331,7.6904338 124.98918,34.055248 85.510031,79.216172 31.459584,138.81183 Z m -1.4243033,42.29713 0.3556132,-16.97588 c 0.043665,-2.08445 1.3050838,-4.89085 2.0092979,-6.82603 1.163909,-3.22194 9.79505,-11.83497 12.572783,-14.7078 L 55.891893,131.79278 92.17847,91.109754 120.89825,59.717386 131.47299,48.90134 156.28879,19.503988 c 5.5848,-6.104748 7.79526,-11.8005185 16.7153,-11.970095 h 15.02729 L 156.98801,41.409148 82.042387,123.94747 31.13359,179.49484 Z m 0.3556132,48.85964 v -23.94019 c 0.019561,-11.39154 0.6495897,-12.2172 7.7699739,-20.57633 l 35.53346,-37.65048 74.153576,-78.431776 34.8488,-37.905302 36.10648,-37.16261 C 207.00769,7.9773308 206.76741,7.5538433 217.10567,7.533893 H 234.6228 L 214.12235,30.476575 185.80709,61.39932 103.6488,151.17503 37.090804,223.99311 Z m 0,46.88287 V 276.86103 C 8.707071,264.16276 9.6884687,262.19994 17.591314,253.29219 L 58.481855,210.65416 153.35511,111.92263 197.9891,64.391845 237.82332,21.499004 c 6.92477,-7.162107 10.51505,-11.390634 20.62835,-11.46046 l 14.31605,-2.504651 -21.42962,24.937698 -33.25453,36.907794 -48.17998,53.865425 -50.52735,55.86044 -75.390009,83.79067 z m 0,44.55301 V 323.7439 c 0,-2.12469 1.3913699,-9.42516 2.0858029,-11.41019 1.613824,-4.61847 4.571935,-9.44929 8.044101,-13.46925 L 61.249068,253.48873 159.76778,143.50805 227.935,72.00511 273.43184,23.348604 c 3.78515,-4.049883 11.99023,-11.428253 16.77303,-13.223767 1.89745,-0.7182067 8.77556,-2.6293794 10.81929,-2.6669102 L 313.93618,7.2208116 299.34202,22.161667 267.06554,58.071951 162.33329,174.78037 55.72313,293.48381 Z m 0,35.24762 L 8.1791765,363.18829 9.4740964,352.21828 24.209929,336.14361 51.80142,305.22086 76.70136,277.75676 140.47258,207.9312 263.42521,75.68206 290.61819,45.868802 310.60845,24.921136 325.13195,9.6425282 337.32067,7.533893 h 20.53956 L 333.44749,34.466607 291.39028,79.354463 262.94785,110.2772 165.21861,214.01802 60.5646,325.73892 23.358633,365.63923 Z m -0.7112264,56.34832 0.7112264,-34.40314 c 0.043092,-2.08444 -0.1173691,-5.04739 0.5868448,-6.98256 1.3595241,-3.7606 14.5439731,-17.42647 17.9965771,-20.94766 l 35.298723,-37.9053 16.372972,-16.95764 19.639743,-20.94768 62.6457,-66.83303 28.44241,-30.92273 97.72925,-103.740824 62.59679,-66.833031 c 4.56761,-4.867839 17.2728,-20.369111 22.53484,-22.344177 1.89747,-0.7182057 4.80235,-0.598505 6.84652,-0.598505 h 12.71498 L 363.81672,40.451654 315.96929,94.317081 174.41418,250.00132 80.882903,354.02644 29.678472,411.36454 Z m 0.7112264,44.63303 v -19.1857 c 0,-2.15462 -0.1075881,-4.9576 0.5672832,-6.98256 1.5257967,-4.50873 15.8545927,-19.51126 19.8842617,-23.94019 l 32.53077,-36.90779 24.989813,-27.93022 54.879782,-61.84549 124.54805,-140.64862 52.37591,-58.85296 65.53102,-73.815587 14.95476,-16.957635 c 1.71163,-1.805489 4.93929,-5.486293 7.1106,-6.4139753 1.6823,-0.7082307 4.72411,-0.5685797 6.57266,-0.5685797 h 13.42676 L 396.70567,38.514902 341.66719,99.87252 176.19501,289.47905 55.180577,427.38997 26.478508,461.65481 Z m 0,48.64483 v -21.94516 c 0.00978,-2.62344 -0.1467113,-5.51622 0.8313634,-7.98006 1.4279895,-3.59104 5.2522605,-7.08231 7.8050385,-9.97509 L 32.141745,473.37008 94.591826,402.54703 266.733,207.03547 l 73.60014,-83.79066 42.14524,-47.880378 39.66094,-44.887857 9.6438,-10.972587 c 4.55785,-5.366593 8.47993,-12.2593722 16.06001,-11.9202194 4.03945,0.1795514 8.02869,-0.2747681 10.6695,2.6878304 L 422.95334,50.914605 342.48489,143.19497 167.29213,346.68659 54.81352,477.36011 Z M 467.49283,17.19589 c 2.61146,2.094767 0.86476,6.911371 2.18517,10.113369 1.64316,3.770581 0.30874,16.474071 -1.42245,20.124951 -1.36931,2.733171 -9.54602,12.000019 -12.02055,14.962618 L 372.26728,162.14763 125.38004,451.54205 48.615029,543.75554 7.6816839,591.29998 11.704988,560.69771 c 0.01956,-11.66086 3.839739,-22.25181 11.282889,-30.80045 l 20.16313,-21.27845 92.248853,-104.73833 63.44679,-74.15153 151.7126,-175.999 72.28793,-83.678686 z m 0.88986,45.200938 0.97807,5.985048 0.16351,20.459794 -7.58709,13.73205 -30.81839,40.38049 -65.03443,78.0899 L 127.5572,507.28536 43.621392,609.9339 22.014426,634.22368 9.3987364,648.67667 8.6875101,616.01372 C 8.707071,604.78177 12.511783,603.42517 19.573483,595.06605 l 18.456273,-21.94517 84.828434,-100.7483 225.9353,-268.32963 77.26791,-91.77072 z m 3.64612,42.003442 -0.0277,23.15632 -0.50661,21.23032 -4.8579,12.06131 -8.58463,10.0085 -15.5548,17.48092 -59.48615,69.03934 -236.69411,270.3464 -80.64652,90.6567 -30.994597,34.79625 -26.5425998,29.8089 0.5543723,-12.10857 C 8.8342666,663.19584 9.4924767,660.57239 14.10899,654.91653 L 39.086075,627.98381 126.30102,521.25047 356.3374,246.81927 434.11423,153.22444 Z m -1.01605,67.94897 c 1.44754,3.70075 2.16563,26.6948 0.50292,30.18608 l -26.90711,29.22656 -75.74471,86.56487 -229.80496,266.9025 -73.889313,84.27854 -37.564724,43.04043 C 20.304078,711.21595 7.5720511,698.95651 9.3717087,691.82433 10.144388,688.7919 17.0985,681.37044 19.44588,678.85672 l 21.488304,-23.94019 35.406311,-39.90032 36.589785,-40.89783 57.95093,-64.838 137.90856,-154.61373 98.78555,-110.72339 39.123,-43.89034 z m -2.63007,42.6663 0.97807,21.94518 -0.52222,22.23158 -16.92663,19.20036 -56.44104,61.19938 -249.34188,280.15689 -60.229853,66.94956 -16.350293,19.0782 -6.872042,6.87072 -11.655315,0.26268 H 36.894826 L 59.478937,685.83927 90.689306,649.929 196.32138,528.23302 385.08984,310.77629 438.76659,248.93082 Z m 0.81172,54.57559 c 1.79966,4.61847 0.71705,23.26894 0.60947,29.42357 -0.13693,7.25187 0.41645,15.49049 -4.09247,20.79724 l -24.89308,24.40739 -19.55005,20.34939 -19.80602,21.31902 -25.10811,26.58313 -29.07595,29.33556 -94.24876,98.36019 -49.96063,53.90193 -27.96518,31.66543 -30.92045,35.79375 -27.47339,31.92027 c -3.52107,3.70075 -10.58968,12.48384 -16.828202,18.59735 -1.68229,0.70822 -12.077603,0.72665 -13.926165,0.72665 H 70.306226 L 116.00188,659.90407 216.43152,547.74042 401.37093,340.70154 444.2495,295.02466 Z m -13.61379,67.36748 14.49137,-13.46953 -0.71123,34.17009 -2.1871,9.80028 -8.83884,10.42295 -38.67833,40.62475 -215.354,217.45672 -55.63036,57.71737 -18.77397,18.9678 -8.73203,0.12296 H 106.495 l 33.16653,-37.90532 54.77217,-60.84797 86.14627,-92.28037 104.56412,-109.98069 58.1519,-62.74121 z m 12.80207,41.64822 c 1.71164,4.39901 1.00742,16.63844 0.97807,21.94519 -0.0195,2.46383 -0.96905,3.75901 -2.06446,6.04331 -2.2887,4.77806 -11.55237,12.53843 -15.70918,16.87761 l -27.92828,29.24079 -16.83968,17.27073 -34.46662,35.08757 -37.38388,40.36642 -23.61181,24.8647 -24.84588,26.67789 -53.36631,59.0741 -27.92123,29.39766 c -4.13725,4.409 -21.14769,23.00023 -26.175,24.88553 -1.89746,0.7182 -7.20013,2.43367 -9.24431,2.43367 H 141.7057 l 36.18877,-37.90532 71.39945,-72.81807 z m 2.4893,42.89285 c 1.65294,4.24938 0.76832,11.84826 0.62245,16.64456 l -0.35561,11.6935 c -0.0587,9.49628 -10.81216,16.80371 -17.15986,23.27754 l -29.69785,30.18004 -63.39734,63.93868 -31.12032,30.5115 -17.7823,18.8096 -29.24109,29.75426 -22.41534,23.62645 -27.65808,28.87107 c -6.70959,6.84291 -10.6121,13.89527 -20.53957,13.96512 l -14.80217,0.78117 21.48242,-23.72386 44.69539,-47.13529 132.54156,-143.38871 54.89934,-58.85298 z m 1.41223,54.92119 c 1.42797,3.65089 -0.47097,20.1474 -2.13368,23.56885 -1.62361,3.28179 -17.91633,18.65725 -21.29067,22.25825 l -28.40329,30.92275 -23.56184,25.93521 -33.14368,32.91777 -40.56258,43.46135 -15.72997,16.22017 -27.93456,30.20143 c -7.40403,7.90027 -8.50237,10.84539 -19.87737,10.86535 l -20.57935,0.3036 c 6.29882,-8.9676 24.67683,-27.09826 33.25455,-35.2479 l 30.32033,-30.82299 10.75881,-9.99503 29.34226,-29.9053 9.78074,-9.02745 28.36417,-28.88783 11.7369,-10.98255 28.36417,-28.90777 10.75882,-9.99504 29.34225,-29.87536 z m -1.76785,43.16943 c 1.77033,4.54863 1.08566,17.67017 0.97807,23.60534 -0.1467,7.80051 -5.78188,9.69578 -10.93634,14.96263 l -17.60536,17.95513 -95.85133,97.75578 -27.3861,27.93022 c -5.50655,5.61597 -8.44078,10.813 -16.62727,10.9726 h -16.62726 l 21.33033,-21.55208 22.23791,-23.3723 35.12103,-39.49478 38.76921,-40.3276 z m 0.35562,44.80783 c 1.80943,4.64838 1.34347,19.14059 1.33368,24.99595 -0.0195,11.37161 -8.57641,13.75179 -16.53795,20.9139 l -17.60535,16.6883 -67.48716,63.92031 -14.67113,13.91524 c -2.47451,2.40399 -5.60437,6.14465 -8.80267,7.34166 -1.89746,0.7182 -4.80234,0.59851 -6.84652,0.59851 h -17.60534 l 17.60534,-18.95267 31.2984,-31.92025 z m 1.24465,42.32318 c 1.18799,5.04513 0.11838,18.00212 0.089,23.15924 -0.0195,2.42395 0.18669,5.21776 -0.90872,7.45219 -1.73119,3.52119 -18.75906,17.70348 -22.46597,21.57382 l -8.85157,9.97507 -22.4566,22.9427 c -4.01011,4.08977 -17.32172,18.77309 -21.51765,20.34916 -1.89747,0.7182 -4.80235,0.59851 -6.84653,0.59851 l -32.63138,-0.0783 39.0338,-37.01758 44.10186,-40.46822 z m -0.35561,38.47144 c 1.72141,4.41895 0.23103,20.04893 0.17793,25.13602 l -0.17781,17.03589 c -0.1467,10.87284 -7.27539,21.09191 -17.42782,24.06449 -2.52342,0.74813 -9.75698,1.34285 -12.35866,1.34285 l -39.5664,-0.0783 26.14091,-24.46807 14.88735,-15.12092 z"
     style="fill:url(#linearGradient13);fill-opacity:1;stroke-width:2.3999999;stroke-dasharray:none"
     sodipodi:nodetypes="cccccccccccscccccccccccccccccscccccccccccccscccccccccccccccccccccccccccccccccccccccccccscccccccscccccccccccccccccccccccccccsccccccccccsccccccccsccccccccccsccccccccccccccccccccccccccccccccccccccccccccccccccccccccccccccccccccccccccccccccccccccccccccccccccccccccccccccccccccccccccccsccccccccccccccccccccccccccccccccccccscccccscccccccccccccccccccccccccccccccccccccccccccsccccccccccccccscccccccccccscccccsccscccc" />
</svg>
