<?xml version="1.0" encoding="UTF-8" standalone="no"?>
<svg
   width="1.6in"
   height="2.4in"
   viewBox="0 0 480 720"
   version="1.1"
   id="svg1"
   sodipodi:docname="herz2.svg"
   inkscape:version="1.3.2 (091e20e, 2023-11-25, custom)"
   xmlns:inkscape="http://www.inkscape.org/namespaces/inkscape"
   xmlns:sodipodi="http://sodipodi.sourceforge.net/DTD/sodipodi-0.dtd"
   xmlns:xlink="http://www.w3.org/1999/xlink"
   xmlns="http://www.w3.org/2000/svg"
   xmlns:svg="http://www.w3.org/2000/svg">
  <defs
     id="defs1">
    <pattern
       inkscape:collect="always"
       xlink:href="#tiles-1"
       id="pattern10"
       patternTransform="matrix(4.6,0,0,4.6,76.218461,373.73705)"
       x="-2"
       y="-3"
       preserveAspectRatio="none" />
    <pattern
       patternUnits="userSpaceOnUse"
       width="15.021545"
       height="25.90893"
       patternTransform="translate(76.218461,373.73705)"
       style="fill:#d0972d"
       id="tiles-1"
       inkscape:label="Kacheln 1"
       inkscape:collect="always"
       inkscape:isstock="true">
      <path
         id="path5144"
         style="opacity:1;stroke-width:4.85611;stroke-linecap:square;paint-order:stroke markers fill;stop-color:#000000"
         d="M 7.510773,0 15.021545,12.95447 7.51077,25.90893 0,12.95447 Z"
         sodipodi:nodetypes="ccccc" />
    </pattern>
    <linearGradient
       id="swatch8"
       inkscape:swatch="solid">
      <stop
         style="stop-color:#e6e6e6;stop-opacity:1;"
         offset="0"
         id="stop9" />
    </linearGradient>
  </defs>
  <sodipodi:namedview
     id="namedview1"
     pagecolor="#ffffff"
     bordercolor="#000000"
     borderopacity="0.25"
     inkscape:showpageshadow="2"
     inkscape:pageopacity="0.0"
     inkscape:pagecheckerboard="0"
     inkscape:deskcolor="#d1d1d1"
     inkscape:document-units="in"
     inkscape:zoom="2"
     inkscape:cx="130"
     inkscape:cy="123.75"
     inkscape:window-width="1920"
     inkscape:window-height="1009"
     inkscape:window-x="-8"
     inkscape:window-y="-8"
     inkscape:window-maximized="1"
     inkscape:current-layer="svg1" />
  <path
     id="Auswahl #4"
     fill="none"
     stroke="#000000"
     stroke-width="1"
     d="M 21,0.64 C 21,0.64 60,0 60,0 c 0,0 76,0 76,0 0,0 240,0 240,0 0,0 75,0 75,0 2.66,0 5.42,-0.11 8,0.64 8.79,2.52 18.41,12.4 20.47,21.36 0.61,2.62 0.53,5.33 0.53,8 0,0 0,530 0,530 0,0 0,129 0,129 0,2.67 0.08,5.38 -0.53,8 -2.35,10.19 -13.4,20.16 -23.47,22.47 -2.62,0.61 -5.33,0.53 -8,0.53 0,0 -344,0 -344,0 0,0 -75,0 -75,0 -2.66,0 -5.42,0.11 -8,-0.64 C 12.21,716.84 2.59,706.96 0.53,698 -0.08,695.38 0,692.67 0,690 0,690 0,167 0,167 0,167 0,47 0,47 0,47 0.53,22 0.53,22 2.81,12.1 11.8,4.08 21,0.64 Z"
     style="fill:url(#pattern10);fill-opacity:1;stroke-width:0.9;stroke-linecap:butt;stroke-dasharray:none" />
  <path
     id="Auswahl #4-6"
     fill="none"
     stroke="#000000"
     stroke-width="1"
     d="m 21.040171,0.64451702 c 0,0 38.999997,-0.64 38.999997,-0.64 0,0 75.999992,0 75.999992,0 0,0 240,0 240,0 0,0 75,0 75,0 2.66,0 5.42,-0.11 8,0.64 8.79,2.51999998 18.41,12.39999998 20.47,21.35999998 0.61,2.62 0.53,5.33 0.53,8 0,0 0,529.999993 0,529.999993 0,0 0,129 0,129 0,2.67 0.08,5.38 -0.53,8 -2.35,10.19 -13.4,20.16 -23.47,22.47 -2.62,0.61 -5.33,0.53 -8,0.53 0,0 -344,0 -344,0 0,0 -74.999989,0 -74.999989,0 -2.66,0 -5.42,0.11 -8,-0.64 -8.79,-2.52 -18.4100004,-12.4 -20.47000035,-21.36 -0.61000002,-2.62 -0.53000002,-5.33 -0.53000002,-8 0,0 0,-523 0,-523 0,0 0,-119.999993 0,-119.999993 0,0 0.53000002,-25 0.53000002,-25 2.27999995,-9.9 11.27000035,-17.92 20.47000035,-21.35999998 z"
     style="fill:#edae00;fill-opacity:0.811765" />
  <text
     xml:space="preserve"
     style="font-style:normal;font-variant:normal;font-weight:normal;font-stretch:normal;font-size:158.333px;font-family:'MV Boli';-inkscape-font-specification:'MV Boli, Normal';font-variant-ligatures:normal;font-variant-caps:normal;font-variant-numeric:normal;font-variant-east-asian:normal;fill:#658dd8;fill-opacity:1;stroke:#000000;stroke-width:5.8924"
     x="-464.11038"
     y="-590.51331"
     id="text1-1"
     transform="scale(-1.0027661,-0.99724149)"><tspan
       id="tspan1-1"
       style="font-style:normal;font-variant:normal;font-weight:normal;font-stretch:normal;font-size:158.333px;font-family:'MV Boli';-inkscape-font-specification:'MV Boli, Normal';font-variant-ligatures:normal;font-variant-caps:normal;font-variant-numeric:normal;font-variant-east-asian:normal;fill:#658dd8;fill-opacity:1;stroke-width:5.8924"
       x="-464.11038"
       y="-590.51331"
       sodipodi:role="line">2</tspan></text>
  <text
     xml:space="preserve"
     style="font-style:normal;font-variant:normal;font-weight:normal;font-stretch:normal;font-size:158.333px;font-family:'MV Boli';-inkscape-font-specification:'MV Boli, Normal';font-variant-ligatures:normal;font-variant-caps:normal;font-variant-numeric:normal;font-variant-east-asian:normal;fill:#658dd8;fill-opacity:1;stroke:#000000;stroke-width:5.8924"
     x="13.839767"
     y="129.07295"
     id="text1-1-2"
     transform="scale(1.0027661,0.99724153)"><tspan
       id="tspan1-1-2"
       style="font-style:normal;font-variant:normal;font-weight:normal;font-stretch:normal;font-size:158.333px;font-family:'MV Boli';-inkscape-font-specification:'MV Boli, Normal';font-variant-ligatures:normal;font-variant-caps:normal;font-variant-numeric:normal;font-variant-east-asian:normal;fill:#658dd8;fill-opacity:1;stroke-width:5.8924"
       x="13.839767"
       y="129.07295"
       sodipodi:role="line">2</tspan></text>
  <path
     id="Auswahl-47-8"
     fill="none"
     stroke="#000000"
     stroke-width="1"
     d="m 173.2841,402.86766 18.12455,-16.51387 c 15.96253,-12.97429 22.89757,-14.17383 32.91395,-17.22273 11.55894,-1.49226 34.29065,-10.29677 50.39599,22.47324 4.74807,9.66849 6.53794,26.24168 6.50027,44.37976 -2.54192,37.35078 -14.46643,55.059 -57.55221,92.68871 -33.03826,30.05912 -44.78031,78.13307 -44.78031,78.13307 0,0 -49.47317,-38.63994 -62.12337,-52.10404 -40.809848,-42.74822 -46.341554,-46.70183 -56.276011,-91.55197 -6.26545,-39.24642 2.3516,-78.34558 23.240862,-97.44003 24.413679,-17.87672 69.193349,-22.02155 80.912249,12.92649 3.52236,10.15607 5.90363,16.94831 8.64403,24.23137 z"
     sodipodi:nodetypes="cccccccccccc"
     style="fill:#658dd8;fill-opacity:1;stroke-width:4.43437;stroke-dasharray:none" />
  <path
     id="Auswahl-47-8-9"
     fill="none"
     stroke="#000000"
     stroke-width="1"
     d="m 337.35099,130.98677 18.12455,-16.51387 c 15.96253,-12.97429 22.89757,-14.17383 32.91395,-17.22273 11.55894,-1.49226 34.29065,-10.29677 50.39599,22.47324 4.74807,9.66849 6.53794,26.24168 6.50027,44.37976 -2.54192,37.35078 -14.46643,55.059 -57.55221,92.68871 -33.03826,30.05912 -44.78031,78.13307 -44.78031,78.13307 0,0 -49.47317,-38.63994 -62.12337,-52.10404 -40.80985,-42.74822 -46.34155,-46.70183 -56.27601,-91.55197 -6.26545,-39.24642 2.3516,-78.34558 23.24086,-97.44003 24.41368,-17.87672 69.19335,-22.02155 80.91225,12.92649 3.52236,10.15607 5.90363,16.94831 8.64403,24.23137 z"
     sodipodi:nodetypes="cccccccccccc"
     style="fill:#658dd8;fill-opacity:1;stroke-width:4.43437;stroke-dasharray:none" />
  <path
     id="Auswahl-47-8-9-9"
     fill="none"
     stroke="#000000"
     stroke-width="1"
     d="m 72.199937,162.15376 8.28144,-7.20538 c 7.29358,-5.66097 10.46232,-6.18436 15.03899,-7.51466 5.281503,-0.6511 15.668033,-4.49271 23.026863,9.80558 2.16948,4.21858 2.9873,11.44983 2.97009,19.36388 -1.16145,16.29698 -6.60998,24.02347 -26.296663,40.44216 -15.09579,13.11546 -20.46095,34.0912 -20.46095,34.0912 0,0 -22.6052,-16.85947 -28.38531,-22.73415 -18.64678,-18.65201 -21.17431,-20.37706 -25.71355,-39.94617 -2.8628,-17.12409 1.07449,-34.18393 10.61918,-42.51527 11.15506,-7.80001 31.61571,-9.6085 36.9703,5.64012 1.60943,4.43132 2.69747,7.39492 3.94961,10.57269 z"
     sodipodi:nodetypes="cccccccccccc"
     style="fill:#658dd8;fill-opacity:1;stroke-width:1.97995;stroke-dasharray:none" />
  <path
     id="Auswahl-47-8-9-9-5"
     fill="none"
     stroke="#000000"
     stroke-width="1"
     d="m 411.24513,550.03493 -8.28144,7.20538 c -7.29358,5.66097 -10.46232,6.18436 -15.03899,7.51466 -5.2815,0.6511 -15.66803,4.4927 -23.02686,-9.80558 -2.16948,-4.21858 -2.9873,-11.44983 -2.97009,-19.36388 1.16145,-16.29698 6.60998,-24.02347 26.29666,-40.44216 15.09579,-13.11546 20.46095,-34.0912 20.46095,-34.0912 0,0 22.6052,16.85946 28.38531,22.73414 18.64678,18.65201 21.17431,20.37707 25.71355,39.94617 2.8628,17.12409 -1.07449,34.18393 -10.61918,42.51527 -11.15506,7.80001 -31.61571,9.6085 -36.9703,-5.64012 -1.60943,-4.43132 -2.69747,-7.39492 -3.94961,-10.57268 z"
     sodipodi:nodetypes="cccccccccccc"
     style="fill:#658dd8;fill-opacity:1;stroke-width:1.97995;stroke-dasharray:none" />
</svg>
